<?xml version="1.0" encoding="utf-8"?>
<!-- Generator: Adobe Illustrator 22.1.0, SVG Export Plug-In . SVG Version: 6.00 Build 0)  -->
<svg version="1.1" id="圖層_1" xmlns="http://www.w3.org/2000/svg" xmlns:xlink="http://www.w3.org/1999/xlink" x="0px" y="0px"
	 viewBox="0 0 280.2 294.3" style="enable-background:new 0 0 280.2 294.3;" xml:space="preserve">
<style type="text/css">
	.st0{fill:#FFFFFF;}
	.st1{fill:none;}
	.st2{fill:url(#SVGID_1_);}
	.st3{fill:url(#SVGID_2_);}
</style>
<g>
	<polygon class="st0" points="131.7,156.8 78.2,156.8 102.9,106.8 43.3,106.8 0,194.3 59.6,194.3 44.2,294.3 	"/>
	<polygon class="st1" points="102.9,106.8 43.3,106.8 0,194.3 59.6,194.3 44.2,294.3 131.7,156.8 78.2,156.8 	"/>
	<polygon class="st1" points="102.9,106.8 43.3,106.8 0,194.3 59.6,194.3 44.2,294.3 131.7,156.8 78.2,156.8 	"/>
	<polygon class="st0" points="78.2,156.8 102.9,106.8 43.3,106.8 0,194.3 59.6,194.3 44.2,294.3 131.7,156.8 	"/>
	<linearGradient id="SVGID_1_" gradientUnits="userSpaceOnUse" x1="280.0908" y1="215.0575" x2="280.0878" y2="215.0629">
		<stop  offset="0" style="stop-color:#4F0E11"/>
		<stop  offset="0.1907" style="stop-color:#551014"/>
		<stop  offset="0.4485" style="stop-color:#66151D"/>
		<stop  offset="0.743" style="stop-color:#821E2B"/>
		<stop  offset="1" style="stop-color:#A1283A"/>
		<stop  offset="1" style="stop-color:#AF283E"/>
	</linearGradient>
	<line class="st2" x1="280.1" y1="215.1" x2="280.1" y2="215.1"/>
	<rect x="226.8" y="106.1" class="st1" width="27.7" height="27.7"/>
	<polygon class="st1" points="102.9,106.8 43.3,106.8 0,194.3 59.6,194.3 44.2,294.3 131.7,156.8 78.2,156.8 	"/>
	<path class="st0" d="M71.1,95.7h54l-24.7,50H154l-3.3,5.2h129.5v-28.6V89.1H98.9V78.9h181.3V25.6c0-14.1-11.5-25.6-25.6-25.6H96.7
		c-7.5,0-14.2,3.2-18.9,8.3c-3.1,3.4-5.3,7.5-6.2,12.2c-0.3,1.6-0.5,3.3-0.5,5.1V95.7z M226.8,106.1h27.7v27.7h-27.7V106.1z
		 M226.8,34.1h27.7v27.7h-27.7V34.1z"/>
	<polygon class="st0" points="78.2,156.8 102.9,106.8 43.3,106.8 0,194.3 59.6,194.3 44.2,294.3 131.7,156.8 	"/>
	<path class="st0" d="M144.2,161.1l-49.4,77.7c0.7,0,1.3,0.1,2,0.1h157.8c6.3,0,12-2.3,16.5-6.1l0,0c0,0,0,0,0,0
		c0.3-0.3,0.6-0.6,1-0.9c0.5-0.5,1-0.9,1.4-1.4c3.1-3.4,5.3-7.5,6.2-12.2c0.2-1.1,0.3-2.2,0.4-3.3l-8.9,17.5l8.9-17.5
		c0-0.6,0.1-1.2,0.1-1.8v-52.2H144.2z M254.6,205.8h-27.7v-27.7h27.7V205.8z"/>
	<polygon class="st0" points="131.7,156.8 78.2,156.8 102.9,106.8 43.3,106.8 0,194.3 59.6,194.3 44.2,294.3 	"/>
	<polygon class="st1" points="102.9,106.8 43.3,106.8 0,194.3 59.6,194.3 44.2,294.3 131.7,156.8 78.2,156.8 	"/>
	<polygon class="st1" points="102.9,106.8 43.3,106.8 0,194.3 59.6,194.3 44.2,294.3 131.7,156.8 78.2,156.8 	"/>
	<polygon class="st0" points="78.2,156.8 102.9,106.8 43.3,106.8 0,194.3 59.6,194.3 44.2,294.3 131.7,156.8 	"/>
	<linearGradient id="SVGID_2_" gradientUnits="userSpaceOnUse" x1="280.0908" y1="215.0575" x2="280.0878" y2="215.0629">
		<stop  offset="0" style="stop-color:#4F0E11"/>
		<stop  offset="0.1907" style="stop-color:#551014"/>
		<stop  offset="0.4485" style="stop-color:#66151D"/>
		<stop  offset="0.743" style="stop-color:#821E2B"/>
		<stop  offset="1" style="stop-color:#A1283A"/>
		<stop  offset="1" style="stop-color:#AF283E"/>
	</linearGradient>
	<line class="st3" x1="280.1" y1="215.1" x2="280.1" y2="215.1"/>
	<rect x="226.8" y="106.1" class="st1" width="27.7" height="27.7"/>
	<polygon class="st1" points="102.9,106.8 43.3,106.8 0,194.3 59.6,194.3 44.2,294.3 131.7,156.8 78.2,156.8 	"/>
	<path class="st0" d="M71.1,95.7h54l-24.7,50H154l-3.3,5.2h129.5v-28.6V89.1H98.9V78.9h181.3V25.6c0-14.1-11.5-25.6-25.6-25.6H96.7
		c-7.5,0-14.2,3.2-18.9,8.3c-3.1,3.4-5.3,7.5-6.2,12.2c-0.3,1.6-0.5,3.3-0.5,5.1V95.7z M226.8,106.1h27.7v27.7h-27.7V106.1z
		 M226.8,34.1h27.7v27.7h-27.7V34.1z"/>
	<polygon class="st0" points="78.2,156.8 102.9,106.8 43.3,106.8 0,194.3 59.6,194.3 44.2,294.3 131.7,156.8 	"/>
	<path class="st0" d="M144.2,161.1l-49.4,77.7c0.7,0,1.3,0.1,2,0.1h157.8c6.3,0,12-2.3,16.5-6.1l0,0c0,0,0,0,0,0
		c0.3-0.3,0.6-0.6,1-0.9c0.5-0.5,1-0.9,1.4-1.4c3.1-3.4,5.3-7.5,6.2-12.2c0.2-1.1,0.3-2.2,0.4-3.3l-8.9,17.5l8.9-17.5
		c0-0.6,0.1-1.2,0.1-1.8v-52.2H144.2z M254.6,205.8h-27.7v-27.7h27.7V205.8z"/>
</g>
</svg>
