<?xml version="1.0" encoding="utf-8"?>
<!-- Generator: Adobe Illustrator 22.1.0, SVG Export Plug-In . SVG Version: 6.00 Build 0)  -->
<svg version="1.1" id="圖層_1" xmlns="http://www.w3.org/2000/svg" xmlns:xlink="http://www.w3.org/1999/xlink" x="0px" y="0px"
	 viewBox="0 0 283.6 313.1" style="enable-background:new 0 0 283.6 313.1;" xml:space="preserve">
<style type="text/css">
	.st0{fill:#191919;}
	.st1{clip-path:url(#SVGID_2_);fill:#E79241;}
	.st2{fill:#FFFFFF;}
	.st3{fill:none;}
</style>
<g>
	<g>
		<path class="st0" d="M114,175.2c0-0.4,0-0.7,0.1-1.1C114,174.4,114,174.8,114,175.2z"/>
	</g>
	<g>
		<g>
			<defs>
				<path id="SVGID_1_" d="M114.2,173L114.2,173c-0.1,0.4-0.1,0.7-0.2,1.1C114.1,173.7,114.1,173.3,114.2,173z"/>
			</defs>
			<clipPath id="SVGID_2_">
				<use xlink:href="#SVGID_1_"  style="overflow:visible;"/>
			</clipPath>
			<rect x="114" y="173" class="st1" width="0.2" height="1.1"/>
		</g>
	</g>
	<g>
		<path class="st2" d="M46.1,0c-6.8,0-12.4,5.5-12.4,12.4v17.1v22.3c0,6.8,5.5,12.4,12.4,12.4c6.8,0,12.4-5.5,12.4-12.4V29.5V12.4
			C58.5,5.5,53,0,46.1,0z"/>
	</g>
	<g>
		<path class="st2" d="M234.3,0C227.5,0,222,5.5,222,12.4v17.1v22.3c0,6.8,5.5,12.4,12.4,12.4c6.8,0,12.4-5.5,12.4-12.4V29.5V12.4
			C246.7,5.5,241.2,0,234.3,0z"/>
	</g>
	<g>
		<g>
			<path class="st2" d="M75.1,257.8l6.6-8.7c5.1,5.2,11.6,9.6,20.5,9.6c9.8,0,16.5-5.4,16.5-14.4c0-9.7-6.1-15.9-25.7-15.9v-10
				c17.1,0,22.8-6.5,22.8-15.2c0-7.7-5.1-12.5-13.3-12.6c-6.7,0.1-12.4,3.4-17.3,8.3l-7.1-8.5c6.8-6.1,14.9-10.5,24.9-10.5
				c15.6,0,26.5,8,26.5,22.4c0,10-5.8,17-15,20.4v0.6c10,2.5,17.9,10,17.9,21.7c0,15.7-13.1,24.9-29,24.9
				C89.7,269.7,80.9,264.3,75.1,257.8z"/>
		</g>
		<g>
			<path class="st2" d="M144.6,224.4c0-30.1,11-44.7,28.1-44.7c17,0,28.1,14.7,28.1,44.7c0,30.2-11.1,45.3-28.1,45.3
				C155.6,269.7,144.6,254.6,144.6,224.4z M187.8,224.4c0-24.9-6.3-34-15.1-34s-15.1,9.1-15.1,34c0,25.1,6.3,34.6,15.1,34.6
				S187.8,249.5,187.8,224.4z"/>
		</g>
	</g>
	<path class="st3" d="M215.7,139.3H16.1v150.9c0,3.7,3,6.7,6.7,6.7h46.8v0h191c3.7,0,6.7-3,6.7-6.7v-83.4h0v-53.2l-0.1-14.4H215.7z"
		/>
	<rect x="107.3" y="105.4" class="st2" width="15.6" height="2.9"/>
	<rect x="174" y="81.2" class="st2" width="4.5" height="9.1"/>
	<path class="st2" d="M122.9,113h-15.6c-0.1,1-0.1,2-0.2,2.9h15.8V113z"/>
	<rect x="83.8" y="113.8" class="st2" width="5.9" height="7"/>
	<path class="st2" d="M197.9,105H191c0.9,2.8,2,5.4,3.5,7.9C195.9,110.4,197,107.9,197.9,105z"/>
	<path class="st2" d="M260.7,29.5h-0.4h-0.6h0h-6v22.3c0,10.7-8.7,19.4-19.4,19.4c-10.7,0-19.4-8.7-19.4-19.4V29.5h-4.2H70.8h-5.2
		v22.3c0,10.7-8.7,19.4-19.4,19.4c-10.7,0-19.4-8.7-19.4-19.4V29.5H24h-1.1C10.3,29.5,0,39.7,0,52.3v237.9
		c0,12.6,10.3,22.9,22.9,22.9H63h157.6h40.1c12.6,0,22.9-10.3,22.9-22.9v-64.5v-18.9V52.3C283.6,39.7,273.3,29.5,260.7,29.5z
		 M186.7,89.9h11.1v-8.6h-11.1v-6.1h17.7V96h-17.7V89.9z M185.1,99.1h15.1l1.1-0.2l4.1,1.2c-1.3,7.5-3.6,13.5-6.8,18.1
		c2.6,2.7,5.8,4.9,9.4,6.3c-1.3,1.3-3.3,3.7-4.2,5.4c-3.7-1.6-6.8-4-9.4-6.9c-3.2,3-6.8,5.2-11.2,7c-0.7-1.6-2.3-4-3.6-5.3
		c4.2-1.4,7.9-3.7,10.9-6.8c-2.1-3.6-3.8-7.6-5.1-12.1l3.6-0.9h-4V99.1z M167.4,75.2h17.4v21H174v4.6h9.7v5.9H174v5.2h10.5v6H174
		v11.8h-6.6V75.2z M159.9,73l6.8,1.6c-1,4-2.2,8.2-3.7,12.1v43.1h-6.9v-29.3c-0.9,1.3-1.8,2.6-2.8,3.7c-0.4-1.8-2.3-5.9-3.5-7.7
		C154.5,90.9,158,82,159.9,73z M97.9,92.5h13.5v-2.7h-11.1V85h11.1v-2.4H98.8v-5.2h12.6v-4.4h7v4.4h13.3v5.2h-13.3V85h12.1v4.8
		h-12.1v2.7h14.1v5.2H97.9V92.5z M106.4,120.6c-0.7,3.5-2.1,7-4.4,9.7c-1-1.3-3.7-3.8-5.1-4.6c3.6-4.3,4-10,4-14.7v-10.8h28.8v23.1
		c0,3-0.5,4.6-2.7,5.5c-2,0.9-4.9,1-8.7,1c-0.2-1.7-1.1-4.1-1.9-5.7c2.3,0.1,4.8,0.1,5.5,0.1c0.8,0,1-0.2,1-0.9v-2.6H106.4z
		 M76,82.8h9.3c-0.5-2.3-1.8-5.5-2.9-8l6.1-1.8c1.2,2.6,2.6,6,3.3,8.1L87,82.8h10.6v5.7H76V82.8z M96,108.1v18.4H83.8v2.4h-6.2
		v-20.8H96z M77.6,105v-5.5h18.3v5.5H77.6z M77.7,96.7v-5.5H96v5.5H77.7z M267.5,206.8L267.5,206.8l0,83.4c0,3.7-3,6.7-6.7,6.7h-191
		v0H22.9c-3.7,0-6.7-3-6.7-6.7V139.3h199.5h51.7l0.1,14.4V206.8z"/>
</g>
</svg>
