<?xml version="1.0" encoding="utf-8"?>
<!-- Generator: Adobe Illustrator 16.0.0, SVG Export Plug-In . SVG Version: 6.00 Build 0)  -->
<!DOCTYPE svg PUBLIC "-//W3C//DTD SVG 1.1//EN" "http://www.w3.org/Graphics/SVG/1.1/DTD/svg11.dtd">
<svg version="1.1" id="Layer_1" xmlns="http://www.w3.org/2000/svg" xmlns:xlink="http://www.w3.org/1999/xlink" x="0px" y="0px"
	 width="350.227px" height="711.805px" viewBox="0 0 350.227 711.805" enable-background="new 0 0 350.227 711.805"
	 xml:space="preserve">
<g>
	<rect x="8.753" y="136.71" fill="#ECF2F2" width="288.702" height="190.21"/>
	<path fill="#60BCCE" d="M284.832,32.188h-0.409h-10.936h-0.031h-6.539v24.316c0,11.708-9.524,21.232-21.229,21.232
		c-11.71,0-21.234-9.524-21.234-21.232V32.188h-4.592H91.046h-5.688v24.316c0,11.708-9.525,21.232-21.231,21.232
		c-11.708,0-21.233-9.524-21.233-21.232V32.188H37.45H26.164h-1.188C11.205,32.188,0,43.392,0,57.164v259.859
		c0,13.773,11.205,24.975,24.978,24.975h222.277c-3.279-5.403-5.773-11.344-7.341-17.641H24.978c-4.045,0-7.336-3.289-7.336-7.334
		V140.125h217.967h56.438l0.124,15.686v89.23c1.172-0.063,2.348-0.104,3.538-0.104c4.848,0,9.563,0.561,14.102,1.581V57.164
		C309.81,43.392,298.605,32.188,284.832,32.188z"/>
	<path fill="#006678" d="M64.125,0c-7.463,0-13.515,6.05-13.515,13.512v18.677v24.316c0,7.462,6.052,13.514,13.515,13.514
		s13.511-6.05,13.511-13.514V32.188V13.511C77.636,6.05,71.588,0,64.125,0z"/>
	<path fill="#006678" d="M245.688,0c-7.464,0-13.515,6.05-13.515,13.512v18.677v24.316c0,7.462,6.051,13.514,13.515,13.514
		c7.462,0,13.51-6.05,13.51-13.514V32.188V13.511C259.197,6.05,253.149,0,245.688,0z"/>
	<path fill="#006678" d="M303.823,244.561c-4.225-0.954-8.613-1.471-13.13-1.471c-1.104,0-2.201,0.034-3.293,0.092
		c-31.346,1.713-56.233,27.664-56.233,59.432c0,4.975,0.616,9.799,1.765,14.421c1.461,5.858,3.781,11.387,6.833,16.42
		c10.438,17.199,29.343,28.689,50.93,28.689c32.879,0,59.532-26.652,59.532-59.531C350.227,274.25,330.384,250.537,303.823,244.561z
		"/>
	
		<linearGradient id="SVGID_1_" gradientUnits="userSpaceOnUse" x1="379.6506" y1="36.5432" x2="467.8127" y2="36.5432" gradientTransform="matrix(1 0 0 -1 -132.6001 344.3491)">
		<stop  offset="0" style="stop-color:#F2F3F3"/>
		<stop  offset="0.4946" style="stop-color:#FFFFFF"/>
		<stop  offset="1" style="stop-color:#F2F3F3"/>
	</linearGradient>
	<polygon fill="url(#SVGID_1_)" points="280.394,340.094 247.05,306.753 257.563,296.235 281.146,319.823 325.448,275.517 
		335.212,285.279 	"/>
	<g>
		<text transform="matrix(1 0 0 1 77.8611 284.7263)" fill="#009999" font-family="'ArialMT'" font-size="138.531">30</text>
	</g>
	<text transform="matrix(1 0 0 1 82.03 121.6902)" fill="#FFFFFF" font-family="'MicrosoftJhengHeiBold'" font-size="64.7782">請 假</text>
	<defs>
		<filter id="Adobe_OpacityMaskFilter" filterUnits="userSpaceOnUse" x="6" y="371.999" width="307.823" height="339.806">
			<feFlood  style="flood-color:white;flood-opacity:1" result="back"/>
			<feBlend  in="SourceGraphic" in2="back" mode="normal"/>
		</filter>
	</defs>
	<mask maskUnits="userSpaceOnUse" x="6" y="371.999" width="307.823" height="339.806" id="SVGID_2_">
		<g filter="url(#Adobe_OpacityMaskFilter)">
			<linearGradient id="SVGID_3_" gradientUnits="userSpaceOnUse" x1="223.8333" y1="386.1248" x2="223.8333" y2="270.1075">
				<stop  offset="0" style="stop-color:#000000"/>
				<stop  offset="1" style="stop-color:#F1F3F3"/>
			</linearGradient>
			<rect x="-1.19" y="360.848" fill="url(#SVGID_3_)" width="450.047" height="405.041"/>
		</g>
	</mask>
	<g mask="url(#SVGID_2_)">
		<rect x="19.978" y="387.384" fill="#EBF1F1" width="279.569" height="189.222"/>
		<g>
			<g>
				<text transform="matrix(1 0 0 -1 82.8674 431.0779)" fill="#009999" font-family="'ArialMT'" font-size="138.531">30</text>
			</g>
		</g>
		<path fill="#036778" d="M69.787,711.804c-7.415,0-13.429-6.012-13.429-13.425v-18.558v-24.16c0-7.415,6.014-13.428,13.429-13.428
			c7.414,0,13.424,6.013,13.424,13.428v24.16v18.558C83.211,705.793,77.201,711.804,69.787,711.804z"/>
		<path fill="#036778" d="M250.185,711.804c-7.415,0-13.429-6.012-13.429-13.425v-18.558v-24.16c0-7.415,6.014-13.428,13.429-13.428
			c7.414,0,13.424,6.013,13.424,13.428v24.16v18.558C263.609,705.793,257.599,711.804,250.185,711.804z"/>
		<path fill="#62BBCE" d="M30.815,679.822h0.409H42.09h0.029h6.499v-24.16c0-11.633,9.462-21.098,21.095-21.098
			c11.633,0,21.096,9.465,21.096,21.098v24.16h4.562h127.991h5.653v-24.16c0-11.633,9.463-21.098,21.096-21.098
			s21.097,9.465,21.097,21.098v24.16h5.406h11.214h1.179c13.684,0,24.817-11.131,24.817-24.814V396.812
			c0-13.683-11.134-24.813-24.817-24.813H74.362c3.26,5.37,5.736,11.269,7.294,17.526h207.351c4.019,0,7.287,3.27,7.287,7.287
			v175.239H79.724H23.65l-0.123-15.585v-88.134c-1.167,0.063-2.335,0.102-3.515,0.102c-4.815,0-9.504-0.556-14.012-1.569v188.143
			C6,668.691,17.131,679.822,30.815,679.822z"/>
		<path fill="#62BBCE" d="M289.006,679.822H288.6h-10.868h-0.029h-6.495v-24.16c0-11.633-9.467-21.098-21.097-21.098
			c-11.633,0-21.099,9.465-21.099,21.098v24.16h-4.562H96.458h-5.649v-24.16c0-11.633-9.462-21.098-21.096-21.098
			c-11.633,0-21.098,9.465-21.098,21.098v24.16h-5.408H31.994h-1.179C17.131,679.822,6,668.691,6,655.008V396.812
			c0-13.683,11.131-24.813,24.815-24.813H245.46c-3.261,5.37-5.734,11.269-7.292,17.526H30.815c-4.018,0-7.288,3.27-7.288,7.287
			v175.239h216.571h56.073l0.126-15.585v-88.134c1.162,0.063,2.334,0.102,3.513,0.102c4.817,0,9.502-0.556,14.014-1.569v188.143
			C313.823,668.691,302.69,679.822,289.006,679.822z"/>
		<g>
			<text transform="matrix(1 0 0 -1 87.0359 588.114)" fill="#FFFFFF" font-family="'MicrosoftJhengHeiBold'" font-size="64.7782">請 假</text>
		</g>
	</g>
</g>
</svg>
