<?xml version="1.0" encoding="utf-8"?>
<!-- Generator: Adobe Illustrator 16.0.0, SVG Export Plug-In . SVG Version: 6.00 Build 0)  -->
<!DOCTYPE svg PUBLIC "-//W3C//DTD SVG 1.1//EN" "http://www.w3.org/Graphics/SVG/1.1/DTD/svg11.dtd">
<svg version="1.1" id="Layer_1" xmlns="http://www.w3.org/2000/svg" xmlns:xlink="http://www.w3.org/1999/xlink" x="0px" y="0px"
	 width="270.145px" height="643.577px" viewBox="0 0 270.145 643.577" enable-background="new 0 0 270.145 643.577"
	 xml:space="preserve">
<g>
	<g>
		<linearGradient id="SVGID_1_" gradientUnits="userSpaceOnUse" x1="135.0728" y1="106.4102" x2="135.0727" y2="360.4413">
			<stop  offset="0" style="stop-color:#DE2A27"/>
			<stop  offset="1" style="stop-color:#A51C17"/>
		</linearGradient>
		<path fill="url(#SVGID_1_)" d="M269.684,51.922c-28.693,0-51.959-23.239-52-51.922H52.632
			C52.589,28.684,29.326,51.922,0.636,51.922c-0.216,0-0.424-0.029-0.636-0.034v122.477c0,0,3.683,64.468,79.201,111.129
			c16.259,10.044,55.872,30.083,55.872,30.083s39.607-20.039,55.869-30.083c75.518-46.661,79.203-111.129,79.203-111.129V51.899
			C269.991,51.899,269.838,51.922,269.684,51.922z"/>
		<path fill="#FFFFFF" d="M219.245,143.516c0.086,1.542,0.135,3.092,0.135,4.653c0,46.489-37.818,84.31-84.31,84.31
			c-46.484,0-84.307-37.82-84.307-84.31c0-46.488,37.822-84.308,84.307-84.308c15.994,0,30.96,4.477,43.714,12.242l9.1-14.479
			c-15.393-9.427-33.479-14.869-52.814-14.869c-55.918,0-101.411,45.496-101.411,101.415c0,55.918,45.493,101.414,101.411,101.414
			c55.923,0,101.416-45.496,101.416-101.414c0-1.616-0.043-3.222-0.117-4.82L219.245,143.516z"/>
		<polygon fill="#FFFFFF" points="95.629,119.901 74.56,140.971 135.361,201.784 232.704,104.442 212.184,83.92 135.918,160.189 		
			"/>
	</g>
	<defs>
		<filter id="Adobe_OpacityMaskFilter" filterUnits="userSpaceOnUse" x="0" y="328" width="270.145" height="315.577">
			<feFlood  style="flood-color:white;flood-opacity:1" result="back"/>
			<feBlend  in="SourceGraphic" in2="back" mode="normal"/>
		</filter>
	</defs>
	<mask maskUnits="userSpaceOnUse" x="0" y="328" width="270.145" height="315.577" id="SVGID_2_">
		<g filter="url(#Adobe_OpacityMaskFilter)">
			<linearGradient id="SVGID_3_" gradientUnits="userSpaceOnUse" x1="152.3911" y1="408.4102" x2="152.3911" y2="-219.6408">
				<stop  offset="0" style="stop-color:#000000"/>
				<stop  offset="0.1506" style="stop-color:#464648"/>
				<stop  offset="0.4817" style="stop-color:#87898B"/>
				<stop  offset="0.9665" style="stop-color:#EAEBEC"/>
				<stop  offset="1" style="stop-color:#F2F3F3"/>
			</linearGradient>
			<rect x="-63.63" y="322.252" fill="url(#SVGID_3_)" width="432.042" height="332.876"/>
		</g>
	</mask>
	<g mask="url(#SVGID_2_)">
		
			<linearGradient id="SVGID_4_" gradientUnits="userSpaceOnUse" x1="135.0718" y1="1639.5898" x2="135.0718" y2="1893.6201" gradientTransform="matrix(1 0 0 -1 0 2176.7568)">
			<stop  offset="0" style="stop-color:#DE2A27"/>
			<stop  offset="1" style="stop-color:#A51C17"/>
		</linearGradient>
		<path fill="url(#SVGID_4_)" d="M269.684,591.654c-28.693,0-51.959,23.239-52,51.923H52.632
			c-0.043-28.684-23.306-51.923-51.996-51.923c-0.216,0-0.424,0.029-0.636,0.034V469.212c0,0,3.683-64.468,79.201-111.129
			C95.46,348.039,135.073,328,135.073,328s39.607,20.039,55.869,30.083c75.518,46.661,79.203,111.129,79.203,111.129v122.466
			C269.991,591.678,269.838,591.654,269.684,591.654z"/>
		<path fill="#FFFFFF" d="M219.245,500.062c0.086-1.542,0.135-3.092,0.135-4.653c0-46.489-37.818-84.31-84.31-84.31
			c-46.484,0-84.307,37.82-84.307,84.31c0,46.488,37.822,84.309,84.307,84.309c15.994,0,30.96-4.477,43.714-12.242l9.1,14.479
			c-15.393,9.427-33.479,14.868-52.814,14.868c-55.918,0-101.411-45.496-101.411-101.414s45.493-101.414,101.411-101.414
			c55.923,0,101.416,45.496,101.416,101.414c0,1.616-0.043,3.223-0.117,4.82L219.245,500.062z"/>
		<polygon fill="#FFFFFF" points="95.629,523.676 74.56,502.605 135.361,441.793 232.704,539.135 212.184,559.656 135.918,483.389 
					"/>
	</g>
</g>
</svg>
