<?xml version="1.0" encoding="utf-8"?>
<!-- Generator: Adobe Illustrator 22.1.0, SVG Export Plug-In . SVG Version: 6.00 Build 0)  -->
<svg version="1.1" id="Layer_1" xmlns="http://www.w3.org/2000/svg" xmlns:xlink="http://www.w3.org/1999/xlink" x="0px" y="0px"
	 viewBox="0 0 742 178" style="enable-background:new 0 0 742 178;" xml:space="preserve">
<style type="text/css">
	.st0{opacity:0.6;fill:#FFFFFF;}
	.st1{fill:#FFFFFF;}
</style>
<path class="st0" d="M694.5,80.1c0-10.3-3.9-20.7-11.8-28.6c-15.8-15.8-41.4-15.8-57.2,0c-7.8,7.8-11.7,17.9-11.8,28
	c0,0.2,0,0.4,0,0.5c0,0.2,0,0.4,0,0.5c-0.1,13.4-4.3,26.9-12.6,38.2c-2,2.7-4.2,5.3-6.6,7.7c-25.7,25.7-67.2,25.7-92.9,0
	c-12.8-12.8-19.2-29.6-19.2-46.4h25.3c0,10.3,3.9,20.7,11.8,28.6c15.8,15.8,41.4,15.8,57.2,0c7.8-7.8,11.7-17.9,11.8-28
	c0-0.2,0-0.4,0-0.5c0-0.2,0-0.4,0-0.5c0.1-13.4,4.3-26.9,12.6-38.2c2-2.7,4.2-5.3,6.6-7.7c25.7-25.7,67.2-25.7,92.9,0
	c12.8,12.8,19.2,29.6,19.2,46.4H694.5z"/>
<path class="st1" d="M694.5,80.1c0,10.3-3.9,20.7-11.8,28.6c-15.8,15.8-41.4,15.8-57.2,0c-7.8-7.8-11.7-17.9-11.8-28
	c0-0.2,0-0.4,0-0.5c0-0.2,0-0.4,0-0.5c-0.1-13.4-4.3-26.9-12.6-38.2c-2-2.7-4.2-5.3-6.6-7.7C568.8,8,527.2,8,501.5,33.7
	c-12.8,12.8-19.2,29.6-19.2,46.4h25.3c0-10.3,3.9-20.7,11.8-28.6c15.8-15.8,41.4-15.8,57.2,0c7.8,7.8,11.7,17.9,11.8,28
	c0,0.2,0,0.4,0,0.5c0,0.2,0,0.4,0,0.5c0.1,13.4,4.3,26.9,12.6,38.2c2,2.7,4.2,5.3,6.6,7.7c25.7,25.7,67.2,25.7,92.9,0
	c12.8-12.8,19.2-29.6,19.2-46.4H694.5z"/>
<path class="st1" d="M167.5,16.2h50.3c11.4,0,20.5,3.3,27.2,9.9c6.7,6.6,10.1,14.4,10.1,23.5c0,9.4-3.3,17.4-10,24
	c-6.6,6.7-15.7,10-27.2,10h-22.4v45.3h-28.1V16.2z M195.6,36.9V63h13.1c11.7,0,17.5-4.4,17.5-13.1c0-4.9-1.6-8.3-4.7-10.2
	c-3.1-1.9-8.4-2.9-16-2.9H195.6z"/>
<path class="st1" d="M294.2,16.2v112.7h-24V16.2H294.2z"/>
<path class="st1" d="M391.7,110.1v13.3c-8,4.6-15.4,6.9-22.4,6.9c-7.5,0-12-2.8-13.4-8.6c-8.3,5.7-16.7,8.6-25.1,8.6
	c-5.9,0-10.9-1.9-15.1-5.6c-4.1-3.7-6.2-8.1-6.2-13.1c0-6.6,2.1-12,6.4-16c4.3-4.1,17.2-9.3,38.9-15.7c0.5-8.5-3.9-12.8-13.2-12.8
	c-10.2,0-19.5,4.3-28.1,12.8V60.4c10-6.2,21-9.3,33-9.3c21.5,0,32.3,7.7,32.3,23.2v34.7c0,3.6,1.3,5.3,4,5.3
	C384.7,114.4,387.7,113,391.7,110.1z M354.8,110.4V92c-8,2.8-13.5,5.3-16.5,7.6c-3,2.2-4.5,5.1-4.5,8.5c0,2.2,0.8,4.1,2.3,5.7
	c1.5,1.6,3.3,2.4,5.5,2.4C346.1,116.2,350.5,114.3,354.8,110.4z"/>
<path class="st1" d="M470,52.8l-51,112.7h-25.5l22.4-49L386,52.8h25.6L427.7,92l17.2-39.2H470z"/>
<path class="st1" d="M140.8,126.5c-7.4,0-14.6-1.1-21.3-3.1c16.1-10.6,26.8-28.9,26.8-49.7c0-32.8-26.6-59.5-59.5-59.5
	c-3.5,0-7,0.3-10.3,0.9c-24,4.2-43,22.7-47.9,46.4c-0.8,3.9-1.2,8-1.2,12.1c0,32.8,26.6,59.5,59.5,59.5c0.7,0,1.3,0,2,0
	c15.6,8.1,33.2,12.9,51.8,13.5l5.9-20.3C144.5,126.4,142.7,126.5,140.8,126.5z M93.6,109.6c-2.2,0.4-4.5,0.7-6.9,0.7
	c-20.2,0-36.6-16.4-36.6-36.6c0-13,6.8-24.4,17-30.9c5.7-3.6,12.4-5.7,19.6-5.7c20.2,0,36.6,16.4,36.6,36.6
	C123.3,91.5,110.5,106.4,93.6,109.6z"/>
</svg>
