<?xml version="1.0" encoding="utf-8"?>
<!-- Generator: Adobe Illustrator 16.0.0, SVG Export Plug-In . SVG Version: 6.00 Build 0)  -->
<!DOCTYPE svg PUBLIC "-//W3C//DTD SVG 1.1//EN" "http://www.w3.org/Graphics/SVG/1.1/DTD/svg11.dtd">
<svg version="1.1" id="Layer_1" xmlns="http://www.w3.org/2000/svg" xmlns:xlink="http://www.w3.org/1999/xlink" x="0px" y="0px"
	 width="361.601px" height="564.711px" viewBox="0 0 361.601 564.711" enable-background="new 0 0 361.601 564.711"
	 xml:space="preserve">
<g>
	<rect x="65.584" y="214.357" fill="#0465AF" width="225.428" height="24.469"/>
	<g>
		<g>
			<path fill="#06A1C6" d="M213.443,38.975c0,21.529-15.144,38.98-33.838,38.98c-18.693,0-33.837-17.451-33.837-38.98
				C145.769,17.454,160.912,0,179.605,0C198.3,0,213.443,17.454,213.443,38.975z"/>
			<path fill="#06A1C6" d="M256.863,165.184c-1.699-33.455-35.972-71.748-78.117-71.748c-42.147,0-76.422,38.293-78.123,71.748"/>
		</g>
		<g>
			<path fill="#06A1C6" d="M272.611,76.854c0,21.529,16.303,38.979,36.414,38.979c20.113,0,36.422-17.45,36.422-38.979
				c0-21.522-16.309-38.973-36.422-38.973C288.914,37.881,272.611,55.331,272.611,76.854z"/>
			<path fill="#06A1C6" d="M328.666,129.709c-10.172,0.727-12.186,3.727-15.199,6.441l-0.021,0.15l-47.061,45.869l-48.971,5.78
				c-9.817,0-17.774,7.202-17.774,16.05c0,8.868,7.957,10.275,17.774,10.275h45.473l27.891-0.078l33.357-38.414l7.279,6.313
				l-31.275,36.02v31.408h-51.111c-11.74,0-21.518,8.449-23.977,19.734L199.21,384.797h38.993l25.66-84.836h67.883
				c10.658,0,19.643-6.988,23.053-16.71c1.689-3.647,2.691-7.674,2.691-11.95V158.956
				C357.49,143.129,347.549,128.35,328.666,129.709z"/>
		</g>
		<g>
			<path fill="#06A1C6" d="M84.882,76.854c0,21.529-16.308,38.979-36.419,38.979c-20.115,0-36.421-17.45-36.421-38.979
				c0-21.522,16.306-38.973,36.421-38.973C68.574,37.881,84.882,55.331,84.882,76.854z"/>
			<path fill="#06A1C6" d="M28.822,129.709c10.174,0.727,12.188,3.727,15.198,6.441l0.027,0.15l47.059,45.869l48.971,5.78
				c9.814,0,17.775,7.202,17.775,16.05c0,8.868-7.961,10.275-17.775,10.275H94.601l-27.89-0.078l-33.357-38.414l-7.279,6.313
				l31.276,36.02v31.408h51.112c11.738,0,21.52,8.449,23.973,19.734l25.846,115.539h-38.994l-25.664-84.836H25.739
				c-10.65,0-19.637-6.988-23.051-16.71C1.003,279.604,0,275.577,0,271.301V158.956C-0.001,143.129,9.942,128.35,28.822,129.709z"/>
		</g>
	</g>
	<defs>
		<filter id="Adobe_OpacityMaskFilter" filterUnits="userSpaceOnUse" x="4.111" y="391.723" width="357.49" height="172.988">
			<feColorMatrix  type="matrix" values="1 0 0 0 0  0 1 0 0 0  0 0 1 0 0  0 0 0 1 0"/>
		</filter>
	</defs>
	<mask maskUnits="userSpaceOnUse" x="4.111" y="391.723" width="357.49" height="172.988" id="SVGID_1_">
		<g filter="url(#Adobe_OpacityMaskFilter)">
			
				<linearGradient id="SVGID_2_" gradientUnits="userSpaceOnUse" x1="495.0195" y1="-667.2627" x2="495.0195" y2="-749.7985" gradientTransform="matrix(1 0 0 -1 -261.5996 -311.9004)">
				<stop  offset="0" style="stop-color:#FFFFFF"/>
				<stop  offset="0.3168" style="stop-color:#ADADAD"/>
				<stop  offset="1" style="stop-color:#000000"/>
			</linearGradient>
			<rect x="12.92" y="319.831" fill="url(#SVGID_2_)" width="441" height="239.716"/>
		</g>
	</mask>
	<g mask="url(#SVGID_1_)">
		<rect x="69.695" y="457.348" fill="#1E5E61" width="225.428" height="10.998"/>
		<g>
			<g>
				<path fill="#06A1C6" d="M217.554,547.189c0-9.678-15.144-17.523-33.837-17.523s-33.836,7.846-33.836,17.523
					c0,9.677,15.143,17.521,33.836,17.521S217.554,556.866,217.554,547.189z"/>
				<path fill="#06A1C6" d="M260.977,490.454c-1.701,15.04-35.973,32.255-78.119,32.255c-42.147,0-76.42-17.215-78.121-32.255"/>
			</g>
			<g>
				<path fill="#06A1C6" d="M276.723,530.162c0-9.68,16.303-17.523,36.414-17.523c20.115,0,36.424,7.846,36.424,17.523
					c0,9.675-16.309,17.52-36.424,17.52C293.025,547.682,276.723,539.837,276.723,530.162z"/>
				<path fill="#06A1C6" d="M332.777,506.4c-10.172-0.328-12.186-1.676-15.197-2.896l-0.021-0.066l-47.063-20.621l-48.969-2.598
					c-9.817,0-17.775-3.238-17.775-7.217c0-3.986,7.958-4.617,17.775-4.617h45.471l27.894,0.034l33.356,17.271l7.277-2.84
					l-31.274-16.192v-14.12h-51.11c-11.74,0-21.52-3.798-23.979-8.871l-0.617,0.111l-25.223-52.055h38.992l25.661,38.142h67.884
					c10.655,0,19.643,3.142,23.053,7.51c1.688,1.642,2.688,3.451,2.688,5.374v50.505C361.602,500.367,351.66,507.012,332.777,506.4z
					"/>
			</g>
			<g>
				<path fill="#06A1C6" d="M88.994,530.162c0-9.68-16.307-17.523-36.42-17.523c-20.114,0-36.42,7.846-36.42,17.523
					c0,9.675,16.306,17.52,36.42,17.52C72.688,547.682,88.994,539.837,88.994,530.162z"/>
				<path fill="#06A1C6" d="M32.934,506.4c10.176-0.328,12.188-1.676,15.197-2.896l0.027-0.066l47.06-20.621l48.972-2.598
					c9.813,0,17.774-3.238,17.774-7.217c0-3.986-7.961-4.617-17.774-4.617H98.713l-27.891,0.034l-33.356,17.271l-7.279-2.84
					l31.276-16.192v-14.12h51.111c11.74,0,21.52-3.798,23.974-8.871l0.618,0.111l25.229-52.055h-38.996l-25.664,38.142H29.851
					c-10.651,0-19.638,3.142-23.052,7.51c-1.685,1.642-2.688,3.451-2.688,5.374v50.505C4.111,500.367,14.054,507.012,32.934,506.4z"
					/>
			</g>
		</g>
	</g>
</g>
</svg>
