<?xml version="1.0" encoding="utf-8"?>
<!-- Generator: Adobe Illustrator 16.0.0, SVG Export Plug-In . SVG Version: 6.00 Build 0)  -->
<!DOCTYPE svg PUBLIC "-//W3C//DTD SVG 1.1//EN" "http://www.w3.org/Graphics/SVG/1.1/DTD/svg11.dtd">
<svg version="1.1" id="Layer_1" xmlns="http://www.w3.org/2000/svg" xmlns:xlink="http://www.w3.org/1999/xlink" x="0px" y="0px"
	 width="160px" height="172px" viewBox="0 0 160 172" enable-background="new 0 0 160 172" xml:space="preserve">
<g>
	<linearGradient id="SVGID_1_" gradientUnits="userSpaceOnUse" x1="50.7778" y1="42.9302" x2="132.2344" y2="124.3867">
		<stop  offset="0" style="stop-color:#4A2F80"/>
		<stop  offset="1" style="stop-color:#066D93"/>
	</linearGradient>
	<path fill="url(#SVGID_1_)" d="M157.729,145.632c-3.869,1.31-8.324,1.967-13.373,1.967c-12.979,0-25.432-3.428-37.363-10.275
		c15.668-4.911,28.105-13.561,37.318-25.95c9.207-12.386,13.814-25.983,13.814-40.789c0-18.284-7.246-34.535-21.732-48.752
		C121.902,7.612,103.025,0.5,79.756,0.5c-3.505,0-6.902,0.186-10.219,0.519C51.134,2.864,35.605,9.806,22.97,21.889
		c-1.91,1.822-3.692,3.689-5.356,5.594C6.274,40.442,0.6,55.211,0.6,71.788c0,7.865,1.377,15.504,4.128,22.91
		c2.493,6.752,6.065,13.045,10.721,18.881c4.328,5.508,9.343,10.291,15.043,14.354c2.899,2.071,5.863,3.89,8.891,5.468
		c2.721,1.422,5.489,2.652,8.316,3.676c7.211,2.621,13.436,5.67,18.682,9.145c7.079,4.652,14.224,8.717,21.438,12.192
		c7.602,3.603,15.109,6.491,22.514,8.653c7.865,2.293,15.469,3.703,22.814,4.228l26.744-22.811L157.729,145.632z M79.361,113.479
		c-6.103,0-11.643-0.857-16.635-2.553c-5.676-1.926-10.639-4.936-14.878-9.051c-0.573-0.555-1.117-1.126-1.647-1.705
		c-6.863-7.502-10.3-17.094-10.3-28.777c0-5.059,0.646-9.72,1.921-14c1.912-6.42,5.245-11.965,10.026-16.629
		c7.964-7.767,18.469-11.651,31.513-11.651c0.344,0,0.674,0.016,1.01,0.02c12.195,0.202,22.265,4.007,30.21,11.438
		c8.158,7.633,12.24,17.912,12.24,30.822c0,12.785-4.035,22.995-12.096,30.631C102.664,109.661,92.209,113.479,79.361,113.479z"/>
	<g opacity="0.4">
		
			<image overflow="visible" width="562" height="535" xlink:href="EFFA0E0E.png"  transform="matrix(0.24 0 0 0.24 -18.3862 -34.981)">
		</image>
	</g>
	<g opacity="0.3">
		
			<image overflow="visible" width="414" height="373" xlink:href="EFFA0E12.png"  transform="matrix(0.24 0 0 0.24 -5.5146 -23.416)">
		</image>
	</g>
	<g opacity="0.4">
		
			<image overflow="visible" width="538" height="570" xlink:href="EFFA0E15.png"  transform="matrix(0.24 0 0 0.24 62.6055 30.856)">
		</image>
	</g>
</g>
</svg>
