<?xml version="1.0" encoding="utf-8"?>
<!-- Generator: Adobe Illustrator 16.0.0, SVG Export Plug-In . SVG Version: 6.00 Build 0)  -->
<!DOCTYPE svg PUBLIC "-//W3C//DTD SVG 1.1//EN" "http://www.w3.org/Graphics/SVG/1.1/DTD/svg11.dtd">
<svg version="1.1" id="Layer_1" xmlns="http://www.w3.org/2000/svg" xmlns:xlink="http://www.w3.org/1999/xlink" x="0px" y="0px"
	 width="275.19px" height="542.906px" viewBox="0 0 275.19 542.906" enable-background="new 0 0 275.19 542.906"
	 xml:space="preserve">
<g>
	<g>
		<linearGradient id="SVGID_1_" gradientUnits="userSpaceOnUse" x1="245.291" y1="46.4258" x2="245.291" y2="243.1129">
			<stop  offset="0" style="stop-color:#85D2DC"/>
			<stop  offset="1" style="stop-color:#95BFE6"/>
		</linearGradient>
		<path fill="url(#SVGID_1_)" d="M248.109,63.652c-0.881-1.54-1.798-3.055-2.738-4.556l-2.897,4.608L248.109,63.652z"/>
		<linearGradient id="SVGID_2_" gradientUnits="userSpaceOnUse" x1="243.6738" y1="46.4258" x2="243.6738" y2="243.1139">
			<stop  offset="0" style="stop-color:#85D2DC"/>
			<stop  offset="1" style="stop-color:#95BFE6"/>
		</linearGradient>
		<path fill="url(#SVGID_2_)" d="M259.329,89.547l13.017-13.02c3.747-3.745,3.8-9.768,0.116-13.453l-32.797-32.795
			c-3.684-3.685-9.71-3.629-13.452,0.117L212.156,44.45l46.272,46.276l1.044-1.043L259.329,89.547z"/>
		<linearGradient id="SVGID_3_" gradientUnits="userSpaceOnUse" x1="185.7998" y1="46.4258" x2="185.7998" y2="243.1147">
			<stop  offset="0" style="stop-color:#85D2DC"/>
			<stop  offset="1" style="stop-color:#95BFE6"/>
		</linearGradient>
		<path fill="url(#SVGID_3_)" d="M204.412,52.193l1.34-1.342l-83.641,83.644l-0.988,0.99l-0.208,46.065l46.482,0.202l83.287-83.282
			L204.412,52.193z M188.937,129.137l37.87-37.869l7.664,7.664l-37.87,37.869L188.937,129.137z"/>
		<g>
			<linearGradient id="SVGID_4_" gradientUnits="userSpaceOnUse" x1="83.6406" y1="46.4258" x2="83.6406" y2="243.1144">
				<stop  offset="0" style="stop-color:#85D2DC"/>
				<stop  offset="1" style="stop-color:#95BFE6"/>
			</linearGradient>
			<rect x="60.413" y="174.299" fill="url(#SVGID_4_)" width="46.455" height="10.839"/>
		</g>
		<g>
			<linearGradient id="SVGID_5_" gradientUnits="userSpaceOnUse" x1="83.6406" y1="46.4258" x2="83.6406" y2="243.1145">
				<stop  offset="0" style="stop-color:#85D2DC"/>
				<stop  offset="1" style="stop-color:#95BFE6"/>
			</linearGradient>
			<rect x="60.413" y="128.23" fill="url(#SVGID_5_)" width="46.455" height="10.84"/>
		</g>
		<g>
			<linearGradient id="SVGID_6_" gradientUnits="userSpaceOnUse" x1="103.3838" y1="46.4219" x2="103.3838" y2="243.1282">
				<stop  offset="0" style="stop-color:#85D2DC"/>
				<stop  offset="1" style="stop-color:#95BFE6"/>
			</linearGradient>
			<rect x="60.413" y="82.164" fill="url(#SVGID_6_)" width="85.941" height="10.84"/>
		</g>
		<linearGradient id="SVGID_7_" gradientUnits="userSpaceOnUse" x1="133.3262" y1="46.4248" x2="133.3262" y2="243.1131">
			<stop  offset="0" style="stop-color:#85D2DC"/>
			<stop  offset="1" style="stop-color:#95BFE6"/>
		</linearGradient>
		<path fill="url(#SVGID_7_)" d="M231.308,192.062c-32.386,54.021-102.684,71.624-156.706,39.237
			C20.582,198.918,2.979,128.621,35.36,74.598c31.176-52.004,97.485-70.24,150.589-42.631c0.245-0.172,0.515-0.325,0.762-0.492
			l9.456-15.773C133.94-17.587,55.621,3.583,18.947,64.762c-37.808,63.07-17.252,145.145,45.817,182.953
			c63.071,37.811,145.146,17.256,182.955-45.814c14.173-23.645,20.136-49.953,18.732-75.6h-19.158
			C248.7,148.586,243.633,171.5,231.308,192.062z"/>
	</g>
	<defs>
		<filter id="Adobe_OpacityMaskFilter" filterUnits="userSpaceOnUse" x="0" y="276.243" width="275.19" height="266.663">
			<feFlood  style="flood-color:white;flood-opacity:1" result="back"/>
			<feBlend  in="SourceGraphic" in2="back" mode="normal"/>
		</filter>
	</defs>
	<mask maskUnits="userSpaceOnUse" x="0" y="276.243" width="275.19" height="266.663" id="SVGID_8_">
		<g filter="url(#Adobe_OpacityMaskFilter)">
			<linearGradient id="SVGID_9_" gradientUnits="userSpaceOnUse" x1="130.666" y1="316.6182" x2="130.666" y2="-28.9681">
				<stop  offset="0" style="stop-color:#000000"/>
				<stop  offset="1" style="stop-color:#FFFFFF"/>
			</linearGradient>
			<rect x="-36.589" y="262.664" fill="url(#SVGID_9_)" width="334.512" height="289.191"/>
		</g>
	</mask>
	<g mask="url(#SVGID_8_)">
		
			<linearGradient id="SVGID_10_" gradientUnits="userSpaceOnUse" x1="245.293" y1="-638.187" x2="245.293" y2="-441.5416" gradientTransform="matrix(1 0 0 -1 0 -141.7109)">
			<stop  offset="0" style="stop-color:#85D2DC"/>
			<stop  offset="1" style="stop-color:#95BFE6"/>
		</linearGradient>
		<path fill="url(#SVGID_10_)" d="M248.109,479.256c-0.881,1.537-1.798,3.055-2.738,4.553l-2.897-4.607L248.109,479.256z"/>
		
			<linearGradient id="SVGID_11_" gradientUnits="userSpaceOnUse" x1="243.6738" y1="-638.1914" x2="243.6738" y2="-441.5018" gradientTransform="matrix(1 0 0 -1 0 -141.7109)">
			<stop  offset="0" style="stop-color:#85D2DC"/>
			<stop  offset="1" style="stop-color:#95BFE6"/>
		</linearGradient>
		<path fill="url(#SVGID_11_)" d="M259.329,453.359l13.017,13.02c3.747,3.746,3.8,9.768,0.116,13.453l-32.797,32.795
			c-3.684,3.686-9.71,3.631-13.452-0.117l-14.057-14.053l46.272-46.277l1.044,1.043L259.329,453.359z"/>
		
			<linearGradient id="SVGID_12_" gradientUnits="userSpaceOnUse" x1="185.8008" y1="-638.1909" x2="185.8008" y2="-441.5035" gradientTransform="matrix(1 0 0 -1 0 -141.7109)">
			<stop  offset="0" style="stop-color:#85D2DC"/>
			<stop  offset="1" style="stop-color:#95BFE6"/>
		</linearGradient>
		<path fill="url(#SVGID_12_)" d="M250.685,444.436l-83.287-83.281l-46.482,0.201l0.208,46.066l0.988,0.99l83.641,83.643
			l-1.34-1.342L250.685,444.436z M196.601,406.105l37.87,37.869l-7.664,7.666l-37.87-37.871L196.601,406.105z"/>
		<g>
			
				<linearGradient id="SVGID_13_" gradientUnits="userSpaceOnUse" x1="83.6416" y1="-638.1792" x2="83.6416" y2="-441.5083" gradientTransform="matrix(1 0 0 -1 0 -141.7109)">
				<stop  offset="0" style="stop-color:#85D2DC"/>
				<stop  offset="1" style="stop-color:#95BFE6"/>
			</linearGradient>
			<rect x="60.413" y="357.77" fill="url(#SVGID_13_)" width="46.455" height="10.838"/>
		</g>
		<g>
			
				<linearGradient id="SVGID_14_" gradientUnits="userSpaceOnUse" x1="83.6416" y1="-638.1909" x2="83.6416" y2="-441.5022" gradientTransform="matrix(1 0 0 -1 0 -141.7109)">
				<stop  offset="0" style="stop-color:#85D2DC"/>
				<stop  offset="1" style="stop-color:#95BFE6"/>
			</linearGradient>
			<rect x="60.413" y="403.836" fill="url(#SVGID_14_)" width="46.455" height="10.84"/>
		</g>
		<g>
			
				<linearGradient id="SVGID_15_" gradientUnits="userSpaceOnUse" x1="103.3848" y1="-638.1948" x2="103.3848" y2="-441.4885" gradientTransform="matrix(1 0 0 -1 0 -141.7109)">
				<stop  offset="0" style="stop-color:#85D2DC"/>
				<stop  offset="1" style="stop-color:#95BFE6"/>
			</linearGradient>
			<rect x="60.413" y="449.902" fill="url(#SVGID_15_)" width="85.941" height="10.84"/>
		</g>
		
			<linearGradient id="SVGID_16_" gradientUnits="userSpaceOnUse" x1="133.3262" y1="-638.1914" x2="133.3262" y2="-441.5027" gradientTransform="matrix(1 0 0 -1 0 -141.7109)">
			<stop  offset="0" style="stop-color:#85D2DC"/>
			<stop  offset="1" style="stop-color:#95BFE6"/>
		</linearGradient>
		<path fill="url(#SVGID_16_)" d="M231.308,350.846c-32.386-54.021-102.684-71.625-156.706-39.238
			C20.582,343.99,2.979,414.287,35.36,468.309c31.176,52.004,97.485,70.24,150.589,42.631c0.245,0.17,0.515,0.326,0.762,0.494
			l9.456,15.771c-62.227,33.289-140.546,12.117-177.22-49.059C-18.861,415.074,1.694,333,64.764,295.191
			c63.071-37.811,145.146-17.256,182.955,45.814c14.173,23.646,20.136,49.953,18.732,75.602h-19.158
			C248.7,394.32,243.633,371.406,231.308,350.846z"/>
	</g>
</g>
</svg>
