<?xml version="1.0" encoding="utf-8"?>
<!-- Generator: Adobe Illustrator 16.0.0, SVG Export Plug-In . SVG Version: 6.00 Build 0)  -->
<!DOCTYPE svg PUBLIC "-//W3C//DTD SVG 1.1//EN" "http://www.w3.org/Graphics/SVG/1.1/DTD/svg11.dtd">
<svg version="1.1" id="Layer_1" xmlns="http://www.w3.org/2000/svg" xmlns:xlink="http://www.w3.org/1999/xlink" x="0px" y="0px"
	 width="360.559px" height="384.23px" viewBox="0 0 360.559 384.23" enable-background="new 0 0 360.559 384.23"
	 xml:space="preserve">
<g>
	<path fill="#96C64B" d="M285.234,51.626h-98.729c-22.697,0-43.036,10.054-56.845,25.935c-11.501,13.224-18.48,30.486-18.48,49.387
		c0,41.606,33.727,75.326,75.325,75.326h53.193l45.964,45.958v-45.958h-0.428c16.601,0,31.938-5.383,44.389-14.481
		c14.248-10.411,24.689-25.7,28.888-43.419c0.127-0.536,0.255-1.071,0.372-1.611c1.091-5.101,1.676-10.389,1.676-15.814
		C360.559,85.35,326.832,51.626,285.234,51.626z"/>
	<path fill="#5FBB46" d="M200.987,0H86.979C38.945,0,0,38.942,0,86.977c0,48.045,38.945,86.986,86.979,86.986h0.245v53.067
		l53.076-53.067h60.687c48.038,0,86.981-38.941,86.981-86.986C287.969,38.942,249.025,0,200.987,0z"/>
	<g>
		<linearGradient id="SVGID_1_" gradientUnits="userSpaceOnUse" x1="112.6201" y1="90.4824" x2="133.1328" y2="90.4824">
			<stop  offset="0" style="stop-color:#F2F3F3"/>
			<stop  offset="0.4946" style="stop-color:#FFFFFF"/>
			<stop  offset="1" style="stop-color:#F2F3F3"/>
		</linearGradient>
		<path fill="url(#SVGID_1_)" d="M112.62,73.07c0-2.796,1.005-5.199,3.017-7.211c2.01-2.012,4.413-3.017,7.211-3.017
			c2.835,0,5.257,1.005,7.269,3.017s3.017,4.415,3.017,7.211c0,2.797-1.005,5.201-3.017,7.213s-4.434,3.016-7.269,3.016
			c-2.798,0-5.201-1.004-7.211-3.016C113.625,78.271,112.62,75.867,112.62,73.07z M112.62,107.894c0-2.796,1.005-5.199,3.017-7.212
			c2.01-2.011,4.413-3.016,7.211-3.016c2.835,0,5.257,1.005,7.269,3.016c2.012,2.013,3.017,4.416,3.017,7.212
			c0,2.834-1.005,5.249-3.017,7.24s-4.434,2.987-7.269,2.987c-2.798,0-5.201-0.996-7.211-2.987
			C113.625,113.143,112.62,110.728,112.62,107.894z"/>
		<linearGradient id="SVGID_2_" gradientUnits="userSpaceOnUse" x1="160.4863" y1="89.9648" x2="199.79" y2="89.9648">
			<stop  offset="0" style="stop-color:#F2F3F3"/>
			<stop  offset="0.4946" style="stop-color:#FFFFFF"/>
			<stop  offset="1" style="stop-color:#F2F3F3"/>
		</linearGradient>
		<path fill="url(#SVGID_2_)" d="M160.486,144.152c13.982-15.744,20.973-33.826,20.973-54.246c0-20.725-6.99-38.766-20.973-54.129
			h12.124c8.427,6.666,15.065,14.893,19.911,24.68c4.846,9.79,7.269,19.606,7.269,29.449c0,9.848-2.394,19.615-7.183,29.307
			c-4.789,9.693-11.455,18.006-19.997,24.939H160.486z"/>
	</g>
	<defs>
		<filter id="Adobe_OpacityMaskFilter" filterUnits="userSpaceOnUse" x="0" y="237.2" width="360.559" height="147.03">
			<feFlood  style="flood-color:white;flood-opacity:1" result="back"/>
			<feBlend  in="SourceGraphic" in2="back" mode="normal"/>
		</filter>
	</defs>
	<mask maskUnits="userSpaceOnUse" x="0" y="237.2" width="360.559" height="147.03" id="SVGID_3_">
		<g filter="url(#Adobe_OpacityMaskFilter)">
			<linearGradient id="SVGID_4_" gradientUnits="userSpaceOnUse" x1="199.7324" y1="314.7441" x2="199.7324" y2="100.2444">
				<stop  offset="0" style="stop-color:#000000"/>
				<stop  offset="0.0966" style="stop-color:#161617"/>
				<stop  offset="0.2226" style="stop-color:#3B3B3C"/>
				<stop  offset="0.3648" style="stop-color:#565759"/>
				<stop  offset="0.5189" style="stop-color:#747578"/>
				<stop  offset="0.6827" style="stop-color:#97999C"/>
				<stop  offset="0.8518" style="stop-color:#C4C6C8"/>
				<stop  offset="1" style="stop-color:#F2F3F3"/>
			</linearGradient>
			<rect x="-12.268" y="234.438" fill="url(#SVGID_4_)" width="424" height="189.106"/>
		</g>
	</mask>
	<g mask="url(#SVGID_3_)">
		<path fill="#96C64B" d="M285.234,382.225h-98.729c-22.697,0-43.036-6.511-56.845-16.796c-11.501-8.563-18.48-19.743-18.48-31.983
			c0-26.945,33.727-48.783,75.325-48.783h53.193l45.964-29.764v29.764h-0.428c16.601,0,31.938,3.486,44.389,9.379
			c14.248,6.742,24.689,16.644,28.888,28.119c0.127,0.347,0.255,0.693,0.372,1.043c1.091,3.304,1.676,6.729,1.676,10.242
			C360.559,360.385,326.832,382.225,285.234,382.225z"/>
		<path fill="#5FBB46" d="M200.987,384.23H86.979C38.945,384.23,0,359.011,0,327.902c0-31.115,38.945-56.334,86.979-56.334h0.245
			V237.2l53.076,34.368h60.687c48.038,0,86.981,25.219,86.981,56.334C287.969,359.011,249.025,384.23,200.987,384.23z"/>
	</g>
</g>
</svg>
