<?xml version="1.0" encoding="utf-8"?>
<!-- Generator: Adobe Illustrator 16.0.0, SVG Export Plug-In . SVG Version: 6.00 Build 0)  -->
<!DOCTYPE svg PUBLIC "-//W3C//DTD SVG 1.1//EN" "http://www.w3.org/Graphics/SVG/1.1/DTD/svg11.dtd">
<svg version="1.1" id="Layer_1" xmlns="http://www.w3.org/2000/svg" xmlns:xlink="http://www.w3.org/1999/xlink" x="0px" y="0px"
	 width="600px" height="172px" viewBox="0 0 600 172" enable-background="new 0 0 600 172" xml:space="preserve">
<rect x="0" y="0.5" fill="#FFFFFF" width="600" height="172"/>
<rect x="0" y="0.5" fill="#010101" width="600" height="12"/>
<rect x="0" y="103.5" fill="#FAFAFA" width="600" height="69"/>
<rect x="380.5" y="12.5" fill="#C00000" width="219.5" height="137.5"/>
<linearGradient id="SVGID_1_" gradientUnits="userSpaceOnUse" x1="283.95" y1="1640.0518" x2="283.95" y2="1651.371" gradientTransform="matrix(1 0 0 1 206.2998 -1490.8008)">
	<stop  offset="0" style="stop-color:#BFBEBE"/>
	<stop  offset="1" style="stop-color:#FAFAFA"/>
</linearGradient>
<rect x="380.5" y="151.219" fill="url(#SVGID_1_)" width="219.5" height="10.063"/>
<rect x="400.289" y="82.166" fill="#7B0100" width="181.252" height="1.084"/>
<rect x="400.289" y="83.25" fill="#FF9899" width="181.252" height="1.084"/>
<g enable-background="new    ">
	<path fill="#333333" d="M64.857,74.573c1.847,1.271,3.548,2.201,5.106,2.789l-1.169,2.769c-2.16-0.779-4.313-2.01-6.46-3.691
		c-2.229,1.244-4.689,1.866-7.383,1.866c-2.722,0-5.188-0.656-7.403-1.969s-3.92-3.158-5.117-5.537
		c-1.197-2.379-1.794-5.06-1.794-8.039c0-2.967,0.602-5.667,1.805-8.101s2.916-4.286,5.138-5.558
		c2.221-1.272,4.707-1.907,7.455-1.907c2.774,0,5.276,0.66,7.506,1.979c2.229,1.32,3.927,3.166,5.096,5.537
		c1.169,2.373,1.753,5.049,1.753,8.029c0,2.475-0.376,4.7-1.128,6.676S66.375,73.11,64.857,74.573z M56.1,69.487
		c2.297,0.643,4.19,1.6,5.681,2.871c2.339-2.133,3.508-5.339,3.508-9.618c0-2.434-0.414-4.56-1.241-6.378
		c-0.827-1.818-2.037-3.229-3.63-4.235c-1.593-1.004-3.38-1.507-5.363-1.507c-2.967,0-5.428,1.015-7.383,3.046
		c-1.955,2.029-2.934,5.062-2.934,9.095c0,3.91,0.968,6.911,2.902,9.003c1.936,2.092,4.406,3.138,7.414,3.138
		c1.422,0,2.762-0.267,4.021-0.8c-1.244-0.807-2.558-1.381-3.938-1.723L56.1,69.487z"/>
	<path fill="#333333" d="M76.716,77.792V47.728h11.341c1.996,0,3.521,0.096,4.573,0.287c1.477,0.246,2.714,0.715,3.712,1.404
		c0.998,0.691,1.801,1.658,2.41,2.902c0.608,1.244,0.913,2.611,0.913,4.102c0,2.557-0.813,4.721-2.44,6.49
		c-1.627,1.771-4.565,2.656-8.817,2.656h-7.712v12.223H76.716z M80.695,62.022h7.772c2.57,0,4.396-0.479,5.476-1.436
		s1.62-2.304,1.62-4.04c0-1.258-0.317-2.334-0.954-3.23c-0.636-0.895-1.473-1.486-2.512-1.773c-0.67-0.178-1.907-0.267-3.712-0.267
		h-7.69V62.022z"/>
	<path fill="#333333" d="M106.15,77.792V47.728h3.691v30.064H106.15z"/>
	<path fill="#333333" d="M131.749,75.106c-1.367,1.162-2.684,1.982-3.948,2.461s-2.622,0.718-4.071,0.718
		c-2.393,0-4.23-0.584-5.517-1.754c-1.285-1.168-1.928-2.662-1.928-4.479c0-1.066,0.242-2.041,0.728-2.922
		c0.485-0.883,1.121-1.59,1.907-2.123c0.786-0.533,1.671-0.937,2.656-1.21c0.725-0.191,1.817-0.376,3.28-0.554
		c2.98-0.354,5.175-0.779,6.583-1.271c0.015-0.506,0.021-0.827,0.021-0.964c0-1.504-0.35-2.563-1.046-3.179
		c-0.943-0.834-2.346-1.251-4.204-1.251c-1.736,0-3.019,0.305-3.846,0.913c-0.826,0.608-1.438,1.686-1.835,3.229l-3.608-0.492
		c0.328-1.545,0.868-2.792,1.62-3.743c0.752-0.949,1.839-1.682,3.261-2.193c1.422-0.514,3.069-0.77,4.942-0.77
		c1.858,0,3.369,0.219,4.531,0.656c1.162,0.437,2.018,0.988,2.563,1.65c0.547,0.664,0.93,1.501,1.147,2.513
		c0.123,0.629,0.186,1.764,0.186,3.404v4.922c0,3.432,0.079,5.603,0.236,6.511c0.156,0.91,0.468,1.781,0.933,2.615h-3.855
		C132.104,77.027,131.858,76.131,131.749,75.106z M131.441,66.862c-1.34,0.547-3.35,1.012-6.028,1.395
		c-1.519,0.219-2.592,0.465-3.221,0.738s-1.113,0.674-1.456,1.2c-0.342,0.526-0.513,1.11-0.513,1.753
		c0,0.984,0.373,1.805,1.118,2.461c0.745,0.656,1.835,0.984,3.271,0.984c1.423,0,2.688-0.311,3.794-0.933
		c1.107-0.622,1.922-1.474,2.44-2.554c0.396-0.834,0.595-2.063,0.595-3.691V66.862z"/>
	<path fill="#333333" d="M142.705,86.18l-0.41-3.466c0.807,0.219,1.511,0.328,2.111,0.328c0.82,0,1.478-0.137,1.97-0.41
		s0.896-0.656,1.21-1.148c0.231-0.369,0.607-1.285,1.128-2.748c0.067-0.205,0.178-0.506,0.328-0.902l-8.266-21.82h3.979
		l4.532,12.612c0.588,1.6,1.113,3.281,1.579,5.045c0.424-1.695,0.93-3.35,1.518-4.963l4.655-12.694h3.69l-8.285,22.148
		c-0.889,2.393-1.578,4.04-2.07,4.942c-0.656,1.217-1.408,2.108-2.256,2.677c-0.849,0.566-1.859,0.85-3.035,0.85
		C144.373,86.631,143.58,86.481,142.705,86.18z"/>
	<path fill="#333333" d="M178.604,68.133l3.753-0.328c0.179,1.504,0.591,2.737,1.241,3.702c0.649,0.963,1.658,1.742,3.025,2.338
		c1.366,0.594,2.904,0.892,4.613,0.892c1.519,0,2.857-0.226,4.021-0.677s2.027-1.069,2.594-1.855
		c0.567-0.786,0.852-1.645,0.852-2.574c0-0.943-0.273-1.767-0.82-2.471c-0.547-0.704-1.449-1.296-2.707-1.774
		c-0.807-0.314-2.591-0.803-5.354-1.466c-2.762-0.663-4.695-1.289-5.804-1.877c-1.436-0.752-2.505-1.685-3.209-2.799
		c-0.704-1.114-1.056-2.362-1.056-3.743c0-1.518,0.431-2.936,1.292-4.255c0.86-1.319,2.119-2.321,3.772-3.005
		c1.654-0.684,3.493-1.025,5.518-1.025c2.229,0,4.193,0.358,5.896,1.077c1.702,0.717,3.012,1.773,3.927,3.168
		c0.916,1.395,1.408,2.974,1.478,4.737l-3.814,0.287c-0.205-1.9-0.898-3.336-2.082-4.307c-1.183-0.971-2.929-1.456-5.239-1.456
		c-2.406,0-4.16,0.441-5.261,1.322c-1.101,0.883-1.65,1.945-1.65,3.189c0,1.08,0.39,1.969,1.169,2.666
		c0.766,0.697,2.765,1.412,5.999,2.143c3.232,0.732,5.452,1.371,6.655,1.918c1.75,0.807,3.042,1.829,3.876,3.066
		c0.834,1.237,1.251,2.662,1.251,4.275c0,1.6-0.458,3.106-1.374,4.521c-0.916,1.416-2.232,2.517-3.948,3.303
		c-1.716,0.785-3.647,1.179-5.793,1.179c-2.721,0-5-0.396-6.839-1.189s-3.281-1.985-4.327-3.579
		C179.209,71.945,178.659,70.143,178.604,68.133z"/>
	<path fill="#333333" d="M224.384,70.779l3.813,0.472c-0.602,2.229-1.717,3.958-3.344,5.188s-3.705,1.846-6.233,1.846
		c-3.187,0-5.711-0.98-7.578-2.943c-1.866-1.961-2.799-4.713-2.799-8.254c0-3.664,0.942-6.508,2.829-8.531
		c1.888-2.023,4.334-3.035,7.343-3.035c2.912,0,5.291,0.991,7.136,2.974s2.77,4.771,2.77,8.367c0,0.219-0.008,0.547-0.021,0.984
		h-16.242c0.137,2.393,0.813,4.225,2.03,5.496c1.217,1.271,2.733,1.907,4.553,1.907c1.354,0,2.508-0.355,3.465-1.066
		S223.823,72.337,224.384,70.779z M212.263,64.811h12.162c-0.164-1.832-0.629-3.206-1.396-4.122c-1.176-1.422-2.7-2.133-4.573-2.133
		c-1.695,0-3.121,0.567-4.276,1.702C213.025,61.393,212.386,62.911,212.263,64.811z"/>
	<path fill="#333333" d="M234.765,77.792V56.013h3.322v3.302c0.848-1.545,1.63-2.563,2.349-3.056
		c0.717-0.492,1.507-0.738,2.368-0.738c1.244,0,2.509,0.396,3.794,1.189l-1.271,3.425c-0.902-0.533-1.806-0.8-2.707-0.8
		c-0.808,0-1.531,0.243-2.175,0.729c-0.643,0.486-1.101,1.158-1.374,2.02c-0.409,1.313-0.614,2.748-0.614,4.307v11.402
		L234.765,77.792L234.765,77.792z"/>
	<path fill="#333333" d="M256.816,77.792l-8.285-21.779h3.896l4.676,13.043c0.506,1.408,0.971,2.871,1.396,4.389
		c0.328-1.148,0.786-2.529,1.374-4.143l4.84-13.289h3.794l-8.244,21.779H256.816z"/>
	<path fill="#333333" d="M273.761,51.973v-4.245h3.691v4.245H273.761z M273.761,77.792V56.013h3.691v21.779H273.761z"/>
	<path fill="#333333" d="M299.258,69.815l3.629,0.472c-0.396,2.502-1.412,4.461-3.045,5.875c-1.635,1.416-3.64,2.123-6.02,2.123
		c-2.979,0-5.377-0.975-7.188-2.922c-1.813-1.949-2.717-4.741-2.717-8.378c0-2.352,0.39-4.409,1.169-6.173
		c0.778-1.764,1.965-3.086,3.558-3.969c1.593-0.881,3.326-1.322,5.199-1.322c2.365,0,4.3,0.599,5.804,1.795
		c1.503,1.196,2.468,2.895,2.892,5.096l-3.589,0.554c-0.342-1.463-0.946-2.563-1.814-3.302s-1.917-1.107-3.147-1.107
		c-1.858,0-3.369,0.666-4.531,2c-1.162,1.332-1.743,3.441-1.743,6.326c0,2.926,0.561,5.052,1.682,6.378
		c1.121,1.326,2.584,1.989,4.39,1.989c1.448,0,2.658-0.444,3.63-1.333C298.386,73.028,298.997,71.661,299.258,69.815z"/>
	<path fill="#333333" d="M322.928,70.779l3.813,0.472c-0.602,2.229-1.715,3.958-3.342,5.188s-3.705,1.846-6.233,1.846
		c-3.187,0-5.714-0.98-7.578-2.943c-1.867-1.961-2.8-4.713-2.8-8.254c0-3.664,0.943-6.508,2.83-8.531
		c1.888-2.023,4.334-3.035,7.343-3.035c2.911,0,5.291,0.991,7.137,2.974s2.768,4.771,2.768,8.367c0,0.219-0.006,0.547-0.02,0.984
		h-16.242c0.137,2.393,0.813,4.225,2.029,5.496c1.216,1.271,2.733,1.907,4.553,1.907c1.354,0,2.51-0.355,3.467-1.066
		S322.366,72.337,322.928,70.779z M310.809,64.811h12.16c-0.164-1.832-0.629-3.206-1.396-4.122
		c-1.176-1.422-2.698-2.133-4.571-2.133c-1.695,0-3.121,0.567-4.277,1.702C311.571,61.393,310.932,62.911,310.809,64.811z"/>
</g>
</svg>
