<?xml version="1.0" encoding="utf-8"?>
<!-- Generator: Adobe Illustrator 22.1.0, SVG Export Plug-In . SVG Version: 6.00 Build 0)  -->
<svg version="1.1" id="圖層_1" xmlns="http://www.w3.org/2000/svg" xmlns:xlink="http://www.w3.org/1999/xlink" x="0px" y="0px"
	 viewBox="0 0 280.6 291.7" style="enable-background:new 0 0 280.6 291.7;" xml:space="preserve">
<style type="text/css">
	.st0{fill:#FFFFFF;}
</style>
<g>
	<rect x="228.9" y="46.6" class="st0" width="51.7" height="48.2"/>
	<rect x="228.9" y="117.4" class="st0" width="51.7" height="48.3"/>
	<path class="st0" d="M208.1,0H10.8C10,0,0.8,0.1,0,0.1V46v245.5c0.8,0,10,0.1,10.8,0.1h197.3c20.5,0,37.1-16.6,37.1-37.1V37.1
		C245.2,16.6,228.6,0,208.1,0z M207.9,230.1c-3,8.7-18.7,21.7-26.2,26.9c-3,2.1-6.1,4.2-9.7,5c-5.1,1.2-10.5,0.9-15.6,0.1
		c-21.2-3.1-39.9-17.9-55.3-31.9c-24.2-22-43.8-47.7-58.6-76.9c-7.8-15.4-14.8-31.9-17.5-49.1C24,97,23.6,89.3,25.4,82
		c2.1-8.7,7.1-14.6,13.9-20.2c6.9-5.6,25.1-16.2,35.2-16.9c2.8-0.2,5.3,1.1,7.5,2.9c2.5,2.1,4.3,5.8,5.9,8.5
		c3.3,5.5,6.1,11.4,8.8,17.2c3.1,6.5,6.1,13,8.2,19.9c0.9,2.8,2.2,6.2,2.2,9.2c0,3.8-2.8,7-4.8,10c-3.3,4.9-7,9.4-10.9,13.8
		c1.8,4.7,8.5,17.2,20.7,33.5c12.3,16.4,19,23.5,23,26.5c0.4,0.1,10-4.6,11-5c3.8-1.7,7.9-3.8,12.1-4.3c4.2-0.5,7.2,1.5,10.5,3.7
		c2.7,1.7,5.4,3.4,7.8,5.4c10.2,8.2,22.5,18.8,32.8,31.8C211.4,220.6,208.9,227.2,207.9,230.1z M207.7,106.7h-85.6V91.9h85.6V106.7z
		 M207.7,73.9h-85.6V59.1h85.6V73.9z"/>
</g>
</svg>
