<?xml version="1.0" encoding="utf-8"?>
<!-- Generator: Adobe Illustrator 22.1.0, SVG Export Plug-In . SVG Version: 6.00 Build 0)  -->
<svg version="1.1" id="圖層_1" xmlns="http://www.w3.org/2000/svg" xmlns:xlink="http://www.w3.org/1999/xlink" x="0px" y="0px"
	 viewBox="0 0 255 274.6" style="enable-background:new 0 0 255 274.6;" xml:space="preserve">
<style type="text/css">
	.st0{fill:#FFFFFF;}
</style>
<g>
	<path class="st0" d="M34,96.5"/>
	<path class="st0" d="M128.1,55.6c13.3,0,24.1-12.5,24.1-27.8c0-15.4-10.8-27.8-24.1-27.8C114.8,0,104,12.5,104,27.8
		C104,43.2,114.8,55.6,128.1,55.6z"/>
	<path class="st0" d="M127.5,66.7C97.4,66.7,73,94,71.8,117.9h111.5C182,94,157.6,66.7,127.5,66.7z"/>
	<path class="st0" d="M220.4,82.7c14.3,0,26-12.5,26-27.8c0-15.4-11.6-27.8-26-27.8c-14.3,0-26,12.5-26,27.8
		C194.5,70.2,206.1,82.7,220.4,82.7z"/>
	<path class="st0" d="M34.6,82.7c14.3,0,26-12.5,26-27.8c0-15.4-11.6-27.8-26-27.8s-26,12.5-26,27.8C8.6,70.2,20.2,82.7,34.6,82.7z"
		/>
	<path class="st0" d="M112.6,145.6c0-6.3-5.7-11.5-12.7-11.5L65,130L31.4,97.3l0-0.1c-2.1-1.9-3.6-4.1-10.8-4.6
		C7.1,91.6,0,102.1,0,113.4v80.2c0,3.1,0.7,5.9,1.9,8.5c2.4,6.9,8.8,11.9,16.4,11.9h48.4l18.3,60.5h27.8l-18-82.6l-0.4,0.2
		c-1.8-8.1-8.7-14.1-17.1-14.1H40.9v-22.4L18.6,130l5.2-4.5l23.6,27.2h55.1C108.3,151.6,112.6,151.1,112.6,145.6z"/>
	<path class="st0" d="M67.5,152.9h32.4c0.9,0,1.8-0.1,2.6-0.3H47.4l0.2,0.2L67.5,152.9z"/>
	<path class="st0" d="M234.4,92.6c-7.3,0.5-8.7,2.7-10.8,4.6l0,0.1L190,130l-34.9,4.1c-7,0-12.7,5.1-12.7,11.5c0,5.5,4.3,6,10,7.1
		c0.9,0.2,1.7,0.3,2.6,0.3h32.4l19.9-0.1l0.2-0.2l23.6-27.2l5.2,4.5l-22.3,25.7v12.4v10h-15.3h-21.1c-8.4,0-15.4,6-17.1,14.1
		l-0.4-0.2l-18,82.6h27.8l18.3-60.5h48.4c7.6,0,14-5,16.4-11.9c1.2-2.6,1.9-5.5,1.9-8.5v-80.2C255,102.1,247.9,91.6,234.4,92.6z"/>
</g>
</svg>
