<?xml version="1.0" encoding="utf-8"?>
<!-- Generator: Adobe Illustrator 16.0.0, SVG Export Plug-In . SVG Version: 6.00 Build 0)  -->
<!DOCTYPE svg PUBLIC "-//W3C//DTD SVG 1.1//EN" "http://www.w3.org/Graphics/SVG/1.1/DTD/svg11.dtd">
<svg version="1.1" id="Layer_1" xmlns="http://www.w3.org/2000/svg" xmlns:xlink="http://www.w3.org/1999/xlink" x="0px" y="0px"
	 width="364.27px" height="493.479px" viewBox="0 0 364.27 493.479" enable-background="new 0 0 364.27 493.479"
	 xml:space="preserve">
<g>
	<polygon fill="#EB7424" points="334.142,328.23 334.142,95.666 283.399,95.666 283.399,328.23 254.935,328.23 254.935,158.273 
		204.193,158.273 204.193,328.23 175.717,328.23 175.717,202.866 124.963,202.866 124.963,328.23 96.499,328.23 96.499,138.362 
		45.758,138.362 45.758,328.23 15.177,328.23 15.177,132.736 15.177,0 0,0 0,16.783 0,343.407 282.177,343.407 364.27,343.407 
		364.27,328.23 	"/>
	<g>
		<polygon fill="#F7CF20" points="182.711,134.192 94.696,70.807 34.613,112.384 25.978,99.893 94.885,52.229 183.469,116.028 
			326.226,30.373 334.035,43.391 		"/>
	</g>
</g>
<defs>
	<filter id="Adobe_OpacityMaskFilter" filterUnits="userSpaceOnUse" x="0" y="349.034" width="364.27" height="141.444">
		<feFlood  style="flood-color:white;flood-opacity:1" result="back"/>
		<feBlend  in="SourceGraphic" in2="back" mode="normal"/>
	</filter>
</defs>
<mask maskUnits="userSpaceOnUse" x="0" y="349.034" width="364.27" height="141.444" id="SVGID_1_">
	<g filter="url(#Adobe_OpacityMaskFilter)">
		<linearGradient id="SVGID_2_" gradientUnits="userSpaceOnUse" x1="193.3223" y1="298.8281" x2="193.3223" y2="484.8466">
			<stop  offset="0" style="stop-color:#FFFFFF"/>
			<stop  offset="1" style="stop-color:#000000"/>
		</linearGradient>
		<rect x="-72.204" y="100.808" fill="url(#SVGID_2_)" width="531.053" height="693.068"/>
	</g>
</mask>
<g opacity="0.6" mask="url(#SVGID_1_)">
	<polygon fill="#EB7424" points="334.142,354.134 334.142,432.276 283.399,432.276 283.399,354.134 254.935,354.134 254.935,411.24 
		204.193,411.24 204.193,354.134 175.717,354.134 175.717,396.256 124.963,396.256 124.963,354.134 96.499,354.134 96.499,417.931 
		45.758,417.931 45.758,354.134 15.177,354.134 15.177,419.82 15.177,464.42 0,464.42 0,458.781 0,349.034 282.177,349.034 
		364.27,349.034 364.27,354.134 	"/>
	<g>
		<polygon fill="#F7CF20" points="182.711,425.071 94.696,465.005 34.613,438.812 25.978,446.682 94.885,476.709 183.469,436.514 
			326.226,490.479 334.035,482.277 		"/>
	</g>
</g>
</svg>
