<?xml version="1.0" encoding="utf-8"?>
<!-- Generator: Adobe Illustrator 16.0.0, SVG Export Plug-In . SVG Version: 6.00 Build 0)  -->
<!DOCTYPE svg PUBLIC "-//W3C//DTD SVG 1.1//EN" "http://www.w3.org/Graphics/SVG/1.1/DTD/svg11.dtd">
<svg version="1.1" id="QR-scanner-guides" xmlns="http://www.w3.org/2000/svg" xmlns:xlink="http://www.w3.org/1999/xlink" x="0px"
	 y="0px" width="595.281px" height="841.891px" viewBox="0 0 595.281 841.891" enable-background="new 0 0 595.281 841.891"
	 xml:space="preserve">
<g id="scan-line">
	<g>
		<line fill="none" x1="24.163" y1="405.569" x2="571.117" y2="405.569"/>
	</g>
</g>
<path id="top-left" fill="#FFFFFF" fill-opacity="0.3" d="M61.505,183.712h116.64c6.151,0,10.983-4.833,10.983-10.983
	s-4.833-10.982-10.983-10.982H50.522c-6.15,0-10.983,4.832-10.983,10.982v127.403c0,6.15,4.833,10.983,10.983,10.983
	s10.983-4.833,10.983-10.983V183.712z"/>
<path id="bottom-left" fill="#FFFFFF" fill-opacity="0.3" d="M61.505,655.323v-116.64c0-6.15-4.833-10.983-10.983-10.983
	s-10.983,4.833-10.983,10.983v127.623c0,6.15,4.833,10.982,10.983,10.982h127.403c6.15,0,10.983-4.832,10.983-10.982
	s-4.833-10.983-10.983-10.983H61.505L61.505,655.323z"/>
<path id="top-right" fill="#FFFFFF" fill-opacity="0.3" d="M535.972,183.712v116.64c0,6.15,4.832,10.983,10.982,10.983
	s10.984-4.833,10.984-10.983V172.728c0-6.15-4.834-10.982-10.984-10.982H419.552c-6.15,0-10.984,4.832-10.984,10.982
	s4.834,10.983,10.984,10.983H535.972z"/>
<path id="bottom-right" fill="#FFFFFF" fill-opacity="0.3" d="M536.191,657.301H419.552c-6.15,0-10.984,4.832-10.984,10.982
	s4.834,10.983,10.984,10.983h127.623c6.15,0,10.982-4.833,10.982-10.983V540.88c0-6.15-4.832-10.982-10.982-10.982
	s-10.984,4.832-10.984,10.982V657.301z"/>
</svg>
