<?xml version="1.0" encoding="utf-8"?>
<!-- Generator: Adobe Illustrator 22.1.0, SVG Export Plug-In . SVG Version: 6.00 Build 0)  -->
<svg version="1.1" id="圖層_1" xmlns="http://www.w3.org/2000/svg" xmlns:xlink="http://www.w3.org/1999/xlink" x="0px" y="0px"
	 viewBox="0 0 246.7 255" style="enable-background:new 0 0 246.7 255;" xml:space="preserve">
<style type="text/css">
	.st0{fill:#FFFFFF;}
	.st1{fill:none;}
</style>
<g>
	<polygon class="st0" points="202.9,107 184.9,106.4 218.3,78.5 192,77.3 160.5,105.8 178.5,105.8 158,129.6 	"/>
	<polygon class="st0" points="246.7,129 224,116.5 181.8,128.1 197.7,135.9 167.5,148 218.6,147.5 203,139.2 	"/>
	<polygon class="st1" points="97.2,168.2 74.5,197 72.5,255 117,255 97.4,187.4 	"/>
	<g>
		<path class="st0" d="M46.9,8.4C35.9-2.1,18.3-2.9,7.7,6.7C-2.9,16.3-2.5,32.6,8.5,43.1c11.1,10.5,28.6,11.3,39.2,1.7
			C58.4,35.3,58,19,46.9,8.4z"/>
		<path class="st0" d="M74.2,197l22.6-28.8l0.3,19.2l19.6,67.6h20.8l-8.6-64l14.1-36.2c0,0,0,0,0-0.1c8-20.3-5.2-49-11.5-58.3
			c-2.5-5.4-15.9-21.9-15.9-21.9l-12-13.6l25.8-2.5l0,0c0,0-0.5,17.5-0.5,25.1c0,7.6,10.5,8.8,11.5,3.1c1.9-10.6,3.8-24.1,4.9-33.4
			c1.4-12.7-14-13.5-14-13.5L79,40.1c-5.2-0.2-11.8,0.6-16.2,3.9L40,60.9c-4,3-6.4,7.2-7,11.7c-0.8,3.3-8.6,41.9-6.7,46.1
			c2.1,4.8,21.7,38,21.7,38c1.3,1.8,3.6,2.7,5.8,2.7c1.2,0,4.5-1.8,4.9-2.3c1.8-2.1,2-5.1,0.3-7.4L47,114.6l5-10.6
			c0,0,21.9,24.7,22.7,25.4l-25.5,56.7l0.5,68.9h22.5L74.2,197z"/>
	</g>
</g>
</svg>
