<?xml version="1.0" encoding="utf-8"?>
<!-- Generator: Adobe Illustrator 16.0.0, SVG Export Plug-In . SVG Version: 6.00 Build 0)  -->
<!DOCTYPE svg PUBLIC "-//W3C//DTD SVG 1.1//EN" "http://www.w3.org/Graphics/SVG/1.1/DTD/svg11.dtd">
<svg version="1.1" id="Layer_1" xmlns="http://www.w3.org/2000/svg" xmlns:xlink="http://www.w3.org/1999/xlink" x="0px" y="0px"
	 width="274px" height="372px" viewBox="0 0 274 372" enable-background="new 0 0 274 372" xml:space="preserve">
<rect x="223.787" y="115.844" fill="#FAA71A" width="50.213" height="46.862"/>
<rect x="223.789" y="47.129" fill="#FAA71A" width="50.211" height="46.863"/>
<linearGradient id="SVGID_1_" gradientUnits="userSpaceOnUse" x1="117.2344" y1="17.9082" x2="122.9151" y2="262.1646">
	<stop  offset="0" style="stop-color:#FED112"/>
	<stop  offset="1" style="stop-color:#FAA71A"/>
</linearGradient>
<path fill="url(#SVGID_1_)" d="M203.609,1.834H11.981c-0.809,0-9.702,0.067-10.5,0.12v44.564v238.503
	c0.798,0.049,9.692,0.119,10.5,0.119h191.628c19.908,0,36.047-16.135,36.047-36.047V37.879
	C239.656,17.969,223.518,1.834,203.609,1.834z M186.451,214.642c-2.539,7.32-15.648,18.178-21.902,22.527
	c-2.533,1.76-5.111,3.51-8.148,4.207c-4.225,0.965-8.795,0.734-13.051,0.1c-17.725-2.639-33.412-14.99-46.249-26.672
	c-20.254-18.434-36.645-39.961-49.047-64.348c-6.564-12.914-12.434-26.705-14.663-41.083c-0.957-6.175-1.215-12.604,0.25-18.705
	c1.731-7.261,5.914-12.236,11.621-16.877C51.018,69.092,66.25,60.253,74.7,59.625c2.314-0.183,4.468,0.947,6.277,2.43
	c2.116,1.74,3.566,4.834,4.936,7.126c2.76,4.622,5.104,9.553,7.403,14.424c2.579,5.453,5.091,10.907,6.858,16.675
	c0.712,2.355,1.845,5.216,1.82,7.695c-0.034,3.184-2.347,5.879-4.041,8.389c-2.743,4.074-5.837,7.907-9.104,11.573
	c1.503,3.901,7.096,14.406,17.29,28.017c10.264,13.692,15.944,19.651,19.271,22.184c0.348,0.068,8.348-3.82,9.244-4.209
	c3.2-1.408,6.618-3.195,10.138-3.627c3.502-0.438,5.996,1.285,8.814,3.111c2.225,1.443,4.48,2.848,6.547,4.516
	c8.531,6.896,18.82,15.732,27.465,26.596C189.324,206.681,187.283,212.248,186.451,214.642z M203.264,105.468h-83.187V91.089h83.187
	V105.468z M203.264,73.63h-83.187V59.253h83.187V73.63z"/>
<defs>
	<filter id="Adobe_OpacityMaskFilter" filterUnits="userSpaceOnUse" x="1.48" y="295.322" width="272.52" height="283.307">
		<feColorMatrix  type="matrix" values="1 0 0 0 0  0 1 0 0 0  0 0 1 0 0  0 0 0 1 0"/>
	</filter>
</defs>
<mask maskUnits="userSpaceOnUse" x="1.48" y="295.322" width="272.52" height="283.307" id="SVGID_2_">
	<g filter="url(#Adobe_OpacityMaskFilter)">
		<linearGradient id="SVGID_3_" gradientUnits="userSpaceOnUse" x1="126.8955" y1="170.0752" x2="126.8955" y2="347.2168">
			<stop  offset="0" style="stop-color:#FFFFFF"/>
			<stop  offset="1" style="stop-color:#000000"/>
		</linearGradient>
		<rect x="-61.976" y="213.648" fill="url(#SVGID_3_)" width="377.744" height="249.936"/>
	</g>
</mask>
<g mask="url(#SVGID_2_)">
	<rect x="223.787" y="417.753" fill="#FAA71A" width="50.213" height="46.863"/>
	<rect x="223.789" y="486.468" fill="#FAA71A" width="50.211" height="46.863"/>
	
		<linearGradient id="SVGID_4_" gradientUnits="userSpaceOnUse" x1="117.2349" y1="-351.7041" x2="122.9156" y2="-107.4486" gradientTransform="matrix(1 0 0 -1 0 210.8486)">
		<stop  offset="0" style="stop-color:#FED112"/>
		<stop  offset="1" style="stop-color:#FAA71A"/>
	</linearGradient>
	<path fill="url(#SVGID_4_)" d="M239.656,542.582V331.369c0-19.912-16.139-36.047-36.047-36.047H11.981
		c-0.809,0-9.702,0.07-10.5,0.119v238.504v44.563c0.798,0.055,9.692,0.121,10.5,0.121h191.628
		C223.518,578.628,239.656,562.492,239.656,542.582z M187.617,375.935c-8.645,10.863-18.934,19.699-27.465,26.596
		c-2.066,1.67-4.322,3.072-6.547,4.518c-2.818,1.826-5.313,3.547-8.814,3.111c-3.52-0.434-6.938-2.219-10.138-3.629
		c-0.896-0.389-8.896-4.275-9.244-4.207c-3.327,2.533-9.007,8.492-19.271,22.182c-10.194,13.611-15.787,24.117-17.29,28.02
		c3.267,3.666,6.361,7.498,9.104,11.572c1.694,2.508,4.007,5.203,4.041,8.389c0.025,2.479-1.108,5.34-1.82,7.693
		c-1.767,5.771-4.279,11.225-6.858,16.678c-2.299,4.871-4.643,9.803-7.403,14.426c-1.37,2.291-2.819,5.385-4.936,7.125
		c-1.809,1.482-3.962,2.613-6.277,2.43c-8.45-0.629-23.683-9.469-29.439-14.166c-5.707-4.641-9.889-9.617-11.621-16.879
		c-1.465-6.102-1.206-12.527-0.25-18.703c2.229-14.381,8.098-28.17,14.663-41.086c12.402-24.385,28.793-45.914,49.047-64.346
		c12.837-11.682,28.524-24.033,46.249-26.672c4.256-0.635,8.826-0.865,13.051,0.1c3.037,0.697,5.615,2.447,8.148,4.207
		c6.254,4.35,19.363,15.209,21.902,22.525C187.283,368.212,189.324,373.781,187.617,375.935z M203.264,489.371h-83.187v-14.379
		h83.187V489.371z M203.264,521.208h-83.187v-14.377h83.187V521.208z"/>
</g>
</svg>
