<?xml version="1.0" encoding="utf-8"?>
<!-- Generator: Adobe Illustrator 16.0.0, SVG Export Plug-In . SVG Version: 6.00 Build 0)  -->
<!DOCTYPE svg PUBLIC "-//W3C//DTD SVG 1.1//EN" "http://www.w3.org/Graphics/SVG/1.1/DTD/svg11.dtd">
<svg version="1.1" id="Layer_1" xmlns="http://www.w3.org/2000/svg" xmlns:xlink="http://www.w3.org/1999/xlink" x="0px" y="0px"
	 width="331.286px" height="539.986px" viewBox="0 0 331.286 539.986" enable-background="new 0 0 331.286 539.986"
	 xml:space="preserve">
<g>
	<g>
		<linearGradient id="SVGID_1_" gradientUnits="userSpaceOnUse" x1="115.27" y1="309.585" x2="115.27" y2="24.5566">
			<stop  offset="0" style="stop-color:#2072B9"/>
			<stop  offset="1" style="stop-color:#008DCF"/>
		</linearGradient>
		<path fill="url(#SVGID_1_)" d="M99.822,285.677l30.401-41.801l0.358,27.881l26.338,98.07h27.922l-11.616-92.891l18.949-52.53
			c0.018-0.024,0.048-0.044,0.06-0.077c10.741-29.437-7.04-71.014-15.5-84.563c-3.307-7.893-21.358-31.773-21.358-31.773
			l-16.137-19.743l34.646-3.625l0.048-0.006c0,0-0.684,25.395-0.684,36.369c0,10.979,14.064,12.699,15.431,4.464
			c2.566-15.438,5.148-34.996,6.521-48.377c1.897-18.463-18.873-19.555-18.873-19.555l-70.106,0.613
			c-7.007-0.294-15.841,0.895-21.848,5.707L53.811,88.334c-5.44,4.354-8.599,10.488-9.44,17.029
			c-1.115,4.855-11.5,60.747-9.04,66.89c2.801,6.963,29.19,55.165,29.19,55.165c1.812,2.635,4.777,3.972,7.745,3.858
			c1.634-0.056,6.055-2.678,6.603-3.328c2.41-3.009,2.728-7.334,0.426-10.671l-16.067-51.137L70,150.837
			c0,0,29.48,35.874,30.467,36.773l-34.262,82.281l0.671,99.936h30.256L99.822,285.677z"/>
		<linearGradient id="SVGID_2_" gradientUnits="userSpaceOnUse" x1="212.0068" y1="150.0522" x2="293.1289" y2="150.0522">
			<stop  offset="0" style="stop-color:#FED112"/>
			<stop  offset="1" style="stop-color:#FAA71A"/>
		</linearGradient>
		<polygon fill="url(#SVGID_2_)" points="272.416,155.229 248.253,154.368 293.129,113.807 257.747,112.083 215.463,153.505 
			239.626,153.505 212.007,188.021 		"/>
		<linearGradient id="SVGID_3_" gradientUnits="userSpaceOnUse" x1="224.8184" y1="191.8022" x2="331.2861" y2="191.8022">
			<stop  offset="0" style="stop-color:#FED112"/>
			<stop  offset="1" style="stop-color:#FAA71A"/>
		</linearGradient>
		<polygon fill="url(#SVGID_3_)" points="331.286,187.14 300.854,169.013 244.076,185.729 265.403,197.079 224.818,214.592 
			293.552,213.991 272.617,201.885 		"/>
		<linearGradient id="SVGID_4_" gradientUnits="userSpaceOnUse" x1="56.6289" y1="-34.3496" x2="35.6271" y2="43.6577">
			<stop  offset="0" style="stop-color:#2072B9"/>
			<stop  offset="1" style="stop-color:#008DCF"/>
		</linearGradient>
		<path fill="url(#SVGID_4_)" d="M63.13,12.219C48.253-3.044,24.638-4.161,10.378,9.731C-3.878,23.63-3.387,47.285,11.482,62.542
			c14.898,15.27,38.501,16.371,52.772,2.481C78.514,51.131,78.023,27.489,63.13,12.219z"/>
	</g>
	<defs>
		<filter id="Adobe_OpacityMaskFilter" filterUnits="userSpaceOnUse" x="0" y="380.181" width="331.286" height="159.806">
			<feFlood  style="flood-color:white;flood-opacity:1" result="back"/>
			<feBlend  in="SourceGraphic" in2="back" mode="normal"/>
		</filter>
	</defs>
	<mask maskUnits="userSpaceOnUse" x="0" y="380.181" width="331.286" height="159.806" id="SVGID_5_">
		<g filter="url(#Adobe_OpacityMaskFilter)">
			<linearGradient id="SVGID_6_" gradientUnits="userSpaceOnUse" x1="173.5591" y1="511.5469" x2="173.5591" y2="192.9768">
				<stop  offset="0" style="stop-color:#000000"/>
				<stop  offset="0.1506" style="stop-color:#464648"/>
				<stop  offset="0.4817" style="stop-color:#87898B"/>
				<stop  offset="0.9665" style="stop-color:#EAEBEC"/>
				<stop  offset="1" style="stop-color:#F2F3F3"/>
			</linearGradient>
			<rect x="-42.463" y="373.277" fill="url(#SVGID_6_)" width="432.043" height="180.876"/>
		</g>
	</mask>
	<g mask="url(#SVGID_5_)">
		
			<linearGradient id="SVGID_7_" gradientUnits="userSpaceOnUse" x1="115.2705" y1="22.7446" x2="115.2705" y2="-100.42" gradientTransform="matrix(1 0 0 -1 0 428.957)">
			<stop  offset="0" style="stop-color:#2072B9"/>
			<stop  offset="1" style="stop-color:#008DCF"/>
		</linearGradient>
		<path fill="url(#SVGID_7_)" d="M99.822,416.543l30.401,18.063l0.358-12.048l26.338-42.377h27.922l-11.616,40.139l18.949,22.699
			c0.018,0.011,0.048,0.019,0.06,0.033c10.741,12.721-7.04,30.687-15.5,36.541c-3.307,3.411-21.358,13.729-21.358,13.729
			l-16.137,8.531l34.646,1.566l0.048,0.002c0,0-0.684-10.974-0.684-15.716c0-4.743,14.064-5.486,15.431-1.929
			c2.566,6.671,5.148,15.123,6.521,20.905c1.897,7.978-18.873,8.45-18.873,8.45l-70.106-0.266
			c-7.007,0.127-15.841-0.387-21.848-2.467l-30.564-10.583c-5.44-1.883-8.599-4.533-9.44-7.359c-1.115-2.098-11.5-26.25-9.04-28.903
			c2.801-3.009,29.19-23.838,29.19-23.838c1.812-1.138,4.777-1.716,7.745-1.667c1.634,0.024,6.055,1.157,6.603,1.438
			c2.41,1.3,2.728,3.169,0.426,4.61l-16.067,22.097L70,474.809c0,0,29.48-15.502,30.467-15.891l-34.262-35.555l0.671-43.183h30.256
			L99.822,416.543z"/>
		
			<linearGradient id="SVGID_8_" gradientUnits="userSpaceOnUse" x1="212.0068" y1="-46.1909" x2="293.1289" y2="-46.1909" gradientTransform="matrix(1 0 0 -1 0 428.957)">
			<stop  offset="0" style="stop-color:#FED112"/>
			<stop  offset="1" style="stop-color:#FAA71A"/>
		</linearGradient>
		<polygon fill="url(#SVGID_8_)" points="272.416,472.911 248.253,473.282 293.129,490.811 257.747,491.555 215.463,473.656 
			239.626,473.656 212.007,458.741 		"/>
		
			<linearGradient id="SVGID_9_" gradientUnits="userSpaceOnUse" x1="224.8184" y1="-28.1504" x2="331.2861" y2="-28.1504" gradientTransform="matrix(1 0 0 -1 0 428.957)">
			<stop  offset="0" style="stop-color:#FED112"/>
			<stop  offset="1" style="stop-color:#FAA71A"/>
		</linearGradient>
		<polygon fill="url(#SVGID_9_)" points="331.286,459.121 300.854,466.955 244.076,459.731 265.403,454.827 224.818,447.26 
			293.552,447.519 272.617,452.751 		"/>
		
			<linearGradient id="SVGID_10_" gradientUnits="userSpaceOnUse" x1="0" y1="-94.8774" x2="74.6328" y2="-94.8774" gradientTransform="matrix(1 0 0 -1 0 428.957)">
			<stop  offset="0" style="stop-color:#2072B9"/>
			<stop  offset="1" style="stop-color:#008DCF"/>
		</linearGradient>
		<path fill="url(#SVGID_10_)" d="M63.13,534.707c-14.877,6.595-38.492,7.078-52.751,1.074c-14.256-6.006-13.766-16.227,1.104-22.82
			c14.898-6.598,38.501-7.074,52.772-1.071C78.514,517.893,78.023,528.108,63.13,534.707z"/>
	</g>
</g>
</svg>
