<?xml version="1.0" encoding="utf-8"?>
<!-- Generator: Adobe Illustrator 16.0.0, SVG Export Plug-In . SVG Version: 6.00 Build 0)  -->
<!DOCTYPE svg PUBLIC "-//W3C//DTD SVG 1.1//EN" "http://www.w3.org/Graphics/SVG/1.1/DTD/svg11.dtd">
<svg version="1.1" id="Layer_1" xmlns="http://www.w3.org/2000/svg" xmlns:xlink="http://www.w3.org/1999/xlink" x="0px" y="0px"
	 width="234.21px" height="139.28px" viewBox="0 0 234.21 139.28" enable-background="new 0 0 234.21 139.28" xml:space="preserve">
<g>
	<path fill="#231F20" d="M9.324,19.699h47.953v10.777H21.434v25.793h34.633v10.838H21.434v26.278h36.994v10.777H9.324V19.699z"/>
	<path fill="#231F20" d="M144.731,19.699h11.504v84.584h-10.414L89.271,39.14v65.143H77.888V19.699h9.809l57.035,65.696V19.699z"/>
	<path fill="#231F20" d="M201.488,68.843l-9.203-5.591c-5.772-3.525-9.88-6.992-12.321-10.404
		c-2.442-3.411-3.663-7.335-3.663-11.776c0-6.66,2.311-12.069,6.933-16.227c4.621-4.157,10.626-6.236,18.013-6.236
		c7.063,0,13.542,1.983,19.436,5.949v13.744c-6.096-5.863-12.654-8.794-19.678-8.794c-3.956,0-7.205,0.915-9.748,2.745
		s-3.814,4.171-3.814,7.025c0,2.533,0.937,4.906,2.81,7.117c1.873,2.212,4.886,4.534,9.037,6.966l9.248,5.473
		c10.316,6.163,15.476,14.006,15.476,23.532c0,6.781-2.271,12.291-6.812,16.529s-10.444,6.357-17.71,6.357
		c-8.355,0-15.965-2.568-22.826-7.705V82.168c6.539,8.285,14.107,12.428,22.705,12.428c3.794,0,6.952-1.057,9.476-3.168
		c2.522-2.111,3.784-4.756,3.784-7.934C212.629,78.346,208.915,73.463,201.488,68.843z"/>
</g>
</svg>
