<?xml version="1.0" encoding="utf-8"?>
<!-- Generator: Adobe Illustrator 16.0.0, SVG Export Plug-In . SVG Version: 6.00 Build 0)  -->
<!DOCTYPE svg PUBLIC "-//W3C//DTD SVG 1.1//EN" "http://www.w3.org/Graphics/SVG/1.1/DTD/svg11.dtd">
<svg version="1.1" id="Layer_1" xmlns="http://www.w3.org/2000/svg" xmlns:xlink="http://www.w3.org/1999/xlink" x="0px" y="0px"
	 width="314px" height="380px" viewBox="0 0 314 380" enable-background="new 0 0 314 380" xml:space="preserve">
<g>
	<rect x="57.563" y="187.509" fill="#1E5E61" width="197.094" height="21.401"/>
	<g>
		<g>
			<path fill="#06A1C6" d="M186.836,34.092c0,18.833-13.24,34.099-29.584,34.099c-16.343,0-29.583-15.266-29.583-34.099
				C127.668,15.268,140.909,0,157.252,0C173.596,0,186.836,15.268,186.836,34.092z"/>
			<path fill="#06A1C6" d="M224.801,144.491c-1.486-29.264-31.451-62.76-68.299-62.76c-36.851,0-66.816,33.496-68.303,62.76"/>
		</g>
		<g>
			<path fill="#06A1C6" d="M238.568,67.228c0,18.832,14.254,34.096,31.836,34.096c17.588,0,31.846-15.264,31.846-34.096
				c0-18.827-14.258-34.092-31.846-34.092C252.822,33.136,238.568,48.4,238.568,67.228z"/>
			<path fill="#06A1C6" d="M287.578,113.461c-8.895,0.637-10.654,3.26-13.289,5.636l-0.02,0.131l-41.145,40.124l-42.814,5.057
				c-8.584,0-15.543,6.299-15.543,14.039c0,7.758,6.959,8.987,15.543,8.987h39.756l24.385-0.067l29.166-33.603l6.363,5.522
				l-27.346,31.506v27.476h-44.686c-10.264,0-18.814,7.391-20.963,17.262l-0.539-0.217l-22.055,101.283h34.092l22.436-74.209h59.352
				c9.316,0,17.174-6.113,20.154-14.617c1.477-3.189,2.354-6.712,2.354-10.453v-98.271
				C312.779,125.2,304.088,112.271,287.578,113.461z"/>
		</g>
		<g>
			<path fill="#06A1C6" d="M74.435,67.228c0,18.832-14.256,34.096-31.841,34.096c-17.587,0-31.844-15.264-31.844-34.096
				c0-18.827,14.257-34.092,31.844-34.092C60.179,33.136,74.435,48.4,74.435,67.228z"/>
			<path fill="#06A1C6" d="M25.422,113.461c8.896,0.637,10.655,3.26,13.286,5.636l0.025,0.131l41.144,40.124l42.815,5.057
				c8.582,0,15.542,6.299,15.542,14.039c0,7.758-6.96,8.987-15.542,8.987H82.934l-24.384-0.067l-29.165-33.603l-6.364,5.522
				l27.344,31.506v27.476h44.688c10.263,0,18.814,7.391,20.958,17.262l0.542-0.217l22.055,101.283h-34.093l-22.437-74.209H22.727
				c-9.312,0-17.169-6.113-20.154-14.617c-1.474-3.189-2.351-6.712-2.351-10.453v-98.271C0.222,125.2,8.915,112.271,25.422,113.461z
				"/>
		</g>
	</g>
</g>
<defs>
	<filter id="Adobe_OpacityMaskFilter" filterUnits="userSpaceOnUse" x="0.222" y="349.327" width="312.557" height="336.597">
		<feColorMatrix  type="matrix" values="1 0 0 0 0  0 1 0 0 0  0 0 1 0 0  0 0 0 1 0"/>
	</filter>
</defs>
<mask maskUnits="userSpaceOnUse" x="0.222" y="349.327" width="312.557" height="336.597" id="SVGID_1_">
	<g filter="url(#Adobe_OpacityMaskFilter)">
		<linearGradient id="SVGID_2_" gradientUnits="userSpaceOnUse" x1="166.9834" y1="220.249" x2="166.9834" y2="418.0459">
			<stop  offset="0" style="stop-color:#FFFFFF"/>
			<stop  offset="0.1082" style="stop-color:#E7E5E4"/>
			<stop  offset="0.2956" style="stop-color:#BCB8B7"/>
			<stop  offset="0.5398" style="stop-color:#817B7C"/>
			<stop  offset="0.8281" style="stop-color:#443F3F"/>
			<stop  offset="1" style="stop-color:#231F20"/>
		</linearGradient>
		<rect x="-72.255" y="268.289" fill="url(#SVGID_2_)" width="478.477" height="287.986"/>
	</g>
</mask>
<g mask="url(#SVGID_1_)">
	<rect x="57.563" y="477.014" fill="#06A1C6" width="197.094" height="21.401"/>
	<path fill="#06A1C6" d="M157.252,617.733c-16.343,0-29.583,15.266-29.583,34.099c0,18.824,13.24,34.092,29.583,34.092
		c16.344,0,29.584-15.268,29.584-34.092C186.836,632.999,173.596,617.733,157.252,617.733z"/>
	<path fill="#06A1C6" d="M156.502,604.192c36.848,0,66.813-33.496,68.299-62.76H88.199
		C89.686,570.696,119.651,604.192,156.502,604.192z"/>
	<path fill="#06A1C6" d="M270.404,584.601c-17.582,0-31.836,15.264-31.836,34.096c0,18.827,14.254,34.092,31.836,34.092
		c17.588,0,31.846-15.265,31.846-34.092C302.25,599.864,287.992,584.601,270.404,584.601z"/>
	<path fill="#06A1C6" d="M310.426,438.153c-2.98-8.504-10.838-14.617-20.154-14.617H230.92l-22.436-74.209h-34.092l22.055,101.283
		l0.539-0.217c2.148,9.871,10.699,17.262,20.963,17.262h44.686v27.476l27.346,31.506l-6.363,5.522l-29.166-33.603l-24.385-0.067
		h-39.756c-8.584,0-15.543,1.229-15.543,8.987c0,7.74,6.959,14.039,15.543,14.039l42.814,5.057l41.145,40.124l0.02,0.131
		c2.635,2.376,4.395,4.999,13.289,5.636c16.51,1.189,25.201-11.739,25.201-25.585v-98.271
		C312.779,444.865,311.902,441.343,310.426,438.153z"/>
	<ellipse fill="#06A1C6" cx="42.594" cy="618.694" rx="31.844" ry="34.094"/>
	<path fill="#06A1C6" d="M138.234,507.477c0-7.758-6.96-8.987-15.542-8.987H82.934l-24.384,0.067l-29.165,33.603l-6.364-5.522
		l27.344-31.506v-27.476h44.688c10.263,0,18.814-7.391,20.958-17.262l0.542,0.217l22.055-101.283h-34.093l-22.437,74.209H22.727
		c-9.312,0-17.169,6.113-20.154,14.617c-1.474,3.189-2.351,6.712-2.351,10.453v98.271c0,13.846,8.692,26.774,25.2,25.585
		c8.896-0.637,10.655-3.26,13.286-5.636l0.025-0.131l41.144-40.124l42.815-5.057C131.273,521.516,138.234,515.217,138.234,507.477z"
		/>
</g>
</svg>
