<?xml version="1.0" encoding="utf-8"?>
<!-- Generator: Adobe Illustrator 16.0.0, SVG Export Plug-In . SVG Version: 6.00 Build 0)  -->
<!DOCTYPE svg PUBLIC "-//W3C//DTD SVG 1.1//EN" "http://www.w3.org/Graphics/SVG/1.1/DTD/svg11.dtd">
<svg version="1.1" id="Layer_1" xmlns="http://www.w3.org/2000/svg" xmlns:xlink="http://www.w3.org/1999/xlink" x="0px" y="0px"
	 width="74px" height="74px" viewBox="0 0 74 74" enable-background="new 0 0 74 74" xml:space="preserve">
<g>
	<path fill="#FFFFFF" d="M57.063,72.044H7.809c-2.827,0-5.126-2.3-5.126-5.126V17.666c0-2.828,2.3-5.128,5.126-5.128h49.253
		c2.826,0,5.125,2.3,5.125,5.128v49.252C62.188,69.744,59.891,72.044,57.063,72.044z M7.809,17.538c-0.07,0-0.126,0.058-0.126,0.128
		v49.252c0,0.068,0.057,0.126,0.126,0.126h49.253c0.07,0,0.125-0.056,0.125-0.126V17.666c0-0.07-0.057-0.128-0.125-0.128H7.809z"/>
</g>
<g>
	<polygon fill="#FFFFFF" points="15.357,58.279 24.805,47.378 30.619,52.465 39.341,43.381 48.425,57.916 	"/>
</g>
<g>
	<circle fill="#FFFFFF" cx="23.17" cy="33.388" r="4.542"/>
</g>
<g>
	<path fill="#FFFFFF" d="M66.512,1.956H17.257c-2.498,0-4.532,1.921-4.761,4.36h4.761h4.073h45.182c0.245,0,0.444,0.2,0.444,0.447
		h0.123v54.002c2.38-0.285,4.237-2.293,4.237-4.748V6.764C71.316,4.112,69.161,1.956,66.512,1.956z"/>
</g>
</svg>
