<?xml version="1.0" encoding="utf-8"?>
<!-- Generator: Adobe Illustrator 16.0.0, SVG Export Plug-In . SVG Version: 6.00 Build 0)  -->
<!DOCTYPE svg PUBLIC "-//W3C//DTD SVG 1.1//EN" "http://www.w3.org/Graphics/SVG/1.1/DTD/svg11.dtd">
<svg version="1.1" id="Layer_1" xmlns="http://www.w3.org/2000/svg" xmlns:xlink="http://www.w3.org/1999/xlink" x="0px" y="0px"
	 width="74px" height="74px" viewBox="0 0 74 74" enable-background="new 0 0 74 74" xml:space="preserve">
<g>
	<path fill="#FFFFFF" d="M70.496,13.277h-6.021H54.245V5.613c0-1.934-1.573-3.506-3.507-3.506H23.261
		c-1.932,0-3.504,1.572-3.504,3.506v7.664H9.525H3.504v4h2.548l2.979,51.225c0.039,1.876,1.596,3.391,3.506,3.391h48.927
		c1.908,0,3.466-1.515,3.504-3.391l2.983-51.225h2.545V13.277z M23.757,6.107h26.488l-0.001,6.951H23.757V6.107z M60.997,67.893
		H13.003l-2.947-50.615h53.888L60.997,67.893z"/>
	<rect x="35.002" y="24.75" fill="#FFFFFF" width="4" height="37.738"/>
	<rect x="48.811" y="28.841" fill="#FFFFFF" width="4" height="28.19"/>
	<rect x="21.189" y="28.841" fill="#FFFFFF" width="4" height="28.19"/>
</g>
</svg>
