<?xml version="1.0" encoding="utf-8"?>
<!-- Generator: Adobe Illustrator 16.0.0, SVG Export Plug-In . SVG Version: 6.00 Build 0)  -->
<!DOCTYPE svg PUBLIC "-//W3C//DTD SVG 1.1//EN" "http://www.w3.org/Graphics/SVG/1.1/DTD/svg11.dtd">
<svg version="1.1" id="Layer_1" xmlns="http://www.w3.org/2000/svg" xmlns:xlink="http://www.w3.org/1999/xlink" x="0px" y="0px"
	 width="74px" height="74px" viewBox="0 0 74 74" enable-background="new 0 0 74 74" xml:space="preserve">
<g>
	<path fill="#FFFFFF" d="M61.626,64.753H12.373c-1.724,0-3.126-1.402-3.126-3.126V12.374c0-1.724,1.402-3.127,3.126-3.127h49.253
		c1.725,0,3.127,1.403,3.127,3.127v49.253C64.753,63.351,63.351,64.753,61.626,64.753z M12.373,10.247
		c-1.172,0-2.126,0.954-2.126,2.127v49.253c0,1.172,0.954,2.126,2.126,2.126h49.253c1.173,0,2.127-0.954,2.127-2.126V12.374
		c0-1.173-0.954-2.127-2.127-2.127H12.373z"/>
</g>
<polygon fill="#FFFFFF" points="19.921,52.988 29.368,42.087 35.184,47.174 43.904,38.09 52.988,52.625 "/>
<circle fill="#FFFFFF" cx="27.734" cy="28.098" r="4.542"/>
</svg>
