<?xml version="1.0" encoding="utf-8"?>
<!-- Generator: Adobe Illustrator 16.0.0, SVG Export Plug-In . SVG Version: 6.00 Build 0)  -->
<!DOCTYPE svg PUBLIC "-//W3C//DTD SVG 1.1//EN" "http://www.w3.org/Graphics/SVG/1.1/DTD/svg11.dtd">
<svg version="1.1" id="Layer_1" xmlns="http://www.w3.org/2000/svg" xmlns:xlink="http://www.w3.org/1999/xlink" x="0px" y="0px"
	 width="72px" height="72px" viewBox="0 0 72 72" enable-background="new 0 0 72 72" xml:space="preserve">
<g>
	<g>
		<polygon fill="#FFFFFF" points="68.57,3.079 12.998,29.4 12.998,42.598 68.57,68.922 		"/>
		<path fill="#FFFFFF" d="M70.519,72l-59.47-28.169V28.167L70.519,0V72z M14.946,41.365l51.676,24.478V6.157L14.946,30.633V41.365z"
			/>
	</g>
	<g>
		<path fill="#FFFFFF" d="M12.998,46.676c0,1.565-1.007,2.831-2.252,2.831H5.682c-1.244,0-2.252-1.266-2.252-2.831V25.457
			c0-1.563,1.007-2.829,2.252-2.829h5.064c1.244,0,2.252,1.265,2.252,2.829V46.676z"/>
		<path fill="#492F7F" d="M10.746,51.455H5.682c-2.315,0-4.2-2.145-4.2-4.779V25.457c0-2.634,1.885-4.777,4.2-4.777h5.064
			c2.315,0,4.2,2.143,4.2,4.777v21.219C14.946,49.311,13.062,51.455,10.746,51.455z M10.707,24.57l-5.025,0.006
			c-0.063,0.038-0.304,0.355-0.304,0.88v21.219c0,0.525,0.242,0.845,0.344,0.889l4.998-0.006c0.107-0.063,0.329-0.378,0.329-0.883
			V25.457C11.049,24.932,10.808,24.614,10.707,24.57z"/>
	</g>
	<g>
		<rect x="51.216" y="3.079" fill="#492F7F" width="3.896" height="65.843"/>
	</g>
</g>
</svg>
