<?xml version="1.0" encoding="utf-8"?>
<!-- Generator: Adobe Illustrator 16.0.0, SVG Export Plug-In . SVG Version: 6.00 Build 0)  -->
<!DOCTYPE svg PUBLIC "-//W3C//DTD SVG 1.1//EN" "http://www.w3.org/Graphics/SVG/1.1/DTD/svg11.dtd">
<svg version="1.1" id="Layer_1" xmlns="http://www.w3.org/2000/svg" xmlns:xlink="http://www.w3.org/1999/xlink" x="0px" y="0px"
	 width="52px" height="52px" viewBox="0 0 52 52" enable-background="new 0 0 52 52" xml:space="preserve">
<g>
	<g>
		<path fill="#2E89BC" d="M43.934,50.864H8.064c-1.298,0-2.354-1.04-2.354-2.319L4.504,10.686c0-1.318,1.056-2.358,2.354-2.358
			h38.283c1.298,0,2.354,1.04,2.354,2.318l-1.209,37.939C46.287,49.824,45.231,50.864,43.934,50.864z M8.206,48.364h35.587
			l1.195-37.537H7.01L8.206,48.364z"/>
	</g>
	<g>
		<rect x="2.443" y="8.326" fill="#2E89BC" width="47.113" height="2.5"/>
	</g>
	<g>
		<path fill="#2E89BC" d="M36.07,10.666H15.928c-1.298,0-2.354-1.057-2.354-2.354V3.489c0-1.298,1.056-2.354,2.354-2.354H36.07
			c1.299,0,2.355,1.056,2.355,2.354v4.822C38.426,9.609,37.369,10.666,36.07,10.666z M16.074,8.166h19.852v-4.53H16.074V8.166z"/>
	</g>
	<g>
		<g>
			<rect x="24.75" y="16.52" fill="#2E89BC" width="2.5" height="27.667"/>
		</g>
		<g>
			<rect x="34.875" y="19.52" fill="#2E89BC" width="2.5" height="20.667"/>
		</g>
		<g>
			<rect x="14.625" y="19.52" fill="#2E89BC" width="2.5" height="20.667"/>
		</g>
	</g>
</g>
</svg>
