<?xml version="1.0" encoding="utf-8"?>
<!-- Generator: Adobe Illustrator 16.0.0, SVG Export Plug-In . SVG Version: 6.00 Build 0)  -->
<!DOCTYPE svg PUBLIC "-//W3C//DTD SVG 1.1//EN" "http://www.w3.org/Graphics/SVG/1.1/DTD/svg11.dtd">
<svg version="1.1" id="Layer_1" xmlns="http://www.w3.org/2000/svg" xmlns:xlink="http://www.w3.org/1999/xlink" x="0px" y="0px"
	 width="60px" height="60px" viewBox="0 0 60 60" enable-background="new 0 0 60 60" xml:space="preserve">
<g>
	<circle fill="#FFFFFF" cx="29.999" cy="30" r="25"/>
	<path fill="#989898" d="M29.999,56c-14.336,0-26-11.663-26-26c0-14.336,11.664-26,26-26c14.337,0,26,11.664,26,26
		C55.999,44.337,44.336,56,29.999,56z M29.999,6c-13.233,0-24,10.767-24,24s10.767,24,24,24s24-10.767,24-24S43.232,6,29.999,6z"/>
</g>
<g>
	
		<rect x="12.953" y="27.254" transform="matrix(-0.7071 -0.7071 0.7071 -0.7071 29.9932 72.4294)" fill="#989898" width="34.091" height="5.496"/>
	
		<rect x="12.953" y="27.249" transform="matrix(-0.7071 0.7071 -0.7071 -0.7071 72.4235 29.9992)" fill="#989898" width="34.091" height="5.499"/>
</g>
</svg>
