<?xml version="1.0" encoding="utf-8"?>
<!-- Generator: Adobe Illustrator 16.0.0, SVG Export Plug-In . SVG Version: 6.00 Build 0)  -->
<!DOCTYPE svg PUBLIC "-//W3C//DTD SVG 1.1//EN" "http://www.w3.org/Graphics/SVG/1.1/DTD/svg11.dtd">
<svg version="1.1" id="Layer_1" xmlns="http://www.w3.org/2000/svg" xmlns:xlink="http://www.w3.org/1999/xlink" x="0px" y="0px"
	 width="77px" height="76px" viewBox="0 0 77 76" enable-background="new 0 0 77 76" xml:space="preserve">
<path fill="#2E89BC" d="M38.499,3.339c19.111,0,34.66,15.55,34.66,34.661S57.61,72.66,38.499,72.66
	C19.39,72.66,3.839,57.111,3.839,38S19.39,3.339,38.499,3.339 M38.499,0.326C17.692,0.326,0.827,17.193,0.827,38
	s16.865,37.674,37.672,37.674S76.173,58.807,76.173,38S59.306,0.326,38.499,0.326 M37.962,15.953c-2.422,0-4.385,1.963-4.385,4.389
	c0,2.424,1.963,4.387,4.385,4.387c2.426,0,4.391-1.963,4.391-4.387C42.353,17.916,40.388,15.953,37.962,15.953 M41.925,56.836
	V29.438H31.649v1.713h3.426v25.686h-3.426v1.713h13.699v-1.713H41.925z"/>
</svg>
