<?xml version="1.0" encoding="utf-8"?>
<!-- Generator: Adobe Illustrator 16.0.0, SVG Export Plug-In . SVG Version: 6.00 Build 0)  -->
<!DOCTYPE svg PUBLIC "-//W3C//DTD SVG 1.1//EN" "http://www.w3.org/Graphics/SVG/1.1/DTD/svg11.dtd">
<svg version="1.1" id="Layer_1" xmlns="http://www.w3.org/2000/svg" xmlns:xlink="http://www.w3.org/1999/xlink" x="0px" y="0px"
	 width="60px" height="60px" viewBox="0 0 60 60" enable-background="new 0 0 60 60" xml:space="preserve">
<g>
	<g>
		<circle fill="#FFFFFF" cx="30" cy="30" r="28.5"/>
		<path fill="#D6D6D6" d="M30,60C13.458,60,0,46.542,0,30S13.458,0,30,0s30,13.458,30,30S46.542,60,30,60z M30,3
			C15.112,3,3,15.112,3,30s12.112,27,27,27s27-12.112,27-27S44.888,3,30,3z"/>
	</g>
	<g enable-background="new    ">
		<path fill="#989898" d="M27.505,41.258c0-0.67,0.236-1.236,0.708-1.701s1.022-0.697,1.651-0.697c0.615,0,1.162,0.232,1.64,0.697
			s0.719,1.031,0.719,1.701c0,0.629-0.227,1.176-0.678,1.641s-0.977,0.697-1.579,0.697c-0.725,0-1.316-0.232-1.774-0.697
			S27.505,41.887,27.505,41.258z M31.607,11.44l-0.391,22.886h-2.809l-0.39-22.886H31.607z"/>
	</g>
</g>
</svg>
