<?xml version="1.0" encoding="utf-8"?>
<!-- Generator: Adobe Illustrator 16.0.0, SVG Export Plug-In . SVG Version: 6.00 Build 0)  -->
<!DOCTYPE svg PUBLIC "-//W3C//DTD SVG 1.1//EN" "http://www.w3.org/Graphics/SVG/1.1/DTD/svg11.dtd">
<svg version="1.1" id="Layer_1" xmlns="http://www.w3.org/2000/svg" xmlns:xlink="http://www.w3.org/1999/xlink" x="0px" y="0px"
	 width="45px" height="45px" viewBox="0 0 45 45" enable-background="new 0 0 45 45" xml:space="preserve">
<g>
	<g>
		<path fill="#2E89BC" d="M8.269,1.99c1.516,0.11,2.678,2.352,3.479,3.455c1.246,1.718,2.373,3.521,3.371,5.393
			c0.227,0.43,0.451,0.871,0.529,1.352c0.281,1.719-1.297,3.093-2.26,4.544c-0.326,0.493-0.602,1.075-0.496,1.655
			c0.078,0.416,0.338,0.772,0.594,1.109c3.203,4.21,6.918,8.032,11.037,11.363c0.57,0.46,1.188,0.93,1.918,1.018
			c2.006,0.245,3.262-2.357,5.25-2.726c1.131-0.209,2.162,0.378,3.174,0.92c2.43,1.301,4.851,2.731,7.041,4.406
			c0.436,0.333,0.822,0.762,1,1.278c0.168,0.484,0.109,1.018-0.016,1.514c-0.285,1.126-0.91,2.137-1.621,3.058
			c-0.643,0.831-1.383,1.617-2.316,2.107c-0.863,0.452-1.851,0.627-2.828,0.65c-2.531,0.06-4.982-0.859-7.268-1.948
			C20.742,37.271,13.861,31.094,8.503,23.9c-2.449-3.288-4.619-6.838-5.865-10.738C2.117,11.536,1.761,9.8,2.109,8.131
			C2.419,6.629,3.291,5.318,4.4,4.274C5.191,3.528,7.089,1.819,8.267,1.99 M8.259,0.211c-2.254,0.51-4.234,1.843-5.598,3.341
			C1.308,5.033,0.38,6.543,0.205,8.569c-0.15,1.707,0.178,3.43,0.684,5.055c1.18,3.789,3.316,7.272,5.604,10.49
			c4.324,6.077,9.607,11.226,15.809,15.384c3.932,2.635,8.658,5.335,13.543,5.335c1.174,0,2.416-0.121,3.515-0.55
			c0.793-0.312,1.418-0.886,2.029-1.463c1.51-1.423,2.84-3.217,3.23-5.292c0.127-0.68,0.455-2.264-0.092-2.775
			c-2.768-2.583-5.896-4.553-8.476-6.069c-0.623-0.367-1.287-0.655-1.945-0.955c-0.834-0.379-1.574-0.743-2.504-0.485
			s-1.779,0.877-2.586,1.384c-0.227,0.142-2.227,1.511-2.324,1.509c-0.998-0.552-2.77-1.932-6.086-5.21
			c-3.295-3.261-5.225-5.869-5.787-6.86c0.732-1.12,1.414-2.278,1.99-3.485c0.355-0.746,0.871-1.564,0.752-2.427
			c-0.092-0.669-0.512-1.396-0.799-2.001c-0.709-1.484-1.605-2.854-2.52-4.222c-0.816-1.221-1.645-2.456-2.576-3.592
			c-0.461-0.563-0.975-1.34-1.615-1.724C9.501,0.287,8.876,0.07,8.259,0.211"/>
	</g>
</g>
</svg>
