<?xml version="1.0" encoding="utf-8"?>
<!-- Generator: Adobe Illustrator 16.0.0, SVG Export Plug-In . SVG Version: 6.00 Build 0)  -->
<!DOCTYPE svg PUBLIC "-//W3C//DTD SVG 1.1//EN" "http://www.w3.org/Graphics/SVG/1.1/DTD/svg11.dtd">
<svg version="1.1" id="Layer_1" xmlns="http://www.w3.org/2000/svg" xmlns:xlink="http://www.w3.org/1999/xlink" x="0px" y="0px"
	 width="52px" height="52px" viewBox="0 0 52 52" enable-background="new 0 0 52 52" xml:space="preserve">
<g>
	<g>
		<path fill="#ED1F24" d="M25.994,52c-6.946,0-13.477-2.705-18.389-7.616c-10.14-10.137-10.14-26.632,0-36.77
			C12.517,2.704,19.048,0,25.994,0s13.477,2.704,18.389,7.615C49.295,12.526,52,19.055,52,26c0,6.944-2.705,13.474-7.617,18.385
			C39.471,49.295,32.94,52,25.994,52z M25.994,4.562c-5.728,0-11.113,2.23-15.164,6.279c-8.36,8.359-8.36,21.96,0,30.319
			c4.051,4.049,9.436,6.279,15.164,6.279c5.728,0,11.113-2.23,15.162-6.279c4.051-4.049,6.282-9.433,6.282-15.159
			c0-5.727-2.231-11.11-6.281-15.16C37.107,6.792,31.722,4.562,25.994,4.562z"/>
	</g>
	<g>
		
			<rect x="1.402" y="23.359" transform="matrix(0.7072 0.707 -0.707 0.7072 25.6334 -10.6158)" fill="#ED1F24" width="48.463" height="4.561"/>
	</g>
</g>
</svg>
