<?xml version="1.0" encoding="utf-8"?>
<!-- Generator: Adobe Illustrator 16.0.0, SVG Export Plug-In . SVG Version: 6.00 Build 0)  -->
<!DOCTYPE svg PUBLIC "-//W3C//DTD SVG 1.1//EN" "http://www.w3.org/Graphics/SVG/1.1/DTD/svg11.dtd">
<svg version="1.1" id="Layer_1" xmlns="http://www.w3.org/2000/svg" xmlns:xlink="http://www.w3.org/1999/xlink" x="0px" y="0px"
	 width="49px" height="62px" viewBox="0 0 49 62" enable-background="new 0 0 49 62" xml:space="preserve">
<path fill="#999999" d="M33.678,13.499c-6.225-7.473-17.365-8.489-24.836-2.265c-7.473,6.223-8.487,17.365-2.264,24.837
	c5.579,6.701,15.118,8.204,22.417,3.953l12.341,14.819l5.164-4.3L34.055,35.601C39.025,29.203,39.07,19.972,33.678,13.499z
	 M28.727,35.11c-5.691,4.739-14.182,3.966-18.925-1.727C5.063,27.689,5.836,19.203,11.53,14.46
	c5.692-4.742,14.181-3.967,18.921,1.726C35.194,21.879,34.42,30.368,28.727,35.11z"/>
</svg>
