<?xml version="1.0" encoding="utf-8"?>
<!-- Generator: Adobe Illustrator 16.0.0, SVG Export Plug-In . SVG Version: 6.00 Build 0)  -->
<!DOCTYPE svg PUBLIC "-//W3C//DTD SVG 1.1//EN" "http://www.w3.org/Graphics/SVG/1.1/DTD/svg11.dtd">
<svg version="1.1" id="Layer_1" xmlns="http://www.w3.org/2000/svg" xmlns:xlink="http://www.w3.org/1999/xlink" x="0px" y="0px"
	 width="90px" height="90px" viewBox="0 0 90 90" enable-background="new 0 0 90 90" xml:space="preserve">
<g>
	
		<image overflow="visible" opacity="0.5" width="396" height="396" xlink:href="A0EB32F4.png"  transform="matrix(0.2273 0 0 0.2273 0 0)">
	</image>
	<g>
		<g>
			<path fill="#FFFFFF" d="M44.98,84.279c-21.669,0-39.299-17.629-39.299-39.299c0-21.669,17.629-39.299,39.299-39.299
				c21.67,0,39.301,17.629,39.301,39.299C84.281,66.65,66.65,84.279,44.98,84.279z M44.98,8.523
				c-20.102,0-36.458,16.355-36.458,36.458c0,20.104,16.355,36.459,36.458,36.459c20.104,0,36.459-16.355,36.459-36.459
				C81.439,24.878,65.084,8.523,44.98,8.523z"/>
		</g>
	</g>
</g>
</svg>
