<?xml version="1.0" encoding="utf-8"?>
<!-- Generator: Adobe Illustrator 16.0.0, SVG Export Plug-In . SVG Version: 6.00 Build 0)  -->
<!DOCTYPE svg PUBLIC "-//W3C//DTD SVG 1.1//EN" "http://www.w3.org/Graphics/SVG/1.1/DTD/svg11.dtd">
<svg version="1.1" id="Layer_1" xmlns="http://www.w3.org/2000/svg" xmlns:xlink="http://www.w3.org/1999/xlink" x="0px" y="0px"
	 width="60px" height="60px" viewBox="0 0 60 60" enable-background="new 0 0 60 60" xml:space="preserve">
<g>
	<circle fill="#FFFFFF" cx="30" cy="30" r="25"/>
	<path fill="#493080" d="M30,56.5C15.388,56.5,3.5,44.612,3.5,30S15.388,3.5,30,3.5S56.5,15.388,56.5,30S44.612,56.5,30,56.5z
		 M30,6.5C17.042,6.5,6.5,17.042,6.5,30S17.042,53.5,30,53.5S53.5,42.958,53.5,30S42.958,6.5,30,6.5z"/>
</g>
<g>
	<circle fill="#493080" cx="30" cy="30" r="10.015"/>
	<path fill="#493080" d="M30,43.016c-7.177,0-13.015-5.839-13.015-13.016S22.823,16.985,30,16.985S43.016,22.823,43.016,30
		S37.177,43.016,30,43.016z M30,22.985c-3.868,0-7.015,3.147-7.015,7.015s3.147,7.016,7.015,7.016s7.016-3.147,7.016-7.016
		S33.868,22.985,30,22.985z"/>
</g>
</svg>
