<?xml version="1.0" encoding="utf-8"?>
<!-- Generator: Adobe Illustrator 16.0.0, SVG Export Plug-In . SVG Version: 6.00 Build 0)  -->
<!DOCTYPE svg PUBLIC "-//W3C//DTD SVG 1.1//EN" "http://www.w3.org/Graphics/SVG/1.1/DTD/svg11.dtd">
<svg version="1.1" id="Layer_1" xmlns="http://www.w3.org/2000/svg" xmlns:xlink="http://www.w3.org/1999/xlink" x="0px" y="0px"
	 width="100px" height="100px" viewBox="0 0 100 100" enable-background="new 0 0 100 100" xml:space="preserve">
<g>
	<circle fill="#E5E5E5" cx="50" cy="50" r="50"/>
	<g>
		<path fill="none" d="M29.376,41.342c0,2.862,1.463,5.473,3.911,6.982l2.098,1.292l-2.343,0.761
			c-6.093,1.976-10.187,7.604-10.187,14.007c0,0.106,0.01,1.6,0.017,2.805l0.003,0.404h6.654c0.284-7.7,4.746-14.323,11.195-17.671
			l-0.94-0.305l2.098-1.293c0.282-0.174,0.545-0.364,0.8-0.566c-2.823-2.24-4.642-5.69-4.642-9.575c0-1.746,0.372-3.404,1.03-4.907
			c-0.483-0.089-0.978-0.142-1.486-0.142C33.059,33.134,29.376,36.816,29.376,41.342z"/>
		<path fill="#C6C6C5" d="M56.413,48.599c3.494-2.155,5.83-6.008,5.83-10.416c0-6.762-5.481-12.244-12.244-12.244
			c-4.167,0-7.843,2.087-10.054,5.268c-0.45,0.647-0.838,1.339-1.159,2.069c-0.659,1.503-1.03,3.161-1.03,4.907
			c0,3.885,1.819,7.334,4.643,9.575c0.38,0.302,0.773,0.585,1.189,0.841c-1.092,0.354-2.144,0.802-3.147,1.323
			c-6.451,3.348-10.912,9.971-11.196,17.671c-0.009,0.258-0.031,0.512-0.031,0.772c0,0.076,0.005,0.699,0.009,1.505
			c0.011,1.665,0.027,4.118,0.027,4.19h41.5c0-1.993,0.036-3.718,0.036-5.695C70.785,59.125,64.753,51.303,56.413,48.599z"/>
		<path fill="#C6C6C5" d="M27.098,41.342c0,2.939,1.206,5.67,3.3,7.63c-5.949,2.763-9.821,8.722-9.821,15.412
			c0,0.106,0.011,1.607,0.017,2.819l0.012,2.667h7.193c-0.005-0.806-0.009-1.429-0.009-1.505c0-0.261,0.022-0.515,0.031-0.772
			h-4.946l-0.003-0.404c-0.007-1.205-0.017-2.698-0.017-2.805c0-6.402,4.093-12.031,10.187-14.007l2.343-0.761l-2.098-1.292
			c-2.448-1.51-3.911-4.12-3.911-6.982c0-4.294,3.32-7.813,7.526-8.164v-2.288C31.438,31.246,27.098,35.791,27.098,41.342z"/>
		<path fill="#C6C6C5" d="M72.902,41.342c0,2.939-1.206,5.67-3.301,7.63c5.95,2.763,9.821,8.722,9.821,15.412
			c0,0.106-0.01,1.607-0.017,2.819l-0.013,2.667h-7.192c0.005-0.806,0.009-1.429,0.009-1.505c0-0.261-0.021-0.515-0.03-0.772h4.945
			l0.004-0.404c0.007-1.205,0.017-2.698,0.017-2.805c0-6.402-4.094-12.031-10.187-14.007l-2.343-0.761l2.097-1.292
			c2.448-1.51,3.911-4.12,3.911-6.982c0-4.294-3.32-7.813-7.525-8.164v-2.288C68.562,31.246,72.902,35.791,72.902,41.342z"/>
	</g>
</g>
</svg>
