<?xml version="1.0" encoding="utf-8"?>
<!-- Generator: Adobe Illustrator 16.0.0, SVG Export Plug-In . SVG Version: 6.00 Build 0)  -->
<!DOCTYPE svg PUBLIC "-//W3C//DTD SVG 1.1//EN" "http://www.w3.org/Graphics/SVG/1.1/DTD/svg11.dtd">
<svg version="1.1" id="Layer_1" xmlns="http://www.w3.org/2000/svg" xmlns:xlink="http://www.w3.org/1999/xlink" x="0px" y="0px"
	 width="100px" height="100px" viewBox="0 0 100 100" enable-background="new 0 0 100 100" xml:space="preserve">
<g>
	<path fill="#E5E5E5" d="M50,64.429c18.156,0,33.738,6.154,40.434,14.93C96.445,71.106,100,60.95,100,49.958
		c0-27.613-22.385-50-50-50c-27.614,0-50,22.387-50,50c0,10.992,3.556,21.148,9.567,29.4C16.263,70.583,31.843,64.429,50,64.429z"/>
	<g>
		<path fill="#C6C6C5" d="M50,100.042c3.516,0,6.945-0.365,10.256-1.057H39.744C43.055,99.677,46.484,100.042,50,100.042z"/>
		<path fill="#C6C6C5" d="M50,64.429c-18.157,0-33.737,6.154-40.433,14.93c7.168,9.842,17.834,16.969,30.177,19.543h20.512
			C72.6,96.327,83.266,89.2,90.434,79.358C83.738,70.583,68.156,64.429,50,64.429z"/>
	</g>
	<circle fill="#C6C6C5" cx="50" cy="36.513" r="22.154"/>
</g>
</svg>
