<?xml version="1.0" encoding="utf-8"?>
<!-- Generator: Adobe Illustrator 16.0.0, SVG Export Plug-In . SVG Version: 6.00 Build 0)  -->
<!DOCTYPE svg PUBLIC "-//W3C//DTD SVG 1.1//EN" "http://www.w3.org/Graphics/SVG/1.1/DTD/svg11.dtd">
<svg version="1.1" id="Layer_1" xmlns="http://www.w3.org/2000/svg" xmlns:xlink="http://www.w3.org/1999/xlink" x="0px" y="0px"
	 width="52px" height="52px" viewBox="0 0 52 52" enable-background="new 0 0 52 52" xml:space="preserve">
<g>
	<g>
		<path fill="#ED1C24" d="M7.438,49.444c-6.627,0-9.337-4.695-6.024-10.434L19.976,6.86c3.313-5.739,8.735-5.739,12.047,0
			l18.563,32.15c3.313,5.738,0.604,10.434-6.023,10.434H7.438z"/>
	</g>
	<g>
		<path fill="#FFFFFF" d="M17.246,38.931l7.6-19.791h2.822l8.1,19.791h-2.982l-2.309-5.994H22.2l-2.173,5.994H17.246z
			 M22.956,30.804h6.708l-2.063-5.48c-0.631-1.664-1.099-3.033-1.405-4.104c-0.252,1.269-0.607,2.529-1.066,3.781L22.956,30.804z"/>
	</g>
</g>
</svg>
