<?xml version="1.0" encoding="utf-8"?>
<!-- Generator: Adobe Illustrator 16.0.0, SVG Export Plug-In . SVG Version: 6.00 Build 0)  -->
<!DOCTYPE svg PUBLIC "-//W3C//DTD SVG 1.1//EN" "http://www.w3.org/Graphics/SVG/1.1/DTD/svg11.dtd">
<svg version="1.1" id="Layer_1" xmlns="http://www.w3.org/2000/svg" xmlns:xlink="http://www.w3.org/1999/xlink" x="0px" y="0px"
	 width="52px" height="52px" viewBox="0 0 52 52" enable-background="new 0 0 52 52" xml:space="preserve">
<g>
	<g>
		<path fill="#F38420" d="M5006.794,6685.718c-6.627,0-9.337-4.694-6.024-10.434l18.563-32.149c3.313-5.739,8.734-5.739,12.047,0
			l18.563,32.149c3.313,5.739,0.604,10.434-6.023,10.434H5006.794z"/>
	</g>
	<g>
		<path fill="#FFFFFF" d="M5018.391,6676.831v-19.79h7.425c1.512,0,2.725,0.201,3.637,0.601c0.914,0.401,1.629,1.018,2.147,1.851
			c0.517,0.833,0.775,1.701,0.775,2.612c0,0.846-0.229,1.642-0.688,2.389c-0.459,0.747-1.152,1.351-2.079,1.809
			c1.196,0.351,2.116,0.95,2.761,1.797c0.643,0.845,0.964,1.844,0.964,2.996c0,0.926-0.194,1.788-0.587,2.585
			c-0.391,0.795-0.875,1.41-1.45,1.842c-0.576,0.433-1.298,0.758-2.167,0.979s-1.933,0.331-3.192,0.331H5018.391z M5021.01,6665.358
			h4.279c1.16,0,1.992-0.078,2.496-0.229c0.667-0.199,1.169-0.527,1.506-0.986c0.338-0.459,0.506-1.034,0.506-1.729
			c0-0.656-0.158-1.235-0.473-1.733c-0.315-0.501-0.765-0.843-1.35-1.026c-0.586-0.186-1.589-0.277-3.012-0.277h-3.953V6665.358z
			 M5021.01,6674.496h4.927c0.846,0,1.439-0.031,1.781-0.095c0.604-0.107,1.106-0.287,1.512-0.54
			c0.405-0.251,0.738-0.617,0.999-1.099s0.393-1.039,0.393-1.668c0-0.738-0.189-1.38-0.566-1.924
			c-0.379-0.545-0.902-0.928-1.574-1.148c-0.67-0.22-1.636-0.331-2.896-0.331h-4.575V6674.496z"/>
	</g>
</g>
<g>
	<g>
		<path fill="#F38420" d="M7.438,49.443c-6.627,0-9.337-4.694-6.024-10.434L19.976,6.86c3.313-5.739,8.735-5.739,12.048,0
			L50.586,39.01c3.313,5.739,0.604,10.434-6.023,10.434H7.438z"/>
	</g>
	<g>
		<path fill="#FFFFFF" d="M19.035,40.557v-19.79h7.425c1.512,0,2.725,0.201,3.637,0.601c0.914,0.401,1.629,1.018,2.147,1.851
			c0.517,0.833,0.775,1.701,0.775,2.612c0,0.846-0.229,1.642-0.688,2.389c-0.459,0.747-1.152,1.351-2.079,1.809
			c1.196,0.351,2.116,0.95,2.761,1.797c0.643,0.845,0.964,1.844,0.964,2.996c0,0.926-0.194,1.788-0.587,2.585
			c-0.391,0.795-0.875,1.41-1.45,1.842c-0.576,0.433-1.298,0.758-2.167,0.979s-1.933,0.331-3.193,0.331H19.035z M21.654,29.084
			h4.279c1.161,0,1.993-0.078,2.497-0.229c0.667-0.199,1.169-0.527,1.506-0.986c0.338-0.459,0.506-1.034,0.506-1.729
			c0-0.656-0.158-1.235-0.473-1.733c-0.315-0.501-0.765-0.843-1.35-1.026c-0.586-0.186-1.589-0.277-3.012-0.277h-3.954V29.084z
			 M21.654,38.222h4.927c0.846,0,1.44-0.031,1.782-0.095c0.604-0.107,1.106-0.287,1.512-0.54c0.405-0.251,0.738-0.617,0.999-1.099
			s0.393-1.039,0.393-1.668c0-0.738-0.189-1.38-0.566-1.924c-0.379-0.545-0.902-0.928-1.574-1.148
			c-0.67-0.22-1.636-0.331-2.896-0.331h-4.575V38.222z"/>
	</g>
</g>
</svg>
