<?xml version="1.0" encoding="utf-8"?>
<!-- Generator: Adobe Illustrator 16.0.0, SVG Export Plug-In . SVG Version: 6.00 Build 0)  -->
<!DOCTYPE svg PUBLIC "-//W3C//DTD SVG 1.1//EN" "http://www.w3.org/Graphics/SVG/1.1/DTD/svg11.dtd">
<svg version="1.1" id="Layer_1" xmlns="http://www.w3.org/2000/svg" xmlns:xlink="http://www.w3.org/1999/xlink" x="0px" y="0px"
	 width="52px" height="52px" viewBox="0 0 52 52" enable-background="new 0 0 52 52" xml:space="preserve">
<g>
	<g>
		<path fill="#ED1C24" d="M43.303,49.609H8.697c-3.641,0-6.412-1.326-7.802-3.734s-1.154-5.471,0.667-8.625L18.864,7.28
			c1.82-3.153,4.354-4.89,7.135-4.89c2.78,0,5.314,1.736,7.135,4.89l17.303,29.97c1.821,3.154,2.059,6.216,0.668,8.625
			C49.715,48.283,46.943,49.609,43.303,49.609z M26,5.9c-1.453,0-2.945,1.143-4.096,3.135L4.601,39.006
			c-1.15,1.991-1.394,3.855-0.667,5.113s2.462,1.98,4.763,1.98h34.606c2.301,0,4.037-0.723,4.763-1.98
			c0.727-1.258,0.483-3.122-0.667-5.113L30.095,9.035C28.944,7.043,27.451,5.9,26,5.9z"/>
	</g>
	<g>
		<path fill="#ED1C24" d="M25.728,36.965c0.716,0,1.329,0.256,1.84,0.767c0.512,0.511,0.767,1.13,0.767,1.858
			c0,0.716-0.255,1.328-0.767,1.84c-0.511,0.511-1.131,0.767-1.858,0.767c-0.729,0-1.342-0.256-1.84-0.767
			c-0.511-0.523-0.767-1.137-0.767-1.84c0-0.715,0.256-1.334,0.767-1.858C24.367,37.221,24.986,36.965,25.728,36.965z
			 M29.338,17.588l-1.847,16.847h-3.354l-1.476-16.847H29.338z"/>
	</g>
</g>
</svg>
