<?xml version="1.0" encoding="utf-8"?>
<!-- Generator: Adobe Illustrator 16.0.0, SVG Export Plug-In . SVG Version: 6.00 Build 0)  -->
<!DOCTYPE svg PUBLIC "-//W3C//DTD SVG 1.1//EN" "http://www.w3.org/Graphics/SVG/1.1/DTD/svg11.dtd">
<svg version="1.1" id="Layer_1" xmlns="http://www.w3.org/2000/svg" xmlns:xlink="http://www.w3.org/1999/xlink" x="0px" y="0px"
	 width="52px" height="52px" viewBox="0 0 52 52" enable-background="new 0 0 52 52" xml:space="preserve">
<g>
	<path fill="#3DA9CE" d="M36.293,8.002H15.707C7.033,8.002,0,15.034,0,23.708c0,8.676,7.033,15.707,15.707,15.707h5.413v9.583
		l9.583-9.583h5.59C44.967,39.415,52,32.384,52,23.708C52,15.034,44.967,8.002,36.293,8.002z"/>
	<g>
		<path fill="#FFFFFF" d="M28.025,20.274v10.877h1.629v3.289h-7.308v-3.289h1.71v-7.589h-1.71v-3.288H28.025z M26.016,11.523
			c0.653,0,1.228,0.231,1.728,0.698c0.531,0.497,0.797,1.112,0.797,1.843c0,0.663-0.229,1.239-0.682,1.727
			c-0.498,0.542-1.113,0.813-1.843,0.813c-0.687,0-1.284-0.244-1.793-0.73c-0.51-0.498-0.764-1.108-0.764-1.827
			c0-0.696,0.237-1.283,0.713-1.76C24.682,11.777,25.296,11.523,26.016,11.523z"/>
	</g>
</g>
</svg>
