<?xml version="1.0" encoding="utf-8"?>
<!-- Generator: Adobe Illustrator 16.0.0, SVG Export Plug-In . SVG Version: 6.00 Build 0)  -->
<!DOCTYPE svg PUBLIC "-//W3C//DTD SVG 1.1//EN" "http://www.w3.org/Graphics/SVG/1.1/DTD/svg11.dtd">
<svg version="1.1" id="Layer_1" xmlns="http://www.w3.org/2000/svg" xmlns:xlink="http://www.w3.org/1999/xlink" x="0px" y="0px"
	 width="44px" height="44px" viewBox="0 0 44 44" enable-background="new 0 0 44 44" xml:space="preserve">
<g>
	<path fill="#666766" d="M44,37.5c0,2.209-1.791,4-4,4H4c-2.209,0-4-1.791-4-4v-31c0-2.209,1.791-4,4-4h36c2.209,0,4,1.791,4,4V37.5
		z"/>
	<g>
		<line fill="none" stroke="#FFFFFF" stroke-width="6" stroke-miterlimit="10" x1="3.166" y1="17.875" x2="13.833" y2="17.875"/>
		<line fill="none" stroke="#FFFFFF" stroke-width="6" stroke-miterlimit="10" x1="16.666" y1="17.875" x2="27.333" y2="17.875"/>
		<line fill="none" stroke="#FFFFFF" stroke-width="6" stroke-miterlimit="10" x1="30.166" y1="17.875" x2="40.833" y2="17.875"/>
		<line fill="none" stroke="#FFFFFF" stroke-width="6" stroke-miterlimit="10" x1="3.166" y1="25.875" x2="13.833" y2="25.875"/>
		<line fill="none" stroke="#FFFFFF" stroke-width="6" stroke-miterlimit="10" x1="16.666" y1="25.875" x2="27.333" y2="25.875"/>
		<line fill="none" stroke="#FFFFFF" stroke-width="6" stroke-miterlimit="10" x1="30.166" y1="25.875" x2="40.833" y2="25.875"/>
		<line fill="none" stroke="#FFFFFF" stroke-width="6" stroke-miterlimit="10" x1="3.166" y1="33.875" x2="13.833" y2="33.875"/>
		<line fill="none" stroke="#FFFFFF" stroke-width="6" stroke-miterlimit="10" x1="16.666" y1="33.875" x2="27.333" y2="33.875"/>
		<line fill="none" stroke="#FFFFFF" stroke-width="6" stroke-miterlimit="10" x1="30.166" y1="33.875" x2="40.833" y2="33.875"/>
	</g>
</g>
</svg>
