<?xml version="1.0" encoding="utf-8"?>
<!-- Generator: Adobe Illustrator 16.0.0, SVG Export Plug-In . SVG Version: 6.00 Build 0)  -->
<!DOCTYPE svg PUBLIC "-//W3C//DTD SVG 1.1//EN" "http://www.w3.org/Graphics/SVG/1.1/DTD/svg11.dtd">
<svg version="1.1" id="Layer_1" xmlns="http://www.w3.org/2000/svg" xmlns:xlink="http://www.w3.org/1999/xlink" x="0px" y="0px"
	 width="74px" height="74px" viewBox="0 0 74 74" enable-background="new 0 0 74 74" xml:space="preserve">
<g>
	<path fill="#FFFFFF" d="M63.76,13.425H51.88V6.964c0-1.711-1.393-3.104-3.104-3.104H25.632c-1.711,0-3.104,1.393-3.104,3.104v6.461
		H10.647v4h3.693l2.169,51.97c0,1.693,1.393,3.07,3.104,3.07h35.869c1.712,0,3.104-1.377,3.103-2.987l2.17-52.053h3.005V13.425z
		 M26.528,7.86H47.88v5.03H26.528V7.86z M54.626,68.465H20.473l-2.131-51.039h38.412L54.626,68.465z"/>
	<rect x="35.551" y="22.369" fill="#FFFFFF" width="4" height="38.766"/>
	<rect x="45.678" y="22.369" fill="#FFFFFF" width="4" height="38.766"/>
	<rect x="25.426" y="22.369" fill="#FFFFFF" width="4" height="38.766"/>
</g>
</svg>
