<?xml version="1.0" encoding="utf-8"?>
<!-- Generator: Adobe Illustrator 16.0.0, SVG Export Plug-In . SVG Version: 6.00 Build 0)  -->
<!DOCTYPE svg PUBLIC "-//W3C//DTD SVG 1.1//EN" "http://www.w3.org/Graphics/SVG/1.1/DTD/svg11.dtd">
<svg version="1.1" id="Layer_1" xmlns="http://www.w3.org/2000/svg" xmlns:xlink="http://www.w3.org/1999/xlink" x="0px" y="0px"
	 width="74px" height="74px" viewBox="0 0 74 74" enable-background="new 0 0 74 74" xml:space="preserve">
<g>
	<path fill="none" stroke="#FFFFFF" stroke-width="4" stroke-miterlimit="10" d="M62.969,68.432c0,0.807-0.675,1.461-1.505,1.461
		H12.537c-0.831,0-1.506-0.654-1.506-1.461l-3.01-51.696c0-0.805,0.674-1.459,1.504-1.459h54.949c0.831,0,1.505,0.654,1.505,1.459
		L62.969,68.432z"/>
	<line fill="none" stroke="#FFFFFF" stroke-width="4" stroke-miterlimit="10" x1="3.504" y1="15.277" x2="70.496" y2="15.277"/>
	<path fill="none" stroke="#FFFFFF" stroke-width="4" stroke-miterlimit="10" d="M52.244,13.553c0,0.831-0.672,1.505-1.507,1.505
		H23.261c-0.833,0-1.504-0.674-1.504-1.505v-7.94c0-0.831,0.671-1.506,1.504-1.506h27.477c0.835,0,1.507,0.675,1.507,1.506V13.553z"
		/>
	<g>
		<line fill="none" stroke="#FFFFFF" stroke-width="4" stroke-miterlimit="10" x1="37.002" y1="24.75" x2="37.002" y2="62.488"/>
		<line fill="none" stroke="#FFFFFF" stroke-width="4" stroke-miterlimit="10" x1="50.811" y1="28.841" x2="50.811" y2="57.031"/>
		<line fill="none" stroke="#FFFFFF" stroke-width="4" stroke-miterlimit="10" x1="23.189" y1="28.841" x2="23.189" y2="57.031"/>
	</g>
	<path fill="none" stroke="#FFFFFF" stroke-width="4" stroke-miterlimit="10" d="M62.969,68.432c0,0.807-0.675,1.461-1.505,1.461
		H12.537c-0.831,0-1.506-0.654-1.506-1.461l-3.01-51.696c0-0.805,0.674-1.459,1.504-1.459h54.949c0.831,0,1.505,0.654,1.505,1.459
		L62.969,68.432z"/>
	<line fill="none" stroke="#FFFFFF" stroke-width="4" stroke-miterlimit="10" x1="3.504" y1="15.277" x2="70.496" y2="15.277"/>
	<path fill="none" stroke="#FFFFFF" stroke-width="4" stroke-miterlimit="10" d="M52.244,13.553c0,0.831-0.672,1.505-1.507,1.505
		H23.261c-0.833,0-1.504-0.674-1.504-1.505v-7.94c0-0.831,0.671-1.506,1.504-1.506h27.477c0.835,0,1.507,0.675,1.507,1.506V13.553z"
		/>
	<g>
		<line fill="none" stroke="#FFFFFF" stroke-width="4" stroke-miterlimit="10" x1="37.002" y1="24.75" x2="37.002" y2="62.488"/>
		<line fill="none" stroke="#FFFFFF" stroke-width="4" stroke-miterlimit="10" x1="50.811" y1="28.841" x2="50.811" y2="57.031"/>
		<line fill="none" stroke="#FFFFFF" stroke-width="4" stroke-miterlimit="10" x1="23.189" y1="28.841" x2="23.189" y2="57.031"/>
	</g>
</g>
<g>
	<polygon fill="#FFFFFF" points="37.017,56.66 37.018,56.661 39.608,54.071 40.035,53.645 40.035,53.645 69.169,24.511 
		66.117,21.46 39.075,48.504 39.206,5.614 34.888,5.589 34.761,48.37 7.884,21.491 4.831,24.545 36.981,56.695 	"/>
	<polygon fill="#FFFFFF" points="12.719,68.271 62.654,68.411 62.68,64.094 12.742,63.956 	"/>
</g>
</svg>
