<?xml version="1.0" encoding="utf-8"?>
<!-- Generator: Adobe Illustrator 16.0.0, SVG Export Plug-In . SVG Version: 6.00 Build 0)  -->
<!DOCTYPE svg PUBLIC "-//W3C//DTD SVG 1.1//EN" "http://www.w3.org/Graphics/SVG/1.1/DTD/svg11.dtd">
<svg version="1.1" id="Layer_1" xmlns="http://www.w3.org/2000/svg" xmlns:xlink="http://www.w3.org/1999/xlink" x="0px" y="0px"
	 width="74px" height="74px" viewBox="0 0 74 74" enable-background="new 0 0 74 74" xml:space="preserve">
<g>
	<path fill="#FFFFFF" d="M37,69.54c-17.942,0-32.539-14.597-32.539-32.539C4.461,19.059,19.058,4.462,37,4.462
		c17.942,0,32.539,14.597,32.539,32.539C69.539,54.943,54.942,69.54,37,69.54z M37,9.462c-15.185,0-27.539,12.354-27.539,27.539
		C9.461,52.187,21.815,64.54,37,64.54c15.186,0,27.539-12.354,27.539-27.539C64.539,21.816,52.186,9.462,37,9.462z"/>
</g>
<g enable-background="new    ">
	<path fill="#FFFFFF" d="M34.62,27.213v-4.505h4.869v4.505H34.62z M34.62,48.109V29.708h4.869v18.401H34.62z"/>
</g>
</svg>
