<?xml version="1.0" encoding="utf-8"?>
<!-- Generator: Adobe Illustrator 16.0.0, SVG Export Plug-In . SVG Version: 6.00 Build 0)  -->
<!DOCTYPE svg PUBLIC "-//W3C//DTD SVG 1.1//EN" "http://www.w3.org/Graphics/SVG/1.1/DTD/svg11.dtd">
<svg version="1.1" id="Layer_1" xmlns="http://www.w3.org/2000/svg" xmlns:xlink="http://www.w3.org/1999/xlink" x="0px" y="0px"
	 width="74px" height="74px" viewBox="0 0 74 74" enable-background="new 0 0 74 74" xml:space="preserve">
<path fill="#FFFFFF" d="M57.473,4.5H6.412C5.356,4.5,4.5,5.356,4.5,6.412v61.176c0,1.057,0.856,1.912,1.912,1.912H67.59
	c1.055,0,1.91-0.855,1.91-1.912V19.6L57.473,4.5z M15.493,8.802c0-1.056,0.856-1.912,1.912-1.912H51.34
	c1.055,0,1.91,0.856,1.91,1.912v18.161c0,1.056-0.855,1.912-1.91,1.912H17.405c-1.056,0-1.912-0.856-1.912-1.912V8.802z
	 M60.896,62.809c0,1.057-0.855,1.912-1.911,1.912H12.147c-1.055,0-1.912-0.855-1.912-1.912V37c0-1.056,0.856-1.912,1.912-1.912
	h46.838c1.056,0,1.911,0.856,1.911,1.912V62.809z"/>
<rect x="41.779" y="11.669" fill="#FFFFFF" width="7.17" height="11.948"/>
</svg>
