<?xml version="1.0" encoding="utf-8"?>
<!-- Generator: Adobe Illustrator 16.0.0, SVG Export Plug-In . SVG Version: 6.00 Build 0)  -->
<!DOCTYPE svg PUBLIC "-//W3C//DTD SVG 1.1//EN" "http://www.w3.org/Graphics/SVG/1.1/DTD/svg11.dtd">
<svg version="1.1" id="Layer_1" xmlns="http://www.w3.org/2000/svg" xmlns:xlink="http://www.w3.org/1999/xlink" x="0px" y="0px"
	 width="72px" height="72px" viewBox="0 0 72 72" enable-background="new 0 0 72 72" xml:space="preserve">
<g>
	<g>
		<path fill="#FFFFFF" d="M70.519,72L11.05,43.831V28.167L70.519,0V72z M14.947,41.365l51.675,24.478V6.157L14.947,30.633V41.365z"
			/>
	</g>
	<g>
		<path fill="#492F7F" d="M12.999,46.678c0,1.563-1.008,2.829-2.253,2.829H5.682c-1.243,0-2.252-1.266-2.252-2.829V25.457
			c0-1.564,1.008-2.829,2.252-2.829h5.064c1.244,0,2.253,1.265,2.253,2.829V46.678z"/>
		<path fill="#FFFFFF" d="M10.746,51.455H5.682c-2.315,0-4.2-2.144-4.2-4.777V25.457c0-2.634,1.885-4.777,4.2-4.777h5.064
			c2.316,0,4.201,2.143,4.201,4.777v21.221C14.947,49.312,13.063,51.455,10.746,51.455z M10.707,24.57l-5.025,0.006
			c-0.062,0.038-0.304,0.355-0.304,0.88v21.221c0,0.524,0.242,0.844,0.344,0.887l4.998-0.006c0.107-0.063,0.33-0.376,0.33-0.881
			V25.457C11.05,24.931,10.809,24.614,10.707,24.57z"/>
	</g>
	<g>
		<rect x="51.216" y="10.019" fill="#FFFFFF" width="3.896" height="51.962"/>
	</g>
</g>
</svg>
