<?xml version="1.0" encoding="utf-8"?>
<!-- Generator: Adobe Illustrator 16.0.0, SVG Export Plug-In . SVG Version: 6.00 Build 0)  -->
<!DOCTYPE svg PUBLIC "-//W3C//DTD SVG 1.1//EN" "http://www.w3.org/Graphics/SVG/1.1/DTD/svg11.dtd">
<svg version="1.1" id="Layer_1" xmlns="http://www.w3.org/2000/svg" xmlns:xlink="http://www.w3.org/1999/xlink" x="0px" y="0px"
	 width="72px" height="72px" viewBox="0 0 72 72" enable-background="new 0 0 72 72" xml:space="preserve">
<g>
	<g>
		<path fill="#FFFFFF" d="M57.729,69.476H10.347C4.642,69.476,0,64.835,0,59.131V6.983c0-0.989,0.17-2.007,0.519-3.109l0.428-1.35
			h50.306v56.606c0,3.571,2.906,6.477,6.478,6.477V69.476z M3.902,6.393C3.88,6.594,3.868,6.789,3.868,6.983v52.147
			c0,3.571,2.906,6.477,6.479,6.477h39.32c-1.428-1.773-2.283-4.028-2.283-6.477V6.393H3.902z"/>
	</g>
	<g>
		<path fill="#FFFFFF" d="M61.654,69.476h-3.925c-5.705,0-10.346-4.641-10.346-10.345V14.021H72v45.109
			C72,64.835,67.358,69.476,61.654,69.476z M51.252,17.89v41.241c0,3.571,2.906,6.477,6.478,6.477h3.925
			c3.571,0,6.477-2.905,6.477-6.477V17.89H51.252z"/>
	</g>
	<g>
		<rect x="10.553" y="14.654" fill="#FFFFFF" width="29.439" height="3.869"/>
	</g>
	<g>
		<rect x="10.553" y="24.471" fill="#FFFFFF" width="29.439" height="3.868"/>
	</g>
	<g>
		<rect x="10.553" y="34.281" fill="#FFFFFF" width="29.439" height="3.868"/>
	</g>
	<g>
		<rect x="57.478" y="15.955" fill="#FFFFFF" width="3.868" height="38.049"/>
	</g>
</g>
</svg>
