<?xml version="1.0" encoding="utf-8"?>
<!-- Generator: Adobe Illustrator 16.0.0, SVG Export Plug-In . SVG Version: 6.00 Build 0)  -->
<!DOCTYPE svg PUBLIC "-//W3C//DTD SVG 1.1//EN" "http://www.w3.org/Graphics/SVG/1.1/DTD/svg11.dtd">
<svg version="1.1" id="Layer_1" xmlns="http://www.w3.org/2000/svg" xmlns:xlink="http://www.w3.org/1999/xlink" x="0px" y="0px"
	 width="60px" height="60px" viewBox="0 0 60 60" enable-background="new 0 0 60 60" xml:space="preserve">
<g>
	<g>
		<path fill="#FFFFFF" d="M30,1.495C14.256,1.495,1.495,14.256,1.495,30c0,7.548,2.938,14.404,7.725,19.501
			c5.201,5.542,12.583,9.005,20.78,9.005c8.195,0,15.581-3.464,20.781-9.005c4.788-5.097,7.725-11.952,7.725-19.501
			C58.506,14.256,45.745,1.495,30,1.495z"/>
		<path fill="#333333" d="M30,60c-8.367,0-16.134-3.365-21.87-9.477C2.888,44.942,0,37.653,0,30C0,13.458,13.458,0,30,0
			c16.543,0,30,13.458,30,30c0,7.653-2.887,14.943-8.129,20.524C46.219,56.546,38.247,60,30,60z M30,2.989
			C15.106,2.989,2.989,15.106,2.989,30c0,6.89,2.6,13.452,7.319,18.478c5.166,5.504,12.159,8.533,19.691,8.533
			c7.534,0,14.527-3.029,19.691-8.532c4.721-5.025,7.319-11.588,7.319-18.479C57.011,15.106,44.895,2.989,30,2.989z"/>
	</g>
	<polygon fill="#333333" points="45.971,26 34,26 34,14.028 26,14.028 26,26 14.029,26 14.029,33.998 26,33.998 26,45.971 
		34,45.971 34,33.998 45.971,33.998 	"/>
</g>
</svg>
