<?xml version="1.0" encoding="utf-8"?>
<!-- Generator: Adobe Illustrator 16.0.0, SVG Export Plug-In . SVG Version: 6.00 Build 0)  -->
<!DOCTYPE svg PUBLIC "-//W3C//DTD SVG 1.1//EN" "http://www.w3.org/Graphics/SVG/1.1/DTD/svg11.dtd">
<svg version="1.1" id="Layer_1" xmlns="http://www.w3.org/2000/svg" xmlns:xlink="http://www.w3.org/1999/xlink" x="0px" y="0px"
	 width="74px" height="74px" viewBox="0 0 74 74" enable-background="new 0 0 74 74" xml:space="preserve">
<path fill="#FFFFFF" d="M65.965,19.582l-7.869-0.367L53.187,5.953H20.813l-4.178,13.262l-8.601,0.367
	c-3.765,0-6.815,3.051-6.815,6.814V61.23c0,3.764,3.051,6.816,6.815,6.816h57.93c3.763,0,6.815-3.053,6.815-6.816V26.396
	C72.78,22.633,69.728,19.582,65.965,19.582z M37,57.824c-9.593,0-17.371-7.777-17.371-17.371S27.407,23.084,37,23.084
	s17.368,7.775,17.368,17.369S46.593,57.824,37,57.824z"/>
</svg>
