<?xml version="1.0" encoding="utf-8"?>
<!-- Generator: Adobe Illustrator 16.0.0, SVG Export Plug-In . SVG Version: 6.00 Build 0)  -->
<!DOCTYPE svg PUBLIC "-//W3C//DTD SVG 1.1//EN" "http://www.w3.org/Graphics/SVG/1.1/DTD/svg11.dtd">
<svg version="1.1" id="Layer_1" xmlns="http://www.w3.org/2000/svg" xmlns:xlink="http://www.w3.org/1999/xlink" x="0px" y="0px"
	 width="172px" height="172px" viewBox="0 0 172 172" enable-background="new 0 0 172 172" xml:space="preserve">
<g>
	<circle fill="#2E89BC" cx="86" cy="86" r="86.125"/>
	<g>
		<g>
			<path fill="#FFFFFF" d="M108.307,121.55H59.054c-2.827,0-5.127-2.299-5.127-5.126V67.171c0-2.827,2.3-5.127,5.127-5.127h49.253
				c2.827,0,5.126,2.3,5.126,5.127v49.253C113.433,119.251,111.134,121.55,108.307,121.55z M59.054,67.044
				c-0.07,0-0.127,0.057-0.127,0.127v49.253c0,0.069,0.057,0.126,0.127,0.126h49.253c0.071,0,0.126-0.055,0.126-0.126V67.171
				c0-0.07-0.057-0.127-0.126-0.127H59.054z"/>
		</g>
		<g>
			<path fill="#FFFFFF" d="M117.755,51.462H68.501c-2.498,0-4.531,1.922-4.762,4.36h4.762h4.073h45.181
				c0.246,0,0.445,0.2,0.445,0.447h0.123v54.003c2.38-0.285,4.238-2.295,4.238-4.75V56.27
				C122.562,53.618,120.405,51.462,117.755,51.462z"/>
		</g>
	</g>
	<g>
		<rect x="70.122" y="90.188" fill="#FFFFFF" width="26.995" height="3.913"/>
		<rect x="81.663" y="78.647" fill="#FFFFFF" width="3.913" height="26.996"/>
	</g>
</g>
</svg>
