<?xml version="1.0" encoding="utf-8"?>
<!-- Generator: Adobe Illustrator 16.0.0, SVG Export Plug-In . SVG Version: 6.00 Build 0)  -->
<!DOCTYPE svg PUBLIC "-//W3C//DTD SVG 1.1//EN" "http://www.w3.org/Graphics/SVG/1.1/DTD/svg11.dtd">
<svg version="1.1" id="Layer_1" xmlns="http://www.w3.org/2000/svg" xmlns:xlink="http://www.w3.org/1999/xlink" x="0px" y="0px"
	 width="172px" height="172px" viewBox="0 0 172 172" enable-background="new 0 0 172 172" xml:space="preserve">
<g>
	<circle fill="#2E89BC" cx="86" cy="86" r="86.125"/>
	<g>
		<g>
			<path fill="#FFFFFF" d="M111.307,116.55H62.054c-2.827,0-5.127-2.299-5.127-5.126V62.171c0-2.827,2.3-5.127,5.127-5.127h49.253
				c2.827,0,5.126,2.3,5.126,5.127v49.253C116.433,114.251,114.134,116.55,111.307,116.55z M62.054,62.044
				c-0.07,0-0.127,0.057-0.127,0.127v49.253c0,0.069,0.057,0.126,0.127,0.126h49.253c0.071,0,0.126-0.055,0.126-0.126V62.171
				c0-0.07-0.057-0.127-0.126-0.127H62.054z"/>
		</g>
	</g>
	<g>
		<rect x="73.122" y="85.188" fill="#FFFFFF" width="26.995" height="3.913"/>
		<rect x="84.663" y="73.647" fill="#FFFFFF" width="3.913" height="26.996"/>
	</g>
</g>
</svg>
