<?xml version="1.0" encoding="utf-8"?>
<!-- Generator: Adobe Illustrator 16.0.0, SVG Export Plug-In . SVG Version: 6.00 Build 0)  -->
<!DOCTYPE svg PUBLIC "-//W3C//DTD SVG 1.1//EN" "http://www.w3.org/Graphics/SVG/1.1/DTD/svg11.dtd">
<svg version="1.1" id="Layer_1" xmlns="http://www.w3.org/2000/svg" xmlns:xlink="http://www.w3.org/1999/xlink" x="0px" y="0px"
	 width="75px" height="60px" viewBox="0 0 75 60" enable-background="new 0 0 75 60" xml:space="preserve">
<g>
	<g>
		<g>
			<path fill="#2E89BC" d="M26.979,44.791H14.16C6.231,44.791-0.219,38.156-0.219,30c0-8.156,6.45-14.791,14.379-14.791h17.115
				c7.928,0,14.379,6.635,14.379,14.791c0,0.504-0.027,1.027-0.081,1.553c-0.169,1.648-1.64,2.849-3.289,2.68
				c-1.648-0.168-2.849-1.641-2.68-3.289c0.032-0.311,0.05-0.625,0.05-0.943c0-4.848-3.759-8.791-8.379-8.791H14.16
				c-4.621,0-8.379,3.943-8.379,8.791c0,4.847,3.758,8.791,8.379,8.791h12.818c1.657,0,3,1.342,3,3
				C29.979,43.447,28.636,44.791,26.979,44.791z"/>
		</g>
		<g>
			<path fill="#2E89BC" d="M60.84,44.791H43.725c-7.928,0-14.379-6.635-14.379-14.791c0-0.503,0.027-1.025,0.08-1.551
				c0.167-1.648,1.634-2.854,3.286-2.684c1.648,0.166,2.851,1.637,2.684,3.285c-0.032,0.313-0.05,0.629-0.05,0.949
				c0,4.847,3.759,8.791,8.379,8.791H60.84c4.621,0,8.379-3.944,8.379-8.791c0-4.848-3.758-8.791-8.379-8.791H48.021
				c-1.657,0-3-1.344-3-3c0-1.657,1.343-3,3-3H60.84c7.929,0,14.379,6.635,14.379,14.791C75.219,38.156,68.769,44.791,60.84,44.791z
				"/>
		</g>
	</g>
</g>
</svg>
