<?xml version="1.0" encoding="utf-8"?>
<!-- Generator: Adobe Illustrator 16.0.0, SVG Export Plug-In . SVG Version: 6.00 Build 0)  -->
<!DOCTYPE svg PUBLIC "-//W3C//DTD SVG 1.1//EN" "http://www.w3.org/Graphics/SVG/1.1/DTD/svg11.dtd">
<svg version="1.1" id="Layer_1" xmlns="http://www.w3.org/2000/svg" xmlns:xlink="http://www.w3.org/1999/xlink" x="0px" y="0px"
	 width="52px" height="52px" viewBox="0 0 52 52" enable-background="new 0 0 52 52" xml:space="preserve">
<path fill="#EC2529" d="M43.516,40.221l-5.469-13.746c0-0.037,0.006-0.072,0.006-0.109V20.15c0-6.575-4.387-12.013-10.125-13.027
	h-3.374V7.043C18.58,7.829,13.948,13.39,13.948,20.15v6.216c0,0.361,0.022,0.715,0.049,1.067L8.484,39.898l12.273,0.113
	c0,0.023-0.008,0.047-0.008,0.07c0,2.691,2.184,4.875,4.875,4.875h0.75c2.684,0,4.857-2.168,4.873-4.848L43.516,40.221z"/>
</svg>
