<?xml version="1.0" encoding="utf-8"?>
<!-- Generator: Adobe Illustrator 16.0.0, SVG Export Plug-In . SVG Version: 6.00 Build 0)  -->
<!DOCTYPE svg PUBLIC "-//W3C//DTD SVG 1.1//EN" "http://www.w3.org/Graphics/SVG/1.1/DTD/svg11.dtd">
<svg version="1.1" id="Layer_1" xmlns="http://www.w3.org/2000/svg" xmlns:xlink="http://www.w3.org/1999/xlink" x="0px" y="0px"
	 width="52px" height="52px" viewBox="0 0 52 52" enable-background="new 0 0 52 52" xml:space="preserve">
<g>
	<path fill="#ED1F24" d="M4.001,48.2c-2.832,0-3.99-2.006-2.574-4.458L23.426,5.638c1.416-2.451,3.731-2.451,5.147,0l22,38.104
		c1.415,2.452,0.258,4.458-2.575,4.458H4.001z"/>
	<g>
		<path fill="#FFFFFF" d="M29.546,42.108c0,0.285-0.23,0.515-0.515,0.515h-5.835c-0.283,0-0.516-0.229-0.516-0.515v-5.834
			c0-0.285,0.232-0.516,0.516-0.516h5.835c0.284,0,0.515,0.23,0.515,0.516V42.108z"/>
		<path fill="#FFFFFF" d="M29.432,31.926c0,0.284-0.231,0.514-0.515,0.514h-5.834c-0.285,0-0.516-0.229-0.516-0.514L21.881,19.17
			c0-0.285,0.231-0.515,0.515-0.515h7.208c0.284,0,0.515,0.229,0.515,0.515L29.432,31.926z"/>
	</g>
</g>
</svg>
