<?xml version="1.0" encoding="utf-8"?>
<!-- Generator: Adobe Illustrator 16.0.0, SVG Export Plug-In . SVG Version: 6.00 Build 0)  -->
<!DOCTYPE svg PUBLIC "-//W3C//DTD SVG 1.1//EN" "http://www.w3.org/Graphics/SVG/1.1/DTD/svg11.dtd">
<svg version="1.1" id="Layer_1" xmlns="http://www.w3.org/2000/svg" xmlns:xlink="http://www.w3.org/1999/xlink" x="0px" y="0px"
	 width="90px" height="90px" viewBox="0 0 90 90" enable-background="new 0 0 90 90" xml:space="preserve">
<g>
	<g>
		
			<image overflow="visible" opacity="0.5" width="396" height="396" xlink:href="4C2E1287.png"  transform="matrix(0.2273 0 0 0.2273 0 0)">
		</image>
		<g>
			<g>
				<circle fill="#FFFFFF" cx="44.98" cy="44.981" r="37.879"/>
			</g>
			<g>
				<path fill="#FFFFFF" d="M44.98,84.28c-21.67,0-39.299-17.629-39.299-39.299s17.629-39.3,39.299-39.3s39.3,17.63,39.3,39.3
					S66.65,84.28,44.98,84.28z M44.98,8.523c-20.103,0-36.458,16.354-36.458,36.458S24.878,81.439,44.98,81.439
					c20.104,0,36.459-16.354,36.459-36.458S65.084,8.523,44.98,8.523z"/>
			</g>
		</g>
	</g>
	<polygon fill="#0EB6B6" points="77.247,30.424 67.247,20.424 38.081,49.591 22.753,34.262 12.753,44.262 38.01,69.52 
		38.024,69.504 38.096,69.576 	"/>
</g>
</svg>
