<?xml version="1.0" encoding="utf-8"?>
<!-- Generator: Adobe Illustrator 16.0.0, SVG Export Plug-In . SVG Version: 6.00 Build 0)  -->
<!DOCTYPE svg PUBLIC "-//W3C//DTD SVG 1.1//EN" "http://www.w3.org/Graphics/SVG/1.1/DTD/svg11.dtd">
<svg version="1.1" id="Layer_1" xmlns="http://www.w3.org/2000/svg" xmlns:xlink="http://www.w3.org/1999/xlink" x="0px" y="0px"
	 width="330px" height="330px" viewBox="0 0 330 330" enable-background="new 0 0 330 330" xml:space="preserve">
<g>
	<circle fill="#E5E5E5" cx="165" cy="165" r="165"/>
	<g>
		<path fill="none" d="M96.941,136.429c0,9.444,4.828,18.059,12.906,23.041l6.922,4.265l-7.732,2.51
			c-20.107,6.52-33.615,25.096-33.615,46.223c0,0.351,0.033,5.278,0.057,9.256l0.01,1.334h21.959
			c0.938-25.41,15.66-47.266,36.943-58.314l-3.102-1.006l6.922-4.267c0.93-0.572,1.801-1.203,2.641-1.868
			c-9.316-7.395-15.318-18.778-15.318-31.597c0-5.763,1.227-11.232,3.4-16.194c-1.594-0.293-3.227-0.468-4.904-0.468
			C109.094,109.343,96.941,121.493,96.941,136.429z"/>
		<path fill="#C6C6C5" d="M186.164,160.377c11.529-7.115,19.238-19.828,19.238-34.372c0-22.315-18.088-40.404-40.404-40.404
			c-13.75,0-25.883,6.886-33.18,17.383c-1.484,2.137-2.768,4.42-3.824,6.827c-2.174,4.962-3.398,10.432-3.398,16.194
			c0,12.818,6.004,24.202,15.32,31.597c1.254,0.996,2.553,1.931,3.926,2.775c-3.604,1.169-7.076,2.644-10.387,4.365
			c-21.289,11.049-36.008,32.904-36.947,58.314c-0.029,0.85-0.104,1.689-0.104,2.549c0,0.251,0.018,2.309,0.031,4.967
			c0.035,5.495,0.088,13.589,0.088,13.826h136.949c0-6.577,0.119-12.268,0.119-18.793
			C233.592,195.113,213.684,169.299,186.164,160.377z"/>
		<path fill="#C6C6C5" d="M89.424,136.429c0,9.698,3.98,18.71,10.891,25.178c-19.633,9.116-32.41,28.783-32.41,50.86
			c0,0.352,0.035,5.305,0.057,9.303L68,230.572h23.738c-0.018-2.658-0.031-4.716-0.031-4.967c0-0.859,0.074-1.699,0.104-2.549
			H75.488l-0.01-1.334c-0.023-3.978-0.057-8.905-0.057-9.256c0-21.127,13.508-39.703,33.615-46.223l7.732-2.51l-6.922-4.265
			c-8.078-4.982-12.906-13.597-12.906-23.041c0-14.172,10.957-25.785,24.834-26.94v-7.549
			C103.746,103.11,89.424,118.109,89.424,136.429z"/>
		<path fill="#C6C6C5" d="M240.576,136.429c0,9.698-3.979,18.71-10.891,25.178c19.635,9.116,32.41,28.783,32.41,50.86
			c0,0.352-0.033,5.305-0.055,9.303L262,230.572h-23.736c0.016-2.658,0.029-4.716,0.029-4.967c0-0.859-0.072-1.699-0.102-2.549
			h16.32l0.014-1.334c0.021-3.978,0.055-8.905,0.055-9.256c0-21.127-13.508-39.703-33.615-46.223l-7.732-2.51l6.92-4.265
			c8.08-4.982,12.908-13.597,12.908-23.041c0-14.172-10.957-25.785-24.836-26.94v-7.549
			C226.254,103.11,240.576,118.109,240.576,136.429z"/>
	</g>
</g>
</svg>
