<?xml version="1.0" encoding="utf-8"?>
<!-- Generator: Adobe Illustrator 16.0.0, SVG Export Plug-In . SVG Version: 6.00 Build 0)  -->
<!DOCTYPE svg PUBLIC "-//W3C//DTD SVG 1.1//EN" "http://www.w3.org/Graphics/SVG/1.1/DTD/svg11.dtd">
<svg version="1.1" id="Layer_1" xmlns="http://www.w3.org/2000/svg" xmlns:xlink="http://www.w3.org/1999/xlink" x="0px" y="0px"
	 width="52px" height="52px" viewBox="0 0 52 52" enable-background="new 0 0 52 52" xml:space="preserve">
<g>
	<g>
		<path fill="#FFCA09" d="M7.438,49.443c-6.627,0-9.337-4.694-6.024-10.434L19.976,6.86c3.313-5.739,8.735-5.739,12.048,0
			L50.586,39.01c3.313,5.739,0.604,10.434-6.023,10.434H7.438z"/>
	</g>
	<g>
		<path fill="#FFFFFF" d="M31.777,34.126l2.619,0.662c-0.55,2.151-1.537,3.79-2.964,4.92c-1.426,1.13-3.171,1.694-5.231,1.694
			c-2.132,0-3.868-0.435-5.204-1.302c-1.336-0.869-2.354-2.127-3.051-3.774c-0.697-1.647-1.046-3.415-1.046-5.305
			c0-2.061,0.393-3.859,1.181-5.394c0.788-1.533,1.908-2.699,3.362-3.496c1.453-0.797,3.053-1.194,4.798-1.194
			c1.981,0,3.646,0.503,4.996,1.513c1.351,1.007,2.29,2.426,2.821,4.251l-2.579,0.608c-0.458-1.44-1.124-2.488-1.997-3.146
			c-0.873-0.657-1.972-0.985-3.294-0.985c-1.521,0-2.792,0.364-3.813,1.093c-1.021,0.729-1.74,1.709-2.153,2.936
			c-0.414,1.23-0.621,2.496-0.621,3.801c0,1.684,0.245,3.154,0.736,4.407c0.49,1.257,1.252,2.194,2.288,2.815
			c1.034,0.621,2.155,0.931,3.361,0.931c1.467,0,2.708-0.423,3.726-1.269C30.728,37.046,31.417,35.792,31.777,34.126z"/>
	</g>
</g>
</svg>
