<?xml version="1.0" encoding="utf-8"?>
<!-- Generator: Adobe Illustrator 16.0.0, SVG Export Plug-In . SVG Version: 6.00 Build 0)  -->
<!DOCTYPE svg PUBLIC "-//W3C//DTD SVG 1.1//EN" "http://www.w3.org/Graphics/SVG/1.1/DTD/svg11.dtd">
<svg version="1.1" id="Layer_1" xmlns="http://www.w3.org/2000/svg" xmlns:xlink="http://www.w3.org/1999/xlink" x="0px" y="0px"
	 width="44px" height="44px" viewBox="0 0 44 44" enable-background="new 0 0 44 44" xml:space="preserve">
<path fill="#666766" d="M44,37.5c0,2.209-1.791,4-4,4H4c-2.209,0-4-1.791-4-4v-31c0-2.209,1.791-4,4-4h36c2.209,0,4,1.791,4,4V37.5z
	"/>
<g>
	<g>
		<rect x="3.166" y="15.875" fill="#FFFFFF" width="10.667" height="6"/>
	</g>
	<g>
		<rect x="16.666" y="15.875" fill="#FFFFFF" width="10.667" height="6"/>
	</g>
	<g>
		<rect x="30.166" y="15.875" fill="#FFFFFF" width="10.667" height="6"/>
	</g>
</g>
<g>
	<g>
		<rect x="3.166" y="24.375" fill="#FFFFFF" width="10.667" height="6"/>
	</g>
	<g>
		<rect x="16.666" y="24.375" fill="#FFFFFF" width="10.667" height="6"/>
	</g>
	<g>
		<rect x="30.166" y="24.375" fill="#FFFFFF" width="10.667" height="6"/>
	</g>
</g>
<g>
	<g>
		<rect x="3.166" y="32.875" fill="#FFFFFF" width="10.667" height="6"/>
	</g>
	<g>
		<rect x="16.666" y="32.875" fill="#FFFFFF" width="10.667" height="6"/>
	</g>
	<g>
		<rect x="30.166" y="32.875" fill="#FFFFFF" width="10.667" height="6"/>
	</g>
</g>
</svg>
