<?xml version="1.0" encoding="utf-8"?>
<!-- Generator: Adobe Illustrator 16.0.0, SVG Export Plug-In . SVG Version: 6.00 Build 0)  -->
<!DOCTYPE svg PUBLIC "-//W3C//DTD SVG 1.1//EN" "http://www.w3.org/Graphics/SVG/1.1/DTD/svg11.dtd">
<svg version="1.1" id="Layer_1" xmlns="http://www.w3.org/2000/svg" xmlns:xlink="http://www.w3.org/1999/xlink" x="0px" y="0px"
	 width="80px" height="80px" viewBox="0 0 80 80" enable-background="new 0 0 80 80" xml:space="preserve">
<g>
	<path fill="#999999" d="M62.266,75.311L39.832,63.516L17.398,75.311l4.285-24.98L3.535,32.639l25.08-3.644L39.832,6.267
		L51.05,28.995l25.081,3.644L57.981,50.33L62.266,75.311z M39.832,58.996l17.121,9.002l-3.271-19.064l13.853-13.502l-19.142-2.781
		l-8.562-17.346l-8.561,17.346l-19.141,2.781l13.85,13.502l-3.27,19.064L39.832,58.996z"/>
</g>
<g>
	<polygon fill="#FCBE3F" points="39.832,10.786 49.722,30.823 71.833,34.035 55.832,49.632 59.609,71.654 39.832,61.256 
		20.055,71.654 23.832,49.632 7.833,34.035 29.943,30.823 	"/>
	<path fill="#FCBE3F" d="M62.266,75.311L39.832,63.516L17.398,75.311l4.285-24.98L3.535,32.639l25.08-3.644L39.832,6.267
		L51.05,28.995l25.081,3.644L57.981,50.33L62.266,75.311z M39.832,58.996l17.121,9.002l-3.271-19.064l13.853-13.502l-19.142-2.781
		l-8.562-17.346l-8.561,17.346l-19.141,2.781l13.85,13.502l-3.27,19.064L39.832,58.996z"/>
</g>
</svg>
