<?xml version="1.0" encoding="utf-8"?>
<!-- Generator: Adobe Illustrator 16.0.0, SVG Export Plug-In . SVG Version: 6.00 Build 0)  -->
<!DOCTYPE svg PUBLIC "-//W3C//DTD SVG 1.1//EN" "http://www.w3.org/Graphics/SVG/1.1/DTD/svg11.dtd">
<svg version="1.1" id="Layer_1" xmlns="http://www.w3.org/2000/svg" xmlns:xlink="http://www.w3.org/1999/xlink" x="0px" y="0px"
	 width="162px" height="162px" viewBox="0 0 162 162" enable-background="new 0 0 162 162" xml:space="preserve">
<circle fill="#4CB6AC" cx="80.643" cy="80.885" r="81"/>
<g>
	<path fill="#FFFFFF" d="M54.81,80.883c0-13.4,10.258-24.447,23.333-25.709v-5.012C62.307,51.439,49.81,64.725,49.81,80.883
		c0,16.16,12.497,29.447,28.333,30.725v-5.014C65.067,105.332,54.81,94.285,54.81,80.883z"/>
	<path fill="#FFFFFF" d="M111.477,80.883c0-16.158-12.498-29.443-28.334-30.721v5.012c13.076,1.262,23.334,12.309,23.334,25.709
		c0,13.402-10.258,24.449-23.334,25.711v5.014C98.979,110.328,111.477,97.043,111.477,80.883z"/>
	<path fill="#FFFFFF" d="M78.143,61.523v22.723c0.823,0.035,1.656,0.055,2.5,0.055s1.677-0.02,2.5-0.055V61.523
		c-0.823-0.037-1.656-0.055-2.5-0.055S78.966,61.486,78.143,61.523z"/>
	<path fill="#FFFFFF" d="M79.904,82.607c-0.594,0.598-1.213,1.158-1.849,1.686l3.557,3.533l5.754,5.715l3.523-3.547l-5.754-5.715
		l-3.557-3.533C81.056,81.387,80.499,82.008,79.904,82.607z"/>
</g>
</svg>
