<?xml version="1.0" encoding="utf-8"?>
<!-- Generator: Adobe Illustrator 16.0.0, SVG Export Plug-In . SVG Version: 6.00 Build 0)  -->
<!DOCTYPE svg PUBLIC "-//W3C//DTD SVG 1.1//EN" "http://www.w3.org/Graphics/SVG/1.1/DTD/svg11.dtd">
<svg version="1.1" id="Layer_1" xmlns="http://www.w3.org/2000/svg" xmlns:xlink="http://www.w3.org/1999/xlink" x="0px" y="0px"
	 width="162px" height="162px" viewBox="0 0 162 162" enable-background="new 0 0 162 162" xml:space="preserve">
<circle fill="#4CB6AC" cx="81.119" cy="80.873" r="81"/>
<path fill="#FFFFFF" d="M114.119,88.84v-9.999l-6.468-0.733c-0.65-2.908-1.784-5.729-3.435-8.323l4.047-5.08l-7.07-7.07
	l-5.081,4.046c-2.595-1.648-5.415-2.784-8.323-3.436l-0.732-6.467l0,0h-9.998l-0.002,6.29v-6.29l-0.732,6.468
	c-2.908,0.651-5.729,1.786-8.323,3.435l-5.08-4.047l0,0l-7.071,7.071l4.047,5.079c-1.65,2.596-2.803,5.416-3.452,8.326l-6.45,0.73
	h0.001l-0.001,10l6.469,0.732c0.649,2.907,1.784,5.729,3.434,8.323l-4.047,5.08l7.071,7.071L68,106
	c2.598,1.65,5.416,2.804,8.326,3.452l0.73,6.45h10l0.732-6.467c2.909-0.65,5.729-1.786,8.323-3.436l5.08,4.047l7.071-7.07
	l-4.046-5.079c1.65-2.596,2.801-5.415,3.45-8.327L114.119,88.84z M60.299,69.156l0.001-0.002h0.001
	C60.3,69.155,60.3,69.156,60.299,69.156z M98.723,90.805c-0.026,0.064-0.063,0.125-0.088,0.189
	c-0.885,2.104-2.175,4.074-3.887,5.787c-1.713,1.713-3.684,3.004-5.787,3.885c-0.063,0.028-0.125,0.061-0.189,0.087
	c-4.375,1.782-9.304,1.782-13.679,0c-0.063-0.026-0.126-0.06-0.19-0.087c-2.104-0.883-4.075-2.172-5.787-3.885
	c-1.712-1.713-3.002-3.684-3.885-5.787c-0.027-0.065-0.06-0.125-0.089-0.189c-1.78-4.375-1.78-9.304,0-13.68
	c0.027-0.064,0.061-0.126,0.089-0.189c0.882-2.103,2.172-4.075,3.885-5.787c1.712-1.714,3.685-3.003,5.787-3.886
	c0.065-0.026,0.125-0.061,0.189-0.088c4.375-1.779,9.305-1.779,13.68,0.003c0.064,0.024,0.125,0.059,0.189,0.085
	c2.104,0.883,4.074,2.172,5.787,3.886c1.712,1.711,3.002,3.684,3.885,5.789c0.029,0.062,0.061,0.122,0.088,0.19
	C100.501,81.498,100.502,86.431,98.723,90.805z"/>
</svg>
