<?xml version="1.0" encoding="utf-8"?>
<!-- Generator: Adobe Illustrator 22.1.0, SVG Export Plug-In . SVG Version: 6.00 Build 0)  -->
<svg version="1.1" id="圖層_1" xmlns="http://www.w3.org/2000/svg" xmlns:xlink="http://www.w3.org/1999/xlink" x="0px" y="0px"
	 viewBox="0 0 120 120" style="enable-background:new 0 0 120 120;" xml:space="preserve">
<style type="text/css">
	.st0{fill:#65499C;}
</style>
<g>
	<g>
		<path class="st0" d="M98.2,27.5h4.1c1.3,0,2.4-1.1,2.4-2.4V10.3h-2c-1,4.1-4.7,7.2-9.1,7.2c-3.9,0-7.2-2.4-8.6-5.7
			c-0.4-0.9-1.2-1.5-2.2-1.5H82c-1,0-1.8,0.6-2.2,1.5c-1.4,3.4-4.8,5.7-8.6,5.7c-3.9,0-7.2-2.4-8.6-5.7c-0.4-0.9-1.2-1.5-2.2-1.5
			h-0.8c-1,0-1.8,0.6-2.2,1.5c-1.4,3.4-4.8,5.7-8.6,5.7c-3.9,0-7.2-2.4-8.6-5.7c-0.4-0.9-1.2-1.5-2.2-1.5h-0.5c-1,0-1.8,0.6-2.2,1.5
			c-1.4,3.4-4.8,5.7-8.6,5.7c-4.4,0-8.2-3.1-9.1-7.2h-2v14.8c0,1.3,1.1,2.4,2.4,2.4h3.2c1.3,0,2.4,1.1,2.4,2.4v0
			c0,1.3-1.1,2.4-2.4,2.4h-3.2c-1.3,0-2.4,1.1-2.4,2.4v75h2c1-4,4.7-7,9.1-7c3.8,0,7.1,2.3,8.6,5.6c0.4,0.9,1.2,1.5,2.2,1.5h0.6
			c1,0,1.8-0.6,2.2-1.5c1.5-3.3,4.7-5.6,8.6-5.6c3.8,0,7.1,2.3,8.6,5.6c0.4,0.9,1.2,1.5,2.2,1.5h0.9c1,0,1.8-0.6,2.2-1.5
			c1.5-3.3,4.7-5.6,8.6-5.6c3.8,0,7.1,2.3,8.6,5.6c0.4,0.9,1.2,1.5,2.2,1.5h0.9c1,0,1.8-0.6,2.2-1.5c1.5-3.3,4.7-5.6,8.6-5.6
			c4.4,0,8,3,9.1,7h2v-75c0-1.3-1.1-2.4-2.4-2.4h-4.1c-1.3,0-2.4-1.1-2.4-2.4v0C95.8,28.6,96.9,27.5,98.2,27.5z M52.5,27.5h14.1
			c1.3,0,2.4,1.1,2.4,2.4v0c0,1.3-1.1,2.4-2.4,2.4H52.5c-1.3,0-2.4-1.1-2.4-2.4v0C50.1,28.6,51.2,27.5,52.5,27.5z M27.3,29.9
			L27.3,29.9c0-1.4,1.1-2.4,2.4-2.4h14.1c1.3,0,2.4,1.1,2.4,2.4v0c0,1.3-1.1,2.4-2.4,2.4H29.7C28.4,32.3,27.3,31.3,27.3,29.9z
			 M77.1,78.8c-0.1,1.1-0.6,2.2-1.3,3.5c-0.8,1.3-1.9,2.6-3.5,3.9c-1.3,1.1-3,2-5.2,2.7c-1,0.3-1.6,1.2-1.6,2.3v2.3
			c0,1.3-1.1,2.4-2.4,2.4h-5.4c-1.3,0-2.4-1.1-2.4-2.4v-3.9c-0.6-0.1-1.3-0.3-2-0.4c-0.7-0.1-1.5-0.4-2.3-0.7
			c-0.8-0.3-1.7-0.7-2.5-1.2c-0.8-0.5-1.6-1.1-2.4-1.9c-1-1-1.7-2.2-2.4-3.5c-0.6-1.3-0.9-2.7-0.9-3.9v-0.7h12.9c0,0.2,0,0.5,0.2,1
			c0.1,0.5,0.3,1,0.6,1.5c0.3,0.5,0.7,0.9,1.3,1.3c0.6,0.4,1.4,0.6,2.4,0.6c1,0,1.9-0.3,2.9-0.9c1-0.6,1.4-1.5,1.4-2.7
			c0-1-0.5-2-1.4-2.9c-0.9-0.9-2.8-1.8-5.5-2.6c-1.6-0.5-3.2-1-4.9-1.6c-1.7-0.6-3.2-1.4-4.6-2.3c-1.4-0.9-2.5-2.1-3.4-3.6
			c-0.9-1.4-1.4-3.2-1.4-5.4c0-1,0.1-1.9,0.3-2.7c0.2-0.8,0.5-1.6,0.8-2.3c0.7-1.4,1.7-2.6,2.8-3.7c1.1-1,2.4-1.8,3.8-2.5
			c0.9-0.4,1.8-0.7,2.7-1c1-0.3,1.7-1.2,1.7-2.3v-2c0-1.3,1.1-2.4,2.4-2.4H63c1.3,0,2.4,1.1,2.4,2.4v2c0,1.1,0.7,2,1.7,2.3
			c0.9,0.3,1.7,0.6,2.5,1c1.3,0.7,2.4,1.5,3.4,2.5c1,1,1.7,2.2,2.2,3.5c0.2,0.5,0.3,1,0.5,1.5c0.3,1.5-0.8,2.9-2.4,2.9h-9.1
			c0-0.2-0.1-0.6-0.2-1c-0.1-0.4-0.3-0.9-0.6-1.3c-0.3-0.4-0.7-0.8-1.2-1.1c-0.5-0.3-1.3-0.5-2.2-0.5c-1.3,0-2.3,0.4-3,1.1
			c-0.7,0.7-1.1,1.5-1.1,2.4c0,0.1,0,0.1,0,0.2c0,0.7,0.2,1.3,0.6,1.8c0.4,0.6,1.1,1.1,2,1.6c0.9,0.5,2,0.9,3.2,1.3
			c1.3,0.4,2.7,0.9,4.4,1.5c2.3,0.7,4.2,1.6,5.7,2.6c1.5,1,2.6,2.1,3.4,3.2c0.8,1.1,1.3,2.2,1.6,3.3c0.3,1.1,0.4,2,0.4,2.8
			C77.3,77.1,77.2,77.8,77.1,78.8z M89.5,32.3H75.4c-1.3,0-2.4-1.1-2.4-2.4v0c0-1.3,1.1-2.4,2.4-2.4h14.1c1.3,0,2.4,1.1,2.4,2.4v0
			C91.9,31.3,90.8,32.3,89.5,32.3z"/>
	</g>
	<rect x="15.3" y="10.3" class="st0" width="89.4" height="8.7"/>
</g>
</svg>
