<?xml version="1.0" encoding="utf-8"?>
<!-- Generator: Adobe Illustrator 22.1.0, SVG Export Plug-In . SVG Version: 6.00 Build 0)  -->
<svg version="1.1" id="圖層_1" xmlns="http://www.w3.org/2000/svg" xmlns:xlink="http://www.w3.org/1999/xlink" x="0px" y="0px"
	 viewBox="0 0 162 162" style="enable-background:new 0 0 162 162;" xml:space="preserve">
<style type="text/css">
	.st0{fill:#4BB5AB;}
	.st1{fill:#FFFFFF;}
</style>
<g>
	<circle class="st0" cx="81" cy="81" r="81"/>
	<path class="st1" d="M82.8,51C66,51,52.4,64.5,52.4,81.3c0,16.8,13.6,30.3,30.3,30.3c16.8,0,30.3-13.6,30.3-30.3
		C113.1,64.5,99.5,51,82.8,51z M94.1,88.1c-0.1,0.7-0.4,1.5-0.9,2.3c-0.5,0.9-1.3,1.7-2.3,2.6c-0.9,0.7-2,1.3-3.4,1.8
		c-0.6,0.2-1.1,0.8-1.1,1.5v1.5c0,0.9-0.7,1.6-1.6,1.6h-3.6c-0.9,0-1.6-0.7-1.6-1.6v-2.5c-0.4-0.1-0.8-0.2-1.3-0.3
		c-0.5-0.1-1-0.2-1.5-0.5c-0.5-0.2-1.1-0.5-1.6-0.8c-0.5-0.3-1.1-0.8-1.6-1.3c-0.6-0.7-1.2-1.4-1.6-2.3c-0.4-0.9-0.6-1.8-0.6-2.6
		v-0.4h8.5c0,0.1,0,0.4,0.1,0.7c0.1,0.3,0.2,0.6,0.4,1c0.2,0.3,0.5,0.6,0.9,0.9c0.4,0.3,0.9,0.4,1.6,0.4c0.6,0,1.3-0.2,1.9-0.6
		c0.6-0.4,0.9-1,0.9-1.8c0-0.7-0.3-1.3-0.9-1.9c-0.6-0.6-1.8-1.2-3.7-1.7c-1-0.3-2.1-0.6-3.2-1c-1.1-0.4-2.1-0.9-3-1.5
		c-0.9-0.6-1.7-1.4-2.3-2.4c-0.6-0.9-0.9-2.1-0.9-3.5c0-0.6,0.1-1.2,0.2-1.8c0.1-0.5,0.3-1,0.5-1.5c0.5-0.9,1.1-1.7,1.8-2.4
		c0.7-0.7,1.6-1.2,2.5-1.6c0.6-0.3,1.2-0.5,1.8-0.7c0.7-0.2,1.1-0.8,1.1-1.5v-1.3c0-0.9,0.7-1.6,1.6-1.6h3.6c0.9,0,1.6,0.7,1.6,1.6
		V66c0,0.7,0.5,1.3,1.1,1.5c0.6,0.2,1.1,0.4,1.6,0.7c0.8,0.4,1.6,1,2.2,1.6c0.6,0.7,1.1,1.4,1.5,2.3c0.1,0.3,0.2,0.6,0.3,1
		c0.2,1-0.5,1.9-1.6,1.9h-6c0-0.2,0-0.4-0.1-0.7c-0.1-0.3-0.2-0.6-0.4-0.9c-0.2-0.3-0.4-0.5-0.8-0.7c-0.3-0.2-0.8-0.3-1.5-0.3
		c-0.9,0-1.5,0.2-2,0.7c-0.5,0.5-0.7,1-0.7,1.6c0,0,0,0.1,0,0.1c0,0.5,0.2,0.9,0.4,1.2c0.3,0.4,0.7,0.7,1.3,1
		c0.6,0.3,1.3,0.6,2.1,0.9c0.8,0.3,1.8,0.6,2.9,1c1.5,0.5,2.8,1.1,3.7,1.7c1,0.7,1.7,1.4,2.2,2.1c0.5,0.7,0.9,1.5,1.1,2.2
		c0.2,0.7,0.3,1.3,0.3,1.8C94.2,87,94.1,87.4,94.1,88.1z"/>
	<g>
		<path class="st1" d="M88.6,40.2H113c0-0.8,0.1-1.7,0.1-2.5c0-0.8,0-1.7-0.1-2.5H88.6c0,0.8-0.1,1.7-0.1,2.5
			C88.5,38.6,88.5,39.4,88.6,40.2z"/>
		<path class="st1" d="M85.5,41.2l9.5-9.5c-0.6-0.6-1.1-1.2-1.7-1.8c-0.6-0.6-1.2-1.2-1.8-1.7L82,37.7c0.6,0.6,1.1,1.2,1.7,1.8
			C84.3,40.1,84.9,40.7,85.5,41.2z"/>
		<path class="st1" d="M82,37.7l9.5,9.5c0.6-0.6,1.2-1.1,1.8-1.7c0.6-0.6,1.2-1.2,1.7-1.8l-9.5-9.5c-0.6,0.6-1.2,1.1-1.8,1.7
			C83.1,36.5,82.6,37.1,82,37.7z"/>
	</g>
	<g>
		<path class="st1" d="M57.5,123.4h24.4c0-0.8,0.1-1.7,0.1-2.5c0-0.8,0-1.7-0.1-2.5H57.5c0,0.8-0.1,1.7-0.1,2.5
			C57.5,121.7,57.5,122.6,57.5,123.4z"/>
		<path class="st1" d="M54.5,124.4l9.5-9.5c-0.6-0.6-1.1-1.2-1.7-1.8c-0.6-0.6-1.2-1.2-1.8-1.7l-9.5,9.5c0.6,0.6,1.1,1.2,1.7,1.8
			C53.3,123.2,53.9,123.8,54.5,124.4z"/>
		<path class="st1" d="M50.9,120.9l9.5,9.5c0.6-0.6,1.2-1.1,1.8-1.7c0.6-0.6,1.2-1.2,1.7-1.8l-9.5-9.5c-0.6,0.6-1.2,1.1-1.8,1.7
			C52.1,119.7,51.5,120.3,50.9,120.9z"/>
	</g>
</g>
</svg>
