<?xml version="1.0" encoding="utf-8"?>
<!-- Generator: Adobe Illustrator 22.1.0, SVG Export Plug-In . SVG Version: 6.00 Build 0)  -->
<svg version="1.1" id="圖層_1" xmlns="http://www.w3.org/2000/svg" xmlns:xlink="http://www.w3.org/1999/xlink" x="0px" y="0px"
	 viewBox="0 0 74 74" style="enable-background:new 0 0 74 74;" xml:space="preserve">
<style type="text/css">
	.st0{fill:#FFFFFF;}
</style>
<path class="st0" d="M68.6,41.5v-8.2c0-0.5-0.4-1-0.9-1.1l-4.8-0.5c-0.4-0.1-0.8-0.4-0.9-0.8c-0.6-2.4-1.6-4.8-2.9-7
	c-0.2-0.4-0.2-0.9,0.1-1.2l3-3.8c0.3-0.4,0.3-1-0.1-1.4l-5.7-5.7c-0.4-0.4-1-0.4-1.4-0.1l-3.8,3c-0.3,0.3-0.8,0.3-1.1,0.1
	c-2.2-1.3-4.6-2.3-7.1-2.9c-0.4-0.1-0.7-0.4-0.8-0.8l-0.5-4.5c-0.1-0.9-0.5-1.3-1-1.3l-8.2,0c-0.5,0-0.9,0.4-1,0.9L30.9,11
	c-0.1,0.4-0.4,0.8-0.8,0.9c-2.4,0.6-4.8,1.6-7,2.9c-0.4,0.2-0.8,0.2-1.1-0.1l-3.8-3.1c-0.4-0.3-1-0.3-1.3,0.1L11,17.6
	c-0.4,0.4-0.4,0.9-0.1,1.3l3.1,3.8c0.3,0.3,0.3,0.8,0.1,1.1c-1.3,2.2-2.3,4.6-2.9,7.1c-0.1,0.4-0.4,0.7-0.8,0.8l-4.9,0.6
	c-0.5,0.1-0.9,0.5-0.9,1v8.2c0,0.5,0.4,0.9,0.9,1l4.9,0.6c0.4,0,0.8,0.3,0.9,0.8c0.6,2.4,1.6,4.8,2.9,7.1c0.2,0.4,0.2,0.8-0.1,1.1
	l-3.1,3.8c-0.3,0.4-0.3,1,0.1,1.3l5.8,5.8c0.4,0.4,0.9,0.4,1.3,0.1l3.8-3.1c0.3-0.3,0.8-0.3,1.1-0.1c2.2,1.3,4.6,2.3,7.1,2.9
	c0.4,0.1,0.7,0.4,0.8,0.9l0.6,4.9c0.1,0.5,0.5,0.9,1,0.9h8.2c0.5,0,0.9-0.4,1-0.9l0.6-4.9c0-0.4,0.3-0.7,0.8-0.8
	c2.5-0.6,4.8-1.6,7.1-2.9c0.4-0.2,0.8-0.2,1.1,0.1L55,63c0.4,0.3,1,0.3,1.3-0.1l5.8-5.8c0.4-0.4,0.4-0.9,0.1-1.3L59.1,52
	c-0.3-0.3-0.3-0.8-0.1-1.1c1.3-2.2,2.3-4.6,2.9-7.1c0.1-0.4,0.4-0.7,0.8-0.8l4.9-0.6C68.2,42.4,68.6,42,68.6,41.5z M14.8,22.7
	L14.8,22.7L14.8,22.7C14.8,22.7,14.8,22.7,14.8,22.7z M38.7,53.7C27.9,55,18.9,46,20.3,35.2c0.9-7.3,6.8-13.2,14.1-14.1
	c10.7-1.4,19.8,7.7,18.4,18.4C51.9,46.8,46,52.7,38.7,53.7z"/>
</svg>
