<?xml version="1.0" encoding="utf-8"?>
<!-- Generator: Adobe Illustrator 22.1.0, SVG Export Plug-In . SVG Version: 6.00 Build 0)  -->
<svg version="1.1" id="圖層_1" xmlns="http://www.w3.org/2000/svg" xmlns:xlink="http://www.w3.org/1999/xlink" x="0px" y="0px"
	 viewBox="0 0 240 240" style="enable-background:new 0 0 240 240;" xml:space="preserve">
<style type="text/css">
	.st0{fill:#4BB5AB;}
</style>
<g>
	<path class="st0" d="M239.5,70.8c0-1.7,0-3.3-0.1-4.8c-0.2-8.1-0.7-14.7-1.8-20.9c-0.6-3.1-1.3-6.1-2.2-9.1
		c-5.3-14.5-16.6-25.8-31.1-31.1c-13-4.1-25-4.1-48.9-4.1H146H83.8c-23.9,0-35.9,0-49,4.1C20.3,10.3,9,21.6,3.7,36.1
		c-4.1,13-4.1,25-4.1,48.9v71c0,4.1,0,7.8,0,11.3l0,0c0.1,16.9,0.7,27.6,4.1,38.4c5.3,14.5,16.6,25.8,31.1,31.1
		c6.1,1.9,15.8,3,26.8,3.5c0.1,0,0.1,0,0.2,0c0.7,0,1.3,0.1,2,0.1c0.1,0,0.2,0,0.3,0c0.6,0,1.2,0.1,1.8,0.1c0.1,0,0.3,0,0.4,0
		c0.6,0,1.2,0,1.8,0.1c0.2,0,0.3,0,0.5,0c0.6,0,1.2,0,1.7,0.1c0.2,0,0.4,0,0.6,0c0.6,0,1.1,0,1.7,0c0.2,0,0.4,0,0.6,0
		c0.6,0,1.2,0,1.7,0c0.2,0,0.4,0,0.5,0c0.6,0,1.2,0,1.9,0c0.1,0,0.3,0,0.4,0c0.7,0,1.4,0,2.2,0c0,0,0.1,0,0.1,0c0.8,0,1.5,0,2.3,0
		c0.4,0,0.7,0,1.1,0c0.4,0,0.7,0,1.1,0c0.5,0,1,0,1.5,0c0.2,0,0.5,0,0.7,0c0.6,0,1.1,0,1.7,0c0.2,0,0.3,0,0.5,0c0.6,0,1.3,0,1.9,0
		c0.1,0,0.2,0,0.2,0c1.4,0,2.8,0,4.2,0c1.9,0,3.9,0,5.8,0h20.8h3.5h1.6h0h8.3h0h1.6h0h18.5c10.8,0,19.2,0,26.3-0.4
		c1-0.1,1.9-0.1,2.9-0.2c3.3-0.2,6.3-0.6,9.2-1c3.6-0.6,7.1-1.4,10.6-2.5c11.1-4,20.3-11.7,26.4-21.5c0.9-1.5,1.8-3,2.5-4.6
		c0.1-0.2,0.1-0.3,0.2-0.5c0.3-0.6,0.6-1.3,0.9-1.9c0.4-0.8,0.7-1.7,1-2.5c4.1-13,4.1-25,4.1-48.9v-50.1V85.7
		C239.6,80.2,239.6,75.3,239.5,70.8z M238,156.7c0,23.7,0,35.6-4,48.4c-0.3,0.7-0.6,1.5-1,2.4c-0.3,0.6-0.6,1.2-0.8,1.9l-0.2,0.5
		c-0.7,1.5-1.6,3-2.5,4.5c-5.9,9.6-15,17-25.6,20.9c-3.3,1.1-6.7,1.9-10.3,2.5c-2.7,0.4-5.7,0.8-9,1c-0.9,0.1-1.9,0.1-2.8,0.2
		c-7.1,0.4-15.6,0.4-26.2,0.4l-60.1,0l-9.2,0l-3.7,0l-2.4,0l-5-0.1l-2.3-0.1l-2.2-0.1l-2.2-0.1l-2.2-0.1l-2.2-0.1
		c-0.7,0-2.1-0.1-2.1-0.1c-12.4-0.6-21-1.7-26.4-3.4c-14-5.1-25-16.1-30.1-30.1c-3.3-10.4-3.9-20.5-4-37.8l0-4.4l0,0
		c0-2.2,0-4.5,0-6.9V85c0-23.7,0-35.6,4-48.4c5.1-14,16.1-25,30.1-30c12.8-4,24.7-4,48.4-4h71.6c23.7,0,35.6,0,48.4,4
		c14,5.1,25,16,30.1,30.1c0.9,2.8,1.6,5.7,2.2,8.8c1,5.6,1.5,11.7,1.7,20.6c0,1.5,0.1,3.1,0.1,4.8c0.1,4.5,0.1,9.4,0.1,14.9V156.7z"
		/>
	<g>
		<rect x="93.3" y="115.9" class="st0" width="52.7" height="10"/>
		<rect x="114.6" y="94.5" class="st0" width="10" height="52.7"/>
	</g>
</g>
</svg>
