<?xml version="1.0" encoding="utf-8"?>
<!-- Generator: Adobe Illustrator 22.1.0, SVG Export Plug-In . SVG Version: 6.00 Build 0)  -->
<svg version="1.1" id="圖層_1" xmlns="http://www.w3.org/2000/svg" xmlns:xlink="http://www.w3.org/1999/xlink" x="0px" y="0px"
	 viewBox="0 0 162 162" style="enable-background:new 0 0 162 162;" xml:space="preserve">
<style type="text/css">
	.st0{fill:#4BB5AB;}
	.st1{fill:#FFFFFF;}
</style>
<circle class="st0" cx="81" cy="81" r="81"/>
<g>
	<path class="st0" d="M113.4,110.9c0,1.9-1.4,3.4-3.2,3.4H49.8c-1.8,0-3.2-1.5-3.2-3.4V65.4c0-1.9,1.4-3.4,3.2-3.4h60.5
		c1.8,0,3.2,1.5,3.2,3.4V110.9z"/>
	<path class="st0" d="M114.2,61.3c0,1.8-1.4,3.2-3.2,3.2H50.3c-1.8,0-3.2-1.4-3.2-3.2V49.8c0-1.8,1.4-3.2,3.2-3.2H111
		c1.8,0,3.2,1.4,3.2,3.2V61.3z"/>
	<g>
		<path class="st1" d="M111.3,116.1H50.7c-2.7,0-4.8-2.2-4.8-4.8V50.7c0-2.7,2.2-4.8,4.8-4.8h60.6c2.7,0,4.8,2.2,4.8,4.8v60.6
			C116.1,114,114,116.1,111.3,116.1z M50.7,49.1c-0.9,0-1.6,0.7-1.6,1.6v60.6c0,0.9,0.7,1.6,1.6,1.6h60.6c0.9,0,1.6-0.7,1.6-1.6
			V50.7c0-0.9-0.7-1.6-1.6-1.6H50.7z"/>
	</g>
	<g>
		<rect x="61.9" y="64.7" class="st1" width="3.2" height="49.5"/>
	</g>
	<g>
		<rect x="72.6" y="75.2" class="st1" width="31.7" height="3.2"/>
	</g>
	<g>
		<rect x="72.6" y="99.1" class="st1" width="18.9" height="3.2"/>
	</g>
	<g>
		<rect x="72.6" y="87.1" class="st1" width="31.7" height="3.2"/>
	</g>
	<g>
		<rect x="47.1" y="62.7" class="st1" width="67.7" height="3.3"/>
	</g>
</g>
</svg>
