<?xml version="1.0" encoding="utf-8"?>
<!-- Generator: Adobe Illustrator 22.1.0, SVG Export Plug-In . SVG Version: 6.00 Build 0)  -->
<svg version="1.1" id="圖層_1" xmlns="http://www.w3.org/2000/svg" xmlns:xlink="http://www.w3.org/1999/xlink" x="0px" y="0px"
	 viewBox="0 0 162 162" style="enable-background:new 0 0 162 162;" xml:space="preserve">
<style type="text/css">
	.st0{fill:#4BB5AB;}
	.st1{fill:none;}
	.st2{fill:#FFFFFF;}
</style>
<g>
	<circle class="st0" cx="81" cy="81" r="81"/>
	<path class="st1" d="M90.3,73.8c-2.7,2.7-4,6.1-4.1,9.6c0,0,0,0.1,0,0.1c0,0,0,0.1,0,0.1c0,0,0,0.1,0,0.1c0,3.5,1.4,7,4.1,9.6
		c5.4,5.4,14.2,5.4,19.6,0c2.7-2.7,4-6.2,4.1-9.7c0-3.5-1.3-7.1-4-9.8C104.6,68.4,95.8,68.4,90.3,73.8z"/>
	<path class="st1" d="M53.8,73.6c-2.7,2.7-4.1,6.3-4.1,9.8h0c0,3.5,1.3,7.1,4,9.8c5.4,5.4,14.2,5.5,19.6,0.1c2.7-2.7,4-6.1,4.1-9.6
		c0-0.1,0-0.1,0-0.2c0-0.1,0-0.1,0-0.2c0,0,0,0,0-0.1c-0.1-3.5-1.4-7-4.1-9.6C68.1,68.2,59.3,68.2,53.8,73.6z"/>
	<path class="st1" d="M53.8,73.6c-2.7,2.7-4.1,6.3-4.1,9.8h0c0,3.5,1.3,7.1,4,9.8c5.4,5.4,14.2,5.5,19.6,0.1c2.7-2.7,4-6.1,4.1-9.6
		c0-0.1,0-0.1,0-0.2c0-0.1,0-0.1,0-0.2c0,0,0,0,0-0.1c-0.1-3.5-1.4-7-4.1-9.6C68.1,68.2,59.3,68.2,53.8,73.6z"/>
	<path class="st1" d="M106.3,86.8l4.9,4.9c1.8-2.4,2.7-5.3,2.7-8.1c0-3.5-1.3-7.1-4-9.8c-5.4-5.4-14.2-5.5-19.6-0.1
		c-2.7,2.7-4,6.1-4.1,9.6c0,0,0,0.1,0,0.1c0,0,0,0.1,0,0.1c0,0,0,0.1,0,0.1c0,3.5,1.4,7,4.1,9.6c3.9,3.9,9.6,5,14.5,3.2l-4.1-4.1
		L106.3,86.8z"/>
	<g>
		<path class="st2" d="M63.7,104c-5.5,0-10.7-2.2-14.6-6.1c-3.7-3.8-5.8-8.7-6-14l0-0.6c0-5.5,2.2-10.6,6-14.5c3.9-3.9,9.1-6,14.5-6
			s10.7,2.1,14.5,6c0.7,0.7,1.4,1.6,2.1,2.4l1.6,2.2l1.7-2.1c0.6-0.9,1.3-1.7,2.1-2.4c3.9-3.8,9-6,14.5-6c5.5,0,10.7,2.2,14.6,6.1
			c3.8,3.8,5.9,8.9,6,14.3l0,0.2c0,4-1.3,7.9-3.5,11.2l-3.4-3.4c1.4-2.4,2.1-5.1,2.2-7.8c0-4.2-1.6-8.2-4.6-11.2
			c-3-3-7-4.7-11.3-4.7c-4.2,0-8.2,1.6-11.2,4.6c-3,2.9-4.6,6.8-4.7,11v0.3c0.1,4.2,1.7,8.1,4.7,11c3,3,7,4.6,11.2,4.6
			c1.4,0,2.8-0.2,4.2-0.6l3.7,3.7c-2.5,1-5.2,1.6-7.9,1.6c-5.5,0-10.6-2.1-14.5-6c-0.7-0.7-1.4-1.5-2-2.3l-1.8-2.3l-1.6,2.3
			l-0.1,0.1c-0.6,0.8-1.3,1.6-2,2.3C74.3,101.9,69.1,104,63.7,104z M47.8,83.5c0,4.2,1.6,8.2,4.6,11.2c3,3,7,4.7,11.3,4.7
			c4.2,0,8.2-1.6,11.2-4.6c2.9-2.9,4.6-6.8,4.7-11c0-0.1,0-0.2,0-0.3c0-0.1,0-0.2,0-0.2c-0.1-4.2-1.7-8.2-4.7-11.1
			c-3-3-7-4.7-11.2-4.7c-4.2,0-8.2,1.7-11.2,4.7C49.4,75.2,47.8,79.2,47.8,83.5L47.8,83.5z"/>
	</g>
	<g>
		
			<rect x="108.1" y="88.2" transform="matrix(0.7071 -0.7071 0.7071 0.7071 -35.729 106.4123)" class="st2" width="4.9" height="16.2"/>
	</g>
</g>
</svg>
