<?xml version="1.0" encoding="utf-8"?>
<!-- Generator: Adobe Illustrator 22.1.0, SVG Export Plug-In . SVG Version: 6.00 Build 0)  -->
<svg version="1.1" id="圖層_1" xmlns="http://www.w3.org/2000/svg" xmlns:xlink="http://www.w3.org/1999/xlink" x="0px" y="0px"
	 viewBox="0 0 162 162" style="enable-background:new 0 0 162 162;" xml:space="preserve">
<style type="text/css">
	.st0{fill:#4BB5AB;}
	.st1{fill:none;}
	.st2{fill:#FFFFFF;}
</style>
<g>
	<circle class="st0" cx="81" cy="81" r="81"/>
	<path class="st1" d="M96.6,91.9c-2.7-2.7-6.1-4-9.6-4.1c0,0-0.1,0-0.1,0c0,0-0.1,0-0.1,0c0,0-0.1,0-0.1,0c-3.5,0-7,1.4-9.6,4.1
		c-5.4,5.4-5.4,14.2,0,19.6c2.7,2.7,6.2,4,9.7,4.1c3.5,0,7.1-1.3,9.8-4C101.9,106.2,102,97.4,96.6,91.9z"/>
	<path class="st1" d="M96.7,55.4c-2.7-2.7-6.3-4.1-9.8-4.1v0c-3.5,0-7.1,1.3-9.8,4C71.7,60.8,71.6,69.6,77,75c2.7,2.7,6.1,4,9.6,4.1
		c0.1,0,0.1,0,0.2,0c0.1,0,0.1,0,0.2,0c0,0,0,0,0.1,0c3.5-0.1,7-1.4,9.6-4.1C102.1,69.6,102.1,60.8,96.7,55.4z"/>
	<circle class="st2" cx="83.4" cy="113.6" r="5.3"/>
	<path class="st1" d="M89.4,52.1C89.4,52.1,89.4,52.1,89.4,52.1c3.5,0,6.8,1.3,9.3,3.4C96.2,53.3,92.9,52.1,89.4,52.1z"/>
	<path class="st2" d="M82.4,45.1c-11.9,0-21.6,9.7-21.7,21.6h6.9c0.1-8.1,6.7-14.6,14.7-14.6c0,0,0,0,0,0c0,0,0,0,0,0
		c3.5,0,6.8,1.3,9.3,3.4c3.3,2.7,5.4,6.8,5.4,11.4c0,8.1-6.6,14.8-14.8,14.8c-0.9,0-1.8-0.1-2.6-0.3h-0.3v20.4h7V88
		C96.5,86.1,104,77.4,104,66.7C104,54.8,94.3,45.1,82.4,45.1z"/>
</g>
</svg>
