<?xml version="1.0" encoding="utf-8"?>
<!-- Generator: Adobe Illustrator 22.1.0, SVG Export Plug-In . SVG Version: 6.00 Build 0)  -->
<svg version="1.1" id="圖層_1" xmlns="http://www.w3.org/2000/svg" xmlns:xlink="http://www.w3.org/1999/xlink" x="0px" y="0px"
	 viewBox="0 0 98 98" style="enable-background:new 0 0 98 98;" xml:space="preserve">
<style type="text/css">
	.st0{fill:#333333;}
</style>
<g>
	<g>
		<path class="st0" d="M49,91.8c-11.9,0-23-4.8-31.2-13.5C10.3,70.3,6.2,59.9,6.2,49C6.2,25.4,25.4,6.2,49,6.2S91.8,25.4,91.8,49
			c0,10.9-4.1,21.3-11.6,29.3C72,87,60.9,91.8,49,91.8z M49,9.2C27,9.2,9.2,27,9.2,49C9.2,59.2,13,68.8,20,76.3
			c7.6,8.1,17.9,12.6,29,12.6s21.4-4.5,29-12.6c7-7.4,10.8-17.1,10.8-27.3C88.8,27,71,9.2,49,9.2z"/>
	</g>
	<g>
		<path class="st0" d="M67.4,70.9l-5.7,5.5c-1.8-0.1-3.6-0.4-5.5-0.9s-3.9-1.3-5.9-2.2c-2-0.9-4.6-2.5-7.9-4.8
			c-4.8-0.9-8.7-3.1-11.9-6.8c-3.1-3.7-4.7-7.9-4.7-12.8c0-5.9,2-10.8,6-14.6c4-3.9,9.1-5.8,15.2-5.8s11.2,1.9,15.2,5.7
			s6,8.6,6,14.4c0,4.9-1.5,9.2-4.6,12.8c-3,3.7-7,6-11.8,7l1.5,0.6c4.6,1.8,8,2.7,10,2.7C64.6,71.7,65.9,71.4,67.4,70.9z M47.1,33.8
			c-4.4,0-8.1,1.4-11,4.3c-2.9,2.9-4.3,6.5-4.3,10.8c0,4.2,1.5,7.8,4.4,10.6c2.9,2.8,6.6,4.2,11,4.2c4.3,0,8-1.4,11-4.3
			c3-2.9,4.5-6.4,4.5-10.6c0-4.3-1.5-7.9-4.4-10.7C55.2,35.2,51.5,33.8,47.1,33.8z"/>
	</g>
</g>
</svg>
