<?xml version="1.0" encoding="utf-8"?>
<!-- Generator: Adobe Illustrator 22.1.0, SVG Export Plug-In . SVG Version: 6.00 Build 0)  -->
<svg version="1.1" id="圖層_1" xmlns="http://www.w3.org/2000/svg" xmlns:xlink="http://www.w3.org/1999/xlink" x="0px" y="0px"
	 viewBox="0 0 98 98" style="enable-background:new 0 0 98 98;" xml:space="preserve">
<style type="text/css">
	.st0{fill:#333333;}
</style>
<g>
	<g>
		<path class="st0" d="M50.3,91.8c-11.9,0-23-4.8-31.2-13.5C11.6,70.3,7.5,59.9,7.5,49c0-23.6,19.2-42.8,42.8-42.8
			c23.6,0,42.8,19.2,42.8,42.8c0,10.9-4.1,21.3-11.6,29.3C73.3,87,62.3,91.8,50.3,91.8z M50.3,9.2C28.3,9.2,10.5,27,10.5,49
			c0,10.2,3.8,19.8,10.8,27.3c7.6,8.1,17.9,12.6,29,12.6c11.1,0,21.4-4.5,29-12.6c7-7.4,10.8-17.1,10.8-27.3
			C90.1,27,72.3,9.2,50.3,9.2z"/>
	</g>
	<path d="M47.9,66.8l5.1-1c4.4-0.9,7.9-2.9,10.6-6.3c2.8-3.3,4.1-7.1,4.1-11.6c0-5.3-1.8-9.5-5.4-13c-3.7-3.5-8.2-5.2-13.8-5.2
		c-5.6,0-10.1,1.7-13.8,5.2c-3.6,3.5-5.4,7.8-5.4,13.2c0,4.4,1.4,8.1,4.2,11.5c2.8,3.3,6.3,5.4,10.7,6.1l0.3,0.1l0.3,0.2
		c3.1,2.2,5.7,3.7,7.5,4.6c1.8,0.9,3.7,1.6,5.5,2.1c1.5,0.4,3,0.7,4.4,0.8l1.7-1.6c-2.2-0.1-5.4-1-9.7-2.7L47.9,66.8z M36.8,59.6
		c-3.1-3-4.7-6.8-4.7-11.4c0-4.6,1.6-8.5,4.7-11.6c3.1-3.1,7-4.6,11.7-4.6c4.7,0,8.7,1.5,11.8,4.5c3.1,3,4.7,6.9,4.7,11.5
		c0,4.5-1.6,8.3-4.8,11.4c-3.2,3.1-7.1,4.6-11.7,4.6C43.9,64.1,39.9,62.6,36.8,59.6z"/>
</g>
</svg>
