<?xml version="1.0" encoding="utf-8"?>
<!-- Generator: Adobe Illustrator 22.1.0, SVG Export Plug-In . SVG Version: 6.00 Build 0)  -->
<svg version="1.1" id="圖層_1" xmlns="http://www.w3.org/2000/svg" xmlns:xlink="http://www.w3.org/1999/xlink" x="0px" y="0px"
	 viewBox="0 0 98 98" style="enable-background:new 0 0 98 98;" xml:space="preserve">
<style type="text/css">
	.st0{fill:none;stroke:#333333;stroke-width:3;stroke-miterlimit:10;}
</style>
<g>
	<path class="st0" d="M49,63c12.1,0,23,5.6,30.1,14.3C86,69.9,90.3,60,90.3,49C90.3,26.2,71.8,7.7,49,7.7S7.7,26.2,7.7,49
		c0,10.9,4.3,20.9,11.2,28.3C26,68.6,36.9,63,49,63z M49,29.3c7.1,0,12.8,5.8,12.8,12.8C61.8,49.3,56.1,55,49,55
		s-12.8-5.8-12.8-12.8C36.2,35.1,41.9,29.3,49,29.3z"/>
	<path class="st0" d="M49,90.3c11.9,0,22.6-5,30.1-13.1C72,68.6,61.1,63,49,63s-23,5.6-30.1,14.3C26.4,85.3,37.1,90.3,49,90.3z"/>
</g>
</svg>
