<?xml version="1.0" encoding="utf-8"?>
<!-- Generator: Adobe Illustrator 22.1.0, SVG Export Plug-In . SVG Version: 6.00 Build 0)  -->
<svg version="1.1" id="圖層_1" xmlns="http://www.w3.org/2000/svg" xmlns:xlink="http://www.w3.org/1999/xlink" x="0px" y="0px"
	 viewBox="0 0 98 98" style="enable-background:new 0 0 98 98;" xml:space="preserve">
<style type="text/css">
	.st0{fill:none;stroke:#333333;stroke-width:3;stroke-miterlimit:10;}
</style>
<g>
	<path class="st0" d="M49,74.1c4.7,0,8.6-3.8,8.6-8.6c0-4.7-3.8-8.6-8.6-8.6c-4.7,0-8.6,3.8-8.6,8.6C40.4,70.3,44.3,74.1,49,74.1z"
		/>
	<path class="st0" d="M68.7,22.9c0-10.9-8.8-19.7-19.7-19.7c-10.9,0-19.7,8.8-19.7,19.7v10h39.3V22.9z"/>
	<path class="st0" d="M75.1,32.9h-6.4H29.3h-6.4c-6.6,0-12,5.4-12,12v37.7c0,6.6,5.4,12,12,12h52.2c6.6,0,12-5.4,12-12V45
		C87.1,38.3,81.7,32.9,75.1,32.9z"/>
</g>
</svg>
