<?xml version="1.0" encoding="utf-8"?>
<!-- Generator: Adobe Illustrator 22.1.0, SVG Export Plug-In . SVG Version: 6.00 Build 0)  -->
<svg version="1.1" id="圖層_1" xmlns="http://www.w3.org/2000/svg" xmlns:xlink="http://www.w3.org/1999/xlink" x="0px" y="0px"
	 viewBox="0 0 520 120" style="enable-background:new 0 0 520 120;" xml:space="preserve">
<style type="text/css">
	.st0{fill:#87CEBF;}
	.st1{opacity:0.6;fill:#87CEBF;}
</style>
<g>
	<path class="st0" d="M109,6.1h36.8c8.3,0,15,2.4,19.9,7.3c4.9,4.8,7.4,10.6,7.4,17.2c0,6.9-2.4,12.7-7.3,17.6
		c-4.9,4.9-11.5,7.3-19.9,7.3h-16.4v33.1H109V6.1z M129.5,21.2v19.1h9.6c8.5,0,12.8-3.2,12.8-9.6c0-3.6-1.1-6.1-3.4-7.5
		c-2.3-1.4-6.2-2.1-11.7-2.1H129.5z"/>
	<path class="st0" d="M201.8,6.1v82.5h-17.5V6.1H201.8z"/>
	<path class="st0" d="M273.2,74.8v9.7c-5.8,3.4-11.3,5.1-16.4,5.1c-5.5,0-8.8-2.1-9.8-6.3c-6.1,4.2-12.2,6.3-18.4,6.3
		c-4.3,0-8-1.4-11-4.1c-3-2.7-4.5-5.9-4.5-9.6c0-4.9,1.6-8.8,4.7-11.7c3.1-3,12.6-6.8,28.4-11.5c0.4-6.2-2.8-9.3-9.7-9.3
		c-7.4,0-14.3,3.1-20.6,9.3V38.5c7.3-4.5,15.4-6.8,24.2-6.8c15.8,0,23.6,5.7,23.6,17v25.4c0,2.6,1,3.9,2.9,3.9
		C268,78,270.2,76.9,273.2,74.8z M246.1,75.1V61.6c-5.9,2.1-9.9,3.9-12.1,5.5c-2.2,1.6-3.3,3.7-3.3,6.3c0,1.6,0.6,3,1.7,4.2
		c1.1,1.2,2.4,1.7,4,1.7C239.7,79.3,243,77.9,246.1,75.1z"/>
	<path class="st0" d="M330.5,32.8l-37.4,82.5h-18.7l16.4-35.9L269,32.8h18.7l11.8,28.7l12.6-28.7H330.5z"/>
	<path class="st0" d="M89.4,86.8c-5.4,0-10.7-0.8-15.6-2.3c11.8-7.8,19.6-21.2,19.6-36.4c0-24-19.5-43.5-43.5-43.5
		c-2.6,0-5.1,0.2-7.5,0.7c-17.6,3.1-31.5,16.6-35.1,34c-0.6,2.9-0.9,5.8-0.9,8.9c0,24,19.5,43.5,43.5,43.5c0.5,0,1,0,1.5,0
		c11.4,5.9,24.3,9.4,37.9,9.9l4.3-14.9C92.2,86.8,90.8,86.8,89.4,86.8z M54.9,74.5c-1.6,0.3-3.3,0.5-5.1,0.5
		c-14.8,0-26.8-12-26.8-26.8c0-9.5,5-17.8,12.4-22.6c4.2-2.6,9.1-4.2,14.4-4.2c14.8,0,26.8,12,26.8,26.8
		C76.7,61.2,67.3,72.1,54.9,74.5z"/>
	
		<rect x="483.5" y="58.6" transform="matrix(0.7071 -0.7071 0.7071 0.7071 87.351 371.259)" class="st0" width="16.7" height="43.1"/>
	<path class="st1" d="M444.4,74.1c-5.7-5.7-8.6-13.2-8.7-20.6c0-0.1,0-0.3,0-0.4c0-0.1,0-0.3,0-0.4c-0.1-9.9-3.2-19.8-9.3-28.1
		c-1.4-2-3.1-3.9-4.9-5.7C402.7,0,372.1,0,353.2,18.9c-9.4,9.4-14.1,21.8-14.1,34.2h18.6c0-7.6,2.9-15.2,8.7-21
		c11.6-11.6,30.4-11.6,42,0c5.7,5.7,8.6,13.1,8.7,20.6c0,0.1,0,0.3,0,0.4c0,0.1,0,0.3,0,0.4c0.1,9.9,3.2,19.8,9.3,28.1
		c1.4,2,3.1,3.9,4.9,5.7c15.6,15.6,39.3,18.3,57.7,8l-14-14C464.5,84.7,452.6,82.3,444.4,74.1z"/>
	<g>
		<path class="st0" d="M513.7,53c0-12.4-4.7-24.7-14.1-34.2C480.7,0,450.1,0,431.2,18.9c-1.8,1.8-3.4,3.7-4.9,5.7
			c-6.1,8.3-9.2,18.2-9.3,28.1c0,0.1,0,0.3,0,0.4c0,0.1,0,0.3,0,0.4c-0.1,7.5-3,14.9-8.7,20.6c-11.6,11.6-30.4,11.6-42,0
			c-5.8-5.8-8.7-13.4-8.7-21h-18.6c0,12.4,4.7,24.7,14.1,34.2c18.9,18.9,49.4,18.9,68.3,0c1.8-1.8,3.4-3.7,4.9-5.7
			c6.1-8.3,9.2-18.2,9.3-28.1c0-0.1,0-0.3,0-0.4c0-0.1,0-0.3,0-0.4c0.1-7.5,3-14.9,8.7-20.6c11.6-11.6,30.4-11.6,42,0
			c5.8,5.8,8.7,13.4,8.7,21H513.7z"/>
		<path class="st0" d="M492.8,64.5l13.8,13.8c4.7-7.7,7.1-16.5,7.1-25.2h-18.6C495.1,56.9,494.3,60.8,492.8,64.5z"/>
	</g>
</g>
</svg>
