<?xml version="1.0" encoding="utf-8"?>
<!-- Generator: Adobe Illustrator 22.1.0, SVG Export Plug-In . SVG Version: 6.00 Build 0)  -->
<svg version="1.1" id="圖層_1" xmlns="http://www.w3.org/2000/svg" xmlns:xlink="http://www.w3.org/1999/xlink" x="0px" y="0px"
	 viewBox="0 0 162 162" style="enable-background:new 0 0 162 162;" xml:space="preserve">
<style type="text/css">
	.st0{fill:#4BB5AB;}
	.st1{fill:#FFFFFF;}
</style>
<g>
	<circle class="st0" cx="81" cy="81" r="81"/>
	<g>
		<g>
			<path class="st1" d="M106.2,59.5h2.7c0.9,0,1.6-0.7,1.6-1.6v-9.8h-1.3c-0.6,2.7-3.1,4.8-6,4.8c-2.6,0-4.8-1.6-5.7-3.8
				c-0.3-0.6-0.8-1-1.5-1h-0.5c-0.7,0-1.2,0.4-1.5,1c-0.9,2.2-3.1,3.8-5.7,3.8c-2.6,0-4.8-1.6-5.7-3.8c-0.3-0.6-0.8-1-1.5-1h-0.5
				c-0.7,0-1.2,0.4-1.5,1c-0.9,2.2-3.1,3.8-5.7,3.8c-2.6,0-4.8-1.6-5.7-3.8c-0.3-0.6-0.8-1-1.5-1H66c-0.7,0-1.2,0.4-1.5,1
				c-0.9,2.2-3.1,3.8-5.7,3.8c-2.9,0-5.4-2-6-4.8h-1.3v9.8c0,0.9,0.7,1.6,1.6,1.6h2.1c0.9,0,1.6,0.7,1.6,1.6v0
				c0,0.9-0.7,1.6-1.6,1.6h-2.1c-0.9,0-1.6,0.7-1.6,1.6v49.5h1.3c0.7-2.7,3.1-4.7,6-4.7c2.5,0,4.7,1.5,5.7,3.7c0.3,0.6,0.8,1,1.5,1
				h0.4c0.6,0,1.2-0.4,1.5-1c1-2.2,3.1-3.7,5.7-3.7c2.5,0,4.7,1.5,5.7,3.7c0.3,0.6,0.8,1,1.5,1h0.6c0.6,0,1.2-0.4,1.5-1
				c1-2.2,3.1-3.7,5.7-3.7c2.5,0,4.7,1.5,5.7,3.7c0.3,0.6,0.8,1,1.5,1h0.6c0.6,0,1.2-0.4,1.5-1c1-2.2,3.1-3.7,5.7-3.7
				c2.9,0,5.3,2,6,4.7h1.3V64.3c0-0.9-0.7-1.6-1.6-1.6h-2.7c-0.9,0-1.6-0.7-1.6-1.6v0C104.7,60.2,105.4,59.5,106.2,59.5z M76.1,59.5
				h9.3c0.9,0,1.6,0.7,1.6,1.6v0c0,0.9-0.7,1.6-1.6,1.6h-9.3c-0.9,0-1.6-0.7-1.6-1.6v0C74.5,60.2,75.2,59.5,76.1,59.5z M59.4,61.1
				L59.4,61.1c0-0.9,0.7-1.6,1.6-1.6h9.3c0.9,0,1.6,0.7,1.6,1.6v0c0,0.9-0.7,1.6-1.6,1.6H61C60.1,62.7,59.4,62,59.4,61.1z
				 M92.3,93.4c-0.1,0.7-0.4,1.5-0.9,2.3c-0.5,0.9-1.3,1.7-2.3,2.6c-0.9,0.7-2,1.3-3.4,1.8c-0.6,0.2-1.1,0.8-1.1,1.5v1.5
				c0,0.9-0.7,1.6-1.6,1.6h-3.6c-0.9,0-1.6-0.7-1.6-1.6v-2.5c-0.4-0.1-0.8-0.2-1.3-0.3c-0.5-0.1-1-0.2-1.5-0.5
				c-0.5-0.2-1.1-0.5-1.6-0.8c-0.5-0.3-1.1-0.8-1.6-1.3c-0.6-0.7-1.2-1.4-1.6-2.3c-0.4-0.9-0.6-1.8-0.6-2.6v-0.4h8.5
				c0,0.1,0,0.4,0.1,0.7c0.1,0.3,0.2,0.6,0.4,1c0.2,0.3,0.5,0.6,0.9,0.9c0.4,0.3,0.9,0.4,1.6,0.4c0.6,0,1.3-0.2,1.9-0.6
				c0.6-0.4,0.9-1,0.9-1.8c0-0.7-0.3-1.3-0.9-1.9c-0.6-0.6-1.8-1.2-3.7-1.7c-1-0.3-2.1-0.6-3.2-1c-1.1-0.4-2.1-0.9-3-1.5
				c-0.9-0.6-1.7-1.4-2.3-2.4c-0.6-0.9-0.9-2.1-0.9-3.5c0-0.6,0.1-1.2,0.2-1.8c0.1-0.5,0.3-1,0.5-1.5c0.5-0.9,1.1-1.7,1.8-2.4
				c0.7-0.7,1.6-1.2,2.5-1.6c0.6-0.3,1.2-0.5,1.8-0.7c0.7-0.2,1.1-0.8,1.1-1.5V70c0-0.9,0.7-1.6,1.6-1.6H83c0.9,0,1.6,0.7,1.6,1.6
				v1.3c0,0.7,0.5,1.3,1.1,1.5c0.6,0.2,1.1,0.4,1.6,0.7c0.8,0.4,1.6,1,2.2,1.6c0.6,0.7,1.1,1.4,1.5,2.3c0.1,0.3,0.2,0.6,0.3,1
				c0.2,1-0.5,1.9-1.6,1.9h-6c0-0.2,0-0.4-0.1-0.7c-0.1-0.3-0.2-0.6-0.4-0.9c-0.2-0.3-0.4-0.5-0.8-0.7c-0.3-0.2-0.8-0.3-1.5-0.3
				c-0.9,0-1.5,0.2-2,0.7c-0.5,0.5-0.7,1-0.7,1.6c0,0,0,0.1,0,0.1c0,0.5,0.2,0.9,0.4,1.2c0.3,0.4,0.7,0.7,1.3,1
				c0.6,0.3,1.3,0.6,2.1,0.9c0.8,0.3,1.8,0.6,2.9,1c1.5,0.5,2.8,1.1,3.7,1.7c1,0.7,1.7,1.4,2.2,2.1c0.5,0.7,0.9,1.5,1.1,2.2
				c0.2,0.7,0.3,1.3,0.3,1.8C92.4,92.3,92.4,92.7,92.3,93.4z M100.5,62.7h-9.3c-0.9,0-1.6-0.7-1.6-1.6v0c0-0.9,0.7-1.6,1.6-1.6h9.3
				c0.9,0,1.6,0.7,1.6,1.6v0C102,62,101.3,62.7,100.5,62.7z"/>
		</g>
		<rect x="51.5" y="48.1" class="st1" width="59.1" height="5.8"/>
	</g>
</g>
</svg>
