<?xml version="1.0" encoding="utf-8"?>
<!-- Generator: Adobe Illustrator 22.1.0, SVG Export Plug-In . SVG Version: 6.00 Build 0)  -->
<svg version="1.1" id="Layer_1" xmlns="http://www.w3.org/2000/svg" xmlns:xlink="http://www.w3.org/1999/xlink" x="0px" y="0px"
	 viewBox="0 0 162 162" style="enable-background:new 0 0 162 162;" xml:space="preserve">
<style type="text/css">
	.st0{fill:#4BB5AB;}
	.st1{fill:none;stroke:#FFFFFF;stroke-width:5;stroke-miterlimit:10;}
	.st2{fill:#FFFFFF;}
	.st3{opacity:0.25;fill:#FFFFFF;}
</style>
<circle class="st0" cx="80.3" cy="80.9" r="81"/>
<path class="st1" d="M100.9,73.6"/>
<g>
	<circle class="st2" cx="43" cy="59.4" r="5.6"/>
	<circle class="st2" cx="51.2" cy="74.7" r="5.6"/>
	<circle class="st2" cx="56.7" cy="60" r="3.2"/>
	<path class="st3" d="M47.7,94.6c0.7,1.5,1.5,2.9,2.4,4.2c0.1-1.6,0.3-3.2,0.7-4.7C49.8,94.3,48.8,94.5,47.7,94.6z"/>
	<path class="st2" d="M73.1,96.1c-0.1,0.1-5.8,5.5-14.8,8.9c1.3,1.2,2.6,2.3,4.1,3.3c8.4-3.7,13.6-8.6,13.9-8.9L73.1,96.1z"/>
	<path class="st2" d="M88.3,104.3l-3.4-3c-0.1,0.1-6,6.6-15.8,10.7c2,0.9,4.1,1.5,6.3,2C83.3,109.8,88,104.7,88.3,104.3z"/>
	<path class="st2" d="M112.3,47c-1.8-1-3.9-1.2-5.9-0.6c-1.9,0.6-3.5,1.9-4.5,3.6L89.3,67.4c1.5,0.2,3.1,0.5,4.9,1l11.5-15.8
		l0.2-0.3c0.4-0.8,1.1-1.3,1.9-1.6c0.8-0.3,1.7-0.2,2.4,0.2c1.6,0.8,2.2,2.8,1.3,4.4l-9.2,17.5c-0.4-0.3-0.8-0.5-1.2-0.8
		c1.8,1.3,3.4,2.7,4.6,4l9.8-18.6C117.5,53.7,116.1,49,112.3,47z"/>
	<path class="st2" d="M97.9,75.3c-3.1-2.2-5.6-2.9-7.8-3.3c3,0.8,5.8,2,8.3,3.7C98.3,75.6,98.1,75.5,97.9,75.3z"/>
	<path class="st2" d="M105,77.5l-1.4,2.1l-2-1.5c-1-0.8-2-1.6-3.1-2.3c4.1,3,6.5,6.1,6.9,8.9c0.2,2.7,0,5-0.5,7.1l2.4,1.2l-2,4.1
		l-1.8-0.9c-1.3,2.9-3.1,5.5-5.1,8.4c-3.1,4.3-9.2,9.6-10.7,10.3c-2.3,0.2-2.3,0.2-3.6,0.2c-2.9,0-5.8-0.4-8.6-1c-1.9,1-4,2-6.2,2.9
		c4.7,1.7,9.7,2.7,14.8,2.7c1.4,0,1.6,0,4.3-0.2c3.2-0.4,11-8.3,13.8-12.1c4.7-6.6,8.6-12.8,7.9-23l0-0.2c-0.4-2.8-1.8-5.4-4.2-8
		l-0.6,1.1C105.1,77.3,105,77.4,105,77.5z"/>
	<path class="st2" d="M101.1,72.1c-0.2-0.1-0.4-0.3-0.6-0.4c-2.3-1.6-4.4-2.6-6.4-3.2L94,68.5C96.5,69.4,98.9,70.6,101.1,72.1z"/>
	<path class="st2" d="M52,97.6c-0.3-0.4-0.5-0.9-0.8-1.3c0,0,0,0,0,0C57.4,95,63,92.4,68,88.5c1-0.8,2-1.7,3.1-2.7
		c1.3-1.3,2.5-2.6,3.6-4L73,80.9l2-4.1l2.3,1.2c0,0,0,0,0,0c0.8-1.2,1.6-2.3,2.4-3.4c1.9-2.4,6-3.1,8.9-2.7h0
		c0.5,0.1,0.9,0.1,1.4,0.2C90,72,89.9,72,89.8,72l-2.5-0.7l1-2.4c0.1-0.1,0.1-0.3,0.2-0.4l0.2-0.3l0.6-0.9c0,0-0.1,0-0.1,0
		c-3.9-0.5-9.7,0.4-13,4.5c-0.9,1.2-1.7,2.4-2.5,3.6c-1.8,2.6-3.4,5.1-5.6,7.1c-1,0.9-1.9,1.7-2.8,2.4c-4.5,3.4-9.5,5.7-15,6.9
		c-0.9,0.2-1.9,0.4-2.9,0.5l-3.1,0.4l1.4,2.8c0.7,1.5,1.6,3,2.5,4.5c1.5,2.4,3.2,4.6,5.1,6.5c1.7-0.4,3.3-1,4.9-1.5
		C55.9,102.8,53.8,100.4,52,97.6z"/>
	<path class="st2" d="M62.3,108.3c-1.6,0.7-3.2,1.3-5,1.9c1.8,1.5,3.7,2.8,5.8,3.9c2.2-0.6,4.2-1.3,6.1-2.1
		C66.7,111.1,64.4,109.8,62.3,108.3z"/>
	<path class="st2" d="M58.2,105c-1.5,0.6-3.2,1.1-4.9,1.5c1.2,1.3,2.6,2.5,3.9,3.6c1.8-0.6,3.5-1.2,5-1.9
		C60.9,107.3,59.5,106.2,58.2,105z"/>
	<path class="st2" d="M69.1,112.1c-1.9,0.8-3.9,1.5-6.1,2.1c2,1.1,4,2.1,6.1,2.8c2.3-0.9,4.3-1.8,6.2-2.9
		C73.2,113.6,71.1,112.9,69.1,112.1z"/>
	<path class="st2" d="M101.1,72.1c-2.2-1.4-4.6-2.6-7.1-3.5l0.1-0.2c-1.7-0.6-3.3-0.8-4.9-1l-0.6,0.9l-0.2,0.3
		c-0.1,0.1-0.1,0.3-0.2,0.4l-1,2.4l2.5,0.7c0.1,0,0.2,0.1,0.3,0.1c2.2,0.4,4.7,1.1,7.8,3.3c0.2,0.1,0.4,0.3,0.6,0.4
		c1.1,0.7,2.1,1.5,3.1,2.3l2,1.5l1.4-2.1c0.1-0.1,0.1-0.2,0.2-0.3l0.6-1.1C104.5,74.7,102.9,73.4,101.1,72.1z"/>
	<path class="st2" d="M74.8,81.8l28.7,14.4c0.6-1.4,1.1-2.8,1.4-4.4L77.4,78C76.5,79.3,75.7,80.6,74.8,81.8z"/>
	<path class="st2" d="M75.1,76.9l-2,4.1l1.7,0.9c0.9-1.2,1.8-2.5,2.6-3.8L75.1,76.9z"/>
	<path class="st2" d="M105.3,97.1l2-4.1l-2.4-1.2c-0.3,1.5-0.8,3-1.4,4.4L105.3,97.1z"/>
</g>
</svg>
