<?xml version="1.0" encoding="utf-8"?>
<!-- Generator: Adobe Illustrator 22.1.0, SVG Export Plug-In . SVG Version: 6.00 Build 0)  -->
<svg version="1.1" id="圖層_1" xmlns="http://www.w3.org/2000/svg" xmlns:xlink="http://www.w3.org/1999/xlink" x="0px" y="0px"
	 viewBox="0 0 60 60" style="enable-background:new 0 0 60 60;" xml:space="preserve">
<style type="text/css">
	.st0{fill:#49A49B;}
</style>
<polygon class="st0" points="43,0.9 43,0.9 43,0.9 "/>
<g>
	<g>
		<g>
			
				<rect x="45.1" y="10.7" transform="matrix(0.7071 -0.7071 0.7071 0.7071 6.1134 39.9646)" class="st0" width="12.4" height="3.8"/>
		</g>
		<g>
			
				<rect x="49.4" y="23.5" transform="matrix(0.7071 -0.7071 0.7071 0.7071 -5.9417 44.958)" class="st0" width="3.8" height="12.4"/>
		</g>
	</g>
	<polygon class="st0" points="43.5,43.5 43.5,43.5 43.5,43.5 	"/>
	<path class="st0" d="M14.1,9.7c-3,0-5.8,1.2-7.9,3.3C4.2,15.1,3,17.9,3,20.8C3,27,8,31.9,14.1,31.9h6.5V9.7H14.1z"/>
	<path class="st0" d="M33,9.7H22.6v22.2H33c3.1,0,6,1.2,8.1,3.4c0.5,0.5,1,1.1,1.4,1.6V4.7C40.5,7.7,37,9.7,33,9.7z"/>
	<path class="st0" d="M21.4,34.9l-4,0.3L17.6,55c0.8,0.3,2.3,0.7,3.7,0c1.9-0.9,3.3-3.2,4.1-6.8l0-0.1L30,34.9H21.4z"/>
</g>
</svg>
