<?xml version="1.0" encoding="utf-8"?>
<!-- Generator: Adobe Illustrator 22.1.0, SVG Export Plug-In . SVG Version: 6.00 Build 0)  -->
<svg version="1.1" id="圖層_1" xmlns="http://www.w3.org/2000/svg" xmlns:xlink="http://www.w3.org/1999/xlink" x="0px" y="0px"
	 viewBox="0 0 65 65" style="enable-background:new 0 0 65 65;" xml:space="preserve">
<style type="text/css">
	.st0{fill:#FFFFFF;}
	.st1{fill:#CCCCCC;}
	.st2{fill:none;stroke:#CCCCCC;stroke-width:5;stroke-miterlimit:10;}
</style>
<g>
	<path class="st0" d="M60.5,62.5h-56c-1.1,0-2-0.9-2-2v-56c0-1.1,0.9-2,2-2h56c1.1,0,2,0.9,2,2v56C62.5,61.6,61.6,62.5,60.5,62.5z"
		/>
	<path class="st1" d="M4.5,0h56C63,0,65,2,65,4.5v56c0,2.5-2,4.5-4.5,4.5h-56C2,65,0,63,0,60.5v-56C0,2,2,0,4.5,0z M60,5H5v55h55V5z
		"/>
</g>
<g>
	<polyline class="st2" points="40,47.5 25,32.5 40,17.5 	"/>
</g>
</svg>
