<?xml version="1.0" encoding="utf-8"?>
<!-- Generator: Adobe Illustrator 22.1.0, SVG Export Plug-In . SVG Version: 6.00 Build 0)  -->
<svg version="1.1" id="圖層_1" xmlns="http://www.w3.org/2000/svg" xmlns:xlink="http://www.w3.org/1999/xlink" x="0px" y="0px"
	 viewBox="0 0 65 65" style="enable-background:new 0 0 65 65;" xml:space="preserve">
<style type="text/css">
	.st0{fill:#FFFFFF;}
	.st1{fill:#CCCCCC;}
	.st2{fill:none;stroke:#CCCCCC;stroke-width:5;stroke-miterlimit:10;}
</style>
<g>
	<path class="st0" d="M4.5,2.5h56c1.1,0,2,0.9,2,2v56c0,1.1-0.9,2-2,2h-56c-1.1,0-2-0.9-2-2v-56C2.5,3.4,3.4,2.5,4.5,2.5z"/>
	<path class="st1" d="M60.5,65h-56C2,65,0,63,0,60.5v-56C0,2,2,0,4.5,0h56C63,0,65,2,65,4.5v56C65,63,63,65,60.5,65z M5,60h55V5H5
		V60z"/>
</g>
<g>
	<polyline class="st2" points="25,17.5 40,32.5 25,47.5 	"/>
</g>
</svg>
