<?xml version="1.0" encoding="utf-8"?>
<!-- Generator: Adobe Illustrator 22.1.0, SVG Export Plug-In . SVG Version: 6.00 Build 0)  -->
<svg version="1.1" id="圖層_1" xmlns="http://www.w3.org/2000/svg" xmlns:xlink="http://www.w3.org/1999/xlink" x="0px" y="0px"
	 viewBox="0 0 123.2 85.5" style="enable-background:new 0 0 123.2 85.5;" xml:space="preserve">
<style type="text/css">
	.st0{fill:#DCDCDC;}
	.st1{fill:none;}
	.st2{fill:#FFFFFF;}
</style>
<g>
	<path class="st0" d="M118.5,0H42.8C19.2,0,0,19.2,0,42.8l0,0c0,23.5,19.2,42.8,42.8,42.8h75.7c1.6,0,3.1-0.1,4.7-0.3v-85
		C121.6,0.1,120.1,0,118.5,0z"/>
	<path class="st1" d="M74,39.9c0.2,0,0.3,0,0.5,0c6.3,0,11.8,3.1,15.2,7.8c7.7-1.4,13.5-8.1,13.5-16.2c0-9.1-7.4-16.5-16.5-16.5
		c-7,0-12.9,4.4-15.3,10.5c2,3,3.1,6.6,3.1,10.4C74.5,37.2,74.3,38.6,74,39.9z M79.4,32.4h1.7c0-0.3,0-0.7,0-1c0-0.3,0-0.6,0-0.9
		h-1.7v-1.8h2c0.9-4.1,3.9-7.1,7.5-7.1c1.9,0,3.6,0.8,4.9,2.2l-2,2c-0.7-0.7-1.5-1.1-2.3-1.1c-2.3,0-3.5,1.6-4,3.9h6.3v1.8h-6.6
		c0,0.3,0,0.6,0,0.9c0,0.3,0,0.7,0,1h5.5v1.8h-5.3c0.5,2.2,1.8,3.8,4,3.8c1,0,1.9-0.5,2.6-1.4l2.1,2.1c-1.4,1.6-3.2,2.5-5.2,2.5
		c-3.5,0-6.5-2.9-7.5-7h-2V32.4z"/>
	<path class="st2" d="M88,40.9c1.8,0,3.4-0.8,4.6-2.2l-1.8-1.8c-0.6,0.8-1.4,1.2-2.3,1.2c-2,0-3-1.4-3.5-3.3h4.6v-1.6h-4.9
		c0-0.3,0-0.6,0-0.9c0-0.3,0-0.5,0-0.8h5.8v-1.6h-5.6c0.4-2,1.5-3.5,3.5-3.5c0.8,0,1.5,0.4,2.1,1l1.8-1.8c-1.2-1.2-2.7-1.9-4.3-1.9
		c-3.1,0-5.8,2.6-6.6,6.2h-1.7v1.6h1.5c0,0.3,0,0.5,0,0.8c0,0.3,0,0.6,0,0.9h-1.5v1.6h1.8C82.3,38.3,84.9,40.9,88,40.9z"/>
	<path class="st2" d="M59.9,39.7c-0.3,0.1-0.7,0.1-1.1,0.1c-0.5,0-1.2-0.1-2-0.3c-0.6-0.1-1.1-0.2-1.5-0.2c-0.3,0-0.6,0-1.1,0.1
		c0.4-0.4,0.6-0.8,0.8-1.2c0.2-0.5,0.3-1.1,0.3-1.7h3v-2.6h-3.4c-0.3-0.9-0.5-1.5-0.5-1.8c-0.1-0.3-0.1-0.5-0.1-0.8
		c0-0.5,0.1-0.9,0.4-1.2c0.3-0.3,0.6-0.4,1-0.4c0.4,0,0.7,0.1,0.9,0.4c0.3,0.3,0.5,0.8,0.7,1.6l4.2-0.7c-0.2-0.9-0.5-1.7-1.1-2.4
		c-0.5-0.7-1.1-1.1-1.9-1.4c-0.7-0.3-1.7-0.4-3-0.4c-1.4,0-2.4,0.2-3.2,0.5c-0.8,0.3-1.4,0.9-1.9,1.6c-0.5,0.7-0.7,1.6-0.7,2.5
		c0,0.3,0,0.6,0.1,0.9c0,0.2,0.2,0.7,0.5,1.7h-1.6v2.6h2.3c0,0.3,0,0.4,0,0.5c0,1.1-0.8,2.2-2.3,3.3l1.4,3.1c1.2-0.7,2.2-1,3.2-1
		c0.3,0,0.6,0,0.9,0.1c0.3,0.1,1,0.2,2.2,0.6c0.9,0.2,1.7,0.4,2.4,0.4c0.6,0,1.2-0.1,1.8-0.2c0.1,0,0.2-0.1,0.3-0.1
		c0.4-0.4,0.9-0.8,1.4-1.2l-1.3-2.8C60.6,39.5,60.2,39.6,59.9,39.7z"/>
	<path class="st2" d="M55.7,52.3c-9.1,0-16.5-7.4-16.5-16.5c0-9.1,7.4-16.5,16.5-16.5c5.3,0,10,2.5,13.1,6.5c0.3-0.8,0.6-1.7,1-2.5
		c-3.5-3.9-8.5-6.3-14.1-6.3c-10.4,0-18.8,8.4-18.8,18.8c0,10.4,8.4,18.8,18.8,18.8c0.2,0,0.3,0,0.5,0c0.2-0.8,0.4-1.6,0.7-2.4
		C56.4,52.3,56.1,52.3,55.7,52.3z"/>
	<path class="st2" d="M72.2,35.8c0,1-0.1,1.9-0.3,2.9c0.2,0.4,0.4,0.9,0.7,1.3c0.5,0,1-0.1,1.4-0.1c0.3-1.3,0.5-2.7,0.5-4.1
		c0-3.8-1.2-7.4-3.1-10.4c-0.4,1-0.7,2.1-0.9,3.2C71.5,30.8,72.2,33.2,72.2,35.8z"/>
	<path class="st2" d="M105.5,31.5c0-10.4-8.4-18.8-18.8-18.8c-7.5,0-13.9,4.4-17,10.7c0.6,0.7,1.1,1.3,1.6,2.1
		C73.8,19.3,79.7,15,86.7,15c9.1,0,16.5,7.4,16.5,16.5c0,8.1-5.8,14.8-13.5,16.2c0.5,0.7,0.9,1.4,1.3,2.1
		C99.3,47.8,105.5,40.3,105.5,31.5z"/>
	<path class="st2" d="M72.6,40c-0.3-0.4-0.5-0.8-0.7-1.3c-0.1,0.5-0.2,1-0.3,1.4C71.9,40.1,72.3,40,72.6,40z"/>
	<path class="st2" d="M70.5,28.6c0.2-1.1,0.5-2.1,0.9-3.2c-0.5-0.7-1-1.4-1.6-2.1c-0.4,0.8-0.7,1.6-1,2.5
		C69.4,26.7,70,27.6,70.5,28.6z"/>
	<path class="st2" d="M74.5,39.9c-0.2,0-0.3,0-0.5,0c-0.1,0.5-0.3,1.1-0.4,1.6c0.2,0.3,0.4,0.5,0.6,0.7c0.1,0,0.2,0,0.3,0
		c5,0,9.4,2.2,12.5,5.7c0.9,0,1.9-0.1,2.7-0.3C86.3,43,80.8,39.9,74.5,39.9z"/>
	<path class="st2" d="M70.7,42.7c0.1-0.3,0.2-0.5,0.4-0.8c-0.3-0.5-0.6-0.9-0.9-1.4c-2.6,0.6-4.9,1.7-6.9,3.3l0.3,0.6
		c-0.7,0.3-1.3,0.6-1.8,0.7c-2.1,2-3.8,4.5-4.8,7.3c0.9-0.1,1.8-0.2,2.7-0.4C61.6,47.3,65.7,43.9,70.7,42.7z"/>
	<path class="st2" d="M91,58.7c0,9.1-7.4,16.5-16.5,16.5c-9.1,0-16.5-7.4-16.5-16.5c0-1.5,0.2-2.9,0.6-4.3c-0.8,0.1-1.6,0.2-2.5,0.2
		c-0.3,1.3-0.5,2.7-0.5,4.1c0,10.4,8.4,18.8,18.8,18.8c10.4,0,18.8-8.4,18.8-18.8c0-3.2-0.8-6.3-2.3-9c-0.8,0.2-1.6,0.3-2.5,0.4
		C90.1,52.7,91,55.6,91,58.7z"/>
	<path class="st2" d="M63.5,44.2l-0.3-0.6c-0.5,0.4-1.1,0.8-1.6,1.3C62.2,44.8,62.8,44.6,63.5,44.2z"/>
	<path class="st2" d="M70.7,42.7c0.3-0.1,0.5-0.1,0.8-0.2c-0.2-0.2-0.3-0.4-0.5-0.6C70.9,42.1,70.8,42.4,70.7,42.7z"/>
	<path class="st2" d="M74,39.9c-0.5,0-1,0-1.4,0.1c0.3,0.5,0.7,1,1,1.5C73.8,41,73.9,40.4,74,39.9z"/>
	<path class="st2" d="M59.5,51.9c-0.9,0.2-1.8,0.3-2.7,0.4c-0.3,0.8-0.5,1.6-0.7,2.4c0.8,0,1.7-0.1,2.5-0.2
		C58.8,53.5,59.1,52.7,59.5,51.9z"/>
	<path class="st2" d="M87,47.9c0.6,0.7,1.1,1.5,1.6,2.2c0.8-0.1,1.7-0.2,2.5-0.4c-0.4-0.7-0.9-1.4-1.3-2.1
		C88.8,47.8,87.9,47.9,87,47.9z"/>
	<path class="st2" d="M74.2,42.2c-0.2-0.2-0.4-0.5-0.6-0.7c-0.1,0.3-0.2,0.5-0.3,0.8C73.6,42.2,73.9,42.2,74.2,42.2z"/>
	<path class="st2" d="M70.1,40.4c0.3,0.5,0.6,1,0.9,1.4c0.2-0.6,0.4-1.1,0.6-1.7C71.1,40.2,70.6,40.3,70.1,40.4z"/>
	<path class="st2" d="M71,41.8c0.1,0.2,0.3,0.4,0.5,0.6c0.6-0.1,1.2-0.2,1.9-0.2c0.1-0.3,0.2-0.5,0.3-0.8c-0.4-0.5-0.7-1-1-1.5
		c-0.3,0-0.7,0.1-1,0.2C71.4,40.7,71.2,41.3,71,41.8z"/>
	<path class="st2" d="M79.5,60.1c-0.3-0.4-0.7-0.7-1.1-1.1c-0.5-0.3-1.1-0.6-1.9-0.9c-0.6-0.2-1.1-0.3-1.5-0.5
		c-0.4-0.1-0.8-0.3-1.1-0.5c-0.3-0.2-0.5-0.3-0.7-0.5c-0.1-0.2-0.2-0.4-0.2-0.6c0,0,0,0,0-0.1c0-0.3,0.1-0.6,0.4-0.8
		c0.2-0.2,0.6-0.4,1-0.4c0.3,0,0.6,0.1,0.8,0.2c0.2,0.1,0.3,0.2,0.4,0.4c0.1,0.1,0.2,0.3,0.2,0.4c0,0.1,0.1,0.3,0.1,0.3h4
		c0-0.5-0.1-1-0.2-1.5c-0.2-0.4-0.4-0.8-0.8-1.2c-0.3-0.3-0.7-0.6-1.1-0.8c-0.4-0.2-0.9-0.4-1.4-0.5V50h-3.4v2.1
		c-0.5,0.1-1,0.3-1.5,0.5c-0.5,0.2-0.9,0.5-1.3,0.8c-0.4,0.3-0.7,0.8-0.9,1.2c-0.1,0.2-0.2,0.5-0.3,0.8c-0.1,0.3-0.1,0.6-0.1,0.9
		c0,0.7,0.2,1.3,0.5,1.8c0.3,0.5,0.7,0.9,1.2,1.2c0.5,0.3,1,0.6,1.6,0.8c0.6,0.2,1.1,0.4,1.6,0.5c0.9,0.3,1.6,0.6,1.9,0.9
		c0.3,0.3,0.5,0.6,0.5,1c0,0.4-0.2,0.7-0.5,0.9c-0.3,0.2-0.6,0.3-1,0.3c-0.3,0-0.6-0.1-0.8-0.2c-0.2-0.1-0.3-0.3-0.4-0.5
		C73,63,73,62.8,72.9,62.7c0-0.2-0.1-0.3-0.1-0.3h-4.4v0.2c0,0.4,0.1,0.9,0.3,1.3c0.2,0.5,0.5,0.8,0.8,1.2c0.3,0.3,0.5,0.5,0.8,0.7
		c0.3,0.2,0.6,0.3,0.8,0.4c0.3,0.1,0.5,0.2,0.8,0.2c0.2,0,0.5,0.1,0.7,0.1v2.1h3.4v-2.2c1-0.3,1.8-0.6,2.3-1.1
		c0.5-0.4,0.9-0.9,1.2-1.3c0.3-0.4,0.4-0.8,0.4-1.2c0-0.4,0.1-0.6,0.1-0.7c0-0.3,0-0.6-0.1-0.9C80,60.9,79.8,60.5,79.5,60.1z"/>
</g>
</svg>
