<?xml version="1.0" encoding="utf-8"?>
<!-- Generator: Adobe Illustrator 22.1.0, SVG Export Plug-In . SVG Version: 6.00 Build 0)  -->
<svg version="1.1" id="圖層_1" xmlns="http://www.w3.org/2000/svg" xmlns:xlink="http://www.w3.org/1999/xlink" x="0px" y="0px"
	 viewBox="0 0 123.2 85.5" style="enable-background:new 0 0 123.2 85.5;" xml:space="preserve">
<style type="text/css">
	.st0{fill:#DCDCDC;}
	.st1{fill:none;stroke:#FFFFFF;stroke-width:3;stroke-miterlimit:10;}
	.st2{fill:#FFFFFF;}
</style>
<g>
	<path class="st0" d="M118.5,0H42.8C19.2,0,0,19.2,0,42.8l0,0c0,23.5,19.2,42.8,42.8,42.8h75.7c1.6,0,3.1-0.1,4.7-0.3v-85
		C121.6,0.1,120.1,0,118.5,0z"/>
	<path class="st1" d="M83.9,62.7c-2.7-3.1-5.8-5.6-8.4-7.6c-0.6-0.5-1.3-0.9-2-1.3c-0.9-0.5-1.6-1-2.6-0.8c-1,0.2-2,0.7-3,1.2
		c-0.3,0.1-2.6,1.4-2.7,1.3c-1-0.7-2.8-2.4-5.9-6.4c-3.2-3.9-4.9-7-5.4-8.1c0.9-1.1,1.8-2.3,2.6-3.5c0.5-0.8,1.1-1.6,1.1-2.5
		c0-0.7-0.4-1.6-0.6-2.3c-0.6-1.7-1.4-3.3-2.2-4.9c-0.7-1.4-1.5-2.9-2.3-4.2c-0.4-0.7-0.9-1.6-1.5-2.1c-0.6-0.4-1.2-0.7-1.9-0.7
		c-2.5,0.3-4.8,1.5-6.5,2.9c-1.6,1.4-2.8,3-3.3,5.1c-0.4,1.8-0.2,3.7,0.1,5.5c0.8,4.2,2.7,8.3,4.8,12c3.9,7.1,9,13.3,15.2,18.6
		c3.9,3.3,8.7,6.8,14,7.4c1.3,0.1,2.6,0.2,3.9-0.2c0.9-0.2,1.6-0.8,2.4-1.3c1.8-1.4,3.5-3.1,4.1-5.3C83.9,65,84.4,63.3,83.9,62.7z"
		/>
	<g>
		<rect x="68" y="22.9" class="st2" width="28" height="3"/>
	</g>
	<g>
		<rect x="68" y="33.2" class="st2" width="28" height="3"/>
	</g>
</g>
</svg>
