<?xml version="1.0" encoding="utf-8"?>
<!-- Generator: Adobe Illustrator 22.1.0, SVG Export Plug-In . SVG Version: 6.00 Build 0)  -->
<svg version="1.1" id="圖層_1" xmlns="http://www.w3.org/2000/svg" xmlns:xlink="http://www.w3.org/1999/xlink" x="0px" y="0px"
	 viewBox="0 0 123 86" style="enable-background:new 0 0 123 86;" xml:space="preserve">
<style type="text/css">
	.st0{fill:#DCDCDC;}
	.st1{fill:#FFFFFF;}
</style>
<image style="overflow:visible;" width="123" height="86" xlink:href="../png/139_icon_widget_yellowpage.png"  transform="matrix(1 0 0 1 -0.5 0)">
</image>
<g>
	<path class="st0" d="M118.3,0H42.6C19.1,0-0.2,19.2-0.2,42.8l0,0c0,23.5,19.2,42.8,42.8,42.8h75.7c1.6,0,3.1-0.1,4.7-0.3v-85
		C121.5,0.1,119.9,0,118.3,0z"/>
	<g>
		<path class="st1" d="M97.2,17.8H79.7c-5.8,0-10.6,3.7-10.9,9.5h0c-0.3-5.7-5.1-9.5-10.9-9.5H40.4h-9.8c-0.6,0-1.1,0.5-1.1,1.1v9.8
			v31.2v6c0,0.6,0.5,1.1,1.1,1.1h9.8h17.5c3.1,0,6.8,1.3,8.8,3.5c0.2,0.2,0.5,0.3,0.8,0.3h1.3h1.3c0.3,0,0.6-0.1,0.8-0.3
			c2-2.1,5.7-3.5,8.8-3.5h17.5h9.8c0.6,0,1.1-0.5,1.1-1.1v-6V28.7v-9.8c0-0.6-0.5-1.1-1.1-1.1H97.2z M57.9,64.4H33.1
			c-0.6,0-1.1-0.5-1.1-1.1V21.5c0-0.6,0.5-1.1,1.1-1.1h23.7C62.5,20.4,67,25,67,30.6v31.5c0,2.2-2.1,3.7-4.3,3.1
			C61.2,64.7,59.4,64.4,57.9,64.4z M105.5,63.4c0,0.6-0.5,1.1-1.1,1.1H79.7c-1.5,0-3.2,0.3-4.8,0.7c-2.2,0.7-4.3-1-4.3-3.3l0-33.2
			c0-4.6,4.5-8.3,9.1-8.3h24.8c0.6,0,1.1,0.5,1.1,1.1V63.4z"/>
		<rect x="77.7" y="31.2" class="st1" width="21.9" height="2.2"/>
		<rect x="77.7" y="41.5" class="st1" width="21.9" height="2.2"/>
		<rect x="77.7" y="51.9" class="st1" width="21.9" height="2.2"/>
		<g>
			<path class="st1" d="M49,28.9c-5.3,0-9.7,4.3-9.7,9.7c0,3.2,1.7,6.3,4.4,8.1v5.2c0,2.8,2.3,5.1,5.1,5.1s5.1-2.3,5.1-5.1v-4.9
				c2.9-1.7,4.8-4.9,4.8-8.3C58.6,33.2,54.3,28.9,49,28.9z M46.1,51.8v-1.1h5.3v1.1c0,1.5-1.2,2.7-2.7,2.7
				C47.3,54.5,46.1,53.3,46.1,51.8z M51.4,46.4V47v1.9h-5.3v-2v-0.5c0,0,0,0,0,0v-1.2c-0.4-0.2-0.8-0.4-1.2-0.6
				c-1.9-1.3-3.2-3.5-3.2-6c0-4,3.2-7.2,7.2-7.2c4,0,7.2,3.2,7.2,7.2c0,2.6-1.4,4.9-3.5,6.1c-0.4,0.2-0.8,0.5-1.3,0.6V46.4z"/>
		</g>
	</g>
</g>
</svg>
