<?xml version="1.0" encoding="utf-8"?>
<!-- Generator: Adobe Illustrator 22.1.0, SVG Export Plug-In . SVG Version: 6.00 Build 0)  -->
<svg version="1.1" id="圖層_1" xmlns="http://www.w3.org/2000/svg" xmlns:xlink="http://www.w3.org/1999/xlink" x="0px" y="0px"
	 viewBox="0 0 123 86" style="enable-background:new 0 0 123 86;" xml:space="preserve">
<style type="text/css">
	.st0{fill:none;stroke:#FFFFFF;stroke-width:2;stroke-miterlimit:10;}
	.st1{fill:#DCDCDC;}
	.st2{fill:none;stroke:#FFFFFF;stroke-width:2.5;stroke-miterlimit:10;}
	.st3{fill:#171717;}
</style>
<g>
	<g>
		<line class="st0" x1="29" y1="46.9" x2="29" y2="49.7"/>
		<line class="st0" x1="29" y1="53" x2="29" y2="55.8"/>
		<line class="st0" x1="24.5" y1="51.4" x2="27.3" y2="51.4"/>
		<line class="st0" x1="30.7" y1="51.4" x2="33.4" y2="51.4"/>
	</g>
	<path class="st1" d="M118.3,0H42.7C19.2,0,0,19.3,0,43c0,23.7,19.2,43,42.7,43c0,0,78.7,0,80.3,0V0.3C121.5,0.1,119.9,0,118.3,0z"
		/>
	<path class="st2" d="M83.1,24.9V24c0-6.1-4.9-11.1-11-11.1s-11,5-11,11.1v0.9"/>
	<path class="st2" d="M86.1,64.3V24.2H46.6c-3.4,0-6.1,2.8-6.1,6.2v33.7c0,3.4,2.8,6.2,6.1,6.2h39.5v-4.5V64.3z"/>
	<path class="st3" d="M94.3,70.2V70c-0.5,0.2-0.9,0.3-1.4,0.3H94.3z"/>
	<path class="st3" d="M89.5,70.2h3.4c-0.4,0-0.8-0.1-1.1-0.2C91.1,70.2,90.3,70.2,89.5,70.2z"/>
	<path class="st2" d="M86.1,24.2v40.1v1.4v4.5h3.1c0.9,0,3,0,3.4,0c0.5,0,1-0.1,1.4-0.3c1.8-0.6,3.1-2.3,3.1-4.3V24.2H86.1z"/>
	<path class="st2" d="M55.9,37.6c0,2.6-2.1,4.6-4.6,4.6c-2.5,0-4.6-2.1-4.6-4.6c0-2.6,2.1-4.6,4.6-4.6C53.9,33,55.9,35,55.9,37.6z"
		/>
	<path class="st2" d="M77.7,37.6c0,2.6-2.1,4.6-4.6,4.6c-2.5,0-4.6-2.1-4.6-4.6c0-2.6,2.1-4.6,4.6-4.6C75.7,33,77.7,35,77.7,37.6z"
		/>
	<path class="st2" d="M73.2,33v-9c0-6.1-4.9-11.1-11-11.1s-11,5-11,11.1v9"/>
	<g>
		<line class="st0" x1="29.7" y1="47.1" x2="29.7" y2="49.9"/>
		<line class="st0" x1="29.7" y1="53.3" x2="29.7" y2="56.1"/>
		<line class="st0" x1="25.2" y1="51.6" x2="28" y2="51.6"/>
		<line class="st0" x1="31.3" y1="51.6" x2="34.1" y2="51.6"/>
	</g>
	<g>
		<line class="st0" x1="106.1" y1="19.7" x2="106.1" y2="22.5"/>
		<line class="st0" x1="106.1" y1="25.9" x2="106.1" y2="28.7"/>
		<line class="st0" x1="101.6" y1="24.2" x2="104.4" y2="24.2"/>
		<line class="st0" x1="107.8" y1="24.2" x2="110.5" y2="24.2"/>
	</g>
	<g>
		<line class="st0" x1="91.3" y1="9.5" x2="91.3" y2="12.3"/>
		<line class="st0" x1="91.3" y1="15.7" x2="91.3" y2="18.5"/>
		<line class="st0" x1="86.8" y1="14" x2="89.6" y2="14"/>
		<line class="st0" x1="92.9" y1="14" x2="95.7" y2="14"/>
	</g>
	<line class="st2" x1="91.3" y1="43" x2="91.3" y2="70.1"/>
</g>
</svg>
