<?xml version="1.0" encoding="utf-8"?>
<!-- Generator: Adobe Illustrator 22.1.0, SVG Export Plug-In . SVG Version: 6.00 Build 0)  -->
<svg version="1.1" id="圖層_1" xmlns="http://www.w3.org/2000/svg" xmlns:xlink="http://www.w3.org/1999/xlink" x="0px" y="0px"
	 viewBox="0 0 132 140" style="enable-background:new 0 0 132 140;" xml:space="preserve">
<style type="text/css">
	.st0{fill:#4BB5AB;}
	.st1{fill-rule:evenodd;clip-rule:evenodd;fill:#FFFFFF;}
	.st2{fill-rule:evenodd;clip-rule:evenodd;fill:#4BB5AB;}
</style>
<g>
	<g>
		<g>
			<path class="st0" d="M89.6,26h-5v-1.8C84.6,13.6,76,5,65.4,5s-19.2,8.6-19.2,19.2V26h-5v-1.8C41.2,10.8,52.1,0,65.4,0
				c13.3,0,24.2,10.8,24.2,24.2V26z"/>
		</g>
		<g>
			<path class="st0" d="M95.5,117.4H15.1c-8.1,0-14.6-6.6-14.6-14.6v-66c0-8.1,6.6-14.6,14.6-14.6h80.4V117.4z M15.1,27.1
				c-5.3,0-9.6,4.3-9.6,9.6v66c0,5.3,4.3,9.6,9.6,9.6h75.4V27.1H15.1z"/>
		</g>
		<g>
			<path class="st0" d="M111.6,117.4h-5.3v-5c0.6,0,1.3-0.1,2-0.4l3.3-1.1V117.4z"/>
		</g>
		<g>
			<path class="st0" d="M106.3,117.4h-6.7v-5c1.5,0,2.8-0.1,4-0.3l0.5-0.1l0.5,0.1c0.6,0.2,1.1,0.2,1.6,0.2V117.4z"/>
		</g>
		<g>
			<path class="st0" d="M105.8,117.4H90.5V22.1h26.7V106c0,4.9-3.1,9.2-7.8,10.8C108.2,117.2,107,117.4,105.8,117.4z M95.5,112.4
				h10.3c0.6,0,1.3-0.1,2-0.4c2.6-0.9,4.4-3.3,4.4-6V27.1H95.5V112.4z"/>
		</g>
		<g>
			<path class="st0" d="M24.3,62.5c-6.4,0-11.6-5.2-11.6-11.6s5.2-11.6,11.6-11.6c6.4,0,11.6,5.2,11.6,11.6S30.7,62.5,24.3,62.5z
				 M24.3,44.3c-3.6,0-6.6,3-6.6,6.6s3,6.6,6.6,6.6s6.6-3,6.6-6.6S27.9,44.3,24.3,44.3z"/>
		</g>
		<g>
			<path class="st0" d="M67.4,62.5c-6.4,0-11.6-5.2-11.6-11.6S61,39.3,67.4,39.3s11.6,5.2,11.6,11.6S73.7,62.5,67.4,62.5z
				 M67.4,44.3c-3.6,0-6.6,3-6.6,6.6s3,6.6,6.6,6.6c3.6,0,6.6-3,6.6-6.6S71,44.3,67.4,44.3z"/>
		</g>
		<g>
			<path class="st0" d="M70,41.8h-5V24.2C65,13.6,56.4,5,45.8,5s-19.2,8.6-19.2,19.2v17.6h-5V24.2C21.7,10.8,32.5,0,45.8,0
				S70,10.8,70,24.2V41.8z"/>
		</g>
		<g>
			<rect x="100.7" y="61.5" class="st0" width="5" height="53.1"/>
		</g>
	</g>
	<g>
		<g>
			<circle class="st1" cx="107.6" cy="93.5" r="13.5"/>
		</g>
		<g>
			<path class="st2" d="M88.2,78c9.9-9.9,26-9.9,35.9,0c9.9,9.9,9.9,26,0,35.9l-18,18l-18-18C78.7,103.9,78.7,87.9,88.2,78z
				 M106.2,107c6.1,0,10.7-5,10.7-10.7c0-5.7-4.6-11.1-10.7-11.1c-6.1,0-10.7,5-10.7,10.7S100.4,107,106.2,107z"/>
		</g>
	</g>
	<g>
		<rect x="96.5" y="134.7" class="st0" width="19.2" height="5"/>
	</g>
</g>
</svg>
