<?xml version="1.0" encoding="utf-8"?>
<!-- Generator: Adobe Illustrator 22.1.0, SVG Export Plug-In . SVG Version: 6.00 Build 0)  -->
<svg version="1.1" id="圖層_1" xmlns="http://www.w3.org/2000/svg" xmlns:xlink="http://www.w3.org/1999/xlink" x="0px" y="0px"
	 viewBox="0 0 132 140" style="enable-background:new 0 0 132 140;" xml:space="preserve">
<style type="text/css">
	.st0{fill:#4BB5AB;}
	.st1{fill:#FFFFFF;}
</style>
<g>
	<g>
		<g>
			<path class="st0" d="M89.8,26h-5v-1.8C84.8,13.6,76.2,5,65.6,5s-19.2,8.6-19.2,19.2V26h-5v-1.8C41.5,10.8,52.3,0,65.6,0
				C79,0,89.8,10.8,89.8,24.2V26z"/>
		</g>
		<g>
			<path class="st0" d="M95.7,117.4H15.3c-8.1,0-14.6-6.6-14.6-14.6v-66c0-8.1,6.6-14.6,14.6-14.6h80.4V117.4z M15.3,27.1
				c-5.3,0-9.6,4.3-9.6,9.6v66c0,5.3,4.3,9.6,9.6,9.6h75.4V27.1H15.3z"/>
		</g>
		<g>
			<path class="st0" d="M111.9,117.4h-5.3v-5c0.6,0,1.3-0.1,2-0.4l3.3-1.1V117.4z"/>
		</g>
		<g>
			<path class="st0" d="M106.6,117.4h-6.7v-5c1.5,0,2.8-0.1,4-0.3l0.5-0.1l0.5,0.1c0.6,0.2,1.1,0.2,1.6,0.2V117.4z"/>
		</g>
		<g>
			<path class="st0" d="M106.1,117.4H90.7V22.1h26.7V106c0,4.9-3.1,9.2-7.8,10.8C108.4,117.2,107.2,117.4,106.1,117.4z M95.7,112.4
				h10.3c0.6,0,1.3-0.1,2-0.4c2.6-0.9,4.4-3.3,4.4-6V27.1H95.7V112.4z"/>
		</g>
		<g>
			<path class="st0" d="M24.6,62.5c-6.4,0-11.6-5.2-11.6-11.6s5.2-11.6,11.6-11.6c6.4,0,11.6,5.2,11.6,11.6S31,62.5,24.6,62.5z
				 M24.6,44.3c-3.6,0-6.6,3-6.6,6.6s3,6.6,6.6,6.6s6.6-3,6.6-6.6S28.2,44.3,24.6,44.3z"/>
		</g>
		<g>
			<path class="st0" d="M67.6,62.5c-6.4,0-11.6-5.2-11.6-11.6s5.2-11.6,11.6-11.6s11.6,5.2,11.6,11.6S74,62.5,67.6,62.5z M67.6,44.3
				c-3.6,0-6.6,3-6.6,6.6s3,6.6,6.6,6.6s6.6-3,6.6-6.6S71.2,44.3,67.6,44.3z"/>
		</g>
		<g>
			<path class="st0" d="M70.3,41.8h-5V24.2C65.3,13.6,56.7,5,46.1,5c-10.6,0-19.2,8.6-19.2,19.2v17.6h-5V24.2
				C21.9,10.8,32.8,0,46.1,0c13.3,0,24.2,10.8,24.2,24.2V41.8z"/>
		</g>
		<g>
			<rect x="100.9" y="61.5" class="st0" width="5" height="53.1"/>
		</g>
	</g>
	<g>
		<rect x="81.1" y="60.1" class="st0" width="50.2" height="64.7"/>
	</g>
	<g>
		<rect x="93.2" y="75.7" class="st1" width="26" height="5"/>
	</g>
	<g>
		<rect x="93.2" y="90.7" class="st1" width="26" height="5"/>
	</g>
	<g>
		<rect x="93.2" y="104.7" class="st1" width="26" height="5"/>
	</g>
</g>
</svg>
