<?xml version="1.0" encoding="utf-8"?>
<!-- Generator: Adobe Illustrator 22.1.0, SVG Export Plug-In . SVG Version: 6.00 Build 0)  -->
<svg version="1.1" id="圖層_1" xmlns="http://www.w3.org/2000/svg" xmlns:xlink="http://www.w3.org/1999/xlink" x="0px" y="0px"
	 viewBox="0 0 88 106" style="enable-background:new 0 0 88 106;" xml:space="preserve">
<style type="text/css">
	.st0{fill-rule:evenodd;clip-rule:evenodd;fill:#4BB5AB;}
	.st1{fill:none;stroke:#FFFFFF;stroke-width:2.5;stroke-miterlimit:10;}
</style>
<g>
	<g>
		<circle class="st0" cx="44.2" cy="42.8" r="23.2"/>
		<path class="st0" d="M13,13.2c17-17,44.5-17,61.6,0c17,17,17,44.5,0,61.6l-30.8,30.8L13,74.8C-3.4,57.7-3.4,30.2,13,13.2z
			 M43.8,63c10.5,0,18.3-8.5,18.3-18.3c0-9.8-7.9-19-18.3-19c-10.5,0-18.3,8.5-18.3,18.3S33.9,63,43.8,63z"/>
	</g>
	<g>
		<path class="st1" d="M55.1,31.3v-0.7c0-4.7-3.8-8.5-8.5-8.5s-8.5,3.8-8.5,8.5v0.7"/>
		<path class="st1" d="M57.4,61.6V30.7H26.8c-2.6,0-4.8,2.1-4.8,4.8v26c0,2.6,2.1,4.8,4.8,4.8h30.7v-3.5V61.6z"/>
		<path class="st1" d="M57.4,30.7v30.9v1.1v3.5h2.4c0.7,0,2.3,0,2.6,0c0.4,0,0.8-0.1,1.1-0.2c1.4-0.5,2.4-1.8,2.4-3.3v-32H57.4z"/>
		<path class="st1" d="M34,41.1c0,2-1.6,3.6-3.6,3.6c-2,0-3.6-1.6-3.6-3.6c0-2,1.6-3.6,3.6-3.6C32.4,37.5,34,39.1,34,41.1z"/>
		<path class="st1" d="M50.9,41.1c0,2-1.6,3.6-3.6,3.6c-2,0-3.6-1.6-3.6-3.6c0-2,1.6-3.6,3.6-3.6C49.3,37.5,50.9,39.1,50.9,41.1z"/>
		<path class="st1" d="M47.4,37.5v-6.9c0-4.7-3.8-8.5-8.5-8.5s-8.5,3.8-8.5,8.5v6.9"/>
		<line class="st1" x1="61.5" y1="45.2" x2="61.5" y2="66.1"/>
	</g>
</g>
</svg>
