<?xml version="1.0" encoding="utf-8"?>
<!-- Generator: Adobe Illustrator 22.1.0, SVG Export Plug-In . SVG Version: 6.00 Build 0)  -->
<svg version="1.1" id="圖層_1" xmlns="http://www.w3.org/2000/svg" xmlns:xlink="http://www.w3.org/1999/xlink" x="0px" y="0px"
	 viewBox="0 0 45 45" style="enable-background:new 0 0 45 45;" xml:space="preserve">
<style type="text/css">
	.st0{fill:#666666;}
</style>
<path class="st0" d="M40.3,32.4c-2.2-2.1-4.8-3.7-6.8-4.9c-0.5-0.3-1-0.5-1.6-0.8c-0.7-0.3-1.3-0.6-2-0.4c-0.7,0.2-1.4,0.7-2.1,1.1
	c-0.2,0.1-1.8,1.2-1.9,1.2c-0.8-0.4-2.2-1.6-4.9-4.2c-2.7-2.6-4.2-4.7-4.7-5.5c0.6-0.9,1.1-1.8,1.6-2.8c0.3-0.6,0.7-1.3,0.6-2
	c-0.1-0.5-0.4-1.1-0.6-1.6c-0.6-1.2-1.3-2.3-2-3.4c-0.7-1-1.3-2-2.1-2.9c-0.4-0.5-0.8-1.1-1.3-1.4C12,4.6,11.5,4.4,11,4.5
	C9.2,4.9,7.6,6,6.5,7.2c-1.1,1.2-1.8,2.4-2,4c-0.1,1.4,0.1,2.8,0.6,4.1c1,3.1,2.7,5.9,4.5,8.5c3.5,4.9,7.7,9,12.7,12.4
	c3.2,2.1,7,4.3,10.9,4.3c0.9,0,1.9-0.1,2.8-0.4c0.6-0.3,1.1-0.7,1.6-1.2c1.2-1.1,2.3-2.6,2.6-4.3C40.4,34.1,40.7,32.8,40.3,32.4z"/>
</svg>
