<?xml version="1.0" encoding="utf-8"?>
<!-- Generator: Adobe Illustrator 22.1.0, SVG Export Plug-In . SVG Version: 6.00 Build 0)  -->
<svg version="1.1" id="圖層_1" xmlns="http://www.w3.org/2000/svg" xmlns:xlink="http://www.w3.org/1999/xlink" x="0px" y="0px"
	 viewBox="0 0 110 110" style="enable-background:new 0 0 110 110;" xml:space="preserve">
<style type="text/css">
	.st0{fill:#4BB5AB;}
	.st1{fill:#FFFFFF;}
</style>
<g>
	<rect x="0.1" y="0" class="st0" width="110" height="110"/>
	<g>
		<path class="st1" d="M79.8,43l-2.5,4.3c-5.3-1.9-10.2-4-14.7-6.4V44H47.4v-3.1c-4.4,2.3-9.3,4.5-14.6,6.3l-2.4-4.3
			c10.8-3.4,18.6-7.6,23.5-12.6l5.2,1.3c-0.1,0.3-0.4,0.6-0.7,0.9C64,36.8,71.1,40.3,79.8,43z M71.8,64.8H42.9v9.1
			c3.6-0.7,7.3-1.7,11-3.1v4.7c-5.2,1.8-10.4,3.2-15.7,4.1l-1.6-4.2c0.8-0.6,1.2-1.2,1.2-2V46.8h34V64.8z M66.7,53.8v-2.7H42.9v2.7
			H66.7z M66.7,60.6v-2.8H42.9v2.8H66.7z M60.9,39.9c-1.8-1-3.7-2.4-5.9-4c-1.5,1.2-3.4,2.5-5.9,4H60.9z M78.3,76.1l-2.9,3.7
			c-6.8-4-14.1-7.5-22.1-10.2l2.9-3.5c1.8,0.6,4.7,1.7,8.4,3.2c3.1-1.1,6.4-2.9,9.8-5.6l3.6,3.1c-2.3,1.9-4.9,3.6-7.6,5
			C73.1,73.2,75.8,74.6,78.3,76.1z"/>
	</g>
</g>
</svg>
