<?xml version="1.0" encoding="utf-8"?>
<!-- Generator: Adobe Illustrator 22.1.0, SVG Export Plug-In . SVG Version: 6.00 Build 0)  -->
<svg version="1.1" id="圖層_1" xmlns="http://www.w3.org/2000/svg" xmlns:xlink="http://www.w3.org/1999/xlink" x="0px" y="0px"
	 viewBox="0 0 110 110" style="enable-background:new 0 0 110 110;" xml:space="preserve">
<style type="text/css">
	.st0{fill:#30A6C4;}
	.st1{fill:#FFFFFF;}
</style>
<g>
	<rect class="st0" width="110" height="110"/>
	<g>
		<path class="st1" d="M79.2,42.4H54.5c-1.9,4-4.4,7.8-7.4,11.6v19.3c5-1.4,9.6-2.8,13.7-4.3l0.6,4.9c-7.8,2.7-14.1,4.5-18.9,5.5
			l-1.5-4c0.8-0.7,1.2-1.3,1.2-2.1v-14c-3.2,2.9-6.4,5.4-9.7,7.5l-1.8-4.8c8.2-5.3,14.4-11.9,18.5-19.7H30.9v-5H53
			c-0.8-2.2-1.8-4.1-2.9-5.9l5.1-1.1c1.1,1.9,2.1,4.2,3.1,7h20.9V42.4z M79.5,75.8L76,79.6c-5.2-3.8-9.4-8-12.7-12.9
			c-3.2-4.8-5.7-11.8-7.5-20.9l4.9-0.8c0.6,3.5,1.5,7.1,2.9,10.7c3.6-2.1,7.4-5.1,11.2-8.9l3.3,3.8c-2.8,3.1-6.9,6.3-12.5,9.6
			C67.5,65.3,72.2,70.4,79.5,75.8z"/>
	</g>
</g>
</svg>
