<?xml version="1.0" encoding="utf-8"?>
<!-- Generator: Adobe Illustrator 22.1.0, SVG Export Plug-In . SVG Version: 6.00 Build 0)  -->
<svg version="1.1" id="圖層_1" xmlns="http://www.w3.org/2000/svg" xmlns:xlink="http://www.w3.org/1999/xlink" x="0px" y="0px"
	 viewBox="0 0 110 110" style="enable-background:new 0 0 110 110;" xml:space="preserve">
<style type="text/css">
	.st0{fill:#7A5BA6;}
	.st1{fill:#FFFFFF;}
</style>
<g>
	<rect class="st0" width="110" height="110"/>
	<g>
		<path class="st1" d="M47.8,32.7c-4,5.4-9,9.8-14.8,13.2l-2.4-4.8c4.4-2.3,8.5-5.8,12.4-10.7L47.8,32.7z M49,43
			c-1.7,2.9-3.5,5.6-5.5,8.2v28.2h-5.1V57.1c-2,2-3.8,3.5-5.6,4.6l-2.2-4.9c4.7-3.1,9.2-8.3,13.6-15.8L49,43z M79.4,51.5h-7.5V74
			c0,3.7-2,5.5-6,5.5c-2.6,0-5.1-0.1-7.5-0.2l-1.8-5c1.6,0,4.4,0.1,8.6,0.1c0.4,0,0.7-0.1,1-0.4c0.3-0.3,0.5-0.7,0.5-1.1V51.5H48.6
			v-4.9h30.8V51.5z M78,37.4H50.1v-4.8H78V37.4z"/>
	</g>
</g>
</svg>
