<?xml version="1.0" encoding="utf-8"?>
<!-- Generator: Adobe Illustrator 22.1.0, SVG Export Plug-In . SVG Version: 6.00 Build 0)  -->
<svg version="1.1" id="圖層_1" xmlns="http://www.w3.org/2000/svg" xmlns:xlink="http://www.w3.org/1999/xlink" x="0px" y="0px"
	 viewBox="0 0 110 110" style="enable-background:new 0 0 110 110;" xml:space="preserve">
<style type="text/css">
	.st0{fill:#7A5BA6;}
	.st1{fill:#FFFFFF;}
	.st2{fill:#C17EB5;}
</style>
<g>
	<rect class="st0" width="110" height="110"/>
	<g>
		<path class="st1" d="M47.8,32.7c-4,5.4-9,9.8-14.8,13.2l-2.4-4.8c4.4-2.3,8.5-5.8,12.4-10.7L47.8,32.7z M49,43
			c-1.7,2.9-3.5,5.6-5.5,8.2v28.2h-5.1V57.1c-2,2-3.8,3.5-5.6,4.6l-2.2-4.9c4.7-3.1,9.2-8.3,13.6-15.8L49,43z M79.4,51.5h-7.5V74
			c0,3.7-2,5.5-6,5.5c-2.6,0-5.1-0.1-7.5-0.2l-1.8-5c1.6,0,4.4,0.1,8.6,0.1c0.4,0,0.7-0.1,1-0.4c0.3-0.3,0.5-0.7,0.5-1.1V51.5H48.6
			v-4.9h30.8V51.5z M78,37.4H50.1v-4.8H78V37.4z"/>
	</g>
</g>
<g>
	<rect y="0" class="st2" width="110" height="110"/>
	<g>
		<path class="st1" d="M79.1,38.7H50.4c-2.8,2.5-5.4,4.4-8,5.9c6.8,0,14.3-0.3,22.5-1c-0.6-0.4-1.5-0.9-2.8-1.7l4.5-2.6
			c4.9,2.9,8.8,5.6,11.4,8.2l-3.7,3.2c-1.3-1.3-2.7-2.4-4.2-3.5c-14,1.1-26,1.7-35.9,1.8l-0.9-4.2c3.7-1.3,7.1-3.3,10.1-6.1H30.9
			v-4.4h17.3c1.1-1.2,2.3-2.5,3.4-4.1l5.9,1.1c-0.5,0.8-1.3,1.8-2.5,3h24.1V38.7z M73.5,75c0,0.8-0.3,1.6-0.8,2.4
			c-0.5,0.8-1.2,1.3-2,1.5c-0.8,0.2-2.6,0.4-5.2,0.4c-1.5,0-3.1,0-4.7-0.1l-1.5-4.7c1.5,0.2,3.1,0.2,4.6,0.2c2.2,0,3.6-0.1,4-0.3
			c0.4-0.2,0.6-0.5,0.6-1v-5.3c-7.6,1.7-16.2,3.4-25.8,4.9l-1.6-3.5c-1.4,4.8-3.3,8.2-5.7,10.2L31,76.9c3.9-2.9,5.9-7.8,5.9-14.6
			V51.2h36.6V75z M68.5,63.7v-8.1H42v2.8c9,0.3,16.4,0.7,22.1,1.1l-1.4,4.3c-7.4-0.7-14.3-1-20.8-1.1c-0.1,2.3-0.3,4.3-0.6,5.9
			C50.2,67.4,59.2,65.8,68.5,63.7z"/>
	</g>
</g>
</svg>
