<?xml version="1.0" encoding="utf-8"?>
<!-- Generator: Adobe Illustrator 22.1.0, SVG Export Plug-In . SVG Version: 6.00 Build 0)  -->
<svg version="1.1" id="圖層_1" xmlns="http://www.w3.org/2000/svg" xmlns:xlink="http://www.w3.org/1999/xlink" x="0px" y="0px"
	 viewBox="0 0 123 86" style="enable-background:new 0 0 123 86;" xml:space="preserve">
<style type="text/css">
	.st0{fill:#DCDCDC;}
	.st1{fill:#FFFFFF;}
</style>
<g>
	<path class="st0" d="M118.3,0.5H42.6C19.1,0.5-0.2,19.7-0.2,43.2l0,0C-0.2,66.8,19.1,86,42.6,86h75.7c1.6,0,3.1-0.1,4.7-0.3v-85
		C121.5,0.6,119.9,0.5,118.3,0.5z"/>
	<g>
		<path class="st1" d="M93.9,30.3h-6.1H85H59.2c-3.9,0-7,3.2-7,7v16.4H46c-2.3,0-4.2-1.9-4.2-4.2V22.3c0-2.3,1.9-4.2,4.2-4.2h34.8
			c2.3,0,4.2,1.9,4.2,4.2v4.2h2.8v-4.2c0-3.9-3.2-7-7-7H46c-3.9,0-7,3.2-7,7v27.2c0,3.9,3.2,7,7,7h6.1v8c0,3.9,3.2,7,7,7h34.8
			c3.9,0,7-3.2,7-7V37.3C101,33.4,97.8,30.3,93.9,30.3z M98.2,64.6c0,2.3-1.9,4.2-4.2,4.2H59.2c-2.3,0-4.2-1.9-4.2-4.2v-8v-2.8V37.3
			c0-2.3,1.9-4.2,4.2-4.2H85h2.8h6.1c2.3,0,4.2,1.9,4.2,4.2V64.6z"/>
		<rect x="64.8" y="43.4" class="st1" width="24.4" height="2.8"/>
	</g>
</g>
</svg>
