<?xml version="1.0" encoding="utf-8"?>
<!-- Generator: Adobe Illustrator 22.1.0, SVG Export Plug-In . SVG Version: 6.00 Build 0)  -->
<svg version="1.1" id="圖層_1" xmlns="http://www.w3.org/2000/svg" xmlns:xlink="http://www.w3.org/1999/xlink" x="0px" y="0px"
	 viewBox="0 0 74 74" style="enable-background:new 0 0 74 74;" xml:space="preserve">
<style type="text/css">
	.st0{fill:#FFFFFF;}
</style>
<g>
	<path class="st0" d="M62.5,23H56h-3H25.5c-4.1,0-7.5,3.4-7.5,7.5V48h-6.5C9,48,7,46,7,43.5v-29C7,12,9,10,11.5,10h37
		c2.5,0,4.5,2,4.5,4.5V19h3v-4.5c0-4.1-3.4-7.5-7.5-7.5h-37C7.4,7,4,10.4,4,14.5v29c0,4.1,3.4,7.5,7.5,7.5H18v8.5
		c0,4.1,3.4,7.5,7.5,7.5h37c4.1,0,7.5-3.4,7.5-7.5v-29C70,26.4,66.6,23,62.5,23z M67,59.5c0,2.5-2,4.5-4.5,4.5h-37
		C23,64,21,62,21,59.5V51v-3V30.5c0-2.5,2-4.5,4.5-4.5H53h3h6.5c2.5,0,4.5,2,4.5,4.5V59.5z"/>
	<rect x="31.5" y="37" class="st0" width="26" height="3"/>
</g>
</svg>
