<?xml version="1.0" encoding="utf-8"?>
<!-- Generator: Adobe Illustrator 22.1.0, SVG Export Plug-In . SVG Version: 6.00 Build 0)  -->
<svg version="1.1" id="圖層_1" xmlns="http://www.w3.org/2000/svg" xmlns:xlink="http://www.w3.org/1999/xlink" x="0px" y="0px"
	 viewBox="0 0 123 86" style="enable-background:new 0 0 123 86;" xml:space="preserve">
<style type="text/css">
	.st0{fill:#DCDCDC;}
	.st1{fill:#FFFFFF;}
</style>
<g>
	<path class="st0" d="M118.4,0.2H42.7C19.2,0.2-0.1,19.5-0.1,43l0,0c0,23.5,19.2,42.8,42.8,42.8h75.7c1.6,0,3.1-0.1,4.7-0.3v-85
		C121.5,0.3,120,0.2,118.4,0.2z"/>
	<g>
		<g>
			<path class="st1" d="M92.5,26.5h2.1c0.7,0,1.2-0.6,1.2-1.2v-7.6h-1c-0.5,2.1-2.4,3.7-4.7,3.7c-2,0-3.7-1.2-4.4-2.9
				c-0.2-0.5-0.6-0.8-1.1-0.8h-0.4c-0.5,0-0.9,0.3-1.1,0.8c-0.7,1.7-2.4,2.9-4.4,2.9c-2,0-3.7-1.2-4.4-2.9c-0.2-0.5-0.6-0.8-1.1-0.8
				h-0.4c-0.5,0-0.9,0.3-1.1,0.8c-0.7,1.7-2.4,2.9-4.4,2.9s-3.7-1.2-4.4-2.9c-0.2-0.5-0.6-0.8-1.1-0.8h-0.2c-0.5,0-0.9,0.3-1.1,0.8
				c-0.7,1.7-2.4,2.9-4.4,2.9c-2.3,0-4.2-1.6-4.7-3.7h-1v7.6c0,0.7,0.6,1.2,1.2,1.2h1.7c0.7,0,1.2,0.6,1.2,1.2v0
				c0,0.7-0.6,1.2-1.2,1.2h-1.7c-0.7,0-1.2,0.6-1.2,1.2v38.6h1c0.5-2.1,2.4-3.6,4.7-3.6c2,0,3.7,1.2,4.4,2.9
				c0.2,0.5,0.6,0.8,1.1,0.8h0.3c0.5,0,0.9-0.3,1.1-0.8c0.8-1.7,2.4-2.9,4.4-2.9c2,0,3.7,1.2,4.4,2.9c0.2,0.5,0.6,0.8,1.1,0.8H73
				c0.5,0,0.9-0.3,1.1-0.8c0.8-1.7,2.4-2.9,4.4-2.9c2,0,3.7,1.2,4.4,2.9c0.2,0.5,0.6,0.8,1.1,0.8h0.5c0.5,0,0.9-0.3,1.1-0.8
				c0.8-1.7,2.4-2.9,4.4-2.9c2.3,0,4.1,1.5,4.7,3.6h1V30.2c0-0.7-0.6-1.2-1.2-1.2h-2.1c-0.7,0-1.2-0.6-1.2-1.2v0
				C91.3,27,91.8,26.5,92.5,26.5z M69,26.5h7.3c0.7,0,1.2,0.6,1.2,1.2v0c0,0.7-0.6,1.2-1.2,1.2H69c-0.7,0-1.2-0.6-1.2-1.2v0
				C67.8,27,68.3,26.5,69,26.5z M56,27.7L56,27.7c0-0.7,0.6-1.3,1.2-1.3h7.3c0.7,0,1.2,0.6,1.2,1.2v0c0,0.7-0.6,1.2-1.2,1.2h-7.3
				C56.6,29,56,28.4,56,27.7z M81.7,52.9c-0.1,0.5-0.3,1.1-0.7,1.8c-0.4,0.7-1,1.3-1.8,2c-0.7,0.6-1.6,1-2.7,1.4
				c-0.5,0.2-0.8,0.6-0.8,1.2v1.2c0,0.7-0.6,1.2-1.2,1.2h-2.8c-0.7,0-1.2-0.6-1.2-1.2v-2c-0.3-0.1-0.7-0.1-1-0.2
				c-0.4-0.1-0.8-0.2-1.2-0.4c-0.4-0.2-0.9-0.4-1.3-0.6c-0.4-0.3-0.8-0.6-1.2-1c-0.5-0.5-0.9-1.1-1.2-1.8c-0.3-0.7-0.5-1.4-0.5-2
				v-0.4h6.6c0,0.1,0,0.3,0.1,0.5c0.1,0.2,0.2,0.5,0.3,0.8c0.2,0.3,0.4,0.5,0.7,0.7c0.3,0.2,0.7,0.3,1.2,0.3c0.5,0,1-0.2,1.5-0.5
				c0.5-0.3,0.7-0.8,0.7-1.4c0-0.5-0.2-1-0.7-1.5c-0.5-0.5-1.4-0.9-2.9-1.4c-0.8-0.2-1.6-0.5-2.5-0.8c-0.9-0.3-1.7-0.7-2.4-1.2
				c-0.7-0.5-1.3-1.1-1.8-1.8c-0.5-0.7-0.7-1.7-0.7-2.8c0-0.5,0-1,0.1-1.4c0.1-0.4,0.2-0.8,0.4-1.2c0.4-0.7,0.9-1.4,1.4-1.9
				c0.6-0.5,1.2-0.9,2-1.3c0.5-0.2,0.9-0.4,1.4-0.5c0.5-0.2,0.9-0.6,0.9-1.2v-1c0-0.7,0.6-1.2,1.2-1.2h2.8c0.7,0,1.2,0.6,1.2,1.2v1
				c0,0.5,0.4,1,0.9,1.2c0.4,0.1,0.9,0.3,1.3,0.5c0.7,0.3,1.2,0.8,1.7,1.3c0.5,0.5,0.9,1.1,1.1,1.8c0.1,0.2,0.2,0.5,0.2,0.8
				c0.2,0.8-0.4,1.5-1.2,1.5H75c0-0.1,0-0.3-0.1-0.5c-0.1-0.2-0.1-0.4-0.3-0.7c-0.1-0.2-0.3-0.4-0.6-0.6c-0.3-0.2-0.7-0.2-1.1-0.2
				c-0.7,0-1.2,0.2-1.6,0.5c-0.4,0.4-0.5,0.8-0.5,1.2c0,0,0,0.1,0,0.1c0,0.4,0.1,0.7,0.3,0.9c0.2,0.3,0.6,0.6,1,0.8
				c0.5,0.2,1,0.5,1.7,0.7c0.6,0.2,1.4,0.5,2.3,0.7c1.2,0.4,2.2,0.8,2.9,1.4c0.8,0.5,1.3,1.1,1.7,1.6c0.4,0.6,0.7,1.1,0.8,1.7
				c0.1,0.6,0.2,1,0.2,1.4C81.7,52,81.7,52.3,81.7,52.9z M88,29h-7.3c-0.7,0-1.2-0.6-1.2-1.2v0c0-0.7,0.6-1.2,1.2-1.2H88
				c0.7,0,1.2,0.6,1.2,1.2v0C89.3,28.4,88.7,29,88,29z"/>
		</g>
		<rect x="49.8" y="17.6" class="st1" width="46" height="4.5"/>
	</g>
</g>
</svg>
