<?xml version="1.0" encoding="utf-8"?>
<!-- Generator: Adobe Illustrator 22.1.0, SVG Export Plug-In . SVG Version: 6.00 Build 0)  -->
<svg version="1.1" id="圖層_1" xmlns="http://www.w3.org/2000/svg" xmlns:xlink="http://www.w3.org/1999/xlink" x="0px" y="0px"
	 viewBox="0 0 60 60" style="enable-background:new 0 0 60 60;" xml:space="preserve">
<style type="text/css">
	.st0{fill:#2E2E2E;}
</style>
<g>
	<g>
		<path class="st0" d="M48.4,11.6C43.7,6.9,37.2,4,30,4C16.3,4,5.1,14.6,4.1,28h6c1-10.1,9.5-18,19.9-18c5.5,0,10.5,2.3,14.1,5.9
			L38,22h10.3h6.4H56V4L48.4,11.6z"/>
		<path class="st0" d="M30,50c-6.3,0-11.9-2.9-15.5-7.5L21,36H10.9H4.7H3v18l7.2-7.2C15,52.4,22.1,56,30,56c14.3,0,26-11.7,26-26h-6
			C50,41,41,50,30,50z"/>
	</g>
</g>
</svg>
