<?xml version="1.0" encoding="utf-8"?>
<!-- Generator: Adobe Illustrator 22.1.0, SVG Export Plug-In . SVG Version: 6.00 Build 0)  -->
<svg version="1.1" id="圖層_1" xmlns="http://www.w3.org/2000/svg" xmlns:xlink="http://www.w3.org/1999/xlink" x="0px" y="0px"
	 viewBox="0 0 123 86" style="enable-background:new 0 0 123 86;" xml:space="preserve">
<style type="text/css">
	.st0{fill:#DCDCDC;}
	.st1{fill:#FFFFFF;}
</style>
<g>
	<path class="st0" d="M118.5,0.5H42.8C19.2,0.5,0,19.7,0,43.2l0,0C0,66.8,19.2,86,42.8,86h75.7c1.6,0,3.1-0.1,4.7-0.3v-85
		C121.6,0.6,120.1,0.5,118.5,0.5z"/>
	<g>
		<g>
			<path class="st1" d="M88.3,56.8V34.2l0.7-0.3c0.2-0.1,5.6-2.9,9.5-0.9c1.9,0.9,3.1,2.7,3.5,5.4c1.1,8.6-11.3,16.9-11.9,17.3
				L88.3,56.8z M90.7,35.7v16.5c3.3-2.5,9.6-8.2,8.9-13.5c-0.3-1.8-1-3-2.2-3.5C95.4,34.1,92.4,35,90.7,35.7z"/>
		</g>
		<g>
			<g>
				<rect x="66.6" y="19.7" class="st1" width="2.4" height="9.6"/>
			</g>
			<g>
				<rect x="58.7" y="23.8" class="st1" width="2.4" height="5.5"/>
			</g>
			<g>
				<rect x="74.8" y="23.8" class="st1" width="2.4" height="5.5"/>
			</g>
		</g>
		<g>
			<rect x="53.1" y="66.4" class="st1" width="29.8" height="2.4"/>
		</g>
		<rect x="45.4" y="33.6" class="st1" width="45.1" height="5.4"/>
		<polygon class="st1" points="45.4,41.4 45.4,53.1 45.4,54.6 54,64 56.7,64 79.2,64 82,64 90.5,54.6 90.5,53.1 90.5,41.4 		"/>
	</g>
</g>
</svg>
