<?xml version="1.0" encoding="utf-8"?>
<!-- Generator: Adobe Illustrator 22.1.0, SVG Export Plug-In . SVG Version: 6.00 Build 0)  -->
<svg version="1.1" id="圖層_1" xmlns="http://www.w3.org/2000/svg" xmlns:xlink="http://www.w3.org/1999/xlink" x="0px" y="0px"
	 viewBox="0 0 50 50" style="enable-background:new 0 0 50 50;" xml:space="preserve">
<style type="text/css">
	.st0{fill:#253137;}
</style>
<g>
	<path class="st0" d="M43,27.3v-4.6c0-0.3-0.2-0.6-0.5-0.6l-2.7-0.3c-0.2-0.1-0.5-0.2-0.5-0.4c-0.3-1.3-0.9-2.7-1.6-3.9
		c-0.1-0.2-0.1-0.5,0.1-0.7l1.7-2.1c0.2-0.2,0.2-0.6-0.1-0.8l-3.2-3.2c-0.2-0.2-0.6-0.2-0.8-0.1l-2.1,1.7c-0.2,0.2-0.5,0.2-0.6,0.1
		c-1.2-0.7-2.6-1.3-4-1.6c-0.2-0.1-0.4-0.2-0.4-0.4l-0.3-2.5C27.8,7.2,27.6,7,27.3,7h-4.6c-0.3,0-0.5,0.2-0.6,0.5l-0.3,2.7
		c-0.1,0.2-0.2,0.4-0.5,0.5c-1.3,0.3-2.7,0.9-3.9,1.6c-0.2,0.1-0.4,0.1-0.6-0.1l-2.1-1.7c-0.2-0.2-0.6-0.2-0.7,0.1l-3.3,3.3
		c-0.2,0.2-0.2,0.5-0.1,0.7l1.7,2.1c0.2,0.2,0.2,0.4,0.1,0.6c-0.7,1.2-1.3,2.6-1.6,4c-0.1,0.2-0.2,0.4-0.5,0.4l-2.8,0.3
		C7.2,22.2,7,22.4,7,22.7v4.6c0,0.3,0.2,0.5,0.5,0.6l2.8,0.3c0.2,0,0.5,0.2,0.5,0.4c0.3,1.3,0.9,2.7,1.6,4c0.1,0.2,0.1,0.4-0.1,0.6
		l-1.7,2.1c-0.2,0.2-0.2,0.6,0.1,0.7l3.3,3.3c0.2,0.2,0.5,0.2,0.7,0.1l2.1-1.7c0.2-0.2,0.4-0.2,0.6-0.1c1.2,0.7,2.6,1.3,4,1.6
		c0.2,0.1,0.4,0.2,0.4,0.5l0.3,2.7c0.1,0.3,0.3,0.5,0.6,0.5h4.6c0.3,0,0.5-0.2,0.6-0.5l0.3-2.7c0-0.2,0.2-0.4,0.5-0.4
		c1.4-0.3,2.7-0.9,4-1.6c0.2-0.1,0.4-0.1,0.6,0.1l2,1.6c0.2,0.2,0.6,0.2,0.7-0.1l3.3-3.3c0.2-0.2,0.2-0.5,0.1-0.7l-1.7-2.1
		c-0.2-0.2-0.2-0.4-0.1-0.6c0.7-1.2,1.3-2.6,1.6-4c0.1-0.2,0.2-0.4,0.5-0.4l2.8-0.3C42.8,27.8,43,27.6,43,27.3z M12.6,16.7
		L12.6,16.7L12.6,16.7L12.6,16.7z M26.1,34.2c-6.1,0.7-11.1-4.3-10.4-10.4c0.5-4.1,3.8-7.4,7.9-7.9c6-0.8,11.1,4.3,10.4,10.3
		C33.5,30.3,30.2,33.6,26.1,34.2z"/>
</g>
</svg>
