<?xml version="1.0" encoding="utf-8"?>
<!-- Generator: Adobe Illustrator 22.1.0, SVG Export Plug-In . SVG Version: 6.00 Build 0)  -->
<svg version="1.1" id="圖層_1" xmlns="http://www.w3.org/2000/svg" xmlns:xlink="http://www.w3.org/1999/xlink" x="0px" y="0px"
	 viewBox="0 0 60 60" style="enable-background:new 0 0 60 60;" xml:space="preserve">
<style type="text/css">
	.st0{fill:#D5D5D5;}
</style>
<g>
	<g>
		<path class="st0" d="M48.9,11.6C44.2,6.9,37.7,4,30.5,4C16.8,4,5.6,14.6,4.6,28h6c1-10.1,9.5-18,19.9-18c5.5,0,10.5,2.3,14.1,5.9
			L38.5,22h10.3h6.4h1.3V4L48.9,11.6z"/>
		<path class="st0" d="M30.5,50c-6.3,0-11.9-2.9-15.5-7.5l6.5-6.5H11.4H5.2H3.5v18l7.2-7.2c4.8,5.6,11.9,9.2,19.8,9.2
			c14.3,0,26-11.7,26-26h-6C50.5,41,41.5,50,30.5,50z"/>
	</g>
</g>
</svg>
