<?xml version="1.0" encoding="utf-8"?>
<!-- Generator: Adobe Illustrator 22.1.0, SVG Export Plug-In . SVG Version: 6.00 Build 0)  -->
<svg version="1.1" id="圖層_1" xmlns="http://www.w3.org/2000/svg" xmlns:xlink="http://www.w3.org/1999/xlink" x="0px" y="0px"
	 viewBox="0 0 75 75" style="enable-background:new 0 0 75 75;" xml:space="preserve">
<style type="text/css">
	.st0{fill:none;stroke:#FFFFFF;stroke-width:4;stroke-miterlimit:10;}
</style>
<path class="st0" d="M64.6,57.1c-3.3-3.8-7-6.8-10.2-9.2c-0.7-0.6-1.6-1.1-2.4-1.6c-1.1-0.6-1.9-1.2-3.2-1c-1.2,0.2-2.4,0.8-3.6,1.5
	c-0.4,0.1-3.2,1.7-3.3,1.6c-1.2-0.8-3.4-2.9-7.2-7.8c-3.9-4.7-5.9-8.5-6.6-9.8c1.1-1.3,2.2-2.8,3.2-4.2c0.6-1,1.3-1.9,1.3-3
	c0-0.8-0.5-1.9-0.7-2.8c-0.7-2.1-1.7-4-2.7-5.9c-0.8-1.7-1.8-3.5-2.8-5.1C26,8.7,25.4,7.6,24.6,7c-0.7-0.5-1.5-0.8-2.3-0.8
	c-3,0.4-5.8,1.8-7.9,3.5c-1.9,1.7-3.4,3.6-4,6.2c-0.5,2.2-0.2,4.5,0.1,6.7c1,5.1,3.3,10.1,5.8,14.6c4.7,8.6,10.9,16.1,18.5,22.6
	c4.7,4,10.6,8.3,17,9c1.6,0.1,3.2,0.2,4.7-0.2c1.1-0.2,1.9-1,2.9-1.6c2.2-1.7,4.2-3.8,5-6.4C64.6,59.8,65.2,57.8,64.6,57.1z"/>
</svg>
