<?xml version="1.0" encoding="utf-8"?>
<!-- Generator: Adobe Illustrator 22.1.0, SVG Export Plug-In . SVG Version: 6.00 Build 0)  -->
<svg version="1.1" id="圖層_1" xmlns="http://www.w3.org/2000/svg" xmlns:xlink="http://www.w3.org/1999/xlink" x="0px" y="0px"
	 viewBox="0 0 60 60" style="enable-background:new 0 0 60 60;" xml:space="preserve">
<style type="text/css">
	.st0{fill:#4BB5AB;}
	.st1{fill:#FFFFFF;}
</style>
<g>
	<path class="st0" d="M56,60H4c-2.2,0-4-1.8-4-4V4c0-2.2,1.8-4,4-4h52c2.2,0,4,1.8,4,4v52C60,58.2,58.2,60,56,60z"/>
	<g>
		<path class="st1" d="M45.8,13.8h-4.6v3.5h-5.1v-3.5H23.2v3.5h-5.1v-3.5h-3.9c-2,0-3.7,1.7-3.7,3.7v5.3h39v-5.3
			C49.5,15.5,47.8,13.8,45.8,13.8z"/>
		<g>
			<g>
				<rect x="20" y="9.7" class="st1" width="1.2" height="6.8"/>
			</g>
		</g>
		<g>
			<g>
				<rect x="38" y="9.7" class="st1" width="1.2" height="6.8"/>
			</g>
		</g>
		<path class="st1" d="M10.5,24.8v21.8c0,2,1.7,3.7,3.7,3.7h31.6c2,0,3.7-1.7,3.7-3.7V24.8H10.5z M29,43.3l-8.7-8.6l1.8-1.8l6.9,6.8
			l10-10l1.8,1.8L29,43.3z"/>
	</g>
</g>
</svg>
