<?xml version="1.0" encoding="utf-8"?>
<!-- Generator: Adobe Illustrator 22.1.0, SVG Export Plug-In . SVG Version: 6.00 Build 0)  -->
<svg version="1.1" id="圖層_1" xmlns="http://www.w3.org/2000/svg" xmlns:xlink="http://www.w3.org/1999/xlink" x="0px" y="0px"
	 viewBox="0 0 60 60" style="enable-background:new 0 0 60 60;" xml:space="preserve">
<style type="text/css">
	.st0{fill:#4BB5AB;}
	.st1{fill:#FFFFFF;}
</style>
<g>
	<path class="st0" d="M56,60H4c-2.2,0-4-1.8-4-4V4c0-2.2,1.8-4,4-4h52c2.2,0,4,1.8,4,4v52C60,58.2,58.2,60,56,60z"/>
	<g>
		<path class="st1" d="M47.6,11.5H12.4c-0.5,0-0.9,0.4-0.9,0.9v7h37v-7C48.5,11.9,48.1,11.5,47.6,11.5z"/>
		<path class="st1" d="M20.8,48.5h26.8c0.5,0,0.9-0.4,0.9-0.9V21.3H20.8V48.5z M25.1,26.6h18.4v1.9H25.1V26.6z M25.1,33.5h18.4v1.9
			H25.1V33.5z M25.1,40.5H36v1.9H25.1V40.5z"/>
		<path class="st1" d="M11.5,47.6c0,0.5,0.4,0.9,0.9,0.9h6.5V21.3h-7.4V47.6z"/>
	</g>
</g>
</svg>
