<?xml version="1.0" encoding="utf-8"?>
<!-- Generator: Adobe Illustrator 22.1.0, SVG Export Plug-In . SVG Version: 6.00 Build 0)  -->
<svg version="1.1" id="圖層_1" xmlns="http://www.w3.org/2000/svg" xmlns:xlink="http://www.w3.org/1999/xlink" x="0px" y="0px"
	 viewBox="0 0 60 60" style="enable-background:new 0 0 60 60;" xml:space="preserve">
<style type="text/css">
	.st0{fill:#4BB5AB;}
	.st1{fill:#FFFFFF;}
</style>
<g>
	<path class="st0" d="M56,60H4c-2.2,0-4-1.8-4-4V4c0-2.2,1.8-4,4-4h52c2.2,0,4,1.8,4,4v52C60,58.2,58.2,60,56,60z"/>
	<g>
		<g>
			<path class="st1" d="M42,38.6V23.1l0.4-0.2c0.2-0.1,3.9-2,6.6-0.6c1.3,0.6,2.1,1.9,2.4,3.7c0.8,5.9-7.8,11.6-8.1,11.9L42,38.6z
				 M43.7,24.1v11.3c2.2-1.7,6.6-5.7,6.1-9.3c-0.2-1.2-0.7-2-1.5-2.4C46.9,23,44.8,23.6,43.7,24.1z"/>
		</g>
		<g>
			<g>
				<rect x="27.1" y="13.1" class="st1" width="1.7" height="6.6"/>
			</g>
			<g>
				<rect x="21.7" y="15.9" class="st1" width="1.7" height="3.8"/>
			</g>
			<g>
				<rect x="32.7" y="15.9" class="st1" width="1.7" height="3.8"/>
			</g>
		</g>
		<g>
			<rect x="17.8" y="45.2" class="st1" width="20.5" height="1.7"/>
		</g>
		<rect x="12.5" y="22.7" class="st1" width="31" height="3.7"/>
		<polygon class="st1" points="12.5,28 12.5,36.1 12.5,37.1 18.4,43.5 20.3,43.5 35.8,43.5 37.6,43.5 43.5,37.1 43.5,36.1 43.5,28 
					"/>
	</g>
</g>
</svg>
