<?xml version="1.0" encoding="utf-8"?>
<!-- Generator: Adobe Illustrator 22.1.0, SVG Export Plug-In . SVG Version: 6.00 Build 0)  -->
<svg version="1.1" id="圖層_1" xmlns="http://www.w3.org/2000/svg" xmlns:xlink="http://www.w3.org/1999/xlink" x="0px" y="0px"
	 viewBox="0 0 60 60" style="enable-background:new 0 0 60 60;" xml:space="preserve">
<style type="text/css">
	.st0{fill:#4BB5AB;}
	.st1{fill:#FFFFFF;}
</style>
<g>
	<path class="st0" d="M56,60H4c-2.2,0-4-1.8-4-4V4c0-2.2,1.8-4,4-4h52c2.2,0,4,1.8,4,4v52C60,58.2,58.2,60,56,60z"/>
	<path class="st1" d="M51.4,15.2h-5.5h-9.8c-3.3,0-5.9,2.1-6.1,5.3h0c-0.2-3.2-2.8-5.3-6.1-5.3h-9.8H8.6c-0.3,0-0.6,0.3-0.6,0.6v5.5
		v17.5v3.4c0,0.3,0.3,0.6,0.6,0.6h5.5h9.8c1.8,0,3.8,0.7,4.9,1.9c0.1,0.1,0.3,0.2,0.4,0.2H30h0.7c0.2,0,0.3-0.1,0.4-0.2
		c1.1-1.2,3.2-1.9,4.9-1.9h9.8h5.5c0.3,0,0.6-0.3,0.6-0.6v-3.4V21.3v-5.5C52,15.4,51.7,15.2,51.4,15.2z M15.8,34.4h6.3
		c0,1.7-1.4,3.1-3.2,3.1C17.2,37.5,15.8,36.1,15.8,34.4z M22.1,31.3v2h-6.3v-2.2c-1.7-1.1-2.7-3-2.7-5c0-3.3,2.7-6,6-6
		c3.3,0,6,2.7,6,6C25,28.3,23.9,30.2,22.1,31.3z M35,28.4h12.3v1.2H35V28.4z M35,34.2h12.3v1.2H35V34.2z M47.2,23.9H35v-1.2h12.3
		V23.9z"/>
</g>
</svg>
