<?xml version="1.0" encoding="utf-8"?>
<!-- Generator: Adobe Illustrator 22.1.0, SVG Export Plug-In . SVG Version: 6.00 Build 0)  -->
<svg version="1.1" id="圖層_1" xmlns="http://www.w3.org/2000/svg" xmlns:xlink="http://www.w3.org/1999/xlink" x="0px" y="0px"
	 viewBox="0 0 60 60" style="enable-background:new 0 0 60 60;" xml:space="preserve">
<style type="text/css">
	.st0{fill:#4BB5AB;}
	.st1{fill:#FFFFFF;}
</style>
<g>
	<path class="st0" d="M56,60H4c-2.2,0-4-1.8-4-4V4c0-2.2,1.8-4,4-4h52c2.2,0,4,1.8,4,4v52C60,58.2,58.2,60,56,60z"/>
	<g>
		<path class="st1" d="M40.4,31.9c-2-2.3-4.9-3.8-8.2-3.8c-0.1,0-0.1,0-0.2,0c-0.2,0-0.4,0-0.6,0c-0.4,0-0.8,0.1-1.2,0.2
			c-0.2,0-0.4,0.1-0.5,0.1c-3.3,0.8-5.9,3-7.3,6c-0.2,0.5-0.4,1.1-0.6,1.7c-0.2,0.9-0.4,1.8-0.4,2.8c0,6,4.9,10.8,10.8,10.8
			c6,0,10.8-4.9,10.8-10.8c0-2-0.6-4-1.6-5.6C41.1,32.8,40.8,32.3,40.4,31.9z M35.9,41.7c0,0.2-0.1,0.5-0.3,0.8
			c-0.2,0.3-0.4,0.6-0.8,0.9c-0.4,0.3-0.9,0.5-1.5,0.7v1.4H31v-1.4c-0.1,0-0.3-0.1-0.4-0.1c-0.2,0-0.3-0.1-0.5-0.2
			c-0.2-0.1-0.4-0.2-0.6-0.3c-0.2-0.1-0.4-0.3-0.5-0.4c-0.2-0.2-0.4-0.5-0.5-0.8c-0.1-0.3-0.2-0.6-0.2-0.9v-0.2h2.9c0,0,0,0.1,0,0.2
			c0,0.1,0.1,0.2,0.1,0.3c0.1,0.1,0.2,0.2,0.3,0.3c0.1,0.1,0.3,0.1,0.5,0.1c0.2,0,0.4-0.1,0.6-0.2c0.2-0.1,0.3-0.3,0.3-0.6
			c0-0.2-0.1-0.4-0.3-0.6c-0.2-0.2-0.6-0.4-1.2-0.6c-0.3-0.1-0.7-0.2-1.1-0.4c-0.4-0.1-0.7-0.3-1-0.5c-0.3-0.2-0.6-0.5-0.8-0.8
			c-0.2-0.3-0.3-0.7-0.3-1.2c0-0.2,0-0.4,0.1-0.6c0-0.2,0.1-0.4,0.2-0.5c0.2-0.3,0.4-0.6,0.6-0.8c0.3-0.2,0.5-0.4,0.9-0.5
			c0.3-0.1,0.6-0.2,1-0.3v-1.4h2.3v1.4c0.3,0.1,0.6,0.2,0.9,0.3c0.3,0.1,0.5,0.3,0.7,0.6c0.2,0.2,0.4,0.5,0.5,0.8
			c0.1,0.3,0.2,0.6,0.2,1H33c0-0.1,0-0.1,0-0.2c0-0.1-0.1-0.2-0.1-0.3c-0.1-0.1-0.2-0.2-0.3-0.2c-0.1-0.1-0.3-0.1-0.5-0.1
			c-0.3,0-0.5,0.1-0.7,0.2c-0.2,0.2-0.2,0.3-0.2,0.5c0,0,0,0,0,0c0,0.2,0.1,0.3,0.1,0.4c0.1,0.1,0.2,0.2,0.4,0.3
			c0.2,0.1,0.4,0.2,0.7,0.3c0.3,0.1,0.6,0.2,1,0.3c0.5,0.2,0.9,0.4,1.3,0.6c0.3,0.2,0.6,0.5,0.8,0.7c0.2,0.2,0.3,0.5,0.4,0.7
			c0.1,0.2,0.1,0.4,0.1,0.6C35.9,41.3,35.9,41.4,35.9,41.7z"/>
		<path class="st1" d="M23.7,29.9c0.3-0.3,0.7-0.6,1-0.9c1.3-1,2.9-1.7,4.5-2.1c0.3-0.1,0.6-0.1,0.9-0.2c0.1-0.3,0.2-0.6,0.2-0.9
			c0.1-0.6,0.2-1.2,0.2-1.9c0-1.7-0.4-3.3-1.1-4.8c-0.3-0.6-0.7-1.3-1.1-1.8c-2-2.6-5.1-4.2-8.6-4.2C13.9,13.1,9,18,9,23.9
			c0,6,4.9,10.8,10.8,10.8c0.3,0,0.5,0,0.8,0C21.3,32.9,22.3,31.2,23.7,29.9z M22,29c-0.5,0-1-0.1-1.6-0.2c-0.8-0.2-1.2-0.3-1.4-0.4
			c-0.2,0-0.4-0.1-0.6-0.1c-0.6,0-1.3,0.2-2.1,0.7l-0.9-2.1c1-0.7,1.5-1.5,1.5-2.2c0,0,0-0.1,0-0.3h-1.5v-1.7h1.1
			c-0.2-0.6-0.3-1-0.3-1.1c0-0.2,0-0.3,0-0.6c0-0.6,0.2-1.1,0.5-1.6c0.3-0.5,0.7-0.8,1.3-1c0.5-0.2,1.2-0.3,2.1-0.3
			c0.8,0,1.5,0.1,2,0.3c0.5,0.2,0.9,0.5,1.2,0.9c0.3,0.4,0.6,1,0.7,1.6l-2.8,0.4c-0.1-0.5-0.3-0.9-0.5-1c-0.2-0.2-0.4-0.3-0.6-0.3
			c-0.3,0-0.5,0.1-0.7,0.3c-0.2,0.2-0.3,0.4-0.3,0.8c0,0.2,0,0.4,0.1,0.5c0,0.2,0.1,0.6,0.3,1.2h2.2v1.7h-1.9c0,0.4-0.1,0.8-0.2,1.1
			c-0.1,0.3-0.3,0.5-0.5,0.8c0.3-0.1,0.5-0.1,0.7-0.1c0.2,0,0.6,0,1,0.1c0.5,0.1,1,0.2,1.3,0.2c0.3,0,0.5,0,0.7-0.1
			c0.2,0,0.5-0.1,0.8-0.3l0.8,1.8c-0.3,0.2-0.6,0.5-0.9,0.8c-0.1,0-0.1,0.1-0.2,0.1C22.8,28.9,22.4,29,22,29z"/>
		<path class="st1" d="M40.2,10.2c-4.6,0-8.5,2.9-10.1,6.9c1.3,2,2.1,4.3,2.1,6.8c0,0.9-0.1,1.8-0.3,2.7c0.1,0,0.2,0,0.3,0
			c4.1,0,7.7,2,10,5.1c5-0.9,8.8-5.3,8.8-10.6C51,15.1,46.1,10.2,40.2,10.2z M36.7,22.9h-1.1v-0.7h1c0-0.2,0-0.4,0-0.6
			c0-0.2,0-0.3,0-0.5h-0.1c0,0,0,0,0,0c0-0.2,0-0.4,0-0.6h-0.9V20h1.1c0.5-2.4,2.3-4.1,4.3-4.1c1,0,2,0.4,2.7,1.1
			c0,0,0.1,0.1,0.1,0.1l-1.2,1.2c-0.4-0.4-0.9-0.6-1.3-0.6c-1,0-1.6,0.5-2,1.3c-0.1,0.3-0.3,0.6-0.3,1h3.7v0.4v0.6h-3.6h-0.2
			c0,0.2,0,0.3,0,0.5c0,0.2,0,0.4,0,0.6h3.2v0.7v0.3h-2.7H39c0.3,1.3,1,2.2,2.3,2.2c0.1,0,0.3,0,0.4-0.1c0.4-0.1,0.8-0.4,1.1-0.7
			l0.3,0.3l0.9,0.9c-0.8,0.9-1.9,1.4-3,1.4c-0.5,0-1-0.1-1.4-0.3C38.2,26.3,37.1,24.8,36.7,22.9z"/>
	</g>
</g>
</svg>
