<?xml version="1.0" encoding="utf-8"?>
<!-- Generator: Adobe Illustrator 22.1.0, SVG Export Plug-In . SVG Version: 6.00 Build 0)  -->
<svg version="1.1" id="圖層_1" xmlns="http://www.w3.org/2000/svg" xmlns:xlink="http://www.w3.org/1999/xlink" x="0px" y="0px"
	 viewBox="0 0 60 60" style="enable-background:new 0 0 60 60;" xml:space="preserve">
<style type="text/css">
	.st0{fill:#4BB5AB;}
	.st1{fill:#FFFFFF;}
</style>
<g>
	<path class="st0" d="M56,60H4c-2.2,0-4-1.8-4-4V4c0-2.2,1.8-4,4-4h52c2.2,0,4,1.8,4,4v52C60,58.2,58.2,60,56,60z"/>
	<g>
		<path class="st1" d="M39.4,21.8v-5c0-1.5-1.2-2.6-2.6-2.6H15c-1.5,0-2.6,1.2-2.6,2.6v17c0,1.5,1.2,2.6,2.6,2.6h3.8V26.2
			c0-2.4,2-4.4,4.4-4.4H39.4z"/>
		<path class="st1" d="M45,23.5h-3.8h-1.8H23.2c-1.5,0-2.6,1.2-2.6,2.6v10.3v1.8v5c0,1.5,1.2,2.6,2.6,2.6H45c1.5,0,2.6-1.2,2.6-2.6
			v-17C47.6,24.7,46.4,23.5,45,23.5z M42,31.8H26.8V30H42V31.8z"/>
	</g>
</g>
</svg>
