<?xml version="1.0" encoding="utf-8"?>
<!-- Generator: Adobe Illustrator 22.1.0, SVG Export Plug-In . SVG Version: 6.00 Build 0)  -->
<svg version="1.1" id="圖層_1" xmlns="http://www.w3.org/2000/svg" xmlns:xlink="http://www.w3.org/1999/xlink" x="0px" y="0px"
	 viewBox="0 0 60 60" style="enable-background:new 0 0 60 60;" xml:space="preserve">
<style type="text/css">
	.st0{fill:#4BB5AB;}
	.st1{fill:#FFFFFF;}
</style>
<g>
	<path class="st0" d="M56,60H4c-2.2,0-4-1.8-4-4V4c0-2.2,1.8-4,4-4h52c2.2,0,4,1.8,4,4v52C60,58.2,58.2,60,56,60z"/>
	<g>
		<path class="st1" d="M32.6,26.3c-1.1,0-2,0.9-2,2c0,1.1,0.9,2,2,2c1.1,0,2-0.9,2-2C34.7,27.2,33.8,26.3,32.6,26.3z"/>
		<path class="st1" d="M17.3,28.3c0,1.1,0.9,2,2,2c1.1,0,2-0.9,2-2c0-1.1-0.9-2-2-2C18.2,26.3,17.3,27.2,17.3,28.3z"/>
		<path class="st1" d="M41.3,21v26.4h1.6V31.6h1.5v15.7h0.1c0.2,0,0.4,0,0.6-0.1c0.8-0.3,1.4-1,1.4-1.9V21H41.3z"/>
		<path class="st1" d="M39.5,20.1c0-0.2,0-0.4,0-0.6c-0.3-3.8-3.5-6.8-7.4-6.8c-1.1,0-2.1,0.2-3,0.6c-0.9-0.4-1.9-0.6-3-0.6
			c-3.9,0-7.1,3-7.4,6.8c0,0.2,0,0.4,0,0.6V21h1.5v-0.9c0-0.2,0-0.4,0-0.6c0.3-3,2.8-5.3,5.9-5.3c0.5,0,0.9,0.1,1.3,0.2
			c-1.5,1.2-2.5,3.1-2.7,5.2c0,0.2,0,0.4,0,0.6V21h-4.5v3.9c1.6,0.3,2.9,1.8,2.9,3.5c0,2-1.6,3.6-3.6,3.6c-2,0-3.6-1.6-3.6-3.6
			c0-1.7,1.2-3.1,2.8-3.5V21h-2c-1.6,0-3,1.3-3,3v20.4c0,1.6,1.3,3,3,3h23.3V21h-0.3V20.1z M32.6,31.9c-2,0-3.6-1.6-3.6-3.6
			c0-1.7,1.2-3.2,2.9-3.5V21h-5.8v-0.9c0-0.2,0-0.4,0-0.6c0.2-1.9,1.3-3.5,2.9-4.5c1.6,0.9,2.7,2.6,2.9,4.5c0,0.2,0,0.4,0,0.6V21
			h1.5v-0.9c0-0.2,0-0.4,0-0.6c-0.2-2.1-1.2-3.9-2.7-5.2c0.4-0.1,0.9-0.2,1.3-0.2c3.1,0,5.6,2.3,5.9,5.3c0,0.2,0,0.4,0,0.6V21h-4.5
			v3.9c1.6,0.4,2.8,1.8,2.8,3.5C36.2,30.3,34.6,31.9,32.6,31.9z"/>
	</g>
</g>
</svg>
