<?xml version="1.0" encoding="utf-8"?>
<!-- Generator: Adobe Illustrator 22.1.0, SVG Export Plug-In . SVG Version: 6.00 Build 0)  -->
<svg version="1.1" id="圖層_1" xmlns="http://www.w3.org/2000/svg" xmlns:xlink="http://www.w3.org/1999/xlink" x="0px" y="0px"
	 viewBox="0 0 60 60" style="enable-background:new 0 0 60 60;" xml:space="preserve">
<style type="text/css">
	.st0{fill:#4BB5AB;}
	.st1{fill:#FFFFFF;}
</style>
<g>
	<path class="st0" d="M56,60H4c-2.2,0-4-1.8-4-4V4c0-2.2,1.8-4,4-4h52c2.2,0,4,1.8,4,4v52C60,58.2,58.2,60,56,60z"/>
	<g>
		<path class="st1" d="M37,36.6c-0.4-0.3-0.8-0.5-1.3-0.8c-0.5-0.3-1-0.6-1.7-0.5c-0.7,0.1-1.3,0.5-1.9,0.7
			c-0.2,0.1-1.6,0.9-1.7,0.8c-0.6-0.5-1.7-1.5-3.8-4c-2-2.5-3.1-4.4-3.4-5.1c0.6-0.7,1.1-1.4,1.6-2.2c0.3-0.5,0.7-1,0.7-1.6
			c0-0.5-0.2-1-0.4-1.4c-0.4-1.1-0.9-2.1-1.4-3.1c-0.5-0.9-0.9-1.8-1.5-2.7c-0.3-0.4-0.6-1-1-1.3c-0.3-0.3-0.8-0.5-1.2-0.4
			c-1.6,0.2-3,0.9-4.1,1.8c-1,0.9-1.8,1.9-2.1,3.2c-0.2,1.2-0.1,2.4,0.1,3.5c0.5,2.7,1.7,5.2,3,7.6c2.5,4.5,5.7,8.4,9.6,11.7
			c2.5,2.1,5.5,4.3,8.8,4.7c0.8,0.1,1.7,0.1,2.4-0.1c0.6-0.2,1-0.5,1.5-0.8c1.1-0.9,2.2-2,2.6-3.4c0.1-0.5,0.5-1.5,0.2-1.9
			C40.6,39.4,38.6,37.9,37,36.6z"/>
		<rect x="32.3" y="16.3" class="st1" width="17.7" height="1.9"/>
		<rect x="32.3" y="22.8" class="st1" width="17.7" height="1.9"/>
	</g>
</g>
</svg>
