<?xml version="1.0" encoding="utf-8"?>
<!-- Generator: Adobe Illustrator 22.1.0, SVG Export Plug-In . SVG Version: 6.00 Build 0)  -->
<svg version="1.1" id="圖層_1" xmlns="http://www.w3.org/2000/svg" xmlns:xlink="http://www.w3.org/1999/xlink" x="0px" y="0px"
	 viewBox="0 0 60 60" style="enable-background:new 0 0 60 60;" xml:space="preserve">
<style type="text/css">
	.st0{fill:#4BB5AB;}
	.st1{fill:#FFFFFF;}
</style>
<g>
	<path class="st0" d="M56,60H4c-2.2,0-4-1.8-4-4V4c0-2.2,1.8-4,4-4h52c2.2,0,4,1.8,4,4v52C60,58.2,58.2,60,56,60z"/>
	<g>
		<g>
			<path class="st1" d="M44.7,17.5h1.6c0.5,0,0.9-0.4,0.9-0.9v-5.7h-0.8c-0.4,1.6-1.8,2.8-3.5,2.8c-1.5,0-2.8-0.9-3.3-2.2
				c-0.1-0.3-0.5-0.6-0.9-0.6h-0.3c-0.4,0-0.7,0.2-0.9,0.6c-0.5,1.3-1.8,2.2-3.3,2.2c-1.5,0-2.8-0.9-3.3-2.2
				c-0.1-0.3-0.5-0.6-0.9-0.6h-0.3c-0.4,0-0.7,0.2-0.9,0.6c-0.6,1.3-1.8,2.2-3.3,2.2c-1.5,0-2.8-0.9-3.3-2.2
				c-0.1-0.3-0.5-0.6-0.9-0.6h-0.2c-0.4,0-0.7,0.2-0.9,0.6c-0.5,1.3-1.8,2.2-3.3,2.2c-1.7,0-3.1-1.2-3.5-2.8h-0.8v5.7
				c0,0.5,0.4,0.9,0.9,0.9H15c0.5,0,0.9,0.4,0.9,0.9v0c0,0.5-0.4,0.9-0.9,0.9h-1.2c-0.5,0-0.9,0.4-0.9,0.9v28.8h0.8
				c0.4-1.6,1.8-2.7,3.5-2.7c1.5,0,2.7,0.9,3.3,2.1c0.2,0.3,0.5,0.6,0.9,0.6h0.2c0.4,0,0.7-0.2,0.9-0.6c0.6-1.3,1.8-2.1,3.3-2.1
				c1.5,0,2.7,0.9,3.3,2.1c0.2,0.3,0.5,0.6,0.9,0.6h0.4c0.4,0,0.7-0.2,0.9-0.6c0.6-1.3,1.8-2.1,3.3-2.1c1.5,0,2.7,0.9,3.3,2.1
				c0.2,0.3,0.5,0.6,0.8,0.6h0.4c0.4,0,0.7-0.2,0.9-0.6c0.6-1.3,1.8-2.1,3.3-2.1c1.7,0,3.1,1.1,3.5,2.7h0.8V20.3
				c0-0.5-0.4-0.9-0.9-0.9h-1.6c-0.5,0-0.9-0.4-0.9-0.9v0C43.7,17.9,44.2,17.5,44.7,17.5z M27.1,17.5h5.4c0.5,0,0.9,0.4,0.9,0.9v0
				c0,0.5-0.4,0.9-0.9,0.9h-5.4c-0.5,0-0.9-0.4-0.9-0.9v0C26.2,17.9,26.6,17.5,27.1,17.5z M17.4,18.5L17.4,18.5
				c0-0.5,0.4-0.9,0.9-0.9h5.4c0.5,0,0.9,0.4,0.9,0.9v0c0,0.5-0.4,0.9-0.9,0.9h-5.4C17.8,19.4,17.4,19,17.4,18.5z M36.6,37.2
				c0,0.4-0.2,0.9-0.5,1.4c-0.3,0.5-0.7,1-1.4,1.5c-0.5,0.4-1.2,0.8-2,1c-0.4,0.1-0.6,0.5-0.6,0.9v0.9c0,0.5-0.4,0.9-0.9,0.9h-2.1
				c-0.5,0-0.9-0.4-0.9-0.9v-1.5c-0.2,0-0.5-0.1-0.8-0.2c-0.3-0.1-0.6-0.1-0.9-0.3c-0.3-0.1-0.6-0.3-1-0.5c-0.3-0.2-0.6-0.4-0.9-0.7
				c-0.4-0.4-0.7-0.8-0.9-1.3c-0.2-0.5-0.4-1-0.4-1.5v-0.3h5c0,0.1,0,0.2,0.1,0.4c0,0.2,0.1,0.4,0.2,0.6c0.1,0.2,0.3,0.4,0.5,0.5
				c0.2,0.1,0.5,0.2,0.9,0.2c0.4,0,0.7-0.1,1.1-0.4c0.4-0.2,0.6-0.6,0.6-1c0-0.4-0.2-0.8-0.5-1.1c-0.4-0.3-1.1-0.7-2.1-1
				c-0.6-0.2-1.2-0.4-1.9-0.6c-0.6-0.2-1.2-0.5-1.8-0.9c-0.5-0.4-1-0.8-1.3-1.4c-0.3-0.5-0.5-1.2-0.5-2.1c0-0.4,0-0.7,0.1-1
				c0.1-0.3,0.2-0.6,0.3-0.9c0.3-0.5,0.6-1,1.1-1.4c0.4-0.4,0.9-0.7,1.5-0.9c0.3-0.1,0.7-0.3,1-0.4c0.4-0.1,0.6-0.5,0.6-0.9v-0.8
				c0-0.5,0.4-0.9,0.9-0.9h2.1c0.5,0,0.9,0.4,0.9,0.9v0.8c0,0.4,0.3,0.8,0.7,0.9c0.3,0.1,0.6,0.2,0.9,0.4c0.5,0.3,0.9,0.6,1.3,1
				c0.4,0.4,0.7,0.8,0.9,1.3c0.1,0.2,0.1,0.4,0.2,0.6c0.1,0.6-0.3,1.1-0.9,1.1h-3.5c0-0.1,0-0.2-0.1-0.4c0-0.2-0.1-0.3-0.2-0.5
				c-0.1-0.2-0.3-0.3-0.5-0.4c-0.2-0.1-0.5-0.2-0.9-0.2c-0.5,0-0.9,0.1-1.2,0.4c-0.3,0.3-0.4,0.6-0.4,0.9c0,0,0,0.1,0,0.1
				c0,0.3,0.1,0.5,0.2,0.7c0.2,0.2,0.4,0.4,0.8,0.6c0.3,0.2,0.7,0.3,1.2,0.5c0.5,0.2,1,0.4,1.7,0.6c0.9,0.3,1.6,0.6,2.2,1
				c0.6,0.4,1,0.8,1.3,1.2c0.3,0.4,0.5,0.8,0.6,1.3c0.1,0.4,0.2,0.8,0.2,1.1C36.6,36.6,36.6,36.8,36.6,37.2z M41.3,19.4h-5.4
				c-0.5,0-0.9-0.4-0.9-0.9v0c0-0.5,0.4-0.9,0.9-0.9h5.4c0.5,0,0.9,0.4,0.9,0.9v0C42.2,19,41.8,19.4,41.3,19.4z"/>
		</g>
		<rect x="12.8" y="10.9" class="st1" width="34.3" height="3.3"/>
	</g>
</g>
</svg>
