<?xml version="1.0" encoding="utf-8"?>
<!-- Generator: Adobe Illustrator 22.1.0, SVG Export Plug-In . SVG Version: 6.00 Build 0)  -->
<svg version="1.1" id="圖層_1" xmlns="http://www.w3.org/2000/svg" xmlns:xlink="http://www.w3.org/1999/xlink" x="0px" y="0px"
	 viewBox="0 0 240 240" style="enable-background:new 0 0 240 240;" xml:space="preserve">
<style type="text/css">
	.st0{fill:#EFEFEF;}
	.st1{fill:#E5E4E4;}
	.st2{fill:#656666;}
	.st3{fill:#6EBF61;}
	.st4{fill:#4EAEA4;stroke:#656666;stroke-width:3;stroke-miterlimit:10;}
	.st5{fill:#FFFFFF;}
	.st6{fill:#FFFFFF;stroke:#656666;stroke-width:3;stroke-miterlimit:10;}
	.st7{fill:#FFFFFF;stroke:#656666;stroke-width:2;stroke-miterlimit:10;}
	.st8{fill:#656666;stroke:#656666;stroke-miterlimit:10;}
	.st9{fill:#4EAEA4;stroke:#656666;stroke-width:2;stroke-miterlimit:10;}
</style>
<g>
	<ellipse transform="matrix(0.7071 -0.7071 0.7071 0.7071 -49.7056 120)" class="st0" cx="120" cy="120" rx="119.6" ry="119.6"/>
	<ellipse transform="matrix(0.7071 -0.7071 0.7071 0.7071 -49.7056 120)" class="st1" cx="120" cy="120" rx="88.5" ry="88.5"/>
	<g>
		<path class="st2" d="M191.7,154.3c1.5,0,4.3,0,7.7,0c-0.4-34.7-18.2-65-27.3-66.8c-13.4-2.6-21.7-2.3-21.7-2.3l0.4,13.4
			c4.1,0.3,12.7-1.4,17.3,2.4C174.4,106.2,188.8,124.8,191.7,154.3z"/>
		<path class="st2" d="M186.5,193.8c-0.4-21.1-3.4-63.5-25.8-87.4c-1.9-2-3-4.7-3-7.5v-3.7v-2.8c0-6-4.9-10.8-10.8-10.8h-42.1
			c-6,0-10.8,4.9-10.8,10.8v2.8v3.7c0,2.8-1.1,5.5-3,7.5c-22.4,23.9-25.4,66.3-25.8,87.4c-0.1,4.5,2.6,8.7,6.9,10.3
			c11.6,4.6,31.7,8.1,53.9,8c22.2,0.1,42.2-3.4,53.9-8C183.9,202.4,186.6,198.3,186.5,193.8z"/>
		<g>
			<rect x="154.8" y="154.9" class="st2" width="17.1" height="4.6"/>
		</g>
		<path class="st2" d="M153,112.5H98.6c-1.9,0-3.6,1.1-4.4,2.7c-2.3,4.6-7,14.2-10.1,21.3c-1.4,3.3,1,6.9,4.5,6.9H163
			c3.6,0,5.9-3.6,4.5-6.9c-3.1-7.1-7.8-16.6-10.1-21.3C156.6,113.6,154.9,112.5,153,112.5z"/>
		<g>
			<rect x="156.8" y="168.4" class="st2" width="17.1" height="4.6"/>
		</g>
		<g>
			<rect x="158.7" y="181.9" class="st2" width="17.1" height="4.6"/>
		</g>
	</g>
	<g>
		<line class="st3" x1="117" y1="33.6" x2="117" y2="33.6"/>
		<g>
			<path class="st4" d="M188.4,147.9c1.5,0,4.3,0,7.7,0c-0.4-34.7-18.2-65-27.3-66.8c-13.4-2.6-21.7-2.3-21.7-2.3l0.4,13.4
				c4.1,0.3,12.7-1.4,17.3,2.4C171.1,99.7,185.5,118.4,188.4,147.9z"/>
			<path class="st4" d="M94,67.9h47.3c0,0-14.1-15.2-56.3-13.5C94,64.5,94,67.9,94,67.9z"/>
			<path class="st4" d="M183.2,187.3c-0.4-21.1-3.4-63.5-25.8-87.4c-1.9-2-3-4.7-3-7.5v-3.7V86c0-6-4.9-10.8-10.8-10.8h-42.1
				c-6,0-10.8,4.9-10.8,10.8v2.8v3.7c0,2.8-1.1,5.5-3,7.5c-22.4,23.9-25.4,66.3-25.8,87.4c-0.1,4.5,2.6,8.7,6.9,10.3
				c11.6,4.6,31.7,8.1,53.9,8c22.2,0.1,42.2-3.4,53.9-8C180.6,196,183.3,191.9,183.2,187.3z"/>
			<g>
				<rect x="151.5" y="148.5" class="st5" width="17.1" height="4.6"/>
			</g>
			<path class="st6" d="M149.7,106.1H95.3c-1.9,0-3.6,1.1-4.4,2.7c-2.3,4.6-7,14.2-10.1,21.3c-1.4,3.3,1,6.9,4.5,6.9h74.4
				c3.6,0,5.9-3.6,4.5-6.9c-3.1-7.1-7.8-16.6-10.1-21.3C153.3,107.1,151.6,106.1,149.7,106.1z"/>
			<g>
				<rect x="153.4" y="161.9" class="st5" width="17.1" height="4.6"/>
			</g>
			<g>
				<rect x="155.4" y="175.4" class="st5" width="17.1" height="4.6"/>
			</g>
		</g>
		<g>
			<path class="st7" d="M90.8,198.9v-36l1-0.5c0.4-0.2,9-4.6,15.2-1.5c3,1.5,4.9,4.4,5.6,8.5c1.8,13.8-18.1,27-18.9,27.6L90.8,198.9
				z M94.7,165.3v26.3c5.2-4.1,15.3-13.1,14.2-21.6c-0.5-2.9-1.7-4.7-3.5-5.7C102.2,162.7,97.3,164.2,94.7,165.3z"/>
		</g>
		<g>
			<rect x="56.2" y="139.8" class="st8" width="3.9" height="15.4"/>
		</g>
		<g>
			<rect x="42.4" y="146.3" class="st8" width="3.9" height="8.8"/>
		</g>
		<g>
			<rect x="70.4" y="146.3" class="st8" width="3.9" height="8.8"/>
		</g>
		<g>
			<rect x="34.6" y="214.2" class="st9" width="47.5" height="3.9"/>
		</g>
		<rect x="22.3" y="162" class="st7" width="72" height="8.5"/>
		<polygon class="st7" points="22.3,174.4 22.3,193 22.3,195.5 36,210.4 40.3,210.4 76.3,210.4 80.7,210.4 94.3,195.5 94.3,193 
			94.3,174.4 		"/>
		<path class="st2" d="M86.4,132.6c0,0,33.6-9.3,71.5,0H86.4z"/>
	</g>
</g>
</svg>
