<?xml version="1.0" encoding="utf-8"?>
<!-- Generator: Adobe Illustrator 22.1.0, SVG Export Plug-In . SVG Version: 6.00 Build 0)  -->
<svg version="1.1" id="圖層_1" xmlns="http://www.w3.org/2000/svg" xmlns:xlink="http://www.w3.org/1999/xlink" x="0px" y="0px"
	 viewBox="0 0 240 240" style="enable-background:new 0 0 240 240;" xml:space="preserve">
<style type="text/css">
	.st0{fill:#EFEFEF;}
	.st1{fill:#E5E4E4;}
	.st2{fill:#4EAEA4;stroke:#656666;stroke-width:3;stroke-miterlimit:10;}
	.st3{fill:#FFFFFF;stroke:#656666;stroke-width:3;stroke-miterlimit:10;}
	.st4{fill:none;stroke:#FFFFFF;stroke-width:3;stroke-miterlimit:10;}
	.st5{fill:#656666;}
</style>
<g>
	<g>
		<ellipse transform="matrix(0.7071 -0.7071 0.7071 0.7071 -49.7056 120)" class="st0" cx="120" cy="120" rx="119.6" ry="119.6"/>
	</g>
	<ellipse transform="matrix(0.7071 -0.7071 0.7071 0.7071 -49.7056 120)" class="st1" cx="120" cy="120" rx="88.5" ry="88.5"/>
	<path class="st2" d="M121.1,52.4l19.3,39c0.5,1,1.5,1.8,2.6,1.9l43.1,6.3c2.9,0.4,4,4,1.9,6L156.8,136c-0.8,0.8-1.2,2-1,3.1
		l7.4,42.9c0.5,2.9-2.5,5.1-5.1,3.7l-38.5-20.3c-1-0.5-2.2-0.5-3.3,0l-38.5,20.3c-2.6,1.4-5.6-0.8-5.1-3.7l7.4-42.9
		c0.2-1.1-0.2-2.3-1-3.1l-31.2-30.4c-2.1-2-0.9-5.6,1.9-6l43.1-6.3c1.1-0.2,2.1-0.9,2.6-1.9l19.3-39
		C116.1,49.8,119.8,49.8,121.1,52.4z"/>
	<path class="st3" d="M193.2,150.7h-22c-1.2,0-2.2-1-2.2-2.2v-22c0-1.2-1-2.2-2.2-2.2h-9.5c-1.2,0-2.2,1-2.2,2.2v22
		c0,1.2-1,2.2-2.2,2.2h-22c-1.2,0-2.2,1-2.2,2.2v9.5c0,1.2,1,2.2,2.2,2.2h22c1.2,0,2.2,1,2.2,2.2v22c0,1.2,1,2.2,2.2,2.2h9.5
		c1.2,0,2.2-1,2.2-2.2v-22c0-1.2,1-2.2,2.2-2.2h22c1.2,0,2.2-1,2.2-2.2V153C195.4,151.7,194.4,150.7,193.2,150.7z"/>
	<line class="st4" x1="118.4" y1="65.1" x2="105.9" y2="92"/>
	<line class="st4" x1="60.9" y1="106.8" x2="91.5" y2="102.1"/>
	<path class="st5" d="M196.3,153.8h-22c-1.2,0-2.2-1-2.2-2.2v-22c0-1.2-1-2.2-2.2-2.2h-9.5c-1.2,0-2.2,1-2.2,2.2v22
		c0,1.2-1,2.2-2.2,2.2h-22c-1.2,0-2.2,1-2.2,2.2v9.5c0,1.2,1,2.2,2.2,2.2h22c1.2,0,2.2,1,2.2,2.2v22c0,1.2,1,2.2,2.2,2.2h9.5
		c1.2,0,2.2-1,2.2-2.2v-22c0-1.2,1-2.2,2.2-2.2h22c1.2,0,2.2-1,2.2-2.2V156C198.5,154.8,197.5,153.8,196.3,153.8z"/>
	<path class="st3" d="M193.2,150.7h-22c-1.2,0-2.2-1-2.2-2.2v-22c0-1.2-1-2.2-2.2-2.2h-9.5c-1.2,0-2.2,1-2.2,2.2v22
		c0,1.2-1,2.2-2.2,2.2h-22c-1.2,0-2.2,1-2.2,2.2v9.5c0,1.2,1,2.2,2.2,2.2h22c1.2,0,2.2,1,2.2,2.2v22c0,1.2,1,2.2,2.2,2.2h9.5
		c1.2,0,2.2-1,2.2-2.2v-22c0-1.2,1-2.2,2.2-2.2h22c1.2,0,2.2-1,2.2-2.2V153C195.4,151.7,194.4,150.7,193.2,150.7z"/>
</g>
</svg>
