<?xml version="1.0" encoding="utf-8"?>
<!-- Generator: Adobe Illustrator 22.1.0, SVG Export Plug-In . SVG Version: 6.00 Build 0)  -->
<svg version="1.1" id="圖層_1" xmlns="http://www.w3.org/2000/svg" xmlns:xlink="http://www.w3.org/1999/xlink" x="0px" y="0px"
	 viewBox="0 0 240 240" style="enable-background:new 0 0 240 240;" xml:space="preserve">
<style type="text/css">
	.st0{fill:#EFEFEF;}
	.st1{fill:#E5E4E4;}
	.st2{fill:none;stroke:#4EAEA4;stroke-miterlimit:10;}
	.st3{fill:#4EAEA4;stroke:#656666;stroke-width:3;stroke-miterlimit:10;}
	.st4{fill:#FFFFFF;stroke:#656666;stroke-width:3;stroke-miterlimit:10;}
	.st5{fill:none;stroke:#FFFFFF;stroke-width:3;stroke-miterlimit:10;}
	.st6{fill:none;stroke:#FFFFFF;stroke-width:3;stroke-miterlimit:10;stroke-dasharray:8.5071,8.5071;}
	.st7{fill:#656666;}
	.st8{fill:none;stroke:#656666;stroke-width:3;stroke-miterlimit:10;}
</style>
<g>
	<g>
		<ellipse transform="matrix(0.7071 -0.7071 0.7071 0.7071 -49.7056 120)" class="st0" cx="120" cy="120" rx="119.6" ry="119.6"/>
	</g>
	<ellipse transform="matrix(0.7071 -0.7071 0.7071 0.7071 -49.7056 120)" class="st1" cx="120" cy="120" rx="88.5" ry="88.5"/>
	<path class="st2" d="M39.8,135.2"/>
	<g>
		<path class="st3" d="M193.2,78.9v-2H182h-63.2h-9.6H107h-3.8H62.7v2v19.8v0.8V121v0.8v21.6v0.5v19.8v2h40.5h3.8h2.3h9.6H182h11.2
			v-2c-4-1-7-4.7-7-9c0-3.8,2.3-7,5.5-8.5c0.9-0.4,1.5-1.2,1.5-2.2v-0.6c0-1-0.6-1.8-1.5-2.2c-3.3-1.5-5.5-4.7-5.5-8.5
			c0-3.8,2.3-7,5.5-8.5c0.9-0.4,1.5-1.2,1.5-2.2V121c0-1-0.6-1.8-1.5-2.2c-3.3-1.5-5.5-4.7-5.5-8.5c0-3.8,2.3-7,5.5-8.5
			c0.9-0.4,1.5-1.2,1.5-2.2v-0.9c0-1-0.6-1.8-1.5-2.2c-3.3-1.5-5.5-4.7-5.5-8.5C186.2,83.6,189.2,80,193.2,78.9z"/>
		<path class="st4" d="M109.7,108.2c-0.2,1-0.3,2-0.3,3.2c0,2.5,0.5,4.6,1.6,6.3c1.1,1.7,2.4,3.1,4,4.2c1.6,1.1,3.4,2,5.4,2.7
			c2,0.7,3.9,1.3,5.7,1.9c3.2,1,5.4,2,6.5,3.1c1.1,1,1.6,2.2,1.6,3.4c0,1.4-0.6,2.5-1.7,3.2c-1.1,0.7-2.2,1.1-3.4,1.1
			c-1.2,0-2.1-0.2-2.8-0.7c-0.7-0.5-1.2-1-1.5-1.6c-0.4-0.6-0.6-1.2-0.7-1.7c-0.1-0.6-0.2-1-0.2-1.2h-15.1v0.8c0,1.5,0.4,3,1.1,4.6
			c0.7,1.6,1.7,2.9,2.8,4.1c0.9,0.9,1.8,1.7,2.8,2.3c1,0.6,1.9,1.1,2.9,1.4c1,0.4,1.9,0.6,2.7,0.8c0.9,0.2,1.6,0.3,2.3,0.5v4.5
			c0,1.6,1.3,2.8,2.8,2.8h6.3c1.6,0,2.8-1.3,2.8-2.8v-2.7c0-1.2,0.8-2.3,1.9-2.6c2.5-0.8,4.5-1.9,6.1-3.1c1.9-1.5,3.3-3.1,4.1-4.6
			c0.9-1.5,1.4-2.9,1.5-4.1c0.1-1.2,0.2-2,0.2-2.3c0-0.9-0.2-2-0.5-3.3c-0.3-1.3-1-2.5-1.9-3.8c-0.9-1.3-2.3-2.6-4-3.7
			c-1.7-1.2-3.9-2.2-6.6-3.1c-1.9-0.6-3.7-1.2-5.1-1.7c-1.5-0.5-2.7-1-3.8-1.6c-1-0.5-1.8-1.1-2.3-1.8c-0.5-0.6-0.7-1.3-0.7-2.2
			c0-0.1,0-0.2,0-0.2c0-1.1,0.4-2,1.2-2.8c0.8-0.8,2-1.2,3.5-1.2c1.1,0,2,0.2,2.6,0.5c0.6,0.4,1.1,0.8,1.4,1.3
			c0.3,0.5,0.5,1,0.7,1.5c0.1,0.5,0.2,0.9,0.2,1.2h10.6c1.8,0,3.2-1.7,2.8-3.4c-0.1-0.6-0.3-1.2-0.5-1.7c-0.6-1.5-1.5-2.9-2.6-4.1
			c-1.1-1.2-2.4-2.1-3.9-2.9c-0.9-0.5-1.9-0.9-2.9-1.2c-1.2-0.4-2-1.4-2-2.7v-2.3c0-1.6-1.3-2.8-2.8-2.8h-6.3
			c-1.6,0-2.8,1.3-2.8,2.8v2.4c0,1.2-0.8,2.3-1.9,2.7c-1.1,0.3-2.1,0.7-3.1,1.2c-1.7,0.7-3.2,1.7-4.5,2.9c-1.3,1.2-2.4,2.6-3.3,4.3
			C110.2,106.3,109.9,107.2,109.7,108.2z"/>
		<g>
			<g>
				<line class="st5" x1="167.7" y1="78.8" x2="167.7" y2="83.3"/>
				<line class="st6" x1="167.7" y1="91.8" x2="167.7" y2="155.6"/>
				<line class="st5" x1="167.7" y1="159.8" x2="167.7" y2="164.3"/>
			</g>
		</g>
		<g>
			<g>
				<line class="st5" x1="85.4" y1="78.8" x2="85.4" y2="83.3"/>
				<line class="st6" x1="85.4" y1="91.8" x2="85.4" y2="155.6"/>
				<line class="st5" x1="85.4" y1="159.8" x2="85.4" y2="164.3"/>
			</g>
		</g>
	</g>
	<path class="st7" d="M88,191.9H54.8c-5.5,0-10-4.5-10-10v-68.8c0-5.5,4.5-10,10-10H88c5.5,0,10,4.5,10,10v68.8
		C98,187.4,93.6,191.9,88,191.9z"/>
	<g>
		<path class="st4" d="M85.1,188.7H52c-5.5,0-10-4.5-10-10v-68.6c0-5.5,4.5-10,10-10h33.1c5.5,0,10,4.5,10,10v68.6
			C95.1,184.2,90.6,188.7,85.1,188.7z"/>
		<line class="st8" x1="42" y1="114" x2="95.1" y2="114"/>
		<line class="st8" x1="42" y1="173" x2="95.1" y2="173"/>
		<line class="st8" x1="62.7" y1="181.2" x2="73.5" y2="181.2"/>
	</g>
	<line class="st8" x1="57.5" y1="123.8" x2="51.5" y2="132.8"/>
	<line class="st8" x1="65.5" y1="123.8" x2="50.2" y2="146.8"/>
</g>
</svg>
