<?xml version="1.0" encoding="utf-8"?>
<!-- Generator: Adobe Illustrator 22.1.0, SVG Export Plug-In . SVG Version: 6.00 Build 0)  -->
<svg version="1.1" id="圖層_1" xmlns="http://www.w3.org/2000/svg" xmlns:xlink="http://www.w3.org/1999/xlink" x="0px" y="0px"
	 viewBox="0 0 240 240" style="enable-background:new 0 0 240 240;" xml:space="preserve">
<style type="text/css">
	.st0{fill:#EFEFEF;}
	.st1{fill:#E5E4E4;}
	.st2{fill:#656666;}
	.st3{fill:#FFFFFF;stroke:#656666;stroke-width:3;stroke-miterlimit:10;}
	.st4{fill:#4EAEA4;stroke:#656666;stroke-width:3;stroke-miterlimit:10;}
	.st5{fill:none;stroke:#FFFFFF;stroke-width:4;stroke-miterlimit:10;}
	.st6{fill:none;stroke:#FFFFFF;stroke-width:4;stroke-linecap:round;stroke-miterlimit:10;}
</style>
<g>
	<circle class="st0" cx="120" cy="120" r="119.6"/>
	<circle class="st1" cx="120" cy="120" r="88.5"/>
	<path class="st2" d="M184.4,82.4h-18.7h-33.4c-11.1,0-20.1,7.1-20.7,18h-0.1c-0.6-10.9-9.6-18-20.7-18H57.5H38.7c-1.1,0-2,0.9-2,2
		v18.7v59.5v11.5c0,1.1,0.9,2,2,2h18.7h33.4c6,0,13,2.5,16.8,6.6c0.4,0.4,0.9,0.7,1.5,0.7h2.4h2.4c0.6,0,1.1-0.2,1.5-0.7
		c3.8-4.1,10.8-6.6,16.8-6.6h33.4h18.7c1.1,0,2-0.9,2-2v-11.5v-59.5V84.4C186.4,83.3,185.5,82.4,184.4,82.4z"/>
	<path class="st3" d="M184.3,76.2h-18.7h-33.4c-11.1,0-20.1,7.1-20.7,18h-0.1c-0.6-10.9-9.6-18-20.7-18H57.3H38.6c-1.1,0-2,0.9-2,2
		V97v59.5v11.5c0,1.1,0.9,2,2,2h18.7h33.4c6,0,13,2.5,16.8,6.6c0.4,0.4,0.9,0.7,1.5,0.7h2.4h2.4c0.6,0,1.1-0.2,1.5-0.7
		c3.8-4.1,10.8-6.6,16.8-6.6h33.4h18.7c1.1,0,2-0.9,2-2v-11.5V97V78.2C186.3,77.1,185.4,76.2,184.3,76.2z"/>
	<rect x="53.2" y="104.9" class="st2" width="41.7" height="4.2"/>
	<rect x="53.2" y="124.6" class="st2" width="41.7" height="4.2"/>
	<rect x="53.2" y="144.3" class="st2" width="41.7" height="4.2"/>
	<rect x="127.7" y="104.9" class="st2" width="41.7" height="4.2"/>
	<rect x="129.8" y="124.6" class="st2" width="41.7" height="4.2"/>
	<rect x="127.7" y="144.3" class="st2" width="41.7" height="4.2"/>
	<g>
		<path class="st4" d="M203.6,125L203.6,125c3.2-5.6,5-12.1,5-19c0-21.4-17.3-38.7-38.7-38.7c-21.4,0-38.7,17.3-38.7,38.7
			c0,6.9,1.8,13.4,5,19c1.5,2.6,3.2,5,5.2,7.2c6.8,10.3,10.1,19.8,10.1,19.8s18.3,0,36.4,0c1.9-5.3,8.9-16.5,12.9-22.7
			C201.9,127.9,202.8,126.5,203.6,125C203.6,125,203.6,125,203.6,125z"/>
		<path class="st4" d="M186.9,163.9h-33.9c-0.8,0-1.5-0.7-1.5-1.5v-4.6c0-0.8,0.7-1.5,1.5-1.5h33.9c0.8,0,1.5,0.7,1.5,1.5v4.6
			C188.4,163.3,187.7,163.9,186.9,163.9z"/>
		<path class="st4" d="M187.8,171.2h-35.7c2.2,4.6,6.2,8.3,11,10c0,0,0,0.1,0,0.1v3.5c0,1.2,1,2.1,2.1,2.1h9.4c1.2,0,2.1-1,2.1-2.1
			v-3.5c0,0,0-0.1,0-0.1C181.6,179.4,185.5,175.8,187.8,171.2z"/>
	</g>
	<line class="st5" x1="170.6" y1="122.9" x2="170.6" y2="147.9"/>
	<path class="st6" d="M141.6,101c0,0,6.1-16.5,20.7-22.9"/>
</g>
</svg>
