<?xml version="1.0" encoding="utf-8"?>
<!-- Generator: Adobe Illustrator 22.1.0, SVG Export Plug-In . SVG Version: 6.00 Build 0)  -->
<svg version="1.1" id="圖層_1" xmlns="http://www.w3.org/2000/svg" xmlns:xlink="http://www.w3.org/1999/xlink" x="0px" y="0px"
	 viewBox="0 0 240 240" style="enable-background:new 0 0 240 240;" xml:space="preserve">
<style type="text/css">
	.st0{fill:#EFEFEF;}
	.st1{fill:#E5E4E4;}
	.st2{fill:#656666;}
	.st3{fill:#FFFFFF;stroke:#656666;stroke-width:3;stroke-miterlimit:10;}
	.st4{fill:#4EAEA4;stroke:#656666;stroke-width:3;stroke-miterlimit:10;}
	.st5{fill:none;stroke:#FFFFFF;stroke-width:4;stroke-linecap:round;stroke-miterlimit:10;}
	.st6{fill:none;stroke:#656666;stroke-width:3;stroke-miterlimit:10;}
	.st7{fill:none;stroke:#656666;stroke-width:4;stroke-miterlimit:10;}
</style>
<g>
	<circle class="st0" cx="120" cy="120" r="119.6"/>
	<circle class="st1" cx="120" cy="120" r="88.5"/>
	<g>
		<circle class="st2" cx="160.1" cy="100.9" r="43.7"/>
		<circle class="st3" cx="155.7" cy="99.6" r="43.7"/>
		<path class="st2" d="M160.3,120.6c4.3,0,8.2-2,11.2-5.4l-4.5-4.5c-1.6,1.9-3.5,3-5.6,3c-4.8,0-7.4-3.3-8.5-8.1h11.3v-3.9h-11.9
			c0-0.7-0.1-1.5-0.1-2.2c0-0.6,0-1.2,0.1-1.9h14.1v-3.9h-13.6c1.1-5,3.7-8.5,8.6-8.5c1.8,0,3.6,0.9,5,2.3l4.4-4.4
			c-2.9-2.9-6.5-4.7-10.5-4.7c-7.6,0-14.1,6.4-16.1,15.2H140v3.9h3.7c0,0.6-0.1,1.3-0.1,1.9c0,0.7,0,1.4,0.1,2.1H140v3.9h4.3
			C146.4,114.3,152.8,120.6,160.3,120.6z"/>
		<circle class="st2" cx="85.3" cy="117.6" r="43.7"/>
		<g>
			<circle class="st3" cx="79.9" cy="115.6" r="43.7"/>
			<path class="st2" d="M90.4,126.7c-0.7,0.2-1.6,0.3-2.6,0.3c-1.2,0-2.8-0.2-4.8-0.7c-1.5-0.4-2.7-0.5-3.6-0.5
				c-0.7,0-1.6,0.1-2.6,0.3c0.9-1,1.5-2,1.9-2.9c0.5-1.2,0.7-2.6,0.8-4.1h7.2v-6.4h-8.2c-0.7-2.3-1.2-3.8-1.3-4.4
				c-0.1-0.6-0.2-1.3-0.2-1.9c0-1.3,0.3-2.2,1-2.9c0.6-0.7,1.5-1,2.5-1c0.9,0,1.6,0.3,2.3,0.9c0.7,0.6,1.3,1.9,1.8,3.8l10.3-1.6
				c-0.5-2.3-1.3-4.2-2.6-5.8c-1.2-1.6-2.8-2.8-4.6-3.4c-1.8-0.7-4.3-1-7.3-1c-3.3,0-5.9,0.4-7.9,1.2c-1.9,0.8-3.5,2.1-4.7,3.9
				c-1.2,1.8-1.8,3.8-1.8,6c0,0.8,0.1,1.6,0.2,2.1c0.1,0.4,0.5,1.8,1.2,4.1h-4v6.4H69c0,0.7,0.1,1.1,0.1,1.2c0,2.7-1.9,5.4-5.7,8.1
				l3.5,7.7c2.8-1.6,5.4-2.5,7.7-2.5c0.8,0,1.5,0.1,2.2,0.2c0.7,0.1,2.5,0.6,5.3,1.4c2.2,0.6,4.1,0.9,5.8,0.9c1.5,0,3-0.2,4.3-0.5
				c0.2-0.1,0.5-0.2,0.8-0.3c1.1-1,2.2-1.9,3.3-2.8l-3.1-6.8C92.1,126.2,91.1,126.5,90.4,126.7z"/>
		</g>
		<g>
			<circle class="st4" cx="129" cy="167.2" r="43.7"/>
			<path class="st3" d="M141.6,169.7c-0.7-0.9-1.6-1.8-2.8-2.6c-1.2-0.8-2.8-1.6-4.7-2.2c-1.4-0.4-2.6-0.8-3.6-1.2
				c-1-0.4-1.9-0.7-2.6-1.1c-0.7-0.4-1.3-0.8-1.6-1.3c-0.3-0.4-0.5-0.9-0.5-1.5c0-0.1,0-0.1,0-0.2c0-0.7,0.3-1.4,0.9-2
				c0.6-0.6,1.4-0.9,2.5-0.9c0.8,0,1.4,0.1,1.8,0.4c0.4,0.3,0.8,0.6,1,0.9c0.2,0.4,0.4,0.7,0.5,1.1c0.1,0.4,0.1,0.6,0.1,0.8h9.6
				c0-1.3-0.2-2.5-0.6-3.6c-0.4-1.1-1-2-1.8-2.9c-0.8-0.8-1.7-1.5-2.8-2c-1.1-0.5-2.2-0.9-3.5-1.2v-5.2h-8.4v5.2
				c-1.2,0.3-2.4,0.7-3.6,1.2c-1.2,0.5-2.2,1.2-3.2,2c-0.9,0.8-1.7,1.8-2.3,3c-0.3,0.6-0.5,1.2-0.7,1.9c-0.2,0.7-0.2,1.4-0.2,2.2
				c0,1.8,0.4,3.2,1.1,4.4c0.7,1.2,1.7,2.2,2.8,2.9c1.1,0.8,2.4,1.4,3.8,1.9c1.4,0.5,2.7,0.9,4,1.3c2.3,0.7,3.8,1.4,4.6,2.2
				c0.8,0.7,1.2,1.5,1.2,2.4c0,1-0.4,1.7-1.2,2.3c-0.8,0.5-1.6,0.8-2.4,0.8c-0.8,0-1.5-0.2-2-0.5c-0.5-0.3-0.8-0.7-1.1-1.1
				c-0.2-0.4-0.4-0.8-0.5-1.2c-0.1-0.4-0.1-0.7-0.1-0.8h-10.6v0.6c0,1.1,0.3,2.1,0.8,3.2c0.5,1.1,1.2,2.1,2,2.9
				c0.6,0.6,1.3,1.2,2,1.6c0.7,0.4,1.4,0.7,2.1,1c0.7,0.3,1.3,0.4,1.9,0.6c0.6,0.1,1.2,0.2,1.6,0.3v5.2h8.4v-5.4
				c2.4-0.6,4.3-1.5,5.6-2.6c1.3-1.1,2.3-2.2,2.9-3.2c0.6-1.1,1-2,1.1-2.9c0.1-0.9,0.2-1.4,0.2-1.6c0-0.7-0.1-1.4-0.3-2.3
				C142.7,171.5,142.2,170.6,141.6,169.7z"/>
		</g>
		<path class="st5" d="M95.9,158.7c0,0,6.1-16.5,20.7-22.9"/>
		<path class="st6" d="M46.6,106.7c0,0,6.1-16.5,20.7-22.9"/>
		<path class="st6" d="M121.8,93.9c0,0,4.4-17.1,18.4-24.9"/>
		<line class="st7" x1="105.6" y1="215.9" x2="151.7" y2="215.9"/>
	</g>
</g>
</svg>
