<?xml version="1.0" encoding="utf-8"?>
<!-- Generator: Adobe Illustrator 22.1.0, SVG Export Plug-In . SVG Version: 6.00 Build 0)  -->
<svg version="1.1" id="圖層_1" xmlns="http://www.w3.org/2000/svg" xmlns:xlink="http://www.w3.org/1999/xlink" x="0px" y="0px"
	 viewBox="0 0 240 240" style="enable-background:new 0 0 240 240;" xml:space="preserve">
<style type="text/css">
	.st0{fill:#EFEFEF;}
	.st1{fill:#E5E4E4;}
	.st2{fill:#656666;}
	.st3{fill:#FFFFFF;stroke:#656666;stroke-width:3;stroke-miterlimit:10;}
	.st4{fill:#4EAEA4;stroke:#656666;stroke-width:3;stroke-miterlimit:10;}
	.st5{fill:#FFFFFF;}
</style>
<g>
	<g>
		<ellipse transform="matrix(0.7071 -0.7071 0.7071 0.7071 -49.7056 120)" class="st0" cx="120" cy="120" rx="119.6" ry="119.6"/>
	</g>
	<ellipse transform="matrix(0.7071 -0.7071 0.7071 0.7071 -49.7056 120)" class="st1" cx="120" cy="120" rx="88.5" ry="88.5"/>
	<path class="st2" d="M193.8,87.4h-18.7h-33.4c-11.1,0-20.1,7.1-20.7,18H121c-0.6-10.9-9.6-18-20.7-18H66.9H48.2c-1.1,0-2,0.9-2,2
		v18.7v59.5v11.5c0,1.1,0.9,2,2,2h18.7h33.4c6,0,13,2.5,16.8,6.6c0.4,0.4,0.9,0.7,1.5,0.7h2.4h2.4c0.6,0,1.1-0.2,1.5-0.7
		c3.8-4.1,10.8-6.6,16.8-6.6h33.4h18.7c1.1,0,2-0.9,2-2v-11.5v-59.5V89.4C195.8,88.3,194.9,87.4,193.8,87.4z"/>
	<path class="st3" d="M193.7,81.2h-18.7h-33.4c-11.1,0-20.1,7.1-20.7,18h-0.1c-0.6-10.9-9.6-18-20.7-18H66.7H48c-1.1,0-2,0.9-2,2
		v18.7v59.5v11.5c0,1.1,0.9,2,2,2h18.7h33.4c6,0,13,2.5,16.8,6.6c0.4,0.4,0.9,0.7,1.5,0.7h2.4h2.4c0.6,0,1.1-0.2,1.5-0.7
		c3.8-4.1,10.8-6.6,16.8-6.6h33.4h18.7c1.1,0,2-0.9,2-2v-11.5v-59.5V83.2C195.7,82.1,194.8,81.2,193.7,81.2z"/>
	<rect x="62.6" y="109.9" class="st2" width="41.7" height="4.2"/>
	<rect x="62.6" y="129.6" class="st2" width="41.7" height="4.2"/>
	<rect x="62.6" y="149.3" class="st2" width="41.7" height="4.2"/>
	<rect x="137.1" y="109.9" class="st2" width="41.7" height="4.2"/>
	<rect x="137.1" y="129.6" class="st2" width="41.7" height="4.2"/>
	<rect x="137.1" y="149.3" class="st2" width="41.7" height="4.2"/>
	<g>
		<g>
			<path class="st2" d="M105.1,190.6c-5.3,6.9-16.7,18.1-26.3,12.3c-1.2-0.7-2.5-1.9-3.1-3.1c-1.6-3.5,1-5.5,4.5-4.5
				c3.6,1.1,5.1,6.7,4.8,9.8c-0.5,7.2-6.4,12.6-13,14.6c-5.3,1.6-15.9,1.2-18.9-4.8c-1.6-3.2,1.2-6,4.2-4.2c1.4,0.9,2.6,2.5,3.4,3.9
				c1.9,3.4,2.2,7,0.1,10.3c-6.4,10.3-22.6,11.1-32.6,7.2c-3-1.2-4.3,3.7-1.3,4.8c12.6,4.9,38.2,2.1,40.3-15.2
				c0.8-6.4-3.8-15.3-10.7-16.6c-7.1-1.3-10.9,6.7-7.7,12.4c3.9,6.9,14.1,8.8,21.3,7.7c8.4-1.2,16.3-6.8,19-15
				c2.4-7.3,0.1-16.5-7.6-19.8c-6.2-2.6-12.3,2.2-11.1,8.9c1.4,7.9,10.3,10.9,17.3,9.7c8.5-1.5,15.8-8.3,21-14.8
				C110.6,191.7,107.1,188.1,105.1,190.6L105.1,190.6z"/>
		</g>
	</g>
	<path class="st4" d="M136.2,174.7c-5.5-8.2-12.4-15-18-20.3c-1.4-1.3-2.9-2.4-4.4-3.5c-1.9-1.4-3.6-2.8-6.1-2.7
		c-2.5,0.1-5,1.2-7.4,2c-0.7,0.2-6.5,2.6-6.8,2.5c-2.2-2-5.9-6.5-12.5-16.7c-6.5-10.2-9.9-17.9-10.8-20.8c2.5-2.4,4.9-5,7.1-7.7
		c1.3-1.7,3.1-3.5,3.3-5.7c0.2-1.8-0.5-3.8-0.9-5.5c-0.9-4.2-2.4-8.2-4-12.2c-1.4-3.6-2.8-7.2-4.5-10.6c-0.8-1.7-1.7-4-3.1-5.3
		c-1.2-1.1-2.7-2.1-4.3-2.1c-6,0-11.8,2.2-16.1,5.3c-4.3,3-7.5,6.3-9.1,11.3c-1.4,4.2-1.5,8.8-1.2,13.2c0.8,10.3,4.2,20.4,8.2,29.9
		c7.5,17.9,17.9,34,31.3,48.2c8.5,9,18.9,18.5,31.3,21.3c3,0.7,6.2,1.1,9.2,0.6c2.2-0.3,4.1-1.4,6-2.5c4.7-2.7,9.1-6.5,11.2-11.6
		C135.5,180.2,137.2,176.3,136.2,174.7z"/>
	<path class="st5" d="M45.8,89.4C45,93.4,45,98,46,103.3c1.6,8.7,5,16.8,8.5,23.6l3-1.5c-3.3-6.6-6.6-14.4-8.2-22.7
		c-0.9-4.9-1-9-0.2-12.6c0.8-3.8,2.7-6.9,6.1-10.2l-1.7-3C49.1,80.8,46.8,84.6,45.8,89.4z"/>
</g>
</svg>
