<?xml version="1.0" encoding="utf-8"?>
<!-- Generator: Adobe Illustrator 22.1.0, SVG Export Plug-In . SVG Version: 6.00 Build 0)  -->
<svg version="1.1" id="圖層_1" xmlns="http://www.w3.org/2000/svg" xmlns:xlink="http://www.w3.org/1999/xlink" x="0px" y="0px"
	 viewBox="0 0 240 240" style="enable-background:new 0 0 240 240;" xml:space="preserve">
<style type="text/css">
	.st0{fill:#EFEFEF;}
	.st1{fill:#E5E4E4;}
	.st2{fill:#656666;}
	.st3{fill:none;stroke:#4EAEA4;stroke-miterlimit:10;}
	.st4{fill:#FFFFFF;}
	.st5{fill:none;}
	.st6{fill:#4BB5AB;}
	.st7{font-family:'Roboto-Medium';}
	.st8{font-size:29.6987px;}
	.st9{fill:none;stroke:#FFFFFF;stroke-width:3;stroke-miterlimit:10;}
</style>
<g>
	<g>
		<ellipse transform="matrix(0.7071 -0.7071 0.7071 0.7071 -49.7056 120)" class="st0" cx="120" cy="120" rx="119.6" ry="119.6"/>
	</g>
	<ellipse transform="matrix(0.7071 -0.7071 0.7071 0.7071 -49.7056 120)" class="st1" cx="120" cy="120" rx="88.5" ry="88.5"/>
	<path class="st2" d="M68.1,86.2v77.3v1.5v1.5l-7.4,3.5l-16.3,7.7c0,1.7-0.9,2.2-1.5,3.7c3.3,2.6,5.6,4,9.2,4.7
		c0.3,0.1,0.7,0.1,1,0.1h12.2h1.5h118.9c4.6,0,8.4-3.8,8.5-8.4v-3v-5.1v-2.5v-81H68.1z"/>
	<g>
		<path class="st3" d="M39.8,135.2"/>
		<path class="st4" d="M188.2,170.9v-2.7c0,0,0-0.1,0-0.1v3C188.2,171,188.2,171,188.2,170.9z"/>
		<path class="st2" d="M191.2,168.2c0,0,0-0.1,0-0.1v3c0,0,0-0.1,0-0.1V168.2z"/>
		<path class="st4" d="M62,79.5v77.3v1.5v1.5v11.2c0,1.8-0.4,3.5-1.2,5c-0.4,0.8-0.9,1.6-1.5,2.3c-0.3,0.4-0.7,0.8-1.1,1.1h1.1h1.5
			h118.9c4.6,0,8.4-3.8,8.5-8.4v-3V163v-2.5v-81H62z"/>
		<path class="st2" d="M189.7,170.9v-2.7c0,0,0-0.1,0-0.1v3C189.7,171,189.7,171,189.7,170.9z"/>
		<path class="st2" d="M62,76.5V78v1.5h126.2v81v2.5v5.1c0,0,0,0.1,0,0.1v2.7c0,0,0,0.1,0,0.1c-0.1,4.6-3.8,8.4-8.5,8.4H60.8h-1.5
			h-1.1c-0.1,0.1-0.3,0.2-0.4,0.4c-0.5,0.4-1.1,0.8-1.7,1.1c-1.7,1-3.6,1.5-5.7,1.5h7.3h121.9c1.9,0,3.6-0.5,5.2-1.2
			c0.8-0.4,1.6-0.9,2.3-1.5c0.4-0.3,0.7-0.7,1.1-1c0.6-0.6,1.1-1.3,1.5-2.1c0.9-1.6,1.5-3.5,1.5-5.6v-3V76.5H62z"/>
		<rect x="57.8" y="92.5" class="st4" width="1.2" height="64.2"/>
		<path class="st4" d="M59,159.7h-1.2v15.5c0.7-1.3,1.2-2.7,1.2-4.3V159.7z"/>
		<rect x="57.8" y="156.7" class="st4" width="1.2" height="1.5"/>
		<rect x="57.8" y="158.2" class="st4" width="1.2" height="1.5"/>
		<path class="st5" d="M57.8,156.7v1.5v1.5v15.5c0.7-1.3,1.2-2.7,1.2-4.3v-11.2v-1.5v-1.5V92.5h-1.2V156.7z"/>
		<path class="st4" d="M39.3,163v5.2v2.7c0,4.7,3.8,8.5,8.5,8.5h2.7c3.1,0,5.9-1.7,7.3-4.2v-15.5v-1.5v-1.5V92.5H51l0,10h-4.6
			l-3,6.9h-4.1v51.1V163z"/>
		<path class="st2" d="M59,156.7v1.5v1.5v11.2c0,1.6-0.4,3-1.2,4.3c-1.5,2.5-4.2,4.2-7.3,4.2h-2.7c-4.7,0-8.5-3.8-8.5-8.5v-2.7V163
			v-2.5v-51.1h-3v58.8v2.7c0,6.3,5.2,11.5,11.5,11.5h2.7c2.1,0,4-0.5,5.7-1.5c0.6-0.3,1.2-0.7,1.7-1.1c0.1-0.1,0.3-0.2,0.4-0.4
			c0.4-0.4,0.8-0.7,1.1-1.1c0.6-0.7,1.1-1.5,1.5-2.3c0.7-1.5,1.2-3.2,1.2-5v-11.2v-1.5v-1.5V76.5h-3V156.7z"/>
		<path class="st4" d="M46.4,168.2c0,1.3,1,2.3,2.3,2.3s2.3-1,2.3-2.3v-65.7h-4.6V168.2z"/>
		<path class="st2" d="M52.5,92.5H51v76.4c0,1.1-1,2-2.3,2s-2.3-0.9-2.3-2v-66.4h-1.5h-1.5v66.4c0,2.6,2.4,4.6,5.3,4.6
			s5.3-2.1,5.3-4.6V92.5H52.5z"/>
		<rect x="51" y="92.5" class="st2" width="8.9" height="3.2"/>
		<rect x="44.7" y="102.5" class="st2" width="8.9" height="3.2"/>
		<rect x="36.3" y="109.4" class="st2" width="8.9" height="3.2"/>
		<text transform="matrix(1 0 0 1 73.4504 112.5603)" class="st6 st7 st8">News</text>
		<rect x="130.9" y="120.3" class="st6" width="44.8" height="50.5"/>
		<rect x="74.2" y="131.3" class="st6" width="41.7" height="4.2"/>
		<rect x="74.2" y="145.5" class="st6" width="41.7" height="4.2"/>
		<rect x="74.2" y="159.7" class="st6" width="41.7" height="4.2"/>
	</g>
	<line class="st9" x1="145.3" y1="126.3" x2="139.3" y2="135.4"/>
	<line class="st9" x1="153.3" y1="126.3" x2="137.9" y2="149.4"/>
</g>
</svg>
