<?xml version="1.0" encoding="utf-8"?>
<!-- Generator: Adobe Illustrator 22.1.0, SVG Export Plug-In . SVG Version: 6.00 Build 0)  -->
<svg version="1.1" id="圖層_1" xmlns="http://www.w3.org/2000/svg" xmlns:xlink="http://www.w3.org/1999/xlink" x="0px" y="0px"
	 viewBox="0 0 123 86" style="enable-background:new 0 0 123 86;" xml:space="preserve">
<style type="text/css">
	.st0{fill:#DCDCDC;}
	.st1{fill:#FFFFFF;}
</style>
<g>
	<path class="st0" d="M118.5,0H42.8C19.2,0,0,19.2,0,42.8l0,0c0,23.5,19.2,42.8,42.8,42.8h75.7c1.6,0,3.1-0.1,4.7-0.3v-85
		C121.6,0.1,120.1,0,118.5,0z"/>
	<g>
		<path class="st1" d="M94.1,29.8H88h-2.8H59.3c-3.9,0-7,3.2-7,7v16.4h-6.1c-2.3,0-4.2-1.9-4.2-4.2V21.8c0-2.3,1.9-4.2,4.2-4.2h34.8
			c2.3,0,4.2,1.9,4.2,4.2V26H88v-4.2c0-3.9-3.2-7-7-7H46.2c-3.9,0-7,3.2-7,7v27.2c0,3.9,3.2,7,7,7h6.1v8c0,3.9,3.2,7,7,7h34.8
			c3.9,0,7-3.2,7-7V36.8C101.1,33,98,29.8,94.1,29.8z M98.3,64.1c0,2.3-1.9,4.2-4.2,4.2H59.3c-2.3,0-4.2-1.9-4.2-4.2v-8v-2.8V36.8
			c0-2.3,1.9-4.2,4.2-4.2h25.8H88h6.1c2.3,0,4.2,1.9,4.2,4.2V64.1z"/>
		<rect x="65" y="42.9" class="st1" width="24.4" height="2.8"/>
	</g>
</g>
</svg>
