<?xml version="1.0" encoding="utf-8"?>
<!-- Generator: Adobe Illustrator 22.1.0, SVG Export Plug-In . SVG Version: 6.00 Build 0)  -->
<svg version="1.1" id="圖層_1" xmlns="http://www.w3.org/2000/svg" xmlns:xlink="http://www.w3.org/1999/xlink" x="0px" y="0px"
	 viewBox="0 0 123 86" style="enable-background:new 0 0 123 86;" xml:space="preserve">
<style type="text/css">
	.st0{fill:#DCDCDC;}
	.st1{fill:#FFFFFF;}
</style>
<path class="st0" d="M118.5,0H42.8C19.2,0,0,19.2,0,42.8l0,0c0,23.5,19.2,42.8,42.8,42.8h75.7c1.6,0,3.1-0.1,4.7-0.3v-85
	C121.6,0.1,120.1,0,118.5,0z"/>
<g>
	<path class="st1" d="M89.8,19.8h-6.3v4.8h-6.9v-4.8H59.2v4.8h-6.9v-4.8H47c-2.8,0-5,2.3-5,5v7.2h52.9v-7.2
		C94.9,22.1,92.6,19.8,89.8,19.8z"/>
	<g>
		<g>
			<rect x="54.9" y="14.2" class="st1" width="1.6" height="9.2"/>
		</g>
	</g>
	<g>
		<g>
			<rect x="79.3" y="14.2" class="st1" width="1.6" height="9.2"/>
		</g>
	</g>
	<path class="st1" d="M42,34.8v29.5c0,2.8,2.3,5,5,5h42.8c2.8,0,5-2.3,5-5V34.8H42z M67.1,59.8L55.3,48.2l2.4-2.4l9.3,9.3l13.6-13.6
		l2.4,2.4L67.1,59.8z"/>
</g>
</svg>
