<?xml version="1.0" encoding="utf-8"?>
<!-- Generator: Adobe Illustrator 22.1.0, SVG Export Plug-In . SVG Version: 6.00 Build 0)  -->
<svg version="1.1" id="圖層_1" xmlns="http://www.w3.org/2000/svg" xmlns:xlink="http://www.w3.org/1999/xlink" x="0px" y="0px"
	 viewBox="0 0 123 86" style="enable-background:new 0 0 123 86;" xml:space="preserve">
<style type="text/css">
	.st0{fill:#DCDCDC;}
	.st1{fill:#FFFFFF;}
</style>
<path class="st0" d="M118.5,0H42.8C19.2,0,0,19.2,0,42.8l0,0c0,23.5,19.2,42.8,42.8,42.8h75.7c1.6,0,3.1-0.1,4.7-0.3v-85
	C121.6,0.1,120.1,0,118.5,0z"/>
<g>
	<g>
		<rect x="30.8" y="41.1" class="st1" width="5.3" height="1.9"/>
	</g>
	<g>
		<rect x="36" y="27.2" transform="matrix(0.7071 -0.7071 0.7071 0.7071 -10.2663 34.8671)" class="st1" width="1.9" height="5.3"/>
	</g>
	<g>
		
			<rect x="47.2" y="20.5" transform="matrix(0.9954 -9.602573e-02 9.602573e-02 0.9954 -2.003 4.7324)" class="st1" width="1.9" height="5.3"/>
	</g>
	<g>
		<rect x="59" y="24" transform="matrix(0.6359 -0.7717 0.7717 0.6359 3.2367 56.69)" class="st1" width="5.3" height="1.9"/>
	</g>
	<path class="st1" d="M88.4,40.6c-1,0-1.9,0.1-2.9,0.3c-2.7-5.7-8.5-9.7-15.3-9.7c-2.6,0-5.1,0.6-7.4,1.7c-4.4,2.2-7.8,6.2-9,11.1
		c-0.8-0.2-1.6-0.3-2.4-0.3c-3.8,0-7.1,2-9,5c-1,1.6-1.6,3.6-1.6,5.7c0,5.9,4.8,10.7,10.7,10.7h37c6.8,0,12.2-5.5,12.2-12.2
		S95.1,40.6,88.4,40.6z M59.5,61.3C59.5,61.3,59.5,61.3,59.5,61.3C59.5,61.3,59.5,61.3,59.5,61.3L59.5,61.3z"/>
	<path class="st1" d="M57.5,29c-1.9-1.1-4-1.7-6.2-1.7c-6.6,0-12,5.4-12,12c0,1,0.1,2.1,0.4,3.1l0.6,2.2l1.7-1.5
		c2.1-1.7,4.7-2.7,7.4-2.7c0.2,0,0.4,0,0.7,0l1.1,0.1l0.4-1c1.2-3.2,3.3-6,6.1-8.1l1.7-1.3L57.5,29z"/>
</g>
</svg>
