<?xml version="1.0" encoding="utf-8"?>
<!-- Generator: Adobe Illustrator 22.1.0, SVG Export Plug-In . SVG Version: 6.00 Build 0)  -->
<svg version="1.1" id="圖層_1" xmlns="http://www.w3.org/2000/svg" xmlns:xlink="http://www.w3.org/1999/xlink" x="0px" y="0px"
	 viewBox="0 0 123 86" style="enable-background:new 0 0 123 86;" xml:space="preserve">
<style type="text/css">
	.st0{fill:#DCDCDC;}
	.st1{fill:#4BB5AB;}
	.st2{fill:#FFFFFF;}
</style>
<path class="st0" d="M118.5,0H42.8C19.2,0,0,19.2,0,42.8l0,0c0,23.5,19.2,42.8,42.8,42.8h75.7c1.6,0,3.1-0.1,4.7-0.3v-85
	C121.6,0.1,120.1,0,118.5,0z"/>
<path class="st1" d="M439.5,194.6h-52c-2.2,0-4-1.8-4-4v-52c0-2.2,1.8-4,4-4h52c2.2,0,4,1.8,4,4v52
	C443.5,192.8,441.7,194.6,439.5,194.6z"/>
<g>
	<path class="st2" d="M89.8,20.5H44.3c-0.7,0-1.2,0.5-1.2,1.2v9H91v-9C91,21,90.5,20.5,89.8,20.5z"/>
	<path class="st2" d="M55.1,68.4h34.7c0.7,0,1.2-0.5,1.2-1.2v-34H55.1V68.4z M60.7,40.1h23.8v2.4H60.7V40.1z M60.7,49.1h23.8v2.4
		H60.7V49.1z M60.7,58h14.2v2.4H60.7V58z"/>
	<path class="st2" d="M43.1,67.2c0,0.7,0.5,1.2,1.2,1.2h8.4V33.2h-9.6V67.2z"/>
</g>
</svg>
