<?xml version="1.0" encoding="utf-8"?>
<!-- Generator: Adobe Illustrator 22.1.0, SVG Export Plug-In . SVG Version: 6.00 Build 0)  -->
<svg version="1.1" id="圖層_1" xmlns="http://www.w3.org/2000/svg" xmlns:xlink="http://www.w3.org/1999/xlink" x="0px" y="0px"
	 viewBox="0 0 88 106" style="enable-background:new 0 0 88 106;" xml:space="preserve">
<style type="text/css">
	.st0{fill-rule:evenodd;clip-rule:evenodd;fill:#30A6C4;}
	.st1{fill:#FFFFFF;}
	.st2{fill-rule:evenodd;clip-rule:evenodd;fill:#CBA79A;}
	.st3{fill-rule:evenodd;clip-rule:evenodd;fill:#7A5BA6;}
	.st4{fill-rule:evenodd;clip-rule:evenodd;fill:#C17EB5;}
	.st5{fill-rule:evenodd;clip-rule:evenodd;fill:#EFB2C2;}
	.st6{fill-rule:evenodd;clip-rule:evenodd;fill:#C4C4C4;}
	.st7{fill-rule:evenodd;clip-rule:evenodd;fill:#4BB5AB;}
</style>
<g>
	<path class="st0" d="M-59.1-162.6c-17-17-44.5-17-61.6,0c-16.4,17-16.4,44.5,0,61.6l30.8,30.8l30.8-30.8
		C-42.1-118-42.1-145.6-59.1-162.6z"/>
	<g>
		<path class="st1" d="M-67.6-144.6h-22.7c-1.8,3.7-4,7.2-6.8,10.7v17.8c4.6-1.3,8.8-2.6,12.6-4l0.5,4.5c-7.2,2.5-13,4.2-17.4,5.1
			l-1.4-3.7c0.7-0.6,1.1-1.2,1.1-1.9V-129c-2.9,2.7-5.9,5-9,6.9l-1.7-4.4c7.6-4.9,13.3-11,17.1-18.1h-16.7v-4.6h20.3
			c-0.8-2-1.6-3.8-2.6-5.4l4.7-1c1,1.7,2,3.9,2.9,6.4h19.2V-144.6z M-67.4-113.9l-3.2,3.5c-4.8-3.5-8.7-7.4-11.7-11.8
			c-3-4.4-5.3-10.8-6.9-19.2l4.5-0.7c0.5,3.2,1.4,6.5,2.6,9.9c3.4-1.9,6.8-4.7,10.3-8.2l3,3.5c-2.5,2.8-6.4,5.8-11.5,8.9
			C-78.4-123.5-74.1-118.8-67.4-113.9z"/>
	</g>
</g>
<g>
	<path class="st2" d="M-59.1-18.6c-17-17-44.5-17-61.6,0C-137-1.6-137,26-120.6,43l30.8,30.8L-59.1,43C-42.1,26-42.1-1.6-59.1-18.6z
		"/>
	<g>
		<path class="st1" d="M-97.7-9.4c-0.5,1.6-1.4,3.7-2.5,6.3l-1.7,3.8v33.7h-4.7V8.8c-1.2,1.9-2.3,3.4-3.4,4.5l-2.4-4.9
			c3.7-4.3,7.1-10.7,10.3-19L-97.7-9.4z M-67.5,33.8h-32.3v-4.4H-86V18h-11.9v-4.4H-86V3.5h-13v-4.4h13c-0.6-2.8-1.6-5.5-2.9-8.2
			l4.6-1.3c1.4,3.4,2.5,6.5,3.1,9.5H-68v4.4h-13.3v10.2h12V18h-12v11.4h13.7V33.8z"/>
	</g>
</g>
<g>
	<path class="st3" d="M-59.1,133.4c-17-17-44.5-17-61.6,0c-16.4,17-16.4,44.5,0,61.6l30.8,30.8l30.8-30.8
		C-42.1,178-42.1,150.4-59.1,133.4z"/>
	<g>
		<path class="st1" d="M-95.5,141.6c-3.7,5-8.3,9-13.6,12.1l-2.2-4.4c4.1-2.1,7.9-5.4,11.4-9.8L-95.5,141.6z M-94.4,151
			c-1.6,2.7-3.3,5.2-5.1,7.6v26h-4.7v-20.5c-1.8,1.8-3.5,3.2-5.1,4.2l-2-4.5c4.3-2.8,8.5-7.7,12.5-14.5L-94.4,151z M-66.5,158.8
			h-6.9v20.7c0,3.4-1.8,5.1-5.5,5.1c-2.4,0-4.7,0-6.9-0.1l-1.7-4.6c1.4,0,4.1,0,7.9,0c0.3,0,0.7-0.1,1-0.4c0.3-0.3,0.5-0.6,0.5-1
			v-19.6h-16.7v-4.5h28.4V158.8z M-67.8,145.9h-25.7v-4.4h25.7V145.9z"/>
	</g>
</g>
<g>
	<path class="st4" d="M-59.1,290.4c-17-17-44.5-17-61.6,0c-16.4,17-16.4,44.5,0,61.6l30.8,30.8l30.8-30.8
		C-42.1,335-42.1,307.4-59.1,290.4z"/>
	<g>
		<path class="st1" d="M-67.7,305h-26.4c-2.5,2.3-5,4.1-7.4,5.4c6.2,0,13.1-0.3,20.7-0.9c-0.5-0.3-1.4-0.9-2.6-1.5l4.1-2.4
			c4.6,2.7,8.1,5.2,10.5,7.6l-3.4,3c-1.2-1.2-2.5-2.3-3.8-3.2c-12.9,1-23.9,1.6-33.1,1.7l-0.8-3.9c3.4-1.2,6.5-3.1,9.3-5.6h-11.7v-4
			h15.9c1-1.1,2.1-2.3,3.2-3.7l5.5,1c-0.4,0.7-1.2,1.6-2.3,2.8h22.2V305z M-72.9,338.4c0,0.7-0.2,1.5-0.7,2.2
			c-0.5,0.7-1.1,1.2-1.9,1.4c-0.7,0.2-2.3,0.3-4.8,0.3c-1.4,0-2.8,0-4.3-0.1l-1.4-4.3c1.4,0.1,2.8,0.2,4.3,0.2
			c2.1,0,3.3-0.1,3.7-0.3c0.4-0.2,0.6-0.5,0.6-0.9v-4.8c-7,1.6-15,3.1-23.7,4.5l-1.4-3.2c-1.3,4.4-3,7.5-5.2,9.4l-4.1-2.6
			c3.6-2.7,5.4-7.2,5.4-13.5v-10.2h33.7V338.4z M-77.5,328v-7.5h-24.4v2.6c8.3,0.3,15.1,0.7,20.4,1l-1.3,3.9
			c-6.8-0.6-13.2-0.9-19.1-1c-0.1,2.2-0.3,4-0.6,5.5C-94.4,331.4-86,329.9-77.5,328z"/>
	</g>
</g>
<g>
	<path class="st5" d="M-59.1,434.4c-17-17-44.5-17-61.6,0c-16.4,17-16.4,44.5,0,61.6l30.8,30.8l30.8-30.8
		C-42.1,479-42.1,451.4-59.1,434.4z"/>
	<g>
		<path class="st1" d="M-95.2,478.9c-3.9,3.2-8.8,5.8-14.7,8l-2.4-3.8c5.5-2,10.1-4.4,13.7-7.1L-95.2,478.9z M-67.8,474.9h-19.8
			v12.8h-4.6v-12.8h-20v-4.2h20v-2.3h4.6v2.3h19.8V474.9z M-97.3,449.6c-3,5.9-6.1,10.4-9.1,13.4c1.5-0.1,2.9-0.2,4-0.5
			c-0.1-0.6-0.3-1.3-0.6-2.2l3.4-1.1c0.9,2.6,1.6,5.4,2.1,8.2l-3.4,1.2c-0.1-0.6-0.2-1.4-0.5-2.5c-3.8,0.7-7.1,1.1-9.8,1.3l-0.7-3.5
			c2.1-2,4-4.5,5.8-7.3c-0.4,0-2.1,0.1-5,0.4l-0.6-3.6c2.2-2.8,4.1-6.5,5.7-10.9l4.2,1c-1.1,3.1-2.8,6.2-5.1,9.3
			c0.9,0,2-0.1,3.2-0.3c0.9-1.6,1.7-3.1,2.3-4.5L-97.3,449.6z M-83.5,467.3h-12.8v-20.6h3.2c0.6-1,1.2-2.4,1.8-4.2l4.5,0.9
			c-0.5,1.3-1,2.4-1.6,3.3h4.8V467.3z M-87.6,455v-4.3h-4.7v4.3H-87.6z M-87.6,463.3v-4.6h-4.7v4.6H-87.6z M-67.5,483.3l-2.4,3.8
			c-3.6-2.4-8.5-4.7-14.8-7.1l2.2-3.8C-76.6,478.3-71.7,480.7-67.5,483.3z M-67.5,467.2l-3.5,1.5c-0.3-1.3-0.5-2.1-0.6-2.3
			c-3.3,0.5-6.7,0.9-10.2,1.1l-0.7-3.4c2.1-2,4.1-4.6,6-7.8l-5.3,0.6l-0.9-3.4c2.2-2.8,4.1-6.4,5.7-11l4.1,1.1c-1.1,3-2.6,6-4.7,9
			c0.8,0,2-0.1,3.4-0.4c0.9-1.7,1.6-3,2-4.1l4,1.4c-2.3,5.1-5.2,9.7-8.6,13.7c1.3,0,2.6-0.2,3.8-0.5c-0.2-0.6-0.5-1.3-0.9-2.1
			l3.4-1.5C-69.1,461.7-68.1,464.5-67.5,467.2z"/>
	</g>
</g>
<g>
	<path class="st6" d="M-59.1,586.4c-17-17-44.5-17-61.6,0c-16.4,17-16.4,44.5,0,61.6l30.8,30.8l30.8-30.8
		C-42.1,631-42.1,603.4-59.1,586.4z"/>
	<g>
		<path class="st1" d="M-109.4,627.4c-4.5,2.6-8.4,4.3-11.5,5.2l-1.6-2.7c3.7-1.1,7.2-2.7,10.6-4.7L-109.4,627.4z M-91.7,624.7
			h-30.4v-2.9h5.1v-14.1h-4.7V605h4.7v-3.2h3.2v3.2h13.8v-3.2h3.1v3.2h4.7v2.7h-4.7v14.1h5.2V624.7z M-100,610.5v-2.8h-13.8v2.8
			H-100z M-100,616.2v-2.7h-13.8v2.7H-100z M-100,621.8V619h-13.8v2.8H-100z M-91.4,630l-1.6,2.6c-2.9-1.6-6.5-3.2-11.1-4.7l1.8-2.6
			C-97.4,626.9-93.8,628.5-91.4,630z"/>
		<path class="st1" d="M-77.6,602c-0.3,1.2-0.9,2.7-1.7,4.6l-1.2,2.7v23h-3v-17.6c-0.9,1.2-1.6,2.2-2.2,2.9l-1.5-3.2
			c2.7-3.4,4.8-7.7,6.5-12.9L-77.6,602z M-56.5,625.8c-0.3,2.4-0.8,4-1.5,4.9c-0.8,0.9-1.8,1.3-3.1,1.3h-11.1c-1.1,0-2-0.3-2.6-0.9
			c-0.7-0.6-1-1.5-1-2.8v-12.4l-2.7,0.8l-0.3-3l3-1v-7.8h3v6.8l4.4-1.4v-8.5h3v7.5l7.8-2.6c-0.2,5.3-0.8,10.4-1.9,15.3l-2.8-0.9
			c0.9-3.8,1.4-7.1,1.4-10.1l-4.5,1.4v13.5h-3v-12.5l-4.4,1.4v13.3c0,0.2,0.1,0.4,0.3,0.5c0.2,0.2,0.3,0.2,0.5,0.2h10.5
			c0.6,0,1.1-0.3,1.4-0.8c0.3-0.6,0.5-1.7,0.7-3.5L-56.5,625.8z"/>
	</g>
</g>
<g>
	<path class="st7" d="M74.5,13.2c-17-17-44.5-17-61.6,0c-16.4,17-16.4,44.5,0,61.6l30.8,30.8l30.8-30.8
		C91.6,57.7,91.6,30.2,74.5,13.2z"/>
	<g>
		<path class="st1" d="M66.9,32.1L64.6,36c-4.9-1.7-9.4-3.7-13.5-5.9V33H37v-2.9c-4.1,2.2-8.5,4.1-13.4,5.8l-2.2-4
			c9.9-3.1,17.1-7,21.6-11.6l4.8,1.2c-0.1,0.3-0.3,0.6-0.6,0.9C52.3,26.4,58.9,29.7,66.9,32.1z M59.5,52.2H32.9v8.4
			c3.3-0.6,6.7-1.6,10.1-2.9V62c-4.8,1.7-9.6,2.9-14.4,3.8l-1.5-3.9c0.7-0.5,1.1-1.1,1.1-1.8V35.7h31.3V52.2z M54.8,42v-2.5H32.9V42
			H54.8z M54.8,48.3v-2.6H32.9v2.6H54.8z M49.4,29.2C47.8,28.3,46,27,44,25.5c-1.4,1.1-3.2,2.3-5.4,3.7H49.4z M65.4,62.6L62.7,66
			c-6.2-3.7-13-6.9-20.4-9.4l2.6-3.3c1.7,0.5,4.3,1.5,7.8,3c2.9-1,5.9-2.7,9.1-5.1l3.3,2.9c-2.2,1.8-4.5,3.3-7,4.6
			C60.7,59.9,63.2,61.2,65.4,62.6z"/>
	</g>
</g>
</svg>
