<?xml version="1.0" encoding="utf-8"?>
<!-- Generator: Adobe Illustrator 22.1.0, SVG Export Plug-In . SVG Version: 6.00 Build 0)  -->
<svg version="1.1" id="圖層_1" xmlns="http://www.w3.org/2000/svg" xmlns:xlink="http://www.w3.org/1999/xlink" x="0px" y="0px"
	 viewBox="0 0 88 106" style="enable-background:new 0 0 88 106;" xml:space="preserve">
<style type="text/css">
	.st0{fill-rule:evenodd;clip-rule:evenodd;fill:#EFB2C2;}
	.st1{fill:#FFFFFF;}
	.st2{fill-rule:evenodd;clip-rule:evenodd;fill:#C4C4C4;}
</style>
<g>
	<path class="st0" d="M74.5,13.2c-17-17-44.5-17-61.6,0c-16.4,17-16.4,44.5,0,61.6l30.8,30.8l30.8-30.8
		C91.6,57.7,91.6,30.2,74.5,13.2z"/>
	<g>
		<path class="st1" d="M38.4,57.7c-3.9,3.2-8.8,5.8-14.7,8l-2.4-3.8c5.5-2,10.1-4.4,13.7-7.1L38.4,57.7z M65.8,53.7H46v12.8h-4.6
			V53.7h-20v-4.2h20v-2.3H46v2.3h19.8V53.7z M36.3,28.3c-3,5.9-6.1,10.4-9.1,13.4c1.5-0.1,2.9-0.2,4-0.5c-0.1-0.6-0.3-1.3-0.6-2.2
			L34,38c0.9,2.6,1.6,5.4,2.1,8.2l-3.4,1.2c-0.1-0.6-0.2-1.4-0.5-2.5c-3.8,0.7-7.1,1.1-9.8,1.3l-0.7-3.5c2.1-2,4-4.5,5.8-7.3
			c-0.4,0-2.1,0.1-5,0.4l-0.6-3.6c2.2-2.8,4.1-6.5,5.7-10.9l4.2,1c-1.1,3.1-2.8,6.2-5.1,9.3c0.9,0,2-0.1,3.2-0.3
			c0.9-1.6,1.7-3.1,2.3-4.5L36.3,28.3z M50.1,46.1H37.3V25.5h3.2c0.6-1,1.2-2.4,1.8-4.2l4.5,0.9c-0.5,1.3-1,2.4-1.6,3.3h4.8V46.1z
			 M46,33.8v-4.3h-4.7v4.3H46z M46,42.1v-4.6h-4.7v4.6H46z M66.1,62l-2.4,3.8c-3.6-2.4-8.5-4.7-14.8-7.1l2.2-3.8
			C57,57.1,62,59.5,66.1,62z M66.1,46l-3.5,1.5c-0.3-1.3-0.5-2.1-0.6-2.3c-3.3,0.5-6.7,0.9-10.2,1.1l-0.7-3.4c2.1-2,4.1-4.6,6-7.8
			l-5.3,0.6L51,32.3c2.2-2.8,4.1-6.4,5.7-11l4.1,1.1c-1.1,3-2.6,6-4.7,9c0.8,0,2-0.1,3.4-0.4c0.9-1.7,1.6-3,2-4.1l4,1.4
			C63.3,33.4,60.4,38,57,42c1.3,0,2.6-0.2,3.8-0.5c-0.2-0.6-0.5-1.3-0.9-2.1l3.4-1.5C64.5,40.5,65.5,43.3,66.1,46z"/>
	</g>
</g>
<g>
	<path class="st2" d="M-59.1,586.4c-17-17-44.5-17-61.6,0c-16.4,17-16.4,44.5,0,61.6l30.8,30.8l30.8-30.8
		C-42.1,631-42.1,603.4-59.1,586.4z"/>
	<g>
		<path class="st1" d="M-109.4,627.4c-4.5,2.6-8.4,4.3-11.5,5.2l-1.6-2.7c3.7-1.1,7.2-2.7,10.6-4.7L-109.4,627.4z M-91.7,624.7
			h-30.4v-2.9h5.1v-14.1h-4.7V605h4.7v-3.2h3.2v3.2h13.8v-3.2h3.1v3.2h4.7v2.7h-4.7v14.1h5.2V624.7z M-100,610.5v-2.8h-13.8v2.8
			H-100z M-100,616.2v-2.7h-13.8v2.7H-100z M-100,621.8V619h-13.8v2.8H-100z M-91.4,630l-1.6,2.6c-2.9-1.6-6.5-3.2-11.1-4.7l1.8-2.6
			C-97.4,626.9-93.8,628.5-91.4,630z"/>
		<path class="st1" d="M-77.6,602c-0.3,1.2-0.9,2.7-1.7,4.6l-1.2,2.7v23h-3v-17.6c-0.9,1.2-1.6,2.2-2.2,2.9l-1.5-3.2
			c2.7-3.4,4.8-7.7,6.5-12.9L-77.6,602z M-56.5,625.8c-0.3,2.4-0.8,4-1.5,4.9c-0.8,0.9-1.8,1.3-3.1,1.3h-11.1c-1.1,0-2-0.3-2.6-0.9
			c-0.7-0.6-1-1.5-1-2.8v-12.4l-2.7,0.8l-0.3-3l3-1v-7.8h3v6.8l4.4-1.4v-8.5h3v7.5l7.8-2.6c-0.2,5.3-0.8,10.4-1.9,15.3l-2.8-0.9
			c0.9-3.8,1.4-7.1,1.4-10.1l-4.5,1.4v13.5h-3v-12.5l-4.4,1.4v13.3c0,0.2,0.1,0.4,0.3,0.5c0.2,0.2,0.3,0.2,0.5,0.2h10.5
			c0.6,0,1.1-0.3,1.4-0.8c0.3-0.6,0.5-1.7,0.7-3.5L-56.5,625.8z"/>
	</g>
</g>
</svg>
