<?xml version="1.0" encoding="utf-8"?>
<!-- Generator: Adobe Illustrator 22.1.0, SVG Export Plug-In . SVG Version: 6.00 Build 0)  -->
<svg version="1.1" id="圖層_1" xmlns="http://www.w3.org/2000/svg" xmlns:xlink="http://www.w3.org/1999/xlink" x="0px" y="0px"
	 viewBox="0 0 88 106" style="enable-background:new 0 0 88 106;" xml:space="preserve">
<style type="text/css">
	.st0{fill-rule:evenodd;clip-rule:evenodd;fill:#C4C4C4;}
	.st1{fill:#FFFFFF;}
</style>
<g>
	<path class="st0" d="M74.5,13.2c-17-17-44.5-17-61.6,0c-16.4,17-16.4,44.5,0,61.6l30.8,30.8l30.8-30.8
		C91.6,57.7,91.6,30.2,74.5,13.2z"/>
	<g>
		<path class="st1" d="M24.2,54.2c-4.5,2.6-8.4,4.3-11.5,5.2l-1.6-2.7c3.7-1.1,7.2-2.7,10.6-4.7L24.2,54.2z M41.9,51.5H11.5v-2.9
			h5.1V34.5h-4.7v-2.7h4.7v-3.2h3.2v3.2h13.8v-3.2h3.1v3.2h4.7v2.7h-4.7v14.1h5.2V51.5z M33.6,37.3v-2.8H19.8v2.8H33.6z M33.6,43
			v-2.7H19.8V43H33.6z M33.6,48.6v-2.8H19.8v2.8H33.6z M42.2,56.8l-1.6,2.6c-2.9-1.6-6.5-3.2-11.1-4.7l1.8-2.6
			C36.2,53.7,39.9,55.3,42.2,56.8z"/>
		<path class="st1" d="M56,28.8c-0.3,1.2-0.9,2.7-1.7,4.6L53.1,36v23h-3V41.4c-0.9,1.2-1.6,2.2-2.2,2.9l-1.5-3.2
			c2.7-3.4,4.8-7.7,6.5-12.9L56,28.8z M77.1,52.6c-0.3,2.4-0.8,4-1.5,4.9c-0.8,0.9-1.8,1.3-3.1,1.3H61.3c-1.1,0-2-0.3-2.6-0.9
			c-0.7-0.6-1-1.5-1-2.8V42.7L55,43.5l-0.3-3l3-1v-7.8h3v6.8l4.4-1.4v-8.5h3V36l7.8-2.6c-0.2,5.3-0.8,10.4-1.9,15.3l-2.8-0.9
			c0.9-3.8,1.4-7.1,1.4-10.1l-4.5,1.4v13.5h-3V40.3l-4.4,1.4v13.3c0,0.2,0.1,0.4,0.3,0.5c0.2,0.2,0.3,0.2,0.5,0.2H72
			c0.6,0,1.1-0.3,1.4-0.8c0.3-0.6,0.5-1.7,0.7-3.5L77.1,52.6z"/>
	</g>
</g>
</svg>
