<?xml version="1.0" encoding="utf-8"?>
<!-- Generator: Adobe Illustrator 22.1.0, SVG Export Plug-In . SVG Version: 6.00 Build 0)  -->
<svg version="1.1" id="圖層_1" xmlns="http://www.w3.org/2000/svg" xmlns:xlink="http://www.w3.org/1999/xlink" x="0px" y="0px"
	 viewBox="0 0 15 15" style="enable-background:new 0 0 15 15;" xml:space="preserve">
<style type="text/css">
	.st0{fill:#999999;}
	.st1{fill:#FFFFFF;}
</style>
<g>
	<g>
		<circle class="st0" cx="7.5" cy="7.5" r="7.5"/>
	</g>
	<g>
		<path class="st1" d="M7.7,6.4c0.1,0,0.2-0.1,0.3-0.1c0.1,0,0.1,0.1,0.1,0.1c0,0.1,0,0.3,0,0.7c0,0.4,0,0.8,0,1.3v1.3
			c0,0.5,0,0.9,0,1c0,0.2,0.1,0.3,0.2,0.3h0.4c0.1,0,0.1,0,0.1,0.1v0.2c0,0.1,0,0.1-0.1,0.1c0,0-0.2,0-0.5,0c-0.3,0-0.7,0-1.2,0
			c-0.7,0-1.1,0-1.3,0c-0.1,0-0.1,0-0.1-0.1v-0.2c0-0.1,0-0.1,0.1-0.1h0.4c0.1,0,0.2-0.1,0.2-0.2c0-0.4,0-0.7,0-1.1l0-1.7
			c0-0.2,0-0.3-0.1-0.4C6.3,7.6,6.2,7.5,5.9,7.4c-0.1,0-0.1-0.1-0.1-0.2V7.1c0,0,0-0.1,0.1-0.1L7.7,6.4z M7.1,3.4
			c0.3,0,0.5,0.1,0.7,0.2C7.9,3.8,8,4,8,4.2c0,0.2-0.1,0.4-0.2,0.6S7.3,5.1,7,5.1C6.7,5.1,6.5,5,6.4,4.8C6.2,4.7,6.1,4.5,6.1,4.2
			c0-0.2,0.1-0.4,0.3-0.6C6.6,3.5,6.8,3.4,7.1,3.4z"/>
	</g>
</g>
</svg>
