<?xml version="1.0" encoding="utf-8"?>
<!-- Generator: Adobe Illustrator 22.1.0, SVG Export Plug-In . SVG Version: 6.00 Build 0)  -->
<svg version="1.1" id="圖層_1" xmlns="http://www.w3.org/2000/svg" xmlns:xlink="http://www.w3.org/1999/xlink" x="0px" y="0px"
	 viewBox="0 0 281.1 281.1" style="enable-background:new 0 0 281.1 281.1;" xml:space="preserve">
<style type="text/css">
	.st0{fill:#E0E0E0;}
	.st1{fill:#4BB5AB;}
	.st2{fill:#FFFFFF;}
	.st3{fill:#656666;}
	.st4{fill:#FFFFFF;stroke:#656666;stroke-width:3;stroke-miterlimit:10;}
</style>
<g>
	
		<ellipse transform="matrix(0.7071 -0.7071 0.7071 0.7071 -58.1626 140.6592)" class="st0" cx="140.7" cy="140.5" rx="140.5" ry="140.5"/>
	<g>
		<path class="st1" d="M142.4,169v16c3-0.1,5.3-0.9,7-2.5c1.7-1.5,2.5-3.3,2.5-5.5C151.8,172.5,148.7,169.8,142.4,169z"/>
		<path class="st1" d="M158.5,108.4h-35.5c-4.9,5.3-44.7,48.4-51.4,59.7c-5.2,8.8-9.5,23-4.8,34.4c3.7,8.9,12.6,15.2,26.2,18.6h95.4
			c13.7-3.4,22.5-9.7,26.2-18.6c4.8-11.3,0.4-25.6-4.8-34.4C203.2,156.7,163.4,113.7,158.5,108.4z M109.5,210.4l-5.3,0
			c-11.3-2.8-18.7-8.1-21.9-15.7c-5.2-12.3,2.2-25.9,3.8-28.5l2.9,1.7c-0.9,1.4-8.2,14.4-3.6,25.5c2.8,6.6,9.3,11.2,19.4,13.7h4.7
			V210.4z M154.1,185.3c-2.3,2.7-6.2,4.3-11.7,4.7v7.1h-4.5V190c-8.2-0.9-13.4-4.7-15.7-11.5l4.9-1.9c1.9,5.2,5.5,8,10.7,8.4v-17
			c-5.7-1.4-9.4-3.2-11.1-5.4c-1.7-2.2-2.5-4.6-2.5-7.3c0-7.1,4.5-11.4,13.6-12.9v-6h4.5v6c7.2,0.6,11.9,3.9,14.2,9.7l-4.9,1.6
			c-1.3-4-4.4-6.1-9.2-6.5v15.7c10.1,1.8,15.1,6.4,15.1,13.6C157.5,179.7,156.4,182.6,154.1,185.3z M199.1,194.6
			c-3.2,7.7-10.6,13-21.9,15.7l-0.2,0h-7.8V207h7.4c10.1-2.5,16.6-7.2,19.4-13.7c4.6-11-2.7-24-3.6-25.5l2.9-1.7
			C196.8,168.7,204.2,182.3,199.1,194.6z"/>
		<path class="st1" d="M129.6,154.6c0,4,2.8,6.6,8.3,7.6v-15.1c-2.5,0.2-4.5,1-6,2.3C130.4,150.9,129.6,152.6,129.6,154.6z"/>
		<path class="st2" d="M192.4,167.8c0.9,1.4,8.2,14.4,3.6,25.5c-2.8,6.6-9.3,11.2-19.4,13.7h-7.4v3.4h7.8l0.2,0
			c11.3-2.8,18.7-8.1,21.9-15.7c5.2-12.3-2.2-25.9-3.8-28.5L192.4,167.8z"/>
		<path class="st2" d="M85.4,193.3c-4.6-11,2.7-24,3.6-25.5l-2.9-1.7c-1.5,2.6-8.9,16.2-3.8,28.5c3.2,7.7,10.6,13,21.9,15.7l5.3,0
			V207h-4.7C94.7,204.5,88.2,199.8,85.4,193.3z"/>
		<g>
			<path class="st3" d="M212.8,166.4c-7.3-12.3-50.5-58.8-52.3-60.8l-0.5-0.5h-38.5l-0.5,0.5c-1.8,2-45,48.5-52.3,60.8
				c-2,3.4-11.7,21.3-5,37.4c4.2,10,13.9,16.9,28.7,20.6l96.4,0l0.2,0c14.9-3.7,24.5-10.6,28.7-20.6
				C224.5,187.6,214.8,169.8,212.8,166.4z M214.6,202.4c-3.7,8.9-12.6,15.2-26.2,18.6H93c-13.7-3.4-22.5-9.7-26.2-18.6
				c-4.8-11.3-0.4-25.6,4.8-34.4c6.7-11.3,46.5-54.4,51.4-59.7h35.5c4.9,5.3,44.7,48.4,51.4,59.7
				C215.1,176.8,219.4,191.1,214.6,202.4z"/>
			<path class="st1" d="M142.4,162.9v-15.7c4.8,0.3,7.9,2.5,9.2,6.5l4.9-1.6c-2.2-5.8-7-9-14.2-9.7v-6h-4.5v6
				c-9.1,1.5-13.6,5.8-13.6,12.9c0,2.7,0.8,5.1,2.5,7.3c1.7,2.2,5.4,4,11.1,5.4v17c-5.3-0.4-8.8-3.2-10.7-8.4l-4.9,1.9
				c2.3,6.8,7.5,10.6,15.7,11.5v7.1h4.5V190c5.5-0.5,9.4-2.1,11.7-4.7c2.3-2.7,3.4-5.6,3.4-8.7C157.5,169.3,152.5,164.7,142.4,162.9
				z M137.9,162.3c-5.5-1.1-8.3-3.6-8.3-7.6c0-2.1,0.8-3.8,2.3-5.1c1.5-1.3,3.5-2.1,6-2.3V162.3z M149.3,182.5c-1.7,1.5-4,2.3-7,2.5
				v-16c6.3,0.9,9.5,3.6,9.5,8.1C151.8,179.2,151,181,149.3,182.5z"/>
		</g>
		<path class="st4" d="M124.2,156.7c-0.2,0.8-0.3,1.7-0.3,2.7c0,2.1,0.4,3.9,1.4,5.3c0.9,1.4,2,2.6,3.4,3.5c1.4,1,2.9,1.7,4.6,2.3
			c1.7,0.6,3.3,1.1,4.8,1.6c2.8,0.9,4.6,1.7,5.5,2.6c0.9,0.9,1.4,1.8,1.4,2.9c0,1.2-0.5,2.1-1.4,2.7c-1,0.6-1.9,0.9-2.9,0.9
			c-1,0-1.8-0.2-2.4-0.6c-0.6-0.4-1-0.8-1.3-1.3c-0.3-0.5-0.5-1-0.6-1.5c-0.1-0.5-0.2-0.8-0.2-1h-12.9v0.7c0,1.3,0.3,2.6,0.9,3.9
			c0.6,1.3,1.4,2.5,2.4,3.5c0.8,0.8,1.5,1.4,2.4,1.9c0.8,0.5,1.7,0.9,2.5,1.2c0.8,0.3,1.6,0.5,2.3,0.7c0.7,0.1,1.4,0.3,2,0.4v3.8
			c0,1.3,1.1,2.4,2.4,2.4h5.4c1.3,0,2.4-1.1,2.4-2.4v-2.3c0-1,0.6-1.9,1.6-2.3c2.1-0.7,3.9-1.6,5.2-2.7c1.6-1.3,2.8-2.6,3.5-3.9
			c0.8-1.3,1.2-2.5,1.3-3.5c0.1-1.1,0.2-1.7,0.2-1.9c0-0.8-0.1-1.7-0.4-2.8c-0.3-1.1-0.8-2.2-1.6-3.3c-0.8-1.1-1.9-2.2-3.4-3.2
			c-1.5-1-3.3-1.9-5.6-2.6c-1.7-0.5-3.1-1-4.4-1.4c-1.3-0.4-2.3-0.9-3.2-1.3c-0.9-0.5-1.5-1-2-1.5c-0.4-0.5-0.6-1.1-0.6-1.8
			c0-0.1,0-0.1,0-0.2c0-0.9,0.3-1.7,1.1-2.4c0.7-0.7,1.7-1,3-1c1,0,1.7,0.2,2.2,0.5c0.5,0.3,0.9,0.7,1.2,1.1
			c0.3,0.4,0.5,0.9,0.6,1.3c0.1,0.4,0.1,0.8,0.1,1h9c1.5,0,2.7-1.4,2.4-2.9c-0.1-0.5-0.3-1-0.5-1.5c-0.5-1.3-1.3-2.5-2.2-3.5
			c-1-1-2.1-1.8-3.3-2.5c-0.8-0.4-1.6-0.7-2.5-1c-1-0.3-1.7-1.2-1.7-2.3v-2c0-1.3-1.1-2.4-2.4-2.4h-5.4c-1.3,0-2.4,1.1-2.4,2.4v2
			c0,1-0.7,2-1.7,2.3c-0.9,0.3-1.8,0.6-2.7,1c-1.4,0.6-2.7,1.4-3.8,2.4c-1.1,1-2.1,2.2-2.8,3.6C124.7,155.1,124.4,155.9,124.2,156.7
			z"/>
		<path class="st1" d="M169.9,78.9c-2.4,2.9-5.1,6.1-10.6,6.1c-5.5,0-8.2-3.3-10.6-6.1c-2.2-2.7-4.1-4.9-7.9-4.9
			c-3.7,0-5.7,2.3-7.9,4.9c-2.4,2.9-5.1,6.1-10.6,6.1c-5.5,0-8.2-3.3-10.6-6.1c-1.6-2-3.1-3.7-5.2-4.5l16.6,34.2h34.9l17.3-34.2
			C172.9,75.2,171.5,77,169.9,78.9z"/>
		<path class="st3" d="M178.5,67.8c-0.2-0.1-0.5-0.2-0.8-0.2v0c-5.5,0-8.2,3.3-10.6,6.1c-2.2,2.7-4.1,4.9-7.9,4.9
			c-3.7,0-5.7-2.3-7.9-4.9c-2.4-2.9-5.1-6.1-10.6-6.1c-5.5,0-8.2,3.3-10.6,6.1c-2.2,2.7-4.1,4.9-7.9,4.9c-3.7,0-5.6-2.3-7.9-4.9
			c-2.4-2.9-5.1-6.1-10.6-6.1v0c-0.2,0-0.5,0-0.7,0.2c-0.8,0.4-1.2,1.4-0.8,2.2l18.6,38.4h39.1L179.2,70
			C179.6,69.2,179.3,68.2,178.5,67.8z M157.8,105h-34.9l-16.6-34.2c2.1,0.8,3.6,2.5,5.2,4.5c2.4,2.9,5.1,6.1,10.6,6.1
			c5.5,0,8.2-3.3,10.6-6.1c2.2-2.7,4.1-4.9,7.9-4.9c3.7,0,5.7,2.3,7.9,4.9c2.4,2.9,5.1,6.1,10.6,6.1c5.5,0,8.2-3.3,10.6-6.1
			c1.6-1.9,3.1-3.7,5.2-4.5L157.8,105z"/>
	</g>
</g>
</svg>
