<?xml version="1.0" encoding="utf-8"?>
<!-- Generator: Adobe Illustrator 22.1.0, SVG Export Plug-In . SVG Version: 6.00 Build 0)  -->
<svg version="1.1" id="圖層_1" xmlns="http://www.w3.org/2000/svg" xmlns:xlink="http://www.w3.org/1999/xlink" x="0px" y="0px"
	 viewBox="0 0 116.6 115.1" style="enable-background:new 0 0 116.6 115.1;" xml:space="preserve">
<style type="text/css">
	.st0{fill:#4BB5AB;}
	.st1{fill:#FFFFFF;}
	.st2{fill:#656666;}
	.st3{fill:#FFFFFF;stroke:#656666;stroke-width:3;stroke-miterlimit:10;}
</style>
<g>
	<g>
		<path class="st0" d="M59.5,74.4v11.8c2.2-0.1,3.9-0.7,5.1-1.8c1.2-1.1,1.8-2.4,1.8-4C66.5,77.1,64.2,75.1,59.5,74.4z"/>
		<path class="st0" d="M71.3,29.9H45.3c-3.6,3.9-32.8,35.5-37.7,43.8C3.7,80.2,0.5,90.7,4,99c2.8,6.6,9.2,11.1,19.3,13.6h70.1
			c10-2.5,16.5-7.1,19.3-13.6c3.5-8.3,0.3-18.8-3.5-25.2C104.2,65.4,75,33.8,71.3,29.9z M35.4,104.8l-3.9,0
			c-8.3-2-13.7-5.9-16.1-11.6c-3.8-9,1.6-19,2.8-20.9l2.1,1.3c-0.6,1.1-6,10.6-2.6,18.7c2,4.8,6.8,8.2,14.3,10.1h3.4V104.8z
			 M68.1,86.4c-1.7,2-4.5,3.1-8.6,3.5v5.2h-3.3v-5.2c-6-0.6-9.8-3.5-11.5-8.4l3.6-1.4c1.4,3.8,4,5.8,7.9,6.2V73.7
			c-4.2-1-6.9-2.3-8.1-3.9c-1.2-1.6-1.9-3.4-1.9-5.4c0-5.2,3.3-8.4,10-9.5v-4.4h3.3v4.4c5.3,0.5,8.8,2.8,10.4,7.1l-3.6,1.2
			c-1-2.9-3.3-4.5-6.8-4.7V70c7.4,1.3,11.1,4.7,11.1,10C70.6,82.3,69.8,84.4,68.1,86.4z M101.2,93.2c-2.4,5.6-7.8,9.5-16.1,11.6
			l-0.1,0h-5.7v-2.5h5.4c7.4-1.9,12.2-5.3,14.3-10.1c3.4-8.1-2-17.7-2.6-18.7l2.1-1.3C99.5,74.2,104.9,84.2,101.2,93.2z"/>
		<path class="st0" d="M50.2,63.9c0,3,2,4.8,6.1,5.6V58.5c-1.8,0.1-3.3,0.7-4.4,1.7C50.7,61.2,50.2,62.4,50.2,63.9z"/>
		<path class="st1" d="M96.3,73.6c0.6,1.1,6,10.6,2.6,18.7c-2,4.8-6.8,8.2-14.3,10.1h-5.4v2.5h5.7l0.1,0c8.3-2,13.7-5.9,16.1-11.6
			c3.8-9-1.6-19-2.8-20.9L96.3,73.6z"/>
		<path class="st1" d="M17.7,92.3c-3.4-8.1,2-17.7,2.6-18.7l-2.1-1.3c-1.1,1.9-6.6,11.9-2.8,20.9c2.4,5.6,7.8,9.5,16.1,11.6l3.9,0
			v-2.5H32C24.5,100.5,19.7,97.1,17.7,92.3z"/>
		<g>
			<path class="st2" d="M111.2,72.5c-5.4-9.1-37.1-43.2-38.4-44.7l-0.4-0.4H44.2l-0.4,0.4c-1.3,1.4-33.1,35.6-38.4,44.7
				C3.9,75-3.2,88.1,1.7,100c3.1,7.3,10.2,12.4,21.1,15.1l70.8,0l0.1,0c10.9-2.7,18-7.8,21.1-15.1C119.8,88.1,112.7,75,111.2,72.5z
				 M112.6,99c-2.8,6.6-9.2,11.1-19.3,13.6H23.3C13.2,110.1,6.8,105.5,4,99c-3.5-8.3-0.3-18.8,3.5-25.2c4.9-8.3,34.1-39.9,37.7-43.8
				h26.1c3.6,3.9,32.8,35.5,37.7,43.8C112.9,80.2,116.1,90.7,112.6,99z"/>
			<path class="st0" d="M59.5,70V58.5c3.5,0.2,5.8,1.8,6.8,4.7l3.6-1.2c-1.7-4.3-5.1-6.6-10.4-7.1v-4.4h-3.3v4.4
				c-6.7,1.1-10,4.3-10,9.5c0,2,0.6,3.8,1.9,5.4c1.2,1.6,4,2.9,8.1,3.9v12.5c-3.9-0.3-6.5-2.4-7.9-6.2l-3.6,1.4
				c1.7,5,5.5,7.8,11.5,8.4v5.2h3.3v-5.2c4-0.4,6.9-1.5,8.6-3.5c1.7-2,2.5-4.1,2.5-6.4C70.6,74.6,66.9,71.3,59.5,70z M56.2,69.5
				c-4.1-0.8-6.1-2.6-6.1-5.6c0-1.5,0.6-2.8,1.7-3.8c1.1-1,2.6-1.6,4.4-1.7V69.5z M64.6,84.4c-1.2,1.1-2.9,1.7-5.1,1.8V74.4
				c4.6,0.6,6.9,2.6,6.9,5.9C66.5,81.9,65.9,83.3,64.6,84.4z"/>
		</g>
		<path class="st3" d="M46.2,65.4C46,66,46,66.7,46,67.4c0,1.6,0.3,2.9,1,3.9c0.7,1,1.5,1.9,2.5,2.6c1,0.7,2.1,1.3,3.4,1.7
			c1.2,0.4,2.4,0.8,3.6,1.2c2,0.6,3.4,1.3,4.1,1.9c0.7,0.7,1,1.4,1,2.1c0,0.9-0.4,1.5-1,2c-0.7,0.5-1.4,0.7-2.1,0.7
			c-0.7,0-1.3-0.1-1.7-0.4c-0.4-0.3-0.7-0.6-1-1c-0.2-0.4-0.4-0.7-0.4-1.1c-0.1-0.3-0.1-0.6-0.1-0.7h-9.4v0.5c0,0.9,0.2,1.9,0.7,2.9
			c0.5,1,1,1.8,1.7,2.6c0.6,0.6,1.1,1,1.7,1.4c0.6,0.4,1.2,0.7,1.8,0.9c0.6,0.2,1.2,0.4,1.7,0.5c0.5,0.1,1,0.2,1.5,0.3v2.8
			c0,1,0.8,1.8,1.8,1.8h3.9c1,0,1.8-0.8,1.8-1.8v-1.7c0-0.7,0.5-1.4,1.2-1.7c1.6-0.5,2.8-1.2,3.8-2c1.2-1,2-1.9,2.6-2.9
			c0.6-1,0.9-1.8,1-2.6c0.1-0.8,0.1-1.2,0.1-1.4c0-0.6-0.1-1.3-0.3-2c-0.2-0.8-0.6-1.6-1.2-2.4c-0.6-0.8-1.4-1.6-2.5-2.3
			c-1.1-0.7-2.4-1.4-4.1-1.9c-1.2-0.4-2.3-0.7-3.2-1.1c-0.9-0.3-1.7-0.6-2.3-1c-0.6-0.3-1.1-0.7-1.4-1.1c-0.3-0.4-0.4-0.8-0.5-1.3
			c0-0.1,0-0.1,0-0.2c0-0.7,0.3-1.3,0.8-1.8c0.5-0.5,1.3-0.8,2.2-0.8c0.7,0,1.2,0.1,1.6,0.3c0.4,0.2,0.7,0.5,0.9,0.8
			c0.2,0.3,0.3,0.6,0.4,1c0.1,0.3,0.1,0.6,0.1,0.7H68c1.1,0,2-1,1.7-2.1c-0.1-0.4-0.2-0.7-0.3-1.1c-0.4-1-0.9-1.8-1.6-2.5
			c-0.7-0.7-1.5-1.3-2.5-1.8c-0.6-0.3-1.2-0.5-1.8-0.7c-0.7-0.2-1.3-0.9-1.3-1.7v-1.5c0-1-0.8-1.8-1.8-1.8h-3.9
			c-1,0-1.8,0.8-1.8,1.8v1.5c0,0.8-0.5,1.4-1.2,1.7c-0.7,0.2-1.3,0.4-2,0.7c-1,0.5-2,1.1-2.8,1.8c-0.8,0.7-1.5,1.6-2,2.7
			C46.5,64.2,46.3,64.8,46.2,65.4z"/>
		<path class="st0" d="M79.7,8.3c-1.8,2.1-3.8,4.5-7.8,4.5c-4,0-6.1-2.4-7.8-4.5c-1.6-1.9-3-3.6-5.8-3.6c-2.7,0-4.2,1.7-5.8,3.6
			c-1.8,2.1-3.8,4.5-7.8,4.5c-4,0-6-2.4-7.8-4.5C35.7,6.9,34.6,5.6,33,5l12.2,25.1h25.6L83.5,5C82,5.6,80.9,6.9,79.7,8.3z"/>
		<path class="st2" d="M86,0.1C85.9,0,85.7,0,85.5,0v0c-4,0-6.1,2.4-7.8,4.5c-1.6,1.9-3,3.6-5.8,3.6c-2.8,0-4.2-1.7-5.8-3.6
			C64.3,2.4,62.3,0,58.3,0c-4,0-6,2.4-7.8,4.5c-1.6,1.9-3,3.6-5.8,3.6c-2.7,0-4.1-1.7-5.8-3.6C37.2,2.4,35.2,0,31.1,0v0
			c-0.2,0-0.4,0-0.5,0.1c-0.6,0.3-0.9,1-0.6,1.6l13.7,28.2h28.7L86.6,1.8C86.9,1.2,86.6,0.4,86,0.1z M70.8,27.5H45.2L33,2.4
			c1.6,0.6,2.7,1.9,3.8,3.3c1.8,2.1,3.8,4.5,7.8,4.5c4,0,6-2.4,7.8-4.5c1.6-1.9,3-3.6,5.8-3.6c2.8,0,4.2,1.7,5.8,3.6
			c1.8,2.1,3.8,4.5,7.8,4.5c4,0,6.1-2.4,7.8-4.5C80.9,4.2,82,3,83.5,2.4L70.8,27.5z"/>
	</g>
</g>
</svg>
