<?xml version="1.0" encoding="utf-8"?>
<!-- Generator: Adobe Illustrator 22.1.0, SVG Export Plug-In . SVG Version: 6.00 Build 0)  -->
<svg version="1.1" id="圖層_1" xmlns="http://www.w3.org/2000/svg" xmlns:xlink="http://www.w3.org/1999/xlink" x="0px" y="0px"
	 viewBox="0 0 162 162" style="enable-background:new 0 0 162 162;" xml:space="preserve">
<style type="text/css">
	.st0{fill:#4BB5AB;}
	.st1{fill:#FFFFFF;stroke:#FFFFFF;stroke-miterlimit:10;}
</style>
<g>
	<circle class="st0" cx="81" cy="81" r="81"/>
	<path class="st1" d="M84.1,42.7c-0.8-0.1-1.6-0.1-2.4-0.2c-0.6,0-1.2,0-1.9,0c-0.6,0-1.3,0-1.9,0c-0.8,0-1.6,0.1-2.4,0.2
		c-20,2.2-35.7,19.2-35.7,39.7c0,19.5,14,35.7,32.5,39.3c2.1,0.4,4.2,0.6,6.3,0.7c0.4,0,0.8,0,1.2,0c0.4,0,0.8,0,1.2,0
		c2.2-0.1,4.3-0.3,6.3-0.7c18.5-3.5,32.5-19.8,32.5-39.3C119.8,61.9,104.1,44.9,84.1,42.7z M117,81.1h-13.5
		c-0.2-14.4-6.7-27.2-16.7-35.1C103.5,49.1,116.3,63.6,117,81.1z M79.1,45.3v35.8H59c0.2-15.5,8.2-28.9,19.7-35.7
		C78.9,45.3,79,45.3,79.1,45.3z M79.1,83.9v34.4c-11.4-6.6-19.3-19.4-20-34.4H79.1z M81.9,83.9h18.7c-0.7,14.4-8.1,26.9-18.7,33.6
		V83.9z M81.9,81.1V45.9c11.1,7,18.6,20.1,18.8,35.2H81.9z M72.9,45.9c-10,7.9-16.5,20.7-16.7,35.1H42.7
		C43.3,63.6,56.1,49.1,72.9,45.9z M42.7,83.9h13.6c0.7,15.1,8.2,28.1,19.3,35.5C57.5,117.3,43.4,102.3,42.7,83.9z M84.1,119.4
		c11.1-7.4,18.6-20.5,19.3-35.5H117C116.3,102.3,102.1,117.3,84.1,119.4z"/>
</g>
</svg>
