<?xml version="1.0" encoding="utf-8"?>
<!-- Generator: Adobe Illustrator 22.1.0, SVG Export Plug-In . SVG Version: 6.00 Build 0)  -->
<svg version="1.1" id="圖層_1" xmlns="http://www.w3.org/2000/svg" xmlns:xlink="http://www.w3.org/1999/xlink" x="0px" y="0px"
	 viewBox="0 0 240 240" style="enable-background:new 0 0 240 240;" xml:space="preserve">
<style type="text/css">
	.st0{fill:#EFEFEF;}
	.st1{fill:#E5E4E4;}
	.st2{fill:#6EBF61;}
	.st3{fill:#4BB5AB;}
	.st4{fill:#FFFFFF;}
	.st5{fill:#656666;}
	.st6{fill:#FFFFFF;stroke:#656666;stroke-width:3;stroke-miterlimit:10;}
	.st7{fill:#646666;}
</style>
<g>
	<g>
		<ellipse transform="matrix(0.7071 -0.7071 0.7071 0.7071 -49.7057 120)" class="st0" cx="120" cy="120" rx="120" ry="120"/>
	</g>
	<ellipse transform="matrix(0.7071 -0.7071 0.7071 0.7071 -49.7056 120.0001)" class="st1" cx="120" cy="120" rx="88.8" ry="88.8"/>
	<line class="st2" x1="116.9" y1="33.2" x2="116.9" y2="33.2"/>
	<g>
		<path class="st3" d="M122,144.3v13.7c2.5-0.1,4.5-0.8,5.9-2.1c1.4-1.3,2.1-2.8,2.1-4.7C130,147.3,127.3,145,122,144.3z"/>
		<path class="st3" d="M135.7,92.5h-30.3c-4.2,4.5-38.2,41.3-43.9,51c-4.4,7.5-8.1,19.7-4.1,29.3c3.2,7.6,10.7,13,22.4,15.9h81.5
			c11.7-2.9,19.2-8.2,22.4-15.9c4.1-9.7,0.3-21.9-4.1-29.3C173.9,133.8,139.9,97.1,135.7,92.5z M93.9,179.6l-4.5,0
			c-9.7-2.4-16-6.9-18.7-13.4c-4.4-10.5,1.9-22.1,3.2-24.3l2.5,1.5c-0.7,1.2-7,12.3-3,21.8c2.4,5.6,7.9,9.6,16.6,11.7h4V179.6z
			 M131.9,158.2c-2,2.3-5.3,3.6-10,4.1v6h-3.8v-6c-7-0.8-11.4-4-13.4-9.8l4.2-1.7c1.6,4.4,4.7,6.8,9.2,7.2v-14.5
			c-4.9-1.2-8-2.7-9.5-4.6c-1.5-1.9-2.2-4-2.2-6.3c0-6.1,3.9-9.7,11.6-11v-5.2h3.8v5.2c6.2,0.5,10.2,3.3,12.1,8.3l-4.2,1.4
			c-1.2-3.4-3.8-5.2-7.9-5.5v13.4c8.6,1.5,12.9,5.4,12.9,11.6C134.9,153.4,133.9,155.9,131.9,158.2z M170.4,166.1
			c-2.7,6.5-9,11.1-18.7,13.4l-0.2,0h-6.6v-2.9h6.3c8.6-2.2,14.2-6.1,16.6-11.7c4-9.4-2.3-20.5-3-21.8l2.5-1.5
			C168.5,144,174.8,155.6,170.4,166.1z"/>
		<path class="st3" d="M111.1,132c0,3.4,2.4,5.6,7.1,6.5v-12.9c-2.1,0.2-3.9,0.8-5.1,2C111.7,128.8,111.1,130.3,111.1,132z"/>
		<path class="st4" d="M164.7,143.3c0.7,1.2,7,12.3,3,21.8c-2.4,5.6-7.9,9.6-16.6,11.7h-6.3v2.9h6.6l0.2,0c9.7-2.4,16-6.9,18.7-13.4
			c4.4-10.5-1.9-22.1-3.2-24.3L164.7,143.3z"/>
		<path class="st4" d="M73.4,165c-4-9.4,2.3-20.5,3-21.8l-2.5-1.5c-1.3,2.2-7.6,13.8-3.2,24.3c2.7,6.5,9,11.1,18.7,13.4l4.5,0v-2.9
			h-4C81.3,174.6,75.7,170.6,73.4,165z"/>
		<g>
			<path class="st5" d="M182.1,142c-6.2-10.5-43.1-50.2-44.7-51.9l-0.4-0.5h-32.8l-0.4,0.5c-1.6,1.7-38.5,41.4-44.7,51.9
				c-1.7,2.9-10,18.2-4.3,31.9c3.6,8.5,11.8,14.5,24.5,17.6l82.3,0l0.2,0c12.7-3.1,20.9-9,24.5-17.6
				C192.1,160.2,183.8,145,182.1,142z M183.7,172.8c-3.2,7.6-10.7,13-22.4,15.9H79.8c-11.7-2.9-19.2-8.2-22.4-15.9
				c-4.1-9.7-0.3-21.9,4.1-29.3c5.7-9.7,39.7-46.4,43.9-51h30.3c4.2,4.5,38.2,41.3,43.9,51C184,151,187.7,163.2,183.7,172.8z"/>
			<path class="st3" d="M122,139.1v-13.4c4.1,0.3,6.7,2.1,7.9,5.5l4.2-1.4c-1.9-5-6-7.7-12.1-8.3v-5.2h-3.8v5.2
				c-7.8,1.3-11.6,5-11.6,11c0,2.3,0.7,4.4,2.2,6.3c1.4,1.9,4.6,3.4,9.5,4.6v14.5c-4.5-0.4-7.5-2.8-9.2-7.2l-4.2,1.7
				c2,5.8,6.4,9,13.4,9.8v6h3.8v-6c4.7-0.4,8-1.8,10-4.1c2-2.3,2.9-4.8,2.9-7.4C134.9,144.5,130.6,140.6,122,139.1z M118.1,138.6
				c-4.7-0.9-7.1-3.1-7.1-6.5c0-1.8,0.6-3.2,1.9-4.4c1.3-1.1,3-1.8,5.1-2V138.6z M127.9,155.8c-1.4,1.3-3.4,2-5.9,2.1v-13.7
				c5.4,0.8,8.1,3.1,8.1,6.9C130,153,129.3,154.6,127.9,155.8z"/>
		</g>
		<path class="st6" d="M106.4,133.8c-0.2,0.7-0.2,1.5-0.2,2.3c0,1.8,0.4,3.3,1.2,4.6c0.8,1.2,1.7,2.2,2.9,3c1.2,0.8,2.5,1.5,3.9,2
			c1.4,0.5,2.8,1,4.1,1.3c2.4,0.7,3.9,1.5,4.7,2.2c0.8,0.8,1.2,1.6,1.2,2.5c0,1-0.4,1.8-1.2,2.3c-0.8,0.5-1.6,0.8-2.4,0.8
			c-0.9,0-1.5-0.2-2-0.5c-0.5-0.3-0.9-0.7-1.1-1.1c-0.3-0.4-0.4-0.8-0.5-1.2c-0.1-0.4-0.1-0.7-0.1-0.9h-11v0.6
			c0,1.1,0.3,2.2,0.8,3.3c0.5,1.1,1.2,2.1,2,3c0.6,0.7,1.3,1.2,2,1.6c0.7,0.4,1.4,0.8,2.1,1c0.7,0.3,1.4,0.5,2,0.6
			c0.6,0.1,1.2,0.2,1.7,0.3v3.3c0,1.1,0.9,2,2,2h4.6c1.1,0,2-0.9,2-2v-2c0-0.9,0.5-1.7,1.4-1.9c1.8-0.6,3.3-1.4,4.4-2.3
			c1.4-1.1,2.4-2.2,3-3.3c0.6-1.1,1-2.1,1.1-3c0.1-0.9,0.2-1.5,0.2-1.7c0-0.7-0.1-1.5-0.4-2.4c-0.2-0.9-0.7-1.8-1.4-2.8
			c-0.7-0.9-1.6-1.9-2.9-2.7c-1.2-0.9-2.8-1.6-4.8-2.2c-1.4-0.5-2.7-0.9-3.7-1.2c-1.1-0.4-2-0.7-2.7-1.1c-0.7-0.4-1.3-0.8-1.7-1.3
			c-0.3-0.4-0.5-1-0.5-1.6c0-0.1,0-0.1,0-0.2c0-0.8,0.3-1.5,0.9-2.1c0.6-0.6,1.5-0.9,2.6-0.9c0.8,0,1.4,0.1,1.9,0.4
			c0.4,0.3,0.8,0.6,1,0.9c0.2,0.4,0.4,0.7,0.5,1.1c0.1,0.4,0.1,0.7,0.1,0.9h7.7c1.3,0,2.3-1.2,2-2.5c-0.1-0.4-0.2-0.9-0.4-1.3
			c-0.4-1.1-1.1-2.1-1.9-3c-0.8-0.8-1.8-1.5-2.9-2.1c-0.7-0.3-1.4-0.6-2.1-0.9c-0.9-0.3-1.5-1-1.5-2v-1.7c0-1.1-0.9-2-2-2h-4.6
			c-1.1,0-2,0.9-2,2v1.7c0,0.9-0.6,1.7-1.4,1.9c-0.8,0.2-1.5,0.5-2.3,0.8c-1.2,0.5-2.3,1.2-3.3,2.1c-1,0.9-1.8,1.9-2.4,3.1
			C106.8,132.4,106.6,133.1,106.4,133.8z"/>
		<path class="st3" d="M145.4,67.4c-2.1,2.5-4.4,5.3-9.1,5.3c-4.7,0-7-2.8-9.1-5.3c-1.9-2.3-3.5-4.2-6.7-4.2c-3.2,0-4.8,2-6.7,4.2
			c-2.1,2.5-4.4,5.3-9.1,5.3c-4.7,0-7-2.8-9.1-5.3c-1.4-1.7-2.6-3.2-4.5-3.8l14.2,29.2h29.8l14.7-29.2
			C148.1,64.2,146.8,65.7,145.4,67.4z"/>
		<path class="st5" d="M152.8,57.9c-0.2-0.1-0.4-0.1-0.6-0.1v0c-4.7,0-7,2.8-9.1,5.3c-1.9,2.3-3.5,4.2-6.7,4.2c-3.2,0-4.8-2-6.7-4.2
			c-2.1-2.5-4.4-5.3-9.1-5.3c-4.7,0-7,2.8-9.1,5.3c-1.9,2.3-3.5,4.2-6.7,4.2c-3.2,0-4.8-2-6.7-4.2c-2.1-2.5-4.4-5.3-9.1-5.3v0
			c-0.2,0-0.4,0-0.6,0.1c-0.7,0.3-1,1.2-0.7,1.9l15.9,32.8h33.4l16.5-32.7C153.8,59.1,153.5,58.2,152.8,57.9z M135.1,89.7h-29.8
			L91.2,60.5c1.8,0.7,3.1,2.2,4.5,3.8c2.1,2.5,4.4,5.3,9.1,5.3c4.7,0,7-2.8,9.1-5.3c1.9-2.3,3.5-4.2,6.7-4.2c3.2,0,4.8,2,6.7,4.2
			c2.1,2.5,4.4,5.3,9.1,5.3c4.7,0,7-2.8,9.1-5.3c1.4-1.7,2.6-3.1,4.4-3.8L135.1,89.7z"/>
	</g>
	<g>
		<ellipse class="st4" cx="184.9" cy="179.5" rx="18.4" ry="9"/>
		<path class="st7" d="M184.9,189.5c-10.9,0-19.4-4.4-19.4-10c0-5.6,8.5-10,19.4-10c10.9,0,19.4,4.4,19.4,10
			C204.3,185.1,195.8,189.5,184.9,189.5z M184.9,171.4c-9.4,0-17.4,3.7-17.4,8c0,4.4,8,8,17.4,8c9.4,0,17.4-3.7,17.4-8
			C202.3,175.1,194.3,171.4,184.9,171.4z"/>
	</g>
	<g>
		<ellipse class="st4" cx="184.9" cy="170.2" rx="18.4" ry="9"/>
		<path class="st7" d="M184.9,180.2c-10.9,0-19.4-4.4-19.4-10c0-5.6,8.5-10,19.4-10c10.9,0,19.4,4.4,19.4,10
			C204.3,175.8,195.8,180.2,184.9,180.2z M184.9,162.1c-9.4,0-17.4,3.7-17.4,8c0,4.4,8,8,17.4,8c9.4,0,17.4-3.7,17.4-8
			C202.3,165.8,194.3,162.1,184.9,162.1z"/>
	</g>
	<g>
		<ellipse class="st4" cx="184.9" cy="160.9" rx="18.4" ry="9"/>
		<path class="st7" d="M184.9,170.9c-10.9,0-19.4-4.4-19.4-10c0-5.6,8.5-10,19.4-10c10.9,0,19.4,4.4,19.4,10
			C204.3,166.5,195.8,170.9,184.9,170.9z M184.9,152.9c-9.4,0-17.4,3.7-17.4,8c0,4.4,8,8,17.4,8c9.4,0,17.4-3.7,17.4-8
			C202.3,156.5,194.3,152.9,184.9,152.9z"/>
	</g>
	<g>
		<ellipse class="st4" cx="184.9" cy="151.6" rx="18.4" ry="9"/>
		<path class="st7" d="M184.9,161.7c-10.9,0-19.4-4.4-19.4-10c0-5.6,8.5-10,19.4-10c10.9,0,19.4,4.4,19.4,10
			C204.3,157.2,195.8,161.7,184.9,161.7z M184.9,143.6c-9.4,0-17.4,3.7-17.4,8c0,4.4,8,8,17.4,8c9.4,0,17.4-3.7,17.4-8
			C202.3,147.3,194.3,143.6,184.9,143.6z"/>
	</g>
	<g>
		<ellipse class="st4" cx="184.9" cy="142.3" rx="18.4" ry="9"/>
		<path class="st7" d="M184.9,152.4c-10.9,0-19.4-4.4-19.4-10c0-5.6,8.5-10,19.4-10c10.9,0,19.4,4.4,19.4,10
			C204.3,148,195.8,152.4,184.9,152.4z M184.9,134.3c-9.4,0-17.4,3.7-17.4,8s8,8,17.4,8c9.4,0,17.4-3.7,17.4-8
			S194.3,134.3,184.9,134.3z"/>
	</g>
	<path class="st7" d="M168,174.7c0,0.3-0.3,0.6-0.6,0.6c-0.3,0-0.6-0.3-0.6-0.6c0-0.3,0.3-0.6,0.6-0.6
		C167.8,174.2,168,174.4,168,174.7z"/>
	<path class="st7" d="M168,146.9c0,0.3-0.2,0.5-0.5,0.5s-0.5-0.2-0.5-0.5c0-0.3,0.2-0.5,0.5-0.5S168,146.7,168,146.9z"/>
	<path class="st7" d="M167.5,165.3C167.5,165.3,167.5,165.3,167.5,165.3l0-8.6c0.2-0.1,0.3-0.3,0.3-0.5c0-0.2-0.1-0.4-0.3-0.5v-14.1
		h-2V180h2v-13.5c0,0,0,0,0,0c0.3,0,0.6-0.3,0.6-0.6C168.1,165.6,167.9,165.3,167.5,165.3z"/>
</g>
</svg>
