<?xml version="1.0" encoding="utf-8"?>
<!-- Generator: Adobe Illustrator 22.1.0, SVG Export Plug-In . SVG Version: 6.00 Build 0)  -->
<svg version="1.1" id="圖層_1" xmlns="http://www.w3.org/2000/svg" xmlns:xlink="http://www.w3.org/1999/xlink" x="0px" y="0px"
	 viewBox="0 0 123 86" style="enable-background:new 0 0 123 86;" xml:space="preserve">
<style type="text/css">
	.st0{fill:#DCDCDC;}
	.st1{fill:#FFFFFF;}
	.st2{fill:none;}
</style>
<path class="st0" d="M118.5,0H42.8C19.2,0,0,19.2,0,42.8l0,0c0,23.5,19.2,42.8,42.8,42.8h75.7c1.6,0,3.1-0.1,4.7-0.3v-85
	C121.6,0.1,120.1,0,118.5,0z"/>
<path class="st1" d="M78.4,16.2c-0.9,1.1-1.9,2.3-3.9,2.3c-2,0-3-1.2-3.9-2.3c-0.8-1-1.5-1.8-2.9-1.8c-1.4,0-2.1,0.8-2.9,1.8
	C64,17.3,63,18.5,61,18.5c-2,0-3-1.2-3.9-2.3c-0.6-0.7-1.1-1.4-1.9-1.6l6.1,12.5H74l6.3-12.5C79.5,14.9,79,15.5,78.4,16.2z"/>
<path class="st2" d="M68.3,39.3h-0.6C67.9,39.3,68.1,39.3,68.3,39.3L68.3,39.3z"/>
<path class="st2" d="M66.7,39.3L66.7,39.3c0.3,0,0.7,0,1,0H66.7z"/>
<path class="st2" d="M47.5,60.2c-1.7-4,1-8.8,1.3-9.3l-1.1-0.6c-0.6,1-3.3,5.9-1.4,10.4c1.2,2.8,3.9,4.7,8,5.8l1.9,0v-1.2h-1.7
	C50.9,64.3,48.5,62.6,47.5,60.2z"/>
<path class="st2" d="M86.7,50.8c0.3,0.5,3,5.3,1.3,9.3c-1,2.4-3.4,4.1-7.1,5h-2.7v1.2H81l0.1,0c4.1-1,6.8-3,8-5.8
	c1.9-4.5-0.8-9.5-1.4-10.4L86.7,50.8z"/>
<path class="st1" d="M93.1,50.9C90.6,46.8,76,31,74.2,29.1h-13C59.4,31,44.9,46.8,42.4,50.9c-1.9,3.2-3.5,8.4-1.7,12.6
	c1.4,3.3,4.6,5.6,9.6,6.8h34.9c5-1.2,8.2-3.5,9.6-6.8C96.5,59.4,94.9,54.1,93.1,50.9z M66.7,39.3h1h0.6v0c-0.2,0-0.4,0-0.6,0
	C67.4,39.3,67,39.3,66.7,39.3L66.7,39.3z M56.3,66.4l-1.9,0c-4.1-1-6.8-3-8-5.8c-1.9-4.5,0.8-9.5,1.4-10.4l1.1,0.6
	c-0.3,0.5-3,5.3-1.3,9.3c1,2.4,3.4,4.1,7.1,5h1.7V66.4z M74.5,54.7c-0.1,0.5-0.2,0.9-0.5,1.5c-0.3,0.5-0.8,1.1-1.4,1.6
	c-0.5,0.4-1.2,0.8-2,1.1c-0.1,0-0.2,0.2-0.2,0.4V60c0,0.8-0.6,1.4-1.4,1.4h-2c-0.8,0-1.4-0.6-1.4-1.4v-1l-0.3-0.1
	c-0.3-0.1-0.6-0.1-0.9-0.3c-0.3-0.1-0.7-0.3-1-0.5c-0.3-0.2-0.7-0.5-1-0.8c-0.4-0.4-0.7-0.9-1-1.4c-0.3-0.6-0.4-1.1-0.4-1.6v-0.7
	h5.7v0.5c0,0,0,0.1,0,0.3c0,0.1,0.1,0.2,0.2,0.4c0.1,0.1,0.2,0.2,0.3,0.3c0.2,0.2,0.8,0.2,1.4-0.1c0.2-0.1,0.3-0.3,0.3-0.6
	c0-0.2-0.1-0.5-0.4-0.7c-0.2-0.2-0.7-0.5-1.8-0.8c-0.6-0.2-1.2-0.4-1.8-0.6c-0.7-0.2-1.3-0.5-1.8-0.9c-0.6-0.4-1-0.9-1.4-1.4
	c-0.4-0.6-0.6-1.3-0.6-2.2c0-0.4,0-0.8,0.1-1.1l0,0c0.1-0.3,0.2-0.7,0.3-1c0.3-0.6,0.7-1.1,1.1-1.5c0.5-0.4,1-0.7,1.5-1
	c0.3-0.1,0.7-0.3,1-0.4c0.1,0,0.2-0.2,0.2-0.4v-0.7c0-0.8,0.6-1.4,1.4-1.4h2c0.8,0,1.4,0.6,1.4,1.4v0.7c0,0.2,0.1,0.3,0.3,0.4
	c0.3,0.1,0.7,0.2,1,0.4c0.5,0.3,1,0.6,1.4,1c0.4,0.4,0.7,0.9,0.9,1.4c0.1,0.2,0.1,0.4,0.2,0.6c0.1,0.4,0,0.8-0.3,1.2
	c-0.3,0.3-0.7,0.5-1.1,0.5h-3.8v-0.5c0,0,0-0.1,0-0.3c0-0.1-0.1-0.2-0.1-0.3c-0.1-0.1-0.1-0.2-0.3-0.2c-0.1,0-0.2-0.1-0.6-0.1
	c-0.3,0-0.6,0.1-0.7,0.2c-0.2,0.2-0.2,0.3-0.2,0.5c0,0.2,0.1,0.3,0.1,0.4c0.1,0.1,0.3,0.3,0.5,0.4c0.3,0.2,0.7,0.3,1.1,0.5
	c0.5,0.2,1,0.3,1.6,0.5c0.9,0.3,1.6,0.6,2.2,1c0.6,0.4,1,0.8,1.4,1.3c0.3,0.5,0.6,0.9,0.7,1.4c0.1,0.4,0.2,0.8,0.2,1.1
	C74.5,54,74.5,54.3,74.5,54.7z M89.1,60.6c-1.2,2.8-3.9,4.7-8,5.8l-0.1,0h-2.8v-1.2h2.7c3.7-0.9,6.1-2.6,7.1-5c1.7-4-1-8.8-1.3-9.3
	l1.1-0.6C88.3,51.2,91,56.1,89.1,60.6z"/>
<ellipse class="st1" cx="68.1" cy="52" rx="9.3" ry="12.2"/>
<path class="st0" d="M74,52c-0.3-0.4-0.8-0.8-1.3-1.2c-0.6-0.4-1.4-0.8-2.3-1.1c-0.7-0.2-1.4-0.4-1.9-0.6c-0.6-0.2-1.1-0.4-1.5-0.6
	c-0.5-0.2-0.8-0.5-1.1-0.9c-0.2-0.3-0.4-0.7-0.4-1.1l0-0.1c0-0.6,0.2-1.1,0.6-1.5c0.4-0.4,1-0.6,1.7-0.6c0.5,0,0.9,0.1,1.3,0.3
	c0.3,0.2,0.6,0.4,0.7,0.7c0.2,0.2,0.3,0.5,0.3,0.7h3.4c0.1,0,0.3-0.1,0.4-0.2c0.1-0.1,0.1-0.2,0.1-0.4c0-0.2-0.1-0.4-0.2-0.6
	c-0.2-0.5-0.5-0.9-0.8-1.3c-0.4-0.4-0.8-0.7-1.3-1c-0.3-0.2-0.6-0.3-1-0.4c-0.7-0.2-1.2-0.8-1.2-1.6v-0.9c0-0.2-0.2-0.4-0.4-0.4
	h-2.3c-0.2,0-0.4,0.2-0.4,0.4v0.9c0,0.7-0.5,1.4-1.1,1.6c-0.4,0.1-0.7,0.2-1.1,0.4c-0.6,0.2-1.1,0.6-1.5,1c-0.4,0.4-0.8,0.9-1.1,1.4
	c-0.1,0.3-0.2,0.5-0.3,0.9c-0.1,0.3-0.1,0.7-0.1,1c0,0.8,0.2,1.5,0.5,2c0.3,0.5,0.8,1,1.3,1.4c0.6,0.4,1.2,0.7,1.9,0.9
	c0.7,0.3,1.4,0.5,2.1,0.7c1.3,0.4,2.2,0.8,2.7,1.3c0.5,0.5,0.8,1.1,0.8,1.7c0,0.7-0.3,1.3-0.9,1.7c-1.1,0.7-2.2,0.6-2.9,0.1
	c-0.3-0.2-0.6-0.5-0.8-0.8c-0.2-0.3-0.3-0.5-0.3-0.8h-4.5c0,0.4,0.2,0.8,0.3,1.2c0.2,0.5,0.6,1,0.9,1.4c0.3,0.3,0.6,0.5,0.9,0.7
	c0.3,0.2,0.7,0.4,1,0.5c0.3,0.1,0.6,0.2,0.9,0.3l1.3,0.3v2.2c0,0.2,0.2,0.4,0.4,0.4h2.3c0.2,0,0.4-0.2,0.4-0.4v-1
	c0-0.7,0.4-1.3,1.1-1.5c0.9-0.3,1.6-0.6,2.1-1.1c0.6-0.5,1.1-1,1.4-1.5c0.3-0.5,0.5-0.9,0.5-1.3c0-0.4,0.1-0.7,0.1-0.8
	c0-0.3-0.1-0.6-0.2-1.1C74.5,52.9,74.3,52.5,74,52z"/>
</svg>
