<?xml version="1.0" encoding="utf-8"?>
<!-- Generator: Adobe Illustrator 22.1.0, SVG Export Plug-In . SVG Version: 6.00 Build 0)  -->
<svg version="1.1" id="圖層_1" xmlns="http://www.w3.org/2000/svg" xmlns:xlink="http://www.w3.org/1999/xlink" x="0px" y="0px"
	 viewBox="0 0 60 60" style="enable-background:new 0 0 60 60;" xml:space="preserve">
<style type="text/css">
	.st0{fill:#49B3AA;}
	.st1{fill:#FFFFFF;}
	.st2{fill:none;}
</style>
<g>
	<path class="st0" d="M56,60H4c-2.2,0-4-1.8-4-4V4c0-2.2,1.8-4,4-4h52c2.2,0,4,1.8,4,4v52C60,58.2,58.2,60,56,60z"/>
	<g>
		<path class="st1" d="M37,12.9c-0.6,0.7-1.2,1.5-2.5,1.5c-1.3,0-2-0.8-2.5-1.5c-0.5-0.6-1-1.2-1.9-1.2c-0.9,0-1.4,0.5-1.9,1.2
			c-0.6,0.7-1.2,1.5-2.5,1.5c-1.3,0-2-0.8-2.5-1.5c-0.4-0.5-0.7-0.9-1.3-1.1l4,8.2h8.3l4.1-8.2C37.7,12,37.4,12.5,37,12.9z"/>
		<path class="st2" d="M30.4,28H30C30.1,28,30.3,28,30.4,28L30.4,28z"/>
		<path class="st2" d="M29.3,28L29.3,28c0.2,0,0.4,0,0.7,0H29.3z"/>
		<path class="st2" d="M16.8,41.6c-1.1-2.6,0.6-5.7,0.9-6.1l-0.7-0.4c-0.4,0.6-2.1,3.9-0.9,6.8c0.8,1.8,2.5,3.1,5.2,3.8l1.3,0v-0.8
			h-1.1C19,44.3,17.4,43.2,16.8,41.6z"/>
		<path class="st2" d="M42.4,35.5c0.2,0.3,2,3.5,0.9,6.1c-0.7,1.6-2.2,2.7-4.6,3.3h-1.8v0.8h1.9l0,0c2.7-0.7,4.5-1.9,5.2-3.8
			c1.2-2.9-0.5-6.2-0.9-6.8L42.4,35.5z"/>
		<path class="st1" d="M46.5,35.6c-1.6-2.7-11.1-13-12.3-14.3h-8.5c-1.2,1.3-10.7,11.6-12.3,14.3c-1.2,2.1-2.3,5.5-1.1,8.2
			c0.9,2.1,3,3.6,6.3,4.4h22.8c3.3-0.8,5.4-2.3,6.3-4.4C48.8,41.1,47.8,37.7,46.5,35.6z M29.3,28H30h0.4v0c-0.1,0-0.3,0-0.4,0
			C29.8,28,29.5,28,29.3,28L29.3,28z M22.5,45.7l-1.3,0c-2.7-0.7-4.5-1.9-5.2-3.8c-1.2-2.9,0.5-6.2,0.9-6.8l0.7,0.4
			c-0.2,0.3-2,3.5-0.9,6.1c0.7,1.6,2.2,2.7,4.6,3.3h1.1V45.7z M34.4,38c0,0.3-0.2,0.6-0.4,1c-0.2,0.3-0.5,0.7-0.9,1
			c-0.3,0.3-0.8,0.5-1.3,0.7c-0.1,0-0.2,0.1-0.2,0.2v0.6c0,0.5-0.4,0.9-0.9,0.9h-1.3c-0.5,0-0.9-0.4-0.9-0.9v-0.7l-0.2,0
			c-0.2,0-0.4-0.1-0.6-0.2c-0.2-0.1-0.4-0.2-0.6-0.3c-0.2-0.1-0.4-0.3-0.6-0.5c-0.3-0.3-0.5-0.6-0.6-0.9c-0.2-0.4-0.3-0.7-0.3-1.1
			v-0.5h3.7v0.3c0,0,0,0,0,0.2c0,0.1,0.1,0.2,0.1,0.2c0,0.1,0.1,0.1,0.2,0.2c0.2,0.1,0.5,0.1,0.9-0.1c0.1-0.1,0.2-0.2,0.2-0.4
			c0-0.2-0.1-0.3-0.2-0.5c-0.1-0.1-0.4-0.3-1.2-0.6c-0.4-0.1-0.8-0.2-1.2-0.4c-0.4-0.2-0.8-0.4-1.2-0.6c-0.4-0.2-0.7-0.6-0.9-0.9
			c-0.2-0.4-0.4-0.9-0.4-1.5c0-0.3,0-0.5,0.1-0.7l0,0c0-0.2,0.1-0.4,0.2-0.6c0.2-0.4,0.4-0.7,0.7-1c0.3-0.3,0.6-0.5,1-0.6
			c0.2-0.1,0.4-0.2,0.7-0.2c0.1,0,0.2-0.1,0.2-0.2v-0.5c0-0.5,0.4-0.9,0.9-0.9h1.3c0.5,0,0.9,0.4,0.9,0.9V30c0,0.1,0.1,0.2,0.2,0.2
			c0.2,0.1,0.4,0.2,0.6,0.3c0.3,0.2,0.6,0.4,0.9,0.7c0.3,0.3,0.5,0.6,0.6,0.9c0.1,0.1,0.1,0.3,0.1,0.4c0.1,0.3,0,0.5-0.2,0.8
			c-0.2,0.2-0.4,0.3-0.7,0.3h-2.5v-0.3c0,0,0-0.1,0-0.2c0-0.1,0-0.1-0.1-0.2c0-0.1-0.1-0.1-0.2-0.2c0,0-0.1-0.1-0.4-0.1
			c-0.2,0-0.4,0.1-0.5,0.2c-0.1,0.1-0.2,0.2-0.2,0.3c0,0.1,0,0.2,0.1,0.3c0.1,0.1,0.2,0.2,0.4,0.3c0.2,0.1,0.4,0.2,0.7,0.3
			c0.3,0.1,0.6,0.2,1,0.3c0.6,0.2,1.1,0.4,1.4,0.7c0.4,0.3,0.7,0.5,0.9,0.8c0.2,0.3,0.4,0.6,0.4,0.9c0.1,0.3,0.1,0.5,0.1,0.7
			C34.4,37.6,34.4,37.8,34.4,38z M44,41.9c-0.8,1.8-2.5,3.1-5.2,3.8l0,0h-1.9v-0.8h1.8c2.4-0.6,4-1.7,4.6-3.3
			c1.1-2.6-0.6-5.7-0.9-6.1l0.7-0.4C43.4,35.7,45.2,39,44,41.9z"/>
		<ellipse class="st1" cx="30.3" cy="36.3" rx="6.1" ry="7.9"/>
		<path class="st0" d="M34.1,36.3c-0.2-0.3-0.5-0.6-0.9-0.8c-0.4-0.3-0.9-0.5-1.5-0.7c-0.5-0.2-0.9-0.3-1.2-0.4
			c-0.4-0.1-0.7-0.3-1-0.4c-0.3-0.2-0.5-0.3-0.7-0.6c-0.2-0.2-0.2-0.5-0.3-0.7l0-0.1c0-0.4,0.1-0.7,0.4-1c0.3-0.3,0.7-0.4,1.1-0.4
			c0.3,0,0.6,0.1,0.8,0.2c0.2,0.1,0.4,0.3,0.5,0.4c0.1,0.2,0.2,0.3,0.2,0.5h2.2c0.1,0,0.2,0,0.2-0.1c0,0,0.1-0.1,0.1-0.2
			c0-0.1-0.1-0.2-0.1-0.4c-0.1-0.3-0.3-0.6-0.6-0.9c-0.2-0.2-0.5-0.5-0.9-0.6c-0.2-0.1-0.4-0.2-0.6-0.3c-0.5-0.1-0.8-0.6-0.8-1v-0.6
			c0-0.2-0.1-0.3-0.3-0.3h-1.5c-0.2,0-0.3,0.1-0.3,0.3v0.6c0,0.5-0.3,0.9-0.7,1c-0.2,0.1-0.5,0.2-0.7,0.3c-0.4,0.2-0.7,0.4-1,0.6
			c-0.3,0.3-0.5,0.6-0.7,0.9c-0.1,0.2-0.2,0.4-0.2,0.6c0,0.2-0.1,0.4-0.1,0.7c0,0.5,0.1,1,0.3,1.3c0.2,0.4,0.5,0.7,0.9,0.9
			c0.4,0.3,0.8,0.5,1.2,0.6c0.5,0.2,0.9,0.3,1.4,0.4c0.9,0.3,1.4,0.5,1.7,0.8c0.3,0.3,0.5,0.7,0.5,1.1c0,0.5-0.2,0.9-0.6,1.1
			c-0.7,0.4-1.5,0.4-1.9,0.1c-0.2-0.1-0.4-0.3-0.5-0.5c-0.1-0.2-0.2-0.3-0.2-0.5h-2.9c0,0.2,0.1,0.5,0.2,0.8
			c0.2,0.3,0.4,0.6,0.6,0.9c0.2,0.2,0.4,0.4,0.6,0.5c0.2,0.1,0.4,0.2,0.6,0.3c0.2,0.1,0.4,0.1,0.6,0.2l0.9,0.2v1.4
			c0,0.2,0.1,0.3,0.3,0.3h1.5c0.2,0,0.3-0.1,0.3-0.3v-0.7c0-0.5,0.3-0.9,0.7-1c0.6-0.2,1-0.4,1.3-0.7c0.4-0.3,0.7-0.7,0.9-1
			c0.2-0.3,0.3-0.6,0.3-0.9c0-0.3,0.1-0.4,0.1-0.5c0-0.2,0-0.4-0.1-0.7C34.4,36.9,34.3,36.6,34.1,36.3z"/>
	</g>
</g>
</svg>
