<?xml version="1.0" encoding="utf-8"?>
<!-- Generator: Adobe Illustrator 22.1.0, SVG Export Plug-In . SVG Version: 6.00 Build 0)  -->
<svg version="1.1" id="圖層_1" xmlns="http://www.w3.org/2000/svg" xmlns:xlink="http://www.w3.org/1999/xlink" x="0px" y="0px"
	 viewBox="0 0 435.1 207.7" style="enable-background:new 0 0 435.1 207.7;" xml:space="preserve">
<style type="text/css">
	.st0{fill:#FAFBFB;}
</style>
<g>
	<path class="st0" d="M219.5,50.4c-27,0-48.8,21.9-48.8,48.8c0,27,21.9,48.8,48.8,48.8s48.8-21.9,48.8-48.8
		C268.3,72.2,246.5,50.4,219.5,50.4z M219.5,116.8c-9.7,0-17.6-7.9-17.6-17.6s7.9-17.6,17.6-17.6s17.6,7.9,17.6,17.6
		S229.2,116.8,219.5,116.8z"/>
	<path class="st0" d="M145.4,133.4l-17.7,0l0-118.7c0-7-4.8-13.4-11.7-14.5c-7.2-1.2-12.4,3.9-15.7,9.2L3,138.9l0,0
		c-2.5,3.2-3.7,7.4-2.7,11.9c1.5,6.5,7.7,10.9,14.3,10.9h84.7l0,31.3c0,6.8,4.5,13,11.2,14.4c9.1,1.8,17-5.1,17-13.8v-31.9H146
		c8.8,0,15.6-8,13.8-17C158.5,138,152.2,133.4,145.4,133.4z M42.4,133.4l57-75.9v75.9H42.4z"/>
	<path class="st0" d="M420.5,133.4l-17.7,0V14.7c0-7-4.8-13.4-11.7-14.5c-7.2-1.2-12.4,3.9-15.7,9.2l-97.3,129.5l0,0
		c-2.5,3.2-3.7,7.4-2.7,11.9c1.5,6.5,7.7,10.9,14.3,10.9h84.7l0,31.3c0,6.8,4.5,13,11.2,14.4c9.1,1.8,17-5.1,17-13.8v-31.9H421
		c8.8,0,15.6-8,13.8-17C433.5,138,427.3,133.4,420.5,133.4z M317.5,133.4l57-75.9v75.9H317.5z"/>
</g>
</svg>
