<?xml version="1.0" encoding="utf-8"?>
<!-- Generator: Adobe Illustrator 22.1.0, SVG Export Plug-In . SVG Version: 6.00 Build 0)  -->
<svg version="1.1" id="圖層_1" xmlns="http://www.w3.org/2000/svg" xmlns:xlink="http://www.w3.org/1999/xlink" x="0px" y="0px"
	 viewBox="0 0 243.8 243.8" style="enable-background:new 0 0 243.8 243.8;" xml:space="preserve">
<style type="text/css">
	.st0{fill:#0D9082;}
	.st1{fill:#0D9082;stroke:#0D9082;stroke-width:5;stroke-miterlimit:10;}
</style>
<g>
	<path class="st0" d="M121.9,243.8C54.7,243.8,0,189.1,0,121.9S54.7,0,121.9,0s121.9,54.7,121.9,121.9S189.1,243.8,121.9,243.8z
		 M121.9,12.4C61.5,12.4,12.3,61.5,12.3,122s49.1,109.6,109.6,109.6S231.5,182.5,231.5,122S182.3,12.4,121.9,12.4z"/>
</g>
<g>
	<path class="st1" d="M70,121.8c0-0.1,0-0.1,0-0.2c0-4.8-1.5-9.5-4.5-13.6c-0.7-1-1.5-1.9-2.3-2.7c-9.1-9.1-23.8-9.1-32.9,0
		c-4.5,4.5-6.8,10.5-6.8,16.5h9c0-3.7,1.4-7.3,4.2-10.1c5.6-5.6,14.7-5.6,20.3,0c2.8,2.8,4.1,6.3,4.2,9.9c0,0.1,0,0.1,0,0.2
		c0,0.1,0,0.1,0,0.2h9C70,121.9,70,121.8,70,121.8z"/>
	<path class="st1" d="M98.6,121.9c0,3.6-1.4,7.2-4.2,10c-5.6,5.6-14.7,5.6-20.3,0c-2.8-2.8-4.1-6.3-4.2-9.9c0,0,0,0,0,0h-9
		c0,0,0,0,0,0c0,4.8,1.5,9.5,4.5,13.6c0.7,1,1.5,1.9,2.3,2.7c9.1,9.1,23.8,9.1,32.9,0c4.5-4.5,6.8-10.4,6.8-16.3H98.6z"/>
	<path class="st1" d="M145.2,122c0-0.1,0-0.1,0-0.2c0-4.8-1.5-9.5-4.5-13.6c-0.7-1-1.5-1.9-2.3-2.7c-9.1-9.1-23.8-9.1-32.9,0
		c-4.5,4.5-6.8,10.5-6.8,16.5h9c0-3.7,1.4-7.3,4.2-10.1c5.6-5.6,14.7-5.6,20.3,0c2.8,2.8,4.1,6.3,4.2,9.9c0,0.1,0,0.1,0,0.2
		c0,0.1,0,0.1,0,0.2h9C145.2,122.1,145.2,122.1,145.2,122z"/>
	<path class="st1" d="M173.9,122.2c0,3.6-1.4,7.2-4.2,10c-5.6,5.6-14.7,5.6-20.3,0c-2.8-2.8-4.1-6.3-4.2-9.9c0,0,0,0,0,0h-9
		c0,0,0,0,0,0c0,4.8,1.5,9.5,4.5,13.6c0.7,1,1.5,1.9,2.3,2.7c9.1,9.1,23.8,9.1,32.9,0c4.5-4.5,6.8-10.4,6.8-16.3H173.9z"/>
	<path class="st1" d="M220.4,122.2c0-0.1,0-0.1,0-0.2c0-4.8-1.5-9.5-4.5-13.6c-0.7-1-1.5-1.9-2.3-2.7c-9.1-9.1-23.8-9.1-32.9,0
		c-4.5,4.5-6.8,10.5-6.8,16.5h9c0-3.7,1.4-7.3,4.2-10.1c5.6-5.6,14.7-5.6,20.3,0c2.8,2.8,4.1,6.3,4.2,9.9c0,0.1,0,0.1,0,0.2
		c0,0.1,0,0.1,0,0.2h9C220.4,122.3,220.4,122.2,220.4,122.2z"/>
</g>
</svg>
