<?xml version="1.0" encoding="utf-8"?>
<!-- Generator: Adobe Illustrator 22.1.0, SVG Export Plug-In . SVG Version: 6.00 Build 0)  -->
<svg version="1.1" id="圖層_1" xmlns="http://www.w3.org/2000/svg" xmlns:xlink="http://www.w3.org/1999/xlink" x="0px" y="0px"
	 viewBox="0 0 243.8 243.8" style="enable-background:new 0 0 243.8 243.8;" xml:space="preserve">
<style type="text/css">
	.st0{fill:#0D9082;}
	.st1{fill:#FFFFFF;}
</style>
<g>
	<path class="st0" d="M121.9,243.8C54.7,243.8,0,189.1,0,121.9S54.7,0,121.9,0s121.9,54.7,121.9,121.9S189.1,243.8,121.9,243.8z
		 M121.9,12.4C61.5,12.4,12.3,61.5,12.3,122s49.1,109.6,109.6,109.6S231.5,182.5,231.5,122S182.3,12.4,121.9,12.4z"/>
</g>
<g>
	<polygon class="st0" points="41.6,104.8 14.2,147.5 31.9,147.5 58.4,104.8 	"/>
	<polygon class="st0" points="45.4,104.8 37.3,104.8 9.8,147.5 17.9,147.5 	"/>
	<polyline class="st1" points="66.5,106.8 62.2,106.8 34.7,147.5 39.1,147.5 	"/>
	<polygon class="st0" points="87.7,104.8 60.2,147.5 78.9,147.5 105.4,104.8 	"/>
	<polygon class="st0" points="83.3,104.8 55.8,147.5 60.2,147.5 87.7,104.8 	"/>
	<polygon class="st0" points="129.9,104.8 102.5,147.5 120.3,147.5 146.7,104.8 	"/>
	<polygon class="st0" points="125.6,104.8 98.1,147.5 102.5,147.5 129.9,104.8 	"/>
	<polygon class="st0" points="172.2,104.8 144.8,147.5 162.5,147.5 189,104.8 	"/>
	<polygon class="st0" points="167.9,104.8 140.4,147.5 144.8,147.5 172.2,104.8 	"/>
	<polygon class="st0" points="187,147.5 209.2,147.5 235.6,104.8 214.5,104.8 	"/>
</g>
</svg>
