<?xml version="1.0" encoding="utf-8"?>
<!-- Generator: Adobe Illustrator 22.1.0, SVG Export Plug-In . SVG Version: 6.00 Build 0)  -->
<svg version="1.1" id="圖層_1" xmlns="http://www.w3.org/2000/svg" xmlns:xlink="http://www.w3.org/1999/xlink" x="0px" y="0px"
	 viewBox="0 0 243.8 243.8" style="enable-background:new 0 0 243.8 243.8;" xml:space="preserve">
<style type="text/css">
	.st0{fill:#0D9082;}
</style>
<g>
	<path class="st0" d="M121.9,243.8C54.7,243.8,0,189.1,0,121.9S54.7,0,121.9,0s121.9,54.7,121.9,121.9S189.1,243.8,121.9,243.8z
		 M121.9,12.4C61.5,12.4,12.3,61.5,12.3,122s49.1,109.6,109.6,109.6S231.5,182.5,231.5,122S182.3,12.4,121.9,12.4z"/>
</g>
<g>
	<g>
		<path class="st0" d="M158.4,87c-8.9-8.9-21.2-14.4-34.8-14.4c-25.9,0-47.1,20.1-49,45.6h11.4c1.9-19.2,18-34.2,37.7-34.2
			c10.4,0,19.9,4.4,26.7,11.2l-11.5,11.6h19.5h12.1h2.5V72.6L158.4,87z"/>
		<path class="st0" d="M123.6,159.9c-11.9,0-22.5-5.5-29.3-14.2l12.3-12.3H87.4H75.7h-3.2v34.2l13.6-13.7
			c9.1,10.6,22.5,17.5,37.5,17.5c27.1,0,49.2-22.2,49.2-49.3h-11.4C161.5,142.8,144.4,159.9,123.6,159.9z"/>
	</g>
</g>
</svg>
