<?xml version="1.0" encoding="utf-8"?>
<!-- Generator: Adobe Illustrator 22.1.0, SVG Export Plug-In . SVG Version: 6.00 Build 0)  -->
<svg version="1.1" id="圖層_1" xmlns="http://www.w3.org/2000/svg" xmlns:xlink="http://www.w3.org/1999/xlink" x="0px" y="0px"
	 viewBox="0 0 60 60" style="enable-background:new 0 0 60 60;" xml:space="preserve">
<style type="text/css">
	.st0{fill:#49B3AA;}
	.st1{fill:#FFFFFF;}
</style>
<g>
	<path class="st0" d="M56,60H4c-2.2,0-4-1.8-4-4V4c0-2.2,1.8-4,4-4h52c2.2,0,4,1.8,4,4v52C60,58.2,58.2,60,56,60z"/>
	<g>
		<path class="st1" d="M49.6,24.7C44.8,13.2,35.2,7.4,24.7,10.6C13.4,13.9,8.3,24.6,8.6,32.8c0.4,11.7,18.6,21.6,30.7,15.7
			C49.9,43.4,54.2,35.5,49.6,24.7z M42.6,20.1c-0.2,2.2-3.9,3.1-3.9,3.1l-0.1-0.1c0.9,3.5,3.5,13.3,3.7,14.5
			c0.2,1.5-0.4,3.4-0.4,3.4s-3.3,6.8-13.3,5.8c-10-1-10.2-8.9-10-10.7c0.1-1.5,4.1-11,5.4-14l-0.6-0.2c-3.3-0.9-3.8-3.7-3.3-5
			c0.5-1.3,2.1-2.3,4.1-2.1c1.6,0.2,2.5,2.3,2.8,3.3c1.9-0.4,5-0.7,8.2,0.5c1.1-2.9,3.8-3.4,5.1-2.8C41.8,16.3,42.8,17.9,42.6,20.1z
			"/>
		<g>
			<path class="st1" d="M30.8,38.8c-0.3,0-0.7,0-1-0.1c-2.5-0.3-3.8-1.4-4.5-2.3c-0.9-1.2-1-2.6-0.9-3.4c0.3-1.4,4-5.6,4.4-6
				c0.2-0.2,0.5-0.2,0.7,0c0.2,0.2,0.2,0.5,0,0.7c-1.5,1.7-4,4.7-4.2,5.6c-0.1,0.6,0,1.7,0.7,2.7c0.8,1.1,2.1,1.7,3.8,1.9
				c2.8,0.3,4.4-0.8,5.1-1.5c0.7-0.7,1-1.4,0.9-1.6c-0.1-1-3-6.4-3.4-6.9c-0.2-0.2-0.2-0.5,0-0.7c0.2-0.2,0.5-0.2,0.6,0
				c0.5,0.5,3.6,6.1,3.7,7.4c0,0.7-0.4,1.6-1.2,2.4C34.9,37.7,33.3,38.8,30.8,38.8z"/>
		</g>
		<g>
			<path class="st1" d="M29.8,38.2c4.4,0.5,6.7-2.5,6.6-3.6c0-0.1-0.1-0.4-0.2-0.6c-4-2-9.6-1-11.4-0.5
				C24.7,34.9,25.7,37.8,29.8,38.2z"/>
		</g>
		<g>
			<path class="st1" d="M31,43.6c-4.1,0-7.2-2.7-7.3-2.7c-0.2-0.2-0.2-0.5,0-0.7c0.2-0.2,0.5-0.2,0.7,0c0.3,0.2,6.5,5.5,12.5,0.1
				c0.2-0.2,0.5-0.2,0.7,0c0.2,0.2,0.2,0.5,0,0.7C35.3,42.9,33.1,43.6,31,43.6z"/>
		</g>
		<g>
			<path class="st1" d="M27.7,24.3c0.2,0.5-0.1,1.1-0.7,1.3c-0.5,0.2-1.1-0.1-1.3-0.7c-0.2-0.5,0.1-1.1,0.7-1.3
				C27,23.5,27.6,23.8,27.7,24.3z"/>
		</g>
		<g>
			<path class="st1" d="M35.8,24.4c0.2,0.5-0.1,1.1-0.7,1.3c-0.5,0.2-1.1-0.1-1.3-0.7c-0.2-0.5,0.1-1.1,0.7-1.3
				C35.1,23.5,35.7,23.8,35.8,24.4z"/>
		</g>
		<g>
			<path class="st1" d="M30.6,43.6c-0.3,0-0.5-0.2-0.5-0.5v-4.8c0-0.3,0.2-0.5,0.5-0.5s0.5,0.2,0.5,0.5v4.8
				C31.1,43.4,30.9,43.6,30.6,43.6z"/>
		</g>
	</g>
</g>
</svg>
