<?xml version="1.0" encoding="utf-8"?>
<!-- Generator: Adobe Illustrator 22.1.0, SVG Export Plug-In . SVG Version: 6.00 Build 0)  -->
<svg version="1.1" id="圖層_1" xmlns="http://www.w3.org/2000/svg" xmlns:xlink="http://www.w3.org/1999/xlink" x="0px" y="0px"
	 viewBox="0 0 244.8 237.4" style="enable-background:new 0 0 244.8 237.4;" xml:space="preserve">
<style type="text/css">
	.st0{fill:#FFFFFF;}
</style>
<g>
	<path class="st0" d="M220.7,56.7c-0.8-1.4-1.6-2.7-2.4-4.1l-2.6,4.1L220.7,56.7z"/>
	<path class="st0" d="M230.7,79.7l11.6-11.6c3.3-3.3,3.4-8.7,0.1-12L213.2,27c-3.3-3.3-8.6-3.2-12,0.1l-12.5,12.5l41.2,41.2l0.9-0.9
		L230.7,79.7z"/>
	<path class="st0" d="M181.8,46.5l1.2-1.2l-74.4,74.5l-0.9,0.9l-0.2,41l41.3,0.2L223,87.7L181.8,46.5z M168,115l33.7-33.7l6.8,6.8
		l-33.7,33.7L168,115z"/>
	<g>
		<rect x="53.7" y="155.2" class="st0" width="41.3" height="9.7"/>
	</g>
	<g>
		<rect x="53.7" y="114.2" class="st0" width="41.3" height="9.7"/>
	</g>
	<g>
		<rect x="53.7" y="73.2" class="st0" width="76.4" height="9.7"/>
	</g>
	<path class="st0" d="M205.7,171c-28.8,48.1-91.3,63.8-139.4,34.9c-48-28.8-63.7-91.4-34.9-139.5c27.7-46.3,86.7-62.5,133.9-38
		c0.2-0.2,0.5-0.3,0.7-0.4l8.4-14C119.1-15.7,49.5,3.2,16.9,57.7c-33.6,56.2-15.3,129.2,40.8,162.9c56.1,33.7,129.1,15.4,162.7-40.8
		c12.6-21.1,17.9-44.5,16.7-67.3h-17C221.2,132.3,216.7,152.7,205.7,171z"/>
</g>
</svg>
