<?xml version="1.0" encoding="utf-8"?>
<!-- Generator: Adobe Illustrator 16.0.0, SVG Export Plug-In . SVG Version: 6.00 Build 0)  -->
<!DOCTYPE svg PUBLIC "-//W3C//DTD SVG 1.1//EN" "http://www.w3.org/Graphics/SVG/1.1/DTD/svg11.dtd">
<svg version="1.1" id="Layer_1" xmlns="http://www.w3.org/2000/svg" xmlns:xlink="http://www.w3.org/1999/xlink" x="0px" y="0px"
	 width="347.984px" height="436.736px" viewBox="0 0 347.984 436.736" enable-background="new 0 0 347.984 436.736"
	 xml:space="preserve">
<defs>
	<filter id="Adobe_OpacityMaskFilter" filterUnits="userSpaceOnUse" x="0" y="362.736" width="346" height="74">
		<feFlood  style="flood-color:white;flood-opacity:1" result="back"/>
		<feBlend  in="SourceGraphic" in2="back" mode="normal"/>
	</filter>
</defs>
<mask maskUnits="userSpaceOnUse" x="0" y="362.736" width="346" height="74" id="SVGID_1_">
	<g filter="url(#Adobe_OpacityMaskFilter)">
		<linearGradient id="SVGID_2_" gradientUnits="userSpaceOnUse" x1="172.001" y1="392.7363" x2="172.001" y2="205.6294">
			<stop  offset="0" style="stop-color:#000000"/>
			<stop  offset="0.1148" style="stop-color:#3A393B"/>
			<stop  offset="0.3529" style="stop-color:#6C6E70"/>
			<stop  offset="0.6901" style="stop-color:#ADAFB2"/>
			<stop  offset="1" style="stop-color:#F2F3F3"/>
		</linearGradient>
		<rect x="-5.999" y="356.736" fill="url(#SVGID_2_)" width="356" height="434"/>
	</g>
</mask>
<linearGradient id="SVGID_3_" gradientUnits="userSpaceOnUse" x1="0" y1="399.7363" x2="346" y2="399.7363">
	<stop  offset="0.0051" style="stop-color:#295F83"/>
	<stop  offset="1" style="stop-color:#008DA0"/>
</linearGradient>
<rect y="362.736" mask="url(#SVGID_1_)" fill="url(#SVGID_3_)" width="346" height="74"/>
<polygon fill="none" points="179.598,89.511 239.183,149.35 264.009,124.632 203.813,65.255 "/>
<polygon fill="#295F83" points="135.261,44.984 4.99,175.083 15.59,185.696 135.231,66.213 154.416,85.497 165.014,74.882 "/>
<polygon fill="#295F83" points="347.984,62.187 337.4,51.557 278.638,110.048 289.317,120.582 "/>
<polygon fill="#295F83" points="239.183,149.35 183.598,93.511 173,104.125 239.138,170.563 270.688,139.166 260.009,128.632 "/>
<polygon fill="#F7CE21" points="2.973,245.195 13.588,255.793 169,100.125 158.416,89.497 "/>
<polygon fill="#F7CE21" points="274.688,135.166 331.801,191.503 342.334,180.824 285.317,124.582 "/>
<polygon fill="#F7CE21" points="203.813,65.255 264.009,124.632 274.638,114.048 203.733,44.105 169.014,78.882 179.598,89.511 "/>
<polygon fill="#F7CE21" points="274.638,114.048 264.009,124.632 274.688,135.166 285.317,124.582 "/>
<polygon fill="#F7CE21" points="169.014,78.882 158.416,89.497 169,100.125 179.598,89.511 "/>
<g>
	<polygon fill="#295F83" points="346.698,346.211 0.486,346.211 0.486,0 15.486,0 15.486,331.211 346.698,331.211 	"/>
</g>
<g>
	<path fill="#295F83" d="M171.344,255.775h-0.005c-3.262-1.594-5.401-2.96-6.355-4.069c-0.884-1.002-1.305-1.997-1.305-3.05
		c0-1.161,0.495-2.166,1.515-3.069c1.062-0.927,2.296-1.385,3.794-1.385c2.495,0,5.15,1.29,7.879,3.824l0.961,0.881l5.301-5.565
		l-0.774-0.701c-4.323-3.938-8.729-5.931-13.095-5.931c-3.819,0-7.02,1.167-9.538,3.48c-2.535,2.325-3.817,5.268-3.817,8.763
		c0,2.672,0.798,5.096,2.395,7.188c1.563,2.064,4.354,4.061,8.548,6.1c4.374,2.113,6.057,3.406,6.7,4.122
		c0.837,0.964,1.252,2.036,1.252,3.265c0,1.499-0.631,2.777-1.941,3.913c-1.346,1.158-2.932,1.729-4.863,1.729
		c-2.811,0-5.549-1.413-8.141-4.193l-1.006-1.075l-5.289,5.679l0.688,0.842c1.626,1.978,3.698,3.553,6.186,4.681
		c2.464,1.124,5.091,1.687,7.806,1.687c4.135,0,7.637-1.315,10.41-3.917c2.778-2.602,4.191-5.829,4.191-9.58
		c0-2.678-0.833-5.123-2.474-7.279C178.712,260.017,175.762,257.946,171.344,255.775"/>
	<path fill="#295F83" d="M146.856,221.869c1.365,0,2.54,0.494,3.506,1.465c0.967,0.967,1.459,2.134,1.459,3.504
		c0,1.339-0.492,2.494-1.459,3.465c-0.966,0.968-2.141,1.453-3.506,1.453c-1.337,0-2.496-0.485-3.462-1.453
		c-0.97-0.971-1.456-2.125-1.456-3.465c0-1.37,0.485-2.537,1.456-3.504C144.361,222.363,145.519,221.869,146.856,221.869"/>
	<rect x="142.678" y="237.865" fill="#295F83" width="8.357" height="43.888"/>
	<path fill="#295F83" d="M240.548,259.903c0-8.309,6.591-15.041,14.725-15.041c8.134,0,14.986,6.732,14.986,15.041
		c0,8.312-6.852,15.047-14.986,15.047C247.14,274.95,240.548,268.214,240.548,259.903 M269.508,237.865v4.834
		c-1.511-1.508-3.157-2.736-4.942-3.676c-2.912-1.536-6.166-2.304-9.758-2.304c-6.237,0-11.567,2.248-15.995,6.739
		c-4.427,4.5-6.636,9.899-6.636,16.223c0,6.457,2.183,11.948,6.582,16.457c4.377,4.497,9.677,6.751,15.884,6.751
		c3.488,0,6.702-0.734,9.646-2.181c1.855-0.921,3.598-2.125,5.218-3.612v4.656h8.362v-43.888H269.508z"/>
	<path fill="#295F83" d="M192.284,259.903c0-8.309,6.593-15.041,14.735-15.041c8.121,0,14.981,6.732,14.981,15.041
		c0,8.312-6.86,15.047-14.981,15.047C198.876,274.95,192.284,268.214,192.284,259.903 M221.221,220.975v21.743
		c-1.521-1.521-3.183-2.762-4.973-3.698c-2.898-1.532-6.154-2.3-9.747-2.3c-6.217,0-11.538,2.248-15.957,6.739
		c-4.427,4.5-6.636,9.899-6.636,16.223c0,6.457,2.191,11.948,6.578,16.457c4.378,4.497,9.664,6.751,15.856,6.751
		c3.484,0,6.696-0.734,9.625-2.181c1.874-0.921,3.616-2.138,5.253-3.64v4.684h8.353v-60.778H221.221z"/>
	<path fill="#295F83" d="M107.387,230.224c11.963,0,21.669,9.795,21.669,21.878s-9.706,21.881-21.669,21.881
		c-11.968,0-21.667-9.798-21.667-21.881S95.418,230.224,107.387,230.224 M129.55,229.959c-6.051-5.993-13.567-8.984-22.54-8.984
		c-5.542,0-10.681,1.379-15.438,4.128c-4.762,2.755-8.515,6.567-11.267,11.423c-2.756,4.866-4.136,10.148-4.136,15.84
		c0,8.542,3.023,15.821,9.07,21.832c6.049,6.017,13.467,9.027,22.254,9.027c8.683,0,16.04-3.025,22.077-9.064
		c6.029-6.044,9.053-13.404,9.053-22.083C138.624,243.326,135.595,235.948,129.55,229.959"/>
	<path fill="#295F83" d="M104.492,257.133c-0.762,0.184-0.687,0.939,0.149,1.591l0.339,0.326l22.064,21.976
		c0.549,0.55,1.862,0.838,2.928,0.71h7.422c1.053-0.124,1.466-0.719,0.917-1.269l-22.777-22.677
		c-0.557-0.54-1.204-0.685-2.928-0.657H104.492z"/>
</g>
</svg>
