<?xml version="1.0" encoding="utf-8"?>
<!-- Generator: Adobe Illustrator 22.1.0, SVG Export Plug-In . SVG Version: 6.00 Build 0)  -->
<svg version="1.1" id="圖層_1" xmlns="http://www.w3.org/2000/svg" xmlns:xlink="http://www.w3.org/1999/xlink" x="0px" y="0px"
	 viewBox="0 0 280.2 261.7" style="enable-background:new 0 0 280.2 261.7;" xml:space="preserve">
<style type="text/css">
	.st0{fill:#FFFFFF;}
</style>
<g>
	<g>
		<g>
			<polygon class="st0" points="274.9,261.7 0,261.7 0,0 15.4,0 15.4,246.4 274.9,246.4 			"/>
		</g>
		<g>
			<g>
				<polygon class="st0" points="15.8,134.2 1.9,120.2 108.2,13.9 190.9,97 266.3,21.9 280.2,35.9 190.9,124.9 108.2,41.9 				"/>
			</g>
			<g>
				<polygon class="st0" points="14.2,190.6 0.2,176.7 162.7,14 275.7,125.5 261.8,139.5 162.8,41.8 				"/>
			</g>
		</g>
	</g>
	<g>
		<path class="st0" d="M135.2,196.9L135.2,196.9c-2.8-1.4-4.7-2.6-5.5-3.5c-0.8-0.9-1.1-1.7-1.1-2.6c0-1,0.4-1.9,1.3-2.7
			c0.9-0.8,2-1.2,3.3-1.2c2.2,0,4.5,1.1,6.8,3.3l0.8,0.8l4.6-4.8l-0.7-0.6c-3.7-3.4-7.6-5.1-11.3-5.1c-3.3,0-6.1,1-8.3,3
			c-2.2,2-3.3,4.6-3.3,7.6c0,2.3,0.7,4.4,2.1,6.2c1.4,1.8,3.8,3.5,7.4,5.3c3.8,1.8,5.2,2.9,5.8,3.6c0.7,0.8,1.1,1.8,1.1,2.8
			c0,1.3-0.5,2.4-1.7,3.4c-1.2,1-2.5,1.5-4.2,1.5c-2.4,0-4.8-1.2-7-3.6l-0.9-0.9l-4.6,4.9l0.6,0.7c1.4,1.7,3.2,3.1,5.4,4
			c2.1,1,4.4,1.5,6.8,1.5c3.6,0,6.6-1.1,9-3.4c2.4-2.3,3.6-5,3.6-8.3c0-2.3-0.7-4.4-2.1-6.3C141.6,200.6,139,198.8,135.2,196.9"/>
		<path class="st0" d="M114,167.6c1.2,0,2.2,0.4,3,1.3c0.8,0.8,1.3,1.8,1.3,3c0,1.2-0.4,2.2-1.3,3c-0.8,0.8-1.9,1.3-3,1.3
			c-1.2,0-2.2-0.4-3-1.3c-0.8-0.8-1.3-1.8-1.3-3c0-1.2,0.4-2.2,1.3-3C111.9,168,112.9,167.6,114,167.6"/>
		<rect x="110.4" y="181.4" class="st0" width="7.2" height="38"/>
		<path class="st0" d="M195.1,200.5c0-7.2,5.7-13,12.7-13c7,0,13,5.8,13,13c0,7.2-5.9,13-13,13C200.8,213.5,195.1,207.7,195.1,200.5
			 M220.1,181.4v4.2c-1.3-1.3-2.7-2.4-4.3-3.2c-2.5-1.3-5.3-2-8.4-2c-5.4,0-10,1.9-13.8,5.8c-3.8,3.9-5.7,8.6-5.7,14
			c0,5.6,1.9,10.3,5.7,14.2c3.8,3.9,8.4,5.8,13.7,5.8c3,0,5.8-0.6,8.3-1.9c1.6-0.8,3.1-1.8,4.5-3.1v4h7.2v-38H220.1z"/>
		<path class="st0" d="M153.3,200.5c0-7.2,5.7-13,12.7-13c7,0,13,5.8,13,13c0,7.2-5.9,13-13,13C159,213.5,153.3,207.7,153.3,200.5
			 M178.3,166.8v18.8c-1.3-1.3-2.8-2.4-4.3-3.2c-2.5-1.3-5.3-2-8.4-2c-5.4,0-10,1.9-13.8,5.8c-3.8,3.9-5.7,8.6-5.7,14
			c0,5.6,1.9,10.3,5.7,14.2c3.8,3.9,8.4,5.8,13.7,5.8c3,0,5.8-0.6,8.3-1.9c1.6-0.8,3.1-1.8,4.5-3.1v4.1h7.2v-52.6H178.3z"/>
		<path class="st0" d="M79.9,174.8c10.4,0,18.7,8.5,18.7,18.9s-8.4,18.9-18.7,18.9c-10.4,0-18.7-8.5-18.7-18.9
			S69.5,174.8,79.9,174.8 M99,174.6c-5.2-5.2-11.7-7.8-19.5-7.8c-4.8,0-9.2,1.2-13.4,3.6c-4.1,2.4-7.4,5.7-9.7,9.9
			c-2.4,4.2-3.6,8.8-3.6,13.7c0,7.4,2.6,13.7,7.8,18.9c5.2,5.2,11.7,7.8,19.3,7.8c7.5,0,13.9-2.6,19.1-7.8
			c5.2-5.2,7.8-11.6,7.8-19.1C106.9,186.2,104.3,179.8,99,174.6"/>
		<path class="st0" d="M77.4,198.1c-0.7,0.2-0.6,0.8,0.1,1.4l0.3,0.3l19.1,19c0.5,0.5,1.6,0.7,2.5,0.6h6.4c0.9-0.1,1.3-0.6,0.8-1.1
			l-19.7-19.6c-0.5-0.5-1-0.6-2.5-0.6H77.4z"/>
	</g>
</g>
</svg>
