<?xml version="1.0" encoding="utf-8"?>
<!-- Generator: Adobe Illustrator 16.0.0, SVG Export Plug-In . SVG Version: 6.00 Build 0)  -->
<!DOCTYPE svg PUBLIC "-//W3C//DTD SVG 1.1//EN" "http://www.w3.org/Graphics/SVG/1.1/DTD/svg11.dtd">
<svg version="1.1" id="Layer_1" xmlns="http://www.w3.org/2000/svg" xmlns:xlink="http://www.w3.org/1999/xlink" x="0px" y="0px"
	 width="600px" height="172px" viewBox="0 0 600 172" enable-background="new 0 0 600 172" xml:space="preserve">
<rect x="0" y="0.5" fill="#FFFFFF" width="600" height="172"/>
<rect x="0" y="0.5" fill="#010101" width="600" height="12"/>
<rect x="0" y="103.5" fill="#FAFAFA" width="600" height="69"/>
<rect x="380.5" y="12.5" fill="#C00000" width="219.5" height="137.5"/>
<linearGradient id="SVGID_1_" gradientUnits="userSpaceOnUse" x1="283.95" y1="1640.0518" x2="283.95" y2="1651.371" gradientTransform="matrix(1 0 0 1 206.2998 -1490.8008)">
	<stop  offset="0" style="stop-color:#BFBEBE"/>
	<stop  offset="1" style="stop-color:#FAFAFA"/>
</linearGradient>
<rect x="380.5" y="151.219" fill="url(#SVGID_1_)" width="219.5" height="10.063"/>
<rect x="400.289" y="82.166" fill="#7B0100" width="181.252" height="1.084"/>
<rect x="400.289" y="83.25" fill="#FF9899" width="181.252" height="1.084"/>
<g enable-background="new    ">
	<path fill="#333333" d="M42.75,77.792V47.728h3.979v30.064H42.75z"/>
	<path fill="#333333" d="M63.365,77.792V51.276H53.46v-3.548h23.83v3.548h-9.946v26.517L63.365,77.792L63.365,77.792z"/>
	<path fill="#333333" d="M81.992,68.133l3.753-0.328c0.178,1.504,0.591,2.737,1.24,3.702c0.649,0.963,1.658,1.742,3.025,2.338
		c1.367,0.594,2.905,0.892,4.614,0.892c1.518,0,2.856-0.226,4.02-0.677s2.027-1.069,2.594-1.855
		c0.567-0.786,0.852-1.645,0.852-2.574c0-0.943-0.273-1.767-0.82-2.471c-0.547-0.704-1.449-1.296-2.707-1.774
		c-0.807-0.314-2.591-0.803-5.353-1.466c-2.763-0.663-4.696-1.289-5.805-1.877c-1.436-0.752-2.505-1.685-3.209-2.799
		c-0.703-1.114-1.057-2.363-1.057-3.744c0-1.518,0.431-2.936,1.292-4.255s2.119-2.321,3.773-3.005
		c1.653-0.684,3.492-1.025,5.517-1.025c2.229,0,4.194,0.358,5.896,1.077c1.701,0.717,3.011,1.773,3.927,3.168
		s1.408,2.974,1.477,4.737l-3.813,0.287c-0.205-1.9-0.899-3.336-2.082-4.307c-1.184-0.971-2.93-1.456-5.24-1.456
		c-2.406,0-4.16,0.441-5.26,1.322c-1.102,0.883-1.651,1.945-1.651,3.189c0,1.08,0.39,1.969,1.169,2.666
		c0.767,0.697,2.766,1.412,5.999,2.143c3.233,0.732,5.452,1.371,6.655,1.918c1.75,0.807,3.042,1.829,3.876,3.066
		c0.834,1.237,1.251,2.662,1.251,4.275c0,1.6-0.458,3.106-1.374,4.521c-0.916,1.416-2.232,2.517-3.948,3.303
		c-1.716,0.785-3.646,1.179-5.793,1.179c-2.721,0-5-0.396-6.839-1.189s-3.281-1.985-4.327-3.579
		C82.597,71.945,82.047,70.143,81.992,68.133z"/>
	<path fill="#333333" d="M127.77,70.779l3.814,0.472c-0.603,2.229-1.716,3.958-3.343,5.188c-1.628,1.23-3.705,1.846-6.234,1.846
		c-3.187,0-5.711-0.98-7.578-2.943c-1.866-1.961-2.799-4.713-2.799-8.254c0-3.664,0.942-6.508,2.83-8.531
		c1.887-2.023,4.334-3.035,7.342-3.035c2.912,0,5.291,0.991,7.137,2.974c1.847,1.983,2.77,4.771,2.77,8.367
		c0,0.219-0.007,0.547-0.021,0.984h-16.242c0.138,2.393,0.813,4.225,2.03,5.496c1.217,1.271,2.734,1.907,4.553,1.907
		c1.354,0,2.51-0.355,3.467-1.066S127.21,72.337,127.77,70.779z M115.65,64.811h12.161c-0.164-1.832-0.629-3.206-1.395-4.122
		c-1.177-1.422-2.7-2.133-4.573-2.133c-1.695,0-3.121,0.567-4.276,1.702C116.412,61.393,115.773,62.911,115.65,64.811z"/>
	<path fill="#333333" d="M138.153,77.792V56.013h3.322v3.302c0.848-1.545,1.63-2.563,2.348-3.056
		c0.719-0.493,1.508-0.738,2.369-0.738c1.244,0,2.51,0.396,3.794,1.189l-1.271,3.425c-0.902-0.533-1.805-0.8-2.707-0.8
		c-0.807,0-1.531,0.243-2.174,0.729c-0.644,0.486-1.102,1.158-1.374,2.02c-0.41,1.313-0.615,2.748-0.615,4.307v11.402
		L138.153,77.792L138.153,77.792z"/>
	<path fill="#333333" d="M160.204,77.792l-8.285-21.779h3.896l4.676,13.043c0.507,1.408,0.972,2.871,1.396,4.389
		c0.328-1.148,0.786-2.529,1.374-4.143l4.84-13.289h3.794l-8.244,21.779H160.204z"/>
	<path fill="#333333" d="M177.148,51.973v-4.245h3.691v4.245H177.148z M177.148,77.792V56.013h3.691v21.779H177.148z"/>
	<path fill="#333333" d="M202.645,69.815l3.63,0.472c-0.396,2.502-1.412,4.461-3.045,5.875c-1.634,1.416-3.64,2.123-6.019,2.123
		c-2.98,0-5.376-0.975-7.188-2.922c-1.812-1.949-2.717-4.741-2.717-8.378c0-2.352,0.39-4.409,1.169-6.173s1.965-3.086,3.559-3.969
		c1.593-0.881,3.325-1.322,5.198-1.322c2.365,0,4.301,0.599,5.805,1.795c1.504,1.196,2.468,2.895,2.892,5.096l-3.589,0.554
		c-0.342-1.463-0.947-2.563-1.815-3.302s-1.917-1.107-3.147-1.107c-1.859,0-3.37,0.666-4.532,2
		c-1.162,1.332-1.743,3.441-1.743,6.326c0,2.926,0.562,5.052,1.683,6.378c1.12,1.326,2.584,1.989,4.389,1.989
		c1.449,0,2.659-0.444,3.63-1.333S202.385,71.661,202.645,69.815z"/>
	<path fill="#333333" d="M226.316,70.779l3.814,0.472c-0.603,2.229-1.716,3.958-3.343,5.188s-3.705,1.846-6.234,1.846
		c-3.186,0-5.711-0.98-7.578-2.943c-1.866-1.961-2.799-4.713-2.799-8.254c0-3.664,0.943-6.508,2.83-8.531s4.334-3.035,7.342-3.035
		c2.912,0,5.291,0.991,7.137,2.974c1.847,1.983,2.77,4.771,2.77,8.367c0,0.219-0.007,0.547-0.021,0.984H213.99
		c0.138,2.393,0.813,4.225,2.03,5.496c1.217,1.271,2.734,1.907,4.553,1.907c1.354,0,2.51-0.355,3.467-1.066
		S225.756,72.337,226.316,70.779z M214.196,64.811h12.161c-0.164-1.832-0.629-3.206-1.395-4.122c-1.176-1.422-2.7-2.133-4.573-2.133
		c-1.695,0-3.121,0.567-4.276,1.702C214.958,61.393,214.319,62.911,214.196,64.811z"/>
</g>
</svg>
