<?xml version="1.0" encoding="utf-8"?>
<!-- Generator: Adobe Illustrator 22.1.0, SVG Export Plug-In . SVG Version: 6.00 Build 0)  -->
<svg version="1.1" id="Layer_1" xmlns="http://www.w3.org/2000/svg" xmlns:xlink="http://www.w3.org/1999/xlink" x="0px" y="0px"
	 viewBox="0 0 636.7 202.5" style="enable-background:new 0 0 636.7 202.5;" xml:space="preserve">
<style type="text/css">
	.st0{fill:#FAFBFB;}
	.st1{fill:#87CEC0;}
	.st2{fill:#FFFFFF;}
</style>
<path class="st0" d="M166,152.5c6.2-2.3,13.7-4.5,23,0.2c4,2.1,8.7,4.7,15.9,7.1c20.6,7,38,2.4,49.7-5.3c21-13.8,24.8-48.3-5.2-74.6
	C233,65.6,213.5,55.7,195,49.7c-21.9-7.1-36.9-8.9-51.4-10c-45-3.4-75.7,14.4-91.7,36.1c-27.9,37.8-3.7,87,54.7,87.4
	c15.2,0.1,25-0.7,38-3.9C150,158,158.8,155.3,166,152.5z"/>
<path class="st1" d="M131.3,87.8c-11.7,0-20,8.7-20,21c0,0.2,0,0.4,0,0.7c0,0.2,0,0.4,0,0.7c0,12.5,8.6,20.6,22,20.6
	c3,0,10.2,0,17-5.3v-9.2c-5.6,4.2-9.3,4.8-14.1,4.8c-7,0-11.5-2.8-12.4-9.1h27.2c0-0.7,0-1.3,0-1.9
	C151.2,95.8,142.2,87.8,131.3,87.8z M124.1,104.3c0.7-3.7,3.3-6.4,7.1-6.4c3.7,0,6.3,2.8,7.1,6.4H124.1z M227.5,128.6l-0.1-0.2
	c7.3-2.6,12.3-9.6,12.3-19.3c0-16-12.5-21.7-22.2-21.7c-11.7,0-22.4,7.4-22.4,21.6c0,13,9.4,21.5,22.3,21.6
	c1.5,1.8,8.2,7.6,18.6,7.6c2.9,0,6-0.4,9.4-1.5l1.9-13.5C239.7,129.7,229.2,129.2,227.5,128.6z M223.7,118.6c-1.7,2-4,3-6.5,3
	c-3.2,0-5.6-1.5-7.4-4.1c-1.4-2-2.1-4.7-2.1-7.6c0-3.7,1.2-6.8,3.1-9c1.7-2.1,3.7-2.9,6.4-2.9c1.8,0,3.6,0.4,5,1.5
	c2.7,2.2,4.4,6.1,4.4,10.3C226.6,113.2,225.5,116.5,223.7,118.6z M106.3,109.6c-1-1-2-1.5-3.1-2.1c3.3-1.7,5.4-4.9,5.4-9
	c0-6-4.1-8.5-7.9-9.8C98.4,88,96.5,88,94.1,88H70.2v41.8H95c3.3,0,6.9-0.2,10.3-2.8c3.5-2.7,4.6-6.5,4.6-9.4
	C109.8,113.8,108.1,111.2,106.3,109.6z M82,98h9.4c2.1,0,4.9,0.5,4.9,3.3c0,3.1-2.9,3.2-4.9,3.2H82V98z M92.1,120.6H81.9v-8.4h10.2
	c2.6,0,5,1,5,4.2C97.1,119.7,94.7,120.6,92.1,120.6z M178.6,87.9c-5,0-8.7,1.9-12.7,6.6v-5.5h-12.2v40.5H166v-25.4
	c3.2-5.1,5.5-6.8,8.5-6.8c3.4,0,6.1,2.4,6.1,8.2v24h12.2v-26C192.8,91.6,184.7,87.9,178.6,87.9z"/>
<g>
	<path class="st2" d="M486.1,104.3L486.1,104.3c-3.6-1.7-5.9-3.2-6.9-4.4c-1-1.1-1.4-2.2-1.4-3.3c0-1.3,0.5-2.4,1.7-3.3
		c1.2-1,2.5-1.5,4.1-1.5c2.7,0,5.6,1.4,8.6,4.2l1,1l5.8-6.1l-0.8-0.8c-4.7-4.3-9.5-6.5-14.3-6.5c-4.2,0-7.7,1.3-10.4,3.8
		c-2.8,2.5-4.2,5.7-4.2,9.6c0,2.9,0.9,5.6,2.6,7.8c1.7,2.3,4.8,4.4,9.3,6.7c4.8,2.3,6.6,3.7,7.3,4.5c0.9,1.1,1.4,2.2,1.4,3.6
		c0,1.6-0.7,3-2.1,4.3c-1.5,1.3-3.2,1.9-5.3,1.9c-3.1,0-6.1-1.5-8.9-4.6l-1.1-1.2l-5.8,6.2l0.7,0.9c1.8,2.2,4,3.9,6.7,5.1
		c2.7,1.2,5.6,1.8,8.5,1.8c4.5,0,8.3-1.4,11.4-4.3c3-2.8,4.6-6.4,4.6-10.5c0-2.9-0.9-5.6-2.7-7.9C494.1,109,490.9,106.7,486.1,104.3
		"/>
	<path class="st2" d="M459.4,67.3c1.5,0,2.8,0.5,3.8,1.6c1.1,1.1,1.6,2.3,1.6,3.8c0,1.5-0.5,2.7-1.6,3.8c-1.1,1.1-2.3,1.6-3.8,1.6
		c-1.5,0-2.7-0.5-3.8-1.6c-1.1-1.1-1.6-2.3-1.6-3.8c0-1.5,0.5-2.8,1.6-3.8C456.6,67.9,457.9,67.3,459.4,67.3"/>
	<rect x="454.8" y="84.8" class="st2" width="9.1" height="47.9"/>
	<path class="st2" d="M561.6,108.8c0-9.1,7.2-16.4,16.1-16.4c8.9,0,16.4,7.3,16.4,16.4c0,9.1-7.5,16.4-16.4,16.4
		C568.8,125.3,561.6,117.9,561.6,108.8 M593.2,84.8v5.3c-1.6-1.6-3.4-3-5.4-4c-3.2-1.7-6.7-2.5-10.6-2.5c-6.8,0-12.6,2.5-17.5,7.4
		c-4.8,4.9-7.2,10.8-7.2,17.7c0,7,2.4,13,7.2,18c4.8,4.9,10.6,7.4,17.3,7.4c3.8,0,7.3-0.8,10.5-2.4c2-1,3.9-2.3,5.7-3.9v5.1h9.1
		V84.8H593.2z"/>
	<path class="st2" d="M508.9,108.8c0-9.1,7.2-16.4,16.1-16.4c8.9,0,16.3,7.3,16.3,16.4c0,9.1-7.5,16.4-16.3,16.4
		C516.1,125.3,508.9,117.9,508.9,108.8 M540.5,66.4v23.7c-1.7-1.7-3.5-3-5.4-4c-3.2-1.7-6.7-2.5-10.6-2.5c-6.8,0-12.6,2.5-17.4,7.4
		c-4.8,4.9-7.2,10.8-7.2,17.7c0,7,2.4,13,7.2,18c4.8,4.9,10.5,7.4,17.3,7.4c3.8,0,7.3-0.8,10.5-2.4c2-1,3.9-2.3,5.7-4v5.1h9.1V66.4
		H540.5z"/>
	<path class="st2" d="M416.3,76.5c13.1,0,23.6,10.7,23.6,23.9c0,13.2-10.6,23.9-23.6,23.9c-13.1,0-23.6-10.7-23.6-23.9
		C392.6,87.1,403.2,76.5,416.3,76.5 M440.5,76.2c-6.6-6.5-14.8-9.8-24.6-9.8c-6,0-11.7,1.5-16.8,4.5c-5.2,3-9.3,7.2-12.3,12.5
		c-3,5.3-4.5,11.1-4.5,17.3c0,9.3,3.3,17.3,9.9,23.8c6.6,6.6,14.7,9.9,24.3,9.9c9.5,0,17.5-3.3,24.1-9.9c6.6-6.6,9.9-14.6,9.9-24.1
		C450.4,90.7,447.1,82.7,440.5,76.2"/>
	<path class="st2" d="M413.1,105.8c-0.8,0.2-0.7,1,0.2,1.7l0.4,0.4l24.1,24c0.6,0.6,2,0.9,3.2,0.8h8.1c1.1-0.1,1.6-0.8,1-1.4
		l-24.9-24.7c-0.6-0.6-1.3-0.7-3.2-0.7H413.1z"/>
</g>
</svg>
