<?xml version="1.0" encoding="utf-8"?>
<!-- Generator: Adobe Illustrator 16.0.0, SVG Export Plug-In . SVG Version: 6.00 Build 0)  -->
<!DOCTYPE svg PUBLIC "-//W3C//DTD SVG 1.1//EN" "http://www.w3.org/Graphics/SVG/1.1/DTD/svg11.dtd">
<svg version="1.1" id="Layer_1" xmlns="http://www.w3.org/2000/svg" xmlns:xlink="http://www.w3.org/1999/xlink" x="0px" y="0px"
	 width="366.05px" height="642.77px" viewBox="0 0 366.05 642.77" enable-background="new 0 0 366.05 642.77" xml:space="preserve">
<g>
	<path fill="#F58320" d="M183.293,0.226c-92.58,0-167.901,75.314-167.901,167.903c0,19.105,3.235,37.466,9.148,54.592L0.232,235.927
		l33.279,14.747l28.631,12.686l10.667-66.861l-16.586,9.009l-5.843,11.62c-0.87-2.347-1.686-4.721-2.433-7.126
		c-4.119-13.238-6.347-27.299-6.347-41.873c0-78.135,63.562-141.697,141.692-141.697c36.481,0,69.778,13.866,94.921,36.595
		l21.035-16.16C269.082,18.019,228.239,0.226,183.293,0.226z"/>
	<path fill="#F6A61C" d="M366.282,100.318L304.374,72.89l-10.669,66.868l24.861-13.51c4.12,13.24,6.349,27.302,6.349,41.882
		c0,58.085-35.152,108.098-85.291,129.943c-17.296,7.535-36.362,11.74-56.399,11.74c-36.481,0-69.779-13.863-94.921-36.587
		l-21.037,16.152c30.167,28.859,71.009,46.646,115.958,46.646c15.777,0,31.053-2.193,45.542-6.281
		c70.52-19.897,122.354-84.812,122.354-161.613c0-19.112-3.233-37.476-9.146-54.602L366.282,100.318z"/>
	<path fill="#F7CF20" d="M278.621,157.687c-5.438-48.218-46.334-85.689-96.004-85.689c-40.466,0-75.101,24.878-89.495,60.168
		c-4.592,11.257-7.142,23.561-7.142,36.469c0,53.373,43.266,96.641,96.637,96.641c38.137,0,71.104-22.1,86.822-54.183l7.803-22.761
		c1.318-6.36,2.015-12.946,2.015-19.698C279.257,164.931,279.028,161.281,278.621,157.687z M227.809,196.027
		c-0.335,2.788-1.498,5.895-3.494,9.343c-1.993,3.443-5.123,6.921-9.372,10.412c-4.26,3.498-10.248,6.29-17.96,8.371v17.212h-26.935
		v-16.556c-1.596-0.34-3.36-0.687-5.288-1.074c-1.929-0.383-3.99-0.986-6.186-1.805c-2.195-0.818-4.389-1.885-6.581-3.192
		c-2.199-1.319-4.293-3.002-6.289-5.087c-2.524-2.627-4.62-5.707-6.28-9.263c-1.667-3.553-2.498-7.027-2.498-10.411v-1.805h34.121
		c0,0.545,0.13,1.447,0.398,2.706c0.262,1.253,0.796,2.539,1.589,3.854c0.805,1.309,1.967,2.489,3.495,3.521
		c1.533,1.034,3.626,1.56,6.289,1.56c2.523,0,5.053-0.819,7.581-2.455c2.524-1.641,3.79-4.049,3.79-7.224
		c0-2.72-1.231-5.273-3.69-7.626c-2.465-2.346-7.353-4.674-14.666-6.963c-4.125-1.208-8.413-2.6-12.87-4.192
		c-4.456-1.579-8.512-3.626-12.168-6.148c-3.66-2.505-6.686-5.653-9.078-9.417c-2.395-3.778-3.589-8.505-3.589-14.182
		c0-2.544,0.249-4.923,0.738-7.146c0.482-2.175,1.198-4.2,2.152-6.071c1.925-3.768,4.389-6.984,7.38-9.67
		c2.996-2.677,6.386-4.838,10.176-6.479c3.791-1.64,7.613-2.889,11.474-3.765V95.908h26.935v16.566
		c3.993,0.758,7.684,2.017,11.071,3.765c3.394,1.757,6.353,3.937,8.882,6.559c2.525,2.633,4.49,5.687,5.886,9.183
		c1.396,3.504,2.025,7.384,1.892,11.647h-30.924c0-0.657-0.132-1.566-0.398-2.704c-0.268-1.148-0.766-2.297-1.5-3.447
		c-0.729-1.142-1.791-2.132-3.188-2.947c-1.397-0.821-3.36-1.232-5.884-1.232c-3.46,0-6.124,0.933-7.982,2.782
		c-1.864,1.865-2.793,3.997-2.793,6.394c0,0.192,0.029,0.371,0.04,0.556c0.093,1.851,0.631,3.48,1.659,4.866
		c1.125,1.528,2.857,2.896,5.186,4.101c2.325,1.203,5.155,2.375,8.48,3.529c3.319,1.141,7.18,2.424,11.566,3.849
		c6.119,1.963,11.104,4.286,14.966,6.97c3.854,2.68,6.847,5.496,8.977,8.445c2.128,2.95,3.559,5.846,4.292,8.687
		c0.731,2.849,1.098,5.301,1.098,7.385C228.307,191.514,228.139,193.235,227.809,196.027z"/>
</g>
<defs>
	<filter id="Adobe_OpacityMaskFilter" filterUnits="userSpaceOnUse" x="0.232" y="347.262" width="366.05" height="295.738">
		<feFlood  style="flood-color:white;flood-opacity:1" result="back"/>
		<feBlend  in="SourceGraphic" in2="back" mode="normal"/>
	</filter>
</defs>
<mask maskUnits="userSpaceOnUse" x="0.232" y="347.262" width="366.05" height="295.738" id="SVGID_1_">
	<g filter="url(#Adobe_OpacityMaskFilter)">
		<linearGradient id="SVGID_2_" gradientUnits="userSpaceOnUse" x1="191" y1="511" x2="191" y2="262.7985">
			<stop  offset="0" style="stop-color:#000000"/>
			<stop  offset="0.1506" style="stop-color:#464648"/>
			<stop  offset="0.4817" style="stop-color:#87898B"/>
			<stop  offset="0.9665" style="stop-color:#EAEBEC"/>
			<stop  offset="1" style="stop-color:#F2F3F3"/>
		</linearGradient>
		<rect x="-35" y="342.627" fill="url(#SVGID_2_)" width="452" height="304.726"/>
	</g>
</mask>
<g mask="url(#SVGID_1_)">
	<path fill="#F58320" d="M183.293,643c-92.58,0-167.901-66.329-167.901-147.873c0-16.827,3.235-32.997,9.148-48.081L0.232,435.417
		l33.279-12.987l28.631-11.173l10.667,58.885l-16.586-7.935l-5.843-10.233c-0.87,2.066-1.686,4.156-2.433,6.275
		c-4.119,11.658-6.347,24.043-6.347,36.878c0,68.814,63.562,124.792,141.692,124.792c36.481,0,69.778-12.211,94.921-32.228
		l21.035,14.231C269.082,627.329,228.239,643,183.293,643z"/>
	<path fill="#F6A61C" d="M366.282,554.849l-61.908,24.156l-10.669-58.891l24.861,11.898c4.12-11.661,6.349-24.045,6.349-36.886
		c0-51.156-35.152-95.204-85.291-114.441c-17.296-6.637-36.362-10.34-56.399-10.34c-36.481,0-69.779,12.21-94.921,32.222
		l-21.037-14.226c30.167-25.417,71.009-41.08,115.958-41.08c15.777,0,31.053,1.933,45.542,5.532
		c70.52,17.522,122.354,74.693,122.354,142.333c0,16.832-3.233,33.004-9.146,48.089L366.282,554.849z"/>
	<path fill="#F7CF20" d="M279.257,494.682c0-5.947-0.696-11.747-2.015-17.348l-7.803-20.047
		c-15.719-28.254-48.686-47.718-86.822-47.718c-53.372,0-96.637,38.106-96.637,85.112c0,11.368,2.55,22.206,7.142,32.118
		c14.395,31.082,49.029,52.99,89.495,52.99c49.67,0,90.565-33,96.004-75.468C279.028,501.158,279.257,497.943,279.257,494.682z
		 M228.307,475.108c0,1.836-0.366,3.996-1.098,6.505c-0.733,2.502-2.164,5.054-4.292,7.65c-2.13,2.598-5.123,5.077-8.977,7.438
		c-3.861,2.363-8.847,4.408-14.966,6.138c-4.387,1.254-8.247,2.385-11.566,3.389c-3.325,1.018-6.156,2.048-8.48,3.109
		c-2.329,1.061-4.061,2.266-5.186,3.611c-1.028,1.22-1.566,2.653-1.659,4.285c-0.011,0.162-0.04,0.319-0.04,0.489
		c0,2.11,0.93,3.989,2.793,5.632c1.858,1.627,4.522,2.449,7.982,2.449c2.523,0,4.486-0.362,5.884-1.086
		c1.397-0.717,2.46-1.59,3.188-2.597c0.734-1.013,1.232-2.023,1.5-3.035c0.267-1.002,0.398-1.803,0.398-2.381h30.924
		c0.134,3.754-0.495,7.171-1.892,10.257c-1.396,3.079-3.36,5.771-5.886,8.089c-2.529,2.308-5.488,4.228-8.882,5.775
		c-3.388,1.54-7.078,2.649-11.071,3.315v14.59h-26.935v-14.59c-3.86-0.771-7.683-1.872-11.474-3.315
		c-3.79-1.443-7.18-3.347-10.176-5.706c-2.991-2.365-5.455-5.197-7.38-8.516c-0.954-1.647-1.669-3.433-2.152-5.348
		c-0.489-1.956-0.738-4.053-0.738-6.293c0-5,1.194-9.162,3.589-12.49c2.392-3.315,5.417-6.089,9.078-8.294
		c3.656-2.223,7.712-4.024,12.168-5.415c4.457-1.403,8.745-2.628,12.87-3.693c7.313-2.015,12.201-4.066,14.666-6.131
		c2.459-2.073,3.69-4.32,3.69-6.717c0-2.796-1.266-4.917-3.79-6.362c-2.528-1.44-5.058-2.162-7.581-2.162
		c-2.663,0-4.756,0.464-6.289,1.374c-1.528,0.909-2.69,1.948-3.495,3.101c-0.792,1.158-1.327,2.29-1.589,3.395
		c-0.268,1.108-0.398,1.903-0.398,2.383h-34.121v-1.589c0-2.981,0.83-6.041,2.498-9.169c1.66-3.132,3.756-5.845,6.28-8.158
		c1.996-1.838,4.09-3.317,6.289-4.48c2.192-1.151,4.386-2.09,6.581-2.812c2.196-0.721,4.257-1.252,6.186-1.589
		c1.928-0.342,3.692-0.647,5.288-0.946v-14.581h26.935v15.159c7.712,1.832,13.7,4.291,17.96,7.372
		c4.249,3.074,7.379,6.138,9.372,9.17c1.996,3.037,3.159,5.772,3.494,8.229C228.139,473.016,228.307,474.53,228.307,475.108z"/>
</g>
</svg>
