<?xml version="1.0" encoding="utf-8"?>
<!-- Generator: Adobe Illustrator 22.1.0, SVG Export Plug-In . SVG Version: 6.00 Build 0)  -->
<svg version="1.1" id="圖層_1" xmlns="http://www.w3.org/2000/svg" xmlns:xlink="http://www.w3.org/1999/xlink" x="0px" y="0px"
	 viewBox="0 0 297.9 260.9" style="enable-background:new 0 0 297.9 260.9;" xml:space="preserve">
<style type="text/css">
	.st0{fill:none;}
	.st1{fill:#FFFFFF;}
</style>
<g>
	<path class="st0" d="M227.3,122c-9.5,0-14.8-6.6-17-16.2h22.6v-7.9h-23.7c-0.1-1.4-0.1-2.9-0.1-4.4c0-1.3,0-2.5,0.1-3.7h28.1V82
		h-27.1c2.1-10,7.4-16.9,17.2-16.9c3.7,0,7.1,1.7,10,4.6l8.8-8.8c-5.7-5.8-13-9.3-21-9.3c-15.2,0-28.1,12.8-32.1,30.3h-8.5v7.9h7.3
		c-0.1,1.3-0.1,2.5-0.1,3.8c0,1.4,0.1,2.9,0.2,4.3h-7.3v7.9h8.6c4.2,17.3,16.9,29.9,32,29.9c8.6,0,16.4-4.1,22.3-10.7l-8.9-8.9
		C235.4,119.8,231.5,122,227.3,122z"/>
	<path class="st0" d="M135.3,178.2c-2.2-0.8-4.1-1.5-5.7-2.4c-1.6-0.8-2.7-1.7-3.5-2.7c-0.7-0.9-1-2-1.1-3.2c0-0.1,0-0.2,0-0.4
		c0-1.6,0.6-3,1.9-4.3c1.2-1.2,3-1.9,5.3-1.9c1.7,0,3,0.3,3.9,0.8c0.9,0.5,1.6,1.2,2.1,2c0.5,0.8,0.8,1.5,1,2.3
		c0.2,0.8,0.3,1.4,0.3,1.8h20.6c0.1-2.8-0.3-5.4-1.3-7.8c-0.9-2.3-2.2-4.4-3.9-6.1c-1.7-1.7-3.7-3.2-5.9-4.4c-2.3-1.2-4.7-2-7.4-2.5
		v-11h-18v11c-2.6,0.6-5.1,1.4-7.7,2.5c-2.5,1.1-4.8,2.5-6.8,4.3c-2,1.8-3.6,3.9-4.9,6.4c-0.6,1.2-1.1,2.6-1.4,4
		c-0.3,1.5-0.5,3.1-0.5,4.8c0,3.8,0.8,6.9,2.4,9.5c1.6,2.5,3.6,4.6,6.1,6.3c2.4,1.7,5.1,3,8.1,4.1c1.3,0.5,2.6,0.9,3.8,1.3l25.3-10
		c-1.6-0.7-3.3-1.4-5.2-2C140.1,179.8,137.5,179,135.3,178.2z"/>
	<path class="st1" d="M221.7,16.2c-27.3,0-51.2,14.4-64.7,35.9c-7.3,11.7-11.5,25.5-11.5,40.3c0,4.2,0.3,8.3,1,12.2
		c3,0.3,5.9,0.9,8.7,1.5c26.4,6.2,47.5,26.2,55.3,52c1,3.2,1.7,6.5,2.3,9.9c2.9,0.3,5.8,0.5,8.8,0.5c27.5,0,51.6-14.6,65-36.5
		c7.1-11.6,11.2-25.2,11.2-39.7C297.9,50.3,263.8,16.2,221.7,16.2z M193.1,105.8h-8.6v-7.9h7.3c-0.1-1.4-0.2-2.8-0.2-4.3
		c0-1.3,0.1-2.6,0.1-3.8h-7.3V82h8.5c4-17.5,16.9-30.3,32.1-30.3c7.9,0,15.2,3.5,21,9.3l-8.8,8.8c-2.9-2.9-6.3-4.6-10-4.6
		c-9.7,0-15.1,6.9-17.2,16.9h27.1v7.9h-28.1c-0.1,1.2-0.1,2.4-0.1,3.7c0,1.5,0,3,0.1,4.4h23.7v7.9h-22.6c2.2,9.6,7.5,16.2,17,16.2
		c4.2,0,8.1-2.2,11.2-6l8.9,8.9c-5.9,6.7-13.7,10.7-22.3,10.7C210,135.7,197.2,123.1,193.1,105.8z"/>
	<path class="st1" d="M85.9,116.8c-1.8-0.3-3.7-0.7-5.8-1.3c-5.7-1.6-9.2-2.5-10.6-2.7c-1.4-0.2-2.8-0.4-4.4-0.4
		c-4.3,0-8.9,1.4-14,4.1l14.8,20.3C71.3,129,78.1,122.2,85.9,116.8z"/>
	<path class="st1" d="M148.3,51.5C138,21.6,109.6,0,76.2,0C42.6,0,14.1,21.7,4,51.9c-2.6,7.6-4,15.8-4,24.3c0,36,25,66.2,58.6,74.1
		c2-4.7,4.4-9.2,7.3-13.4l-14.8-20.3c-0.5,0.2-0.9,0.5-1.4,0.8l-3.1-6.9l-3.8-8.3c7.5-5.4,11.3-10.8,11.3-16.2c0-0.3,0-1.1-0.1-2.4
		H42.9V70.6h8c-1.4-4.7-2.1-7.5-2.3-8.2c-0.2-1.1-0.3-2.6-0.3-4.2c0-4.5,1.2-8.5,3.6-12.1c2.4-3.6,5.5-6.2,9.4-7.8
		c3.9-1.6,9.1-2.4,15.7-2.4c6.2,0,11.1,0.7,14.7,2.1c3.6,1.4,6.7,3.7,9.1,6.9c2.5,3.2,4.2,7.1,5.1,11.6l-20.5,3.2
		c-1-3.8-2.2-6.4-3.6-7.6c-1.3-1.3-2.9-1.9-4.6-1.9c-2.1,0-3.8,0.7-5.1,2c-1.3,1.4-1.9,3.3-1.9,5.8c0,1.3,0.1,2.6,0.4,3.8
		c0.3,1.2,1.1,4.1,2.6,8.7h16.3v12.9H75c-0.2,3.1-0.7,5.8-1.7,8.2c-0.8,1.9-2,3.8-3.8,5.8c2-0.5,3.7-0.7,5.2-0.7
		c1.8,0,4.2,0.4,7.2,1.1c4,0.9,7.2,1.4,9.6,1.4c2,0,3.7-0.2,5.1-0.5c1.5-0.3,3.4-1,5.7-2.1l4.6,10.1c6.9-2.1,14.3-3.2,21.9-3.2
		c3,0,5.9,0.2,8.8,0.5c-0.6-4-1-8.1-1-12.2C136.7,77,141,63.2,148.3,51.5z"/>
	<path class="st1" d="M207,172.5c-0.7-4-1.6-8-2.9-11.8c-8.3-24.9-29-44-54.7-50.1c-2.9-0.7-5.8-1.2-8.7-1.5
		c-2.9-0.3-5.8-0.5-8.8-0.5c-25.7,0-48.4,12.7-62.2,32.1c-3.2,4.5-6,9.4-8.1,14.6c-3.8,9-5.9,19-5.9,29.4
		c0,42.1,34.1,76.2,76.2,76.2c42.1,0,76.2-34.1,76.2-76.2C208,180.5,207.7,176.4,207,172.5z M162.2,205.2c-0.2,1.9-1,3.9-2.3,6.2
		c-1.3,2.3-3.4,4.6-6.3,6.9c-2.8,2.3-6.8,4.2-12,5.6v11.5h-18v-11c-1.1-0.2-2.2-0.5-3.5-0.7c-1.3-0.3-2.7-0.7-4.1-1.2
		c-1.5-0.5-2.9-1.3-4.4-2.1c-1.5-0.9-2.9-2-4.2-3.4c-1.7-1.8-3.1-3.8-4.2-6.2c-1.1-2.4-1.7-4.7-1.7-6.9v-1.2h22.8
		c0,0.4,0.1,1,0.3,1.8c0.2,0.8,0.5,1.7,1.1,2.6c0.5,0.9,1.3,1.7,2.3,2.3c1,0.7,2.4,1,4.2,1c1.7,0,3.4-0.5,5.1-1.6
		c1.7-1.1,2.5-2.7,2.5-4.8c0-1.8-0.8-3.5-2.5-5.1c-1.6-1.6-4.9-3.1-9.8-4.6c-1.5-0.5-3.1-1-4.7-1.5c-1.3-0.4-2.5-0.8-3.8-1.3
		c-3-1.1-5.7-2.4-8.1-4.1c-2.4-1.7-4.5-3.8-6.1-6.3c-1.6-2.5-2.4-5.7-2.4-9.5c0-1.7,0.2-3.3,0.5-4.8c0.3-1.5,0.8-2.8,1.4-4
		c1.3-2.5,2.9-4.7,4.9-6.4c2-1.8,4.3-3.2,6.8-4.3c2.5-1.1,5.1-1.9,7.7-2.5v-11h18v11c2.7,0.5,5.1,1.3,7.4,2.5
		c2.3,1.2,4.2,2.6,5.9,4.4c1.7,1.8,3,3.8,3.9,6.1c0.9,2.3,1.4,4.9,1.3,7.8h-20.6c0-0.4-0.1-1-0.3-1.8c-0.2-0.8-0.5-1.5-1-2.3
		c-0.5-0.8-1.2-1.4-2.1-2c-0.9-0.5-2.2-0.8-3.9-0.8c-2.3,0-4.1,0.6-5.3,1.9c-1.2,1.2-1.9,2.7-1.9,4.3c0,0.1,0,0.2,0,0.4
		c0.1,1.2,0.4,2.3,1.1,3.2c0.7,1,1.9,1.9,3.5,2.7c1.6,0.8,3.4,1.6,5.7,2.4c2.2,0.8,4.8,1.6,7.7,2.6c1.9,0.6,3.6,1.3,5.2,2
		c1.8,0.8,3.4,1.7,4.8,2.7c2.6,1.8,4.6,3.7,6,5.6c1.4,2,2.4,3.9,2.9,5.8c0.5,1.9,0.7,3.5,0.7,4.9
		C162.6,202.2,162.4,203.4,162.2,205.2z"/>
	<path class="st0" d="M251.2,162.6c-1,0.4-2.1,0.8-3.1,1.2C249.1,163.4,250.2,163,251.2,162.6z"/>
	<path class="st0" d="M275.2,146.5c-0.7,0.7-1.5,1.4-2.2,2.1C273.8,148,274.5,147.3,275.2,146.5z"/>
	<path class="st0" d="M247.6,164c-1,0.4-2,0.7-3,1C245.6,164.7,246.6,164.4,247.6,164z"/>
	<path class="st0" d="M244.3,165.1c-1.1,0.3-2.2,0.7-3.3,0.9C242.1,165.8,243.2,165.5,244.3,165.1z"/>
	<path class="st0" d="M277.8,143.9c-0.6,0.7-1.2,1.3-1.9,2C276.6,145.2,277.2,144.5,277.8,143.9z"/>
	<path class="st0" d="M254.4,161.2c-0.9,0.4-1.8,0.8-2.8,1.2C252.6,162,253.5,161.6,254.4,161.2z"/>
	<path class="st0" d="M267,153.6c-0.7,0.6-1.5,1.1-2.3,1.6C265.5,154.7,266.2,154.2,267,153.6z"/>
	<path class="st0" d="M257.8,159.4c-1,0.5-1.9,1-2.9,1.5C255.9,160.5,256.9,160,257.8,159.4z"/>
	<path class="st0" d="M269.9,151.4c-0.8,0.7-1.6,1.3-2.5,1.9C268.2,152.7,269.1,152,269.9,151.4z"/>
	<path class="st0" d="M240.5,166.2c-1.1,0.3-2.2,0.5-3.3,0.8C238.2,166.7,239.4,166.5,240.5,166.2z"/>
	<path class="st0" d="M264,155.7c-0.9,0.6-1.8,1.2-2.7,1.7C262.3,156.9,263.2,156.3,264,155.7z"/>
	<path class="st0" d="M260.9,157.7c-0.8,0.5-1.7,1-2.5,1.4C259.2,158.7,260.1,158.2,260.9,157.7z"/>
	<path class="st0" d="M272.6,149c-0.7,0.6-1.4,1.2-2,1.8C271.2,150.2,271.9,149.6,272.6,149z"/>
	<path class="st0" d="M282.5,138.2c-0.6,0.7-1.1,1.5-1.7,2.2C281.4,139.7,282,138.9,282.5,138.2z"/>
	<path class="st0" d="M280.1,141.2c-0.6,0.7-1.2,1.4-1.8,2.1C278.9,142.6,279.5,141.9,280.1,141.2z"/>
	<path class="st0" d="M217.4,168.4c-0.2,0-0.4,0-0.6,0C217,168.4,217.2,168.4,217.4,168.4z"/>
	<path class="st0" d="M221,168.5c0.3,0,0.5,0,0.7,0c1.2,0,2.4,0,3.7-0.1c-1.2,0.1-2.4,0.1-3.7,0.1
		C221.5,168.5,221.2,168.5,221,168.5z"/>
	<path class="st0" d="M284.5,135.5c-0.5,0.7-0.9,1.3-1.4,2C283.6,136.8,284.1,136.1,284.5,135.5z"/>
	<path class="st0" d="M233,167.7c-2.4,0.3-4.7,0.6-7.2,0.7C228.3,168.3,230.7,168,233,167.7z"/>
	<path class="st0" d="M237,167c-1.2,0.2-2.3,0.4-3.5,0.6C234.7,167.4,235.9,167.2,237,167z"/>
	<path class="st0" d="M212.9,168c0,0,0.1,0,0.1,0C213,168,212.9,168,212.9,168C212.9,168,212.9,168,212.9,168z"/>
	<path class="st1" d="M270.6,150.8c-0.2,0.2-0.5,0.4-0.7,0.6C270.1,151.2,270.3,151,270.6,150.8z"/>
	<path class="st1" d="M285.2,134.5c-0.2,0.3-0.4,0.6-0.6,0.9C284.7,135.1,284.9,134.8,285.2,134.5z"/>
	<path class="st1" d="M267.4,153.3c-0.1,0.1-0.3,0.2-0.5,0.3C267.1,153.5,267.3,153.4,267.4,153.3z"/>
	<path class="st1" d="M273,148.7c-0.1,0.1-0.3,0.2-0.4,0.4C272.7,148.9,272.9,148.8,273,148.7z"/>
	<path class="st1" d="M278.3,143.3c-0.2,0.2-0.3,0.4-0.5,0.6C278,143.7,278.2,143.5,278.3,143.3z"/>
	<path class="st1" d="M275.9,145.8c-0.2,0.2-0.5,0.5-0.7,0.7C275.5,146.3,275.7,146.1,275.9,145.8z"/>
	<path class="st1" d="M283.1,137.4c-0.2,0.3-0.4,0.5-0.6,0.8C282.7,137.9,282.9,137.7,283.1,137.4z"/>
	<path class="st1" d="M280.8,140.4c-0.2,0.3-0.5,0.6-0.7,0.8C280.4,140.9,280.6,140.7,280.8,140.4z"/>
	<path class="st1" d="M241,166.1c-0.2,0-0.3,0.1-0.5,0.1C240.6,166.2,240.8,166.1,241,166.1z"/>
	<path class="st1" d="M237.1,167C237.1,167,237.1,167,237.1,167C237.1,167,237.1,167,237.1,167z"/>
	<path class="st1" d="M225.9,168.4c-0.2,0-0.3,0-0.5,0C225.5,168.4,225.7,168.4,225.9,168.4z"/>
	<path class="st1" d="M233.5,167.6c-0.2,0-0.3,0.1-0.5,0.1C233.2,167.7,233.4,167.6,233.5,167.6z"/>
	<path class="st1" d="M221,168.5c-1.2,0-2.4,0-3.6-0.1C218.6,168.5,219.8,168.5,221,168.5z"/>
	<path class="st1" d="M216.8,168.3c-1.3-0.1-2.5-0.2-3.8-0.3C214.3,168.2,215.5,168.3,216.8,168.3z"/>
	<path class="st1" d="M258.4,159.1c-0.2,0.1-0.4,0.2-0.6,0.3C258,159.3,258.2,159.2,258.4,159.1z"/>
	<path class="st1" d="M264.7,155.2c-0.2,0.1-0.4,0.3-0.6,0.4C264.3,155.5,264.5,155.4,264.7,155.2z"/>
	<path class="st1" d="M254.9,160.9c-0.2,0.1-0.3,0.2-0.5,0.2C254.6,161.1,254.7,161,254.9,160.9z"/>
	<path class="st1" d="M261.4,157.4c-0.2,0.1-0.3,0.2-0.5,0.3C261,157.6,261.2,157.5,261.4,157.4z"/>
	<path class="st1" d="M251.7,162.4c-0.1,0.1-0.3,0.1-0.4,0.2C251.4,162.5,251.5,162.5,251.7,162.4z"/>
	<path class="st1" d="M248.1,163.8c-0.2,0.1-0.3,0.1-0.5,0.2C247.8,163.9,247.9,163.9,248.1,163.8z"/>
	<path class="st1" d="M244.6,165c-0.1,0-0.2,0.1-0.3,0.1C244.4,165.1,244.5,165.1,244.6,165z"/>
</g>
</svg>
