<?xml version="1.0" encoding="utf-8"?>
<!-- Generator: Adobe Illustrator 16.0.0, SVG Export Plug-In . SVG Version: 6.00 Build 0)  -->
<!DOCTYPE svg PUBLIC "-//W3C//DTD SVG 1.1//EN" "http://www.w3.org/Graphics/SVG/1.1/DTD/svg11.dtd">
<svg version="1.1" id="Layer_1" xmlns="http://www.w3.org/2000/svg" xmlns:xlink="http://www.w3.org/1999/xlink" x="0px" y="0px"
	 width="270.897px" height="558.752px" viewBox="0 0 270.897 558.752" enable-background="new 0 0 270.897 558.752"
	 xml:space="preserve">
<g>
	<linearGradient id="SVGID_1_" gradientUnits="userSpaceOnUse" x1="0" y1="135.3613" x2="270.8975" y2="135.3613">
		<stop  offset="0" style="stop-color:#F37D77"/>
		<stop  offset="1" style="stop-color:#F47F48"/>
	</linearGradient>
	<path fill="url(#SVGID_1_)" d="M270.897,135.447C270.897,60.761,210.133,0,135.45,0C60.761,0,0,60.761,0,135.447
		c0,49.698,26.92,93.201,66.929,116.768c12.983,5.713,34.672,10.241,49.793-12.601c0.029-0.062,0.238-0.658,0.51-1.461
		c-0.096,0.31-0.176,0.636-0.276,0.932c0.696-1.73,1.164-3.389,1.519-4.899c0.099-0.347,0.182-0.669,0.234-0.92
		c0.272-1.301,0.53-4.774,0.53-4.774v-3.4v-58.122c4.846,1.211,10.662,1.452,16.953,1.452c20.585,0,38.743-6.054,49.883-17.917
		c8.23-8.479,12.593-20.106,12.593-34.868c0-14.531-5.332-26.398-14.284-34.142c-9.69-8.722-24.943-13.563-45.77-13.563
		c-16.948,0-30.273,1.447-40.439,3.151v157.513c-0.291,2.298-1.286,5.312-4.258,7.014c-5.033,1.966-12.449,0.736-18.614-0.992
		c-33.468-20.375-55.868-57.204-55.868-99.17c0-63.97,52.047-116.012,116.017-116.012c63.966,0,116.01,52.042,116.01,116.012
		c0,61.583-48.238,112.093-108.915,115.774c-0.125,0.275-0.278,0.549-0.406,0.825v18.677
		C213.729,267.229,270.897,207.887,270.897,135.447z M119.238,86.334c3.636-0.967,10.662-1.695,19.857-1.695
		c23.244,0,38.504,10.407,38.504,31.965c0,22.516-15.5,34.868-40.923,34.868c-7.022,0-12.837-0.489-17.438-1.694V86.334z"/>
	<defs>
		<filter id="Adobe_OpacityMaskFilter" filterUnits="userSpaceOnUse" x="0" y="288.027" width="270.897" height="270.725">
			<feFlood  style="flood-color:white;flood-opacity:1" result="back"/>
			<feBlend  in="SourceGraphic" in2="back" mode="normal"/>
		</filter>
	</defs>
	<mask maskUnits="userSpaceOnUse" x="0" y="288.027" width="270.897" height="270.725" id="SVGID_2_">
		<g filter="url(#Adobe_OpacityMaskFilter)">
			<linearGradient id="SVGID_3_" gradientUnits="userSpaceOnUse" x1="137.7104" y1="317.9668" x2="137.7104" y2="119.9473">
				<stop  offset="0" style="stop-color:#000000"/>
				<stop  offset="1" style="stop-color:#FFFFFF"/>
			</linearGradient>
			<rect x="-22.806" y="258.785" fill="url(#SVGID_3_)" width="321.032" height="318.032"/>
		</g>
	</mask>
	
		<linearGradient id="SVGID_4_" gradientUnits="userSpaceOnUse" x1="241.1035" y1="-140.667" x2="512.001" y2="-140.667" gradientTransform="matrix(-1 0 0 1 512.001 564.0566)">
		<stop  offset="0" style="stop-color:#F37D77"/>
		<stop  offset="1" style="stop-color:#F47F48"/>
	</linearGradient>
	<path mask="url(#SVGID_2_)" fill="url(#SVGID_4_)" d="M128.759,558.752v-18.677c-0.128-0.276-0.281-0.55-0.406-0.825
		c-60.677-3.682-108.915-54.191-108.915-115.774c0-63.97,52.044-116.013,116.01-116.013c63.97,0,116.017,52.043,116.017,116.013
		c0,41.966-22.4,78.795-55.868,99.17c-6.165,1.729-13.581,2.958-18.614,0.992c-2.972-1.702-3.967-4.716-4.258-7.014V359.111
		c-10.166-1.705-23.491-3.151-40.439-3.151c-20.826,0-36.079,4.841-45.77,13.563c-8.952,7.743-14.284,19.61-14.284,34.142
		c0,14.763,4.362,26.389,12.593,34.868c11.14,11.863,29.298,17.917,49.883,17.917c6.291,0,12.107-0.241,16.953-1.452v58.122v3.4
		c0,0,0.258,3.474,0.53,4.774c0.053,0.251,0.136,0.573,0.234,0.92c0.354,1.511,0.822,3.169,1.519,4.899
		c-0.101-0.296-0.181-0.622-0.276-0.932c0.271,0.803,0.48,1.399,0.51,1.461c15.121,22.842,36.81,18.313,49.793,12.601
		c40.009-23.566,66.929-67.069,66.929-116.768c0-74.687-60.761-135.448-135.45-135.448C60.765,288.027,0,348.789,0,423.476
		C0,495.915,57.169,555.257,128.759,558.752z M151.659,437.807c-4.602,1.205-10.416,1.694-17.438,1.694
		c-25.423,0-40.923-12.353-40.923-34.868c0-21.559,15.26-31.965,38.504-31.965c9.195,0,16.222,0.727,19.857,1.694V437.807z"/>
</g>
</svg>
