<?xml version="1.0" encoding="utf-8"?>
<!-- Generator: Adobe Illustrator 22.1.0, SVG Export Plug-In . SVG Version: 6.00 Build 0)  -->
<svg version="1.1" id="圖層_1" xmlns="http://www.w3.org/2000/svg" xmlns:xlink="http://www.w3.org/1999/xlink" x="0px" y="0px"
	 viewBox="0 0 275.9 275.8" style="enable-background:new 0 0 275.9 275.8;" xml:space="preserve">
<style type="text/css">
	.st0{fill:#FFFFFF;}
</style>
<path class="st0" d="M275.9,138C275.9,61.9,214,0,138,0C61.9,0,0,61.9,0,138c0,50.6,27.4,94.9,68.2,118.9
	c13.2,5.8,35.3,10.4,50.7-12.8c0-0.1,0.2-0.7,0.5-1.5c-0.1,0.3-0.2,0.6-0.3,0.9c0.7-1.8,1.2-3.5,1.5-5c0.1-0.4,0.2-0.7,0.2-0.9
	c0.3-1.3,0.5-4.9,0.5-4.9v-3.5v-59.2c4.9,1.2,10.9,1.5,17.3,1.5c21,0,39.5-6.2,50.8-18.2c8.4-8.6,12.8-20.5,12.8-35.5
	c0-14.8-5.4-26.9-14.5-34.8c-9.9-8.9-25.4-13.8-46.6-13.8c-17.3,0-30.8,1.5-41.2,3.2v160.4c-0.3,2.3-1.3,5.4-4.3,7.1
	c-5.1,2-12.7,0.7-19-1c-34.1-20.8-56.9-58.3-56.9-101c0-65.2,53-118.2,118.2-118.2c65.2,0,118.2,53,118.2,118.2
	c0,62.7-49.1,114.2-110.9,117.9c-0.1,0.3-0.3,0.6-0.4,0.8v19C217.7,272.2,275.9,211.8,275.9,138z M121.5,87.9
	c3.7-1,10.9-1.7,20.2-1.7c23.7,0,39.2,10.6,39.2,32.6c0,22.9-15.8,35.5-41.7,35.5c-7.2,0-13.1-0.5-17.8-1.7V87.9z"/>
</svg>
