<?xml version="1.0" encoding="utf-8"?>
<!-- Generator: Adobe Illustrator 16.0.0, SVG Export Plug-In . SVG Version: 6.00 Build 0)  -->
<!DOCTYPE svg PUBLIC "-//W3C//DTD SVG 1.1//EN" "http://www.w3.org/Graphics/SVG/1.1/DTD/svg11.dtd">
<svg version="1.1" id="Layer_1" xmlns="http://www.w3.org/2000/svg" xmlns:xlink="http://www.w3.org/1999/xlink" x="0px" y="0px"
	 width="96px" height="96px" viewBox="0 0 96 96" enable-background="new 0 0 96 96" xml:space="preserve">
<path fill="none" d="M58.118,32.958c-2.637-2.465-6-3.699-10.087-3.699c-4.215,0-7.609,1.254-10.182,3.764
	c-0.736,0.716-1.363,1.502-1.888,2.349L59.883,50.8c1.461-2.162,2.191-4.788,2.191-7.88C62.074,38.748,60.756,35.427,58.118,32.958z
	"/>
<linearGradient id="SVGID_1_" gradientUnits="userSpaceOnUse" x1="48" y1="91.4297" x2="48" y2="-4.3993">
	<stop  offset="0" style="stop-color:#4A2F80"/>
	<stop  offset="1" style="stop-color:#066D93"/>
</linearGradient>
<path fill="url(#SVGID_1_)" d="M74.665,0H21.333C9.55,0,0,9.549,0,21.333v47.621v5.707C0,86.442,9.55,95.995,21.333,95.995h30.398
	h22.934C86.447,95.995,96,86.442,96,74.661V21.333C96,9.549,86.447,0,74.665,0z"/>
<linearGradient id="SVGID_2_" gradientUnits="userSpaceOnUse" x1="21.1108" y1="82.1172" x2="47.304" y2="54.0531">
	<stop  offset="0" style="stop-color:#1B4B86"/>
	<stop  offset="1" style="stop-color:#004B66"/>
</linearGradient>
<path fill="url(#SVGID_2_)" d="M29.811,26.924L0.449,63.676L0,74.661C0,86.442,9.55,95.995,21.333,95.995l29.637,0.004
	l16.435-23.182L29.811,26.924z"/>
<linearGradient id="SVGID_3_" gradientUnits="userSpaceOnUse" x1="60.1973" y1="64.3135" x2="63.6805" y2="59.0888">
	<stop  offset="0" style="stop-color:#096D94"/>
	<stop  offset="1" style="stop-color:#004B66"/>
</linearGradient>
<path fill="url(#SVGID_3_)" d="M56.959,64.222c1.121,0.643,3.092,1.5,4.242,1.955l7.51-9.685l-0.543-0.216
	C65.239,59.973,61.777,62.711,56.959,64.222z"/>
<linearGradient id="SVGID_4_" gradientUnits="userSpaceOnUse" x1="45.5762" y1="46.8838" x2="51.127" y2="33.3875">
	<stop  offset="0" style="stop-color:#096D94"/>
	<stop  offset="1" style="stop-color:#004B66"/>
</linearGradient>
<ellipse fill="url(#SVGID_4_)" cx="45.854" cy="46.207" rx="17.96" ry="17.469"/>
<path fill="#FFFFFF" d="M73.353,66.906c-1.25,0.423-2.69,0.636-4.32,0.636c-2.974,0-5.86-0.561-8.664-1.672
	c-1.149-0.459-2.288-1.006-3.409-1.648c4.818-1.511,8.688-4.119,11.617-7.818c0.148-0.188,0.297-0.375,0.439-0.566
	c2.977-4.001,4.465-8.394,4.465-13.179c0-5.908-2.342-11.158-7.021-15.754c-4.682-4.593-10.782-6.89-18.302-6.89
	c-7.413,0-13.529,2.304-18.347,6.91c-0.953,0.909-1.807,1.852-2.571,2.823c-3.103,3.938-4.656,8.372-4.656,13.299
	c0,2.542,0.445,5.009,1.334,7.402c0.805,2.181,1.958,4.215,3.463,6.101c1.397,1.778,3.017,3.322,4.859,4.638
	c1.78,1.27,3.633,2.255,5.56,2.956c2.331,0.845,4.342,1.829,6.037,2.953c2.288,1.502,4.596,2.814,6.927,3.938
	c1.214,0.577,2.424,1.095,3.623,1.559c1.225,0.472,2.442,0.886,3.652,1.237c2.541,0.742,4.998,1.195,7.371,1.367l8.641-7.373
	L73.353,66.906z M48.031,56.519c-4.215,0-7.609-1.25-10.182-3.75c-2.574-2.499-3.861-5.782-3.861-9.849
	c0-2.918,0.66-5.433,1.973-7.547c0.525-0.847,1.152-1.633,1.888-2.349c2.573-2.51,5.967-3.764,10.182-3.764
	c4.087,0,7.451,1.234,10.087,3.699c2.638,2.469,3.956,5.789,3.956,9.961c0,3.092-0.73,5.719-2.191,7.88
	c-0.491,0.724-1.063,1.396-1.718,2.017C55.561,55.284,52.182,56.519,48.031,56.519z"/>
</svg>
