<?xml version="1.0" encoding="utf-8"?>
<!-- Generator: Adobe Illustrator 16.0.0, SVG Export Plug-In . SVG Version: 6.00 Build 0)  -->
<!DOCTYPE svg PUBLIC "-//W3C//DTD SVG 1.1//EN" "http://www.w3.org/Graphics/SVG/1.1/DTD/svg11.dtd">
<svg version="1.1" id="Layer_1" xmlns="http://www.w3.org/2000/svg" xmlns:xlink="http://www.w3.org/1999/xlink" x="0px" y="0px"
	 width="168.39px" height="139.28px" viewBox="0 0 168.39 139.28" enable-background="new 0 0 168.39 139.28" xml:space="preserve">
<g>
	<path fill="#231F20" d="M9.324,19.52h47.953v10.777H21.434V56.09h34.633v10.838H21.434v26.277h36.994v10.777H9.324V19.52z"/>
	<path fill="#231F20" d="M77.646,19.52h12.109v84.583H77.646V19.52z"/>
	<path fill="#231F20" d="M135.674,68.664l-9.203-5.591c-5.773-3.525-9.88-6.992-12.322-10.404
		c-2.442-3.411-3.662-7.335-3.662-11.776c0-6.66,2.31-12.069,6.932-16.227c4.622-4.157,10.627-6.236,18.014-6.236
		c7.063,0,13.541,1.983,19.436,5.949v13.744c-6.096-5.863-12.654-8.794-19.678-8.794c-3.957,0-7.205,0.915-9.748,2.745
		s-3.814,4.171-3.814,7.025c0,2.533,0.936,4.906,2.809,7.117c1.874,2.212,4.887,4.534,9.037,6.966l9.248,5.473
		c10.316,6.163,15.477,14.006,15.477,23.531c0,6.781-2.271,12.291-6.813,16.529s-10.443,6.357-17.709,6.357
		c-8.355,0-15.965-2.566-22.826-7.704V81.989c6.539,8.286,14.107,12.427,22.705,12.427c3.793,0,6.951-1.055,9.475-3.167
		c2.523-2.111,3.785-4.756,3.785-7.934C146.814,78.168,143.1,73.283,135.674,68.664z"/>
</g>
</svg>
