<?xml version="1.0" encoding="utf-8"?>
<!-- Generator: Adobe Illustrator 22.1.0, SVG Export Plug-In . SVG Version: 6.00 Build 0)  -->
<svg version="1.1" id="圖層_1" xmlns="http://www.w3.org/2000/svg" xmlns:xlink="http://www.w3.org/1999/xlink" x="0px" y="0px"
	 viewBox="0 0 280.2 261.7" style="enable-background:new 0 0 280.2 261.7;" xml:space="preserve">
<style type="text/css">
	.st0{fill:#FFFFFF;}
</style>
<g>
	<polygon class="st0" points="274.9,261.7 0,261.7 0,0 15.4,0 15.4,246.4 274.9,246.4 	"/>
</g>
<g>
	<g>
		<polygon class="st0" points="15.8,134.2 1.9,120.2 108.2,13.9 190.9,97 266.3,21.9 280.2,35.9 190.9,124.9 108.2,41.9 		"/>
	</g>
	<g>
		<polygon class="st0" points="14.2,190.6 0.2,176.7 162.7,14 275.7,125.5 261.8,139.5 162.8,41.8 		"/>
	</g>
</g>
<path class="st0" d="M123.6,174.9c-11.3,0-19.2,8.3-19.2,20.1c0,0.2,0,0.4,0,0.6c0,0.2,0,0.4,0,0.6c0,12,8.3,19.8,21.1,19.8
	c2.8,0,9.8,0,16.3-5.1v-8.8c-5.4,4.1-8.9,4.6-13.6,4.6c-6.7,0-11-2.7-11.9-8.7h26.1c0-0.6,0-1.3,0-1.9
	C142.8,182.5,134.1,174.9,123.6,174.9z M116.7,190.7c0.7-3.6,3.2-6.2,6.8-6.2c3.6,0,6.1,2.7,6.8,6.2H116.7z M216,214.1l-0.1-0.2
	c7-2.5,11.8-9.3,11.8-18.5c0-15.4-12-20.8-21.3-20.8c-11.2,0-21.5,7.1-21.5,20.7c0,12.5,9,20.7,21.4,20.7c1.4,1.7,7.9,7.3,17.9,7.3
	c2.7,0,5.7-0.4,9-1.5l1.8-12.9C227.8,215.1,217.7,214.6,216,214.1z M212.4,204.4c-1.6,1.9-3.8,2.8-6.2,2.8c-3.1,0-5.4-1.4-7.1-3.9
	c-1.3-2-2-4.5-2-7.3c0-3.5,1.2-6.5,2.9-8.7c1.7-2,3.5-2.8,6.1-2.8c1.7,0,3.4,0.4,4.8,1.5c2.6,2.1,4.2,5.8,4.2,9.9
	C215.2,199.3,214.2,202.4,212.4,204.4z M99.6,195.8c-1-0.9-1.9-1.4-3-2c3.2-1.6,5.1-4.7,5.1-8.7c0-5.7-3.9-8.1-7.6-9.4
	c-2.1-0.7-3.9-0.7-6.3-0.8H65v40.2h23.7c3.2,0,6.6-0.2,9.9-2.7c3.4-2.6,4.4-6.2,4.4-9.1C103,199.8,101.3,197.3,99.6,195.8z
	 M76.3,184.7h9c2.1,0,4.7,0.5,4.7,3.1c0,2.9-2.8,3-4.7,3h-9V184.7z M86,206.4h-9.8v-8.1H86c2.5,0,4.8,1,4.8,4
	C90.8,205.5,88.5,206.4,86,206.4z M169.1,175c-4.8,0-8.4,1.9-12.2,6.4v-5.2h-11.8v38.9H157v-24.4c3.1-4.9,5.3-6.6,8.2-6.6
	c3.3,0,5.8,2.3,5.8,7.9v23.1h11.8v-24.9C182.7,178.5,175,175,169.1,175z"/>
</svg>
