<?xml version="1.0" encoding="utf-8"?>
<!-- Generator: Adobe Illustrator 16.0.0, SVG Export Plug-In . SVG Version: 6.00 Build 0)  -->
<!DOCTYPE svg PUBLIC "-//W3C//DTD SVG 1.1//EN" "http://www.w3.org/Graphics/SVG/1.1/DTD/svg11.dtd">
<svg version="1.1" id="Layer_1" xmlns="http://www.w3.org/2000/svg" xmlns:xlink="http://www.w3.org/1999/xlink" x="0px" y="0px"
	 width="350.227px" height="599.249px" viewBox="0 0 350.227 599.249" enable-background="new 0 0 350.227 599.249"
	 xml:space="preserve">
<g>
	<defs>
		<filter id="Adobe_OpacityMaskFilter" filterUnits="userSpaceOnUse" x="0" y="375.951" width="347.695" height="223.297">
			<feFlood  style="flood-color:white;flood-opacity:1" result="back"/>
			<feBlend  in="SourceGraphic" in2="back" mode="normal"/>
		</filter>
	</defs>
	<mask maskUnits="userSpaceOnUse" x="0" y="375.951" width="347.695" height="223.297" id="SVGID_1_">
		<g filter="url(#Adobe_OpacityMaskFilter)">
			<linearGradient id="SVGID_2_" gradientUnits="userSpaceOnUse" x1="182.9829" y1="485.1943" x2="182.9829" y2="34.2267">
				<stop  offset="0" style="stop-color:#000000"/>
				<stop  offset="0.0935" style="stop-color:#2B2B2C"/>
				<stop  offset="0.2704" style="stop-color:#58585B"/>
				<stop  offset="0.512" style="stop-color:#85878A"/>
				<stop  offset="0.8057" style="stop-color:#C4C6C8"/>
				<stop  offset="1" style="stop-color:#F2F3F3"/>
			</linearGradient>
			<rect x="-22.115" y="360.893" fill="url(#SVGID_2_)" width="410.195" height="276.572"/>
		</g>
	</mask>
	<g opacity="0.6" mask="url(#SVGID_1_)">
		<rect x="7.71" y="376.217" fill="#ECF2F2" width="304.51" height="184.469"/>
		<g>
			
				<text transform="matrix(1 0 0 -1 66.1211 418.7656)" fill="#009999" font-family="'MicrosoftJhengHeiBold'" font-size="106.6209">請假</text>
		</g>
		<path fill="#60BCCE" d="M287.725,599.248h-0.414h-11.049h-0.029h-6.605v-13.682c0-8.27-9.619-14.998-21.447-14.998
			c-11.826,0-21.449,6.729-21.449,14.998v13.682h-4.639H91.968h-5.747v-13.682c0-8.27-9.62-14.998-21.446-14.998
			c-11.828,0-21.448,6.729-21.448,14.998v13.682h-5.5H26.429H25.23c-13.914,0-25.23-7.914-25.23-17.641V398.043
			c0-9.729,11.316-17.643,25.23-17.643h218.221c-3.313,3.818-5.828,8.012-7.412,12.461H25.23c-4.087,0-7.411,2.324-7.411,5.182
			v158.521H238h57.01l0.127-11.08v-96.594c1.18,0.043,2.371,0.072,3.57,0.072c4.898,0,9.662-0.396,14.248-1.115v133.76
			C312.955,591.334,301.637,599.248,287.725,599.248z"/>
		<path opacity="0.8" fill="#006678" d="M301.146,463.125c-4.238,0.707-8.641,1.09-13.174,1.09c-1.107,0-2.209-0.023-3.303-0.068
			c-31.447-1.268-56.416-20.51-56.416-44.061c0-3.688,0.621-7.266,1.771-10.689c1.465-4.346,3.793-8.445,6.857-12.174
			c10.471-12.754,29.436-21.271,51.09-21.271c32.984,0,59.723,19.76,59.723,44.135C347.695,441.113,327.793,458.695,301.146,463.125
			z"/>
		
			<linearGradient id="SVGID_3_" gradientUnits="userSpaceOnUse" x1="244.1895" y1="155.3213" x2="332.6328" y2="155.3213" gradientTransform="matrix(1 0 0 -1 0 571.0391)">
			<stop  offset="0" style="stop-color:#F2F3F3"/>
			<stop  offset="0.4946" style="stop-color:#FFFFFF"/>
			<stop  offset="1" style="stop-color:#F2F3F3"/>
		</linearGradient>
		<polygon opacity="0.6" fill="url(#SVGID_3_)" points="277.643,389.189 244.189,413.908 254.736,421.707 278.395,409.4 
			322.842,442.246 332.633,429.83 		"/>
	</g>
	<g>
		<rect x="8.753" y="85.71" fill="#ECF2F2" width="288.702" height="241.21"/>
		<text transform="matrix(1 0 0 1 46.5859 243.8599)" fill="#009999" font-family="'MicrosoftJhengHeiBold'" font-size="102.9411">請假</text>
		<path fill="#60BCCE" d="M284.832,32.188h-0.409h-10.935h-0.032h-6.539v24.317c0,11.708-9.524,21.232-21.229,21.232
			c-11.71,0-21.235-9.524-21.235-21.232V32.188h-4.591H91.046h-5.688v24.317c0,11.708-9.526,21.232-21.232,21.232
			c-11.708,0-21.233-9.524-21.233-21.232V32.188H37.45H26.164h-1.187C11.205,32.188,0,43.392,0,57.164v259.859
			c0,13.774,11.205,24.975,24.978,24.975h222.277c-3.279-5.404-5.773-11.344-7.341-17.641H24.978c-4.045,0-7.336-3.289-7.336-7.334
			V92.615h217.967h56.438l0.124,15.686v136.74c1.172-0.063,2.348-0.104,3.538-0.104c4.848,0,9.563,0.561,14.102,1.581V57.164
			C309.81,43.392,298.605,32.188,284.832,32.188z"/>
		<path fill="#006678" d="M64.125,0c-7.463,0-13.514,6.05-13.514,13.511v18.677v24.317c0,7.462,6.051,13.513,13.514,13.513
			s13.511-6.05,13.511-13.513V32.188V13.511C77.636,6.05,71.588,0,64.125,0z"/>
		<path fill="#006678" d="M245.688,0c-7.464,0-13.515,6.05-13.515,13.511v18.677v24.317c0,7.462,6.051,13.513,13.515,13.513
			c7.462,0,13.51-6.05,13.51-13.513V32.188V13.511C259.197,6.05,253.149,0,245.688,0z"/>
		<path fill="#006678" d="M303.824,244.561c-4.225-0.954-8.614-1.47-13.13-1.47c-1.105,0-2.202,0.034-3.293,0.091
			c-31.346,1.713-56.234,27.664-56.234,59.432c0,4.975,0.616,9.799,1.765,14.421c1.461,5.858,3.781,11.387,6.833,16.42
			c10.438,17.199,29.343,28.689,50.93,28.689c32.879,0,59.532-26.652,59.532-59.531C350.227,274.25,330.384,250.537,303.824,244.561
			z"/>
		<linearGradient id="SVGID_4_" gradientUnits="userSpaceOnUse" x1="247.0498" y1="307.8057" x2="335.2119" y2="307.8057">
			<stop  offset="0" style="stop-color:#F2F3F3"/>
			<stop  offset="0.4946" style="stop-color:#FFFFFF"/>
			<stop  offset="1" style="stop-color:#F2F3F3"/>
		</linearGradient>
		<polygon fill="url(#SVGID_4_)" points="280.394,340.094 247.05,306.753 257.563,296.235 281.146,319.823 325.448,275.517 
			335.212,285.279 		"/>
	</g>
</g>
</svg>
