<?xml version="1.0" encoding="utf-8"?>
<!-- Generator: Adobe Illustrator 16.0.0, SVG Export Plug-In . SVG Version: 6.00 Build 0)  -->
<!DOCTYPE svg PUBLIC "-//W3C//DTD SVG 1.1//EN" "http://www.w3.org/Graphics/SVG/1.1/DTD/svg11.dtd">
<svg version="1.1" id="Layer_1" xmlns="http://www.w3.org/2000/svg" xmlns:xlink="http://www.w3.org/1999/xlink" x="0px" y="0px"
	 width="338.915px" height="717.319px" viewBox="0 0 338.915 717.319" enable-background="new 0 0 338.915 717.319"
	 xml:space="preserve">
<g>
	<rect x="276.97" y="141.787" fill="#FAA71A" width="62.445" height="58.279"/>
	<rect x="276.972" y="56.33" fill="#FAA71A" width="62.443" height="58.281"/>
	
		<linearGradient id="SVGID_1_" gradientUnits="userSpaceOnUse" x1="406.0576" y1="-331.8921" x2="413.1223" y2="-635.6555" gradientTransform="matrix(1 0 0 -1 -261.5996 -311.9004)">
		<stop  offset="0" style="stop-color:#FED112"/>
		<stop  offset="1" style="stop-color:#FAA71A"/>
	</linearGradient>
	<path fill="url(#SVGID_1_)" d="M251.876,0H13.56C12.554,0,1.494,0.083,0.5,0.149V55.57v296.61
		c0.993,0.062,12.054,0.146,13.06,0.146h238.316c24.758,0,44.828-20.065,44.828-44.827V44.826C296.704,20.065,276.634,0,251.876,0z
		 M230.536,264.656c-3.156,9.102-19.461,22.604-27.238,28.014c-3.15,2.189-6.355,4.367-10.135,5.234
		c-5.252,1.199-10.938,0.912-16.23,0.123c-22.042-3.281-41.552-18.644-57.516-33.17c-25.188-22.925-45.571-49.699-60.996-80.024
		c-8.164-16.063-15.463-33.211-18.235-51.095c-1.189-7.68-1.512-15.674,0.312-23.262c2.153-9.031,7.354-15.219,14.45-20.988
		c7.16-5.844,26.104-16.838,36.611-17.618c2.879-0.228,5.558,1.178,7.808,3.021c2.632,2.164,4.435,6.014,6.138,8.862
		c3.434,5.749,6.348,11.88,9.207,17.938c3.207,6.78,6.331,13.563,8.527,20.737c0.887,2.929,2.295,6.486,2.265,9.57
		c-0.042,3.961-2.919,7.313-5.024,10.432c-3.412,5.067-7.26,9.834-11.321,14.394c1.868,4.854,8.823,17.916,21.502,34.844
		c12.765,17.025,19.827,24.438,23.966,27.59c0.432,0.082,10.381-4.753,11.496-5.236c3.979-1.752,8.228-3.972,12.604-4.511
		c4.355-0.542,7.457,1.599,10.965,3.87c2.767,1.797,5.572,3.541,8.142,5.617c10.61,8.576,23.408,19.564,34.155,33.072
		C234.11,254.754,231.571,261.677,230.536,264.656z M251.444,128.883H147.99V111h103.454V128.883z M251.444,89.287H147.99V71.408
		h103.454V89.287z"/>
	<defs>
		<filter id="Adobe_OpacityMaskFilter" filterUnits="userSpaceOnUse" x="0.5" y="364.992" width="338.915" height="352.326">
			<feColorMatrix  type="matrix" values="1 0 0 0 0  0 1 0 0 0  0 0 1 0 0  0 0 0 1 0"/>
		</filter>
	</defs>
	<mask maskUnits="userSpaceOnUse" x="0.5" y="364.992" width="338.915" height="352.326" id="SVGID_2_">
		<g filter="url(#Adobe_OpacityMaskFilter)">
			
				<linearGradient id="SVGID_3_" gradientUnits="userSpaceOnUse" x1="418.0703" y1="-521.1294" x2="418.0703" y2="-741.4299" gradientTransform="matrix(1 0 0 -1 -261.5996 -311.9004)">
				<stop  offset="0" style="stop-color:#FFFFFF"/>
				<stop  offset="1" style="stop-color:#000000"/>
			</linearGradient>
			<rect x="-78.417" y="263.418" fill="url(#SVGID_3_)" width="469.775" height="310.83"/>
		</g>
	</mask>
	<g mask="url(#SVGID_2_)">
		<rect x="276.97" y="517.254" fill="#FAA71A" width="62.445" height="58.279"/>
		<rect x="276.972" y="602.707" fill="#FAA71A" width="62.443" height="58.281"/>
		
			<linearGradient id="SVGID_4_" gradientUnits="userSpaceOnUse" x1="406.0566" y1="1210.7695" x2="413.1214" y2="907.0048" gradientTransform="matrix(1 0 0 1 -261.5996 -513.4395)">
			<stop  offset="0" style="stop-color:#FED112"/>
			<stop  offset="1" style="stop-color:#FAA71A"/>
		</linearGradient>
		<path fill="url(#SVGID_4_)" d="M296.704,672.492V409.82c0-24.762-20.07-44.828-44.828-44.828H13.56
			c-1.006,0-12.066,0.086-13.06,0.146V661.75v55.422c0.993,0.064,12.054,0.146,13.06,0.146h238.316
			C276.634,717.32,296.704,697.254,296.704,672.492z M231.985,465.248c-10.748,13.508-23.545,24.496-34.156,33.07
			c-2.568,2.08-5.375,3.822-8.141,5.621c-3.508,2.271-6.609,4.412-10.965,3.869c-4.377-0.541-8.626-2.76-12.605-4.512
			c-1.114-0.482-11.063-5.318-11.496-5.234c-4.138,3.148-11.201,10.563-23.966,27.59c-12.678,16.928-19.633,29.99-21.502,34.842
			c4.063,4.559,7.91,9.326,11.32,14.393c2.106,3.121,4.983,6.471,5.025,10.434c0.029,3.082-1.378,6.643-2.264,9.57
			c-2.197,7.174-5.321,13.957-8.528,20.736c-2.858,6.059-5.772,12.191-9.207,17.939c-1.703,2.85-3.506,6.699-6.138,8.863
			c-2.25,1.844-4.928,3.248-7.807,3.02c-10.51-0.781-29.453-11.773-36.611-17.617c-7.098-5.771-12.299-11.959-14.451-20.988
			c-1.822-7.59-1.501-15.582-0.311-23.262c2.771-17.883,10.07-35.033,18.234-51.094c15.424-30.326,35.809-57.104,60.996-80.025
			c15.964-14.527,35.475-29.889,57.517-33.17c5.293-0.789,10.979-1.076,16.229,0.125c3.778,0.865,6.983,3.043,10.135,5.232
			c7.776,5.408,24.082,18.912,27.238,28.014C231.571,455.641,234.11,462.566,231.985,465.248z M251.444,606.32H147.99v-17.883
			h103.454V606.32z M251.444,645.912H147.99v-17.879h103.454V645.912z"/>
	</g>
</g>
</svg>
