<?xml version="1.0" encoding="utf-8"?>
<!-- Generator: Adobe Illustrator 16.0.0, SVG Export Plug-In . SVG Version: 6.00 Build 0)  -->
<!DOCTYPE svg PUBLIC "-//W3C//DTD SVG 1.1//EN" "http://www.w3.org/Graphics/SVG/1.1/DTD/svg11.dtd">
<svg version="1.1" id="Layer_1" xmlns="http://www.w3.org/2000/svg" xmlns:xlink="http://www.w3.org/1999/xlink" x="0px" y="0px"
	 width="339.66px" height="515px" viewBox="0 0 339.66 515" enable-background="new 0 0 339.66 515" xml:space="preserve">
<g>
	<linearGradient id="SVGID_1_" gradientUnits="userSpaceOnUse" x1="85.0732" y1="-26.7153" x2="85.0732" y2="132.134">
		<stop  offset="0" style="stop-color:#F7CF20"/>
		<stop  offset="1" style="stop-color:#EB7424"/>
	</linearGradient>
	<path fill="url(#SVGID_1_)" d="M169.601,58.374C157.912,24.202,125.544-0.382,87.41-0.382c-47.973,0-86.864,38.893-86.864,86.866
		c0,41.082,28.53,75.479,66.851,84.518c13.12-31.323,44.061-53.336,80.15-53.336c3.399,0,6.744,0.215,10.043,0.595
		c-0.738-4.546-1.135-9.205-1.135-13.96C156.455,87.433,161.279,71.704,169.601,58.374z"/>
	<linearGradient id="SVGID_2_" gradientUnits="userSpaceOnUse" x1="256.7646" y1="-57.6675" x2="249.3327" y2="299.0472">
		<stop  offset="0" style="stop-color:#F7CF20"/>
		<stop  offset="1" style="stop-color:#EB7424"/>
	</linearGradient>
	<path fill="url(#SVGID_2_)" d="M253.342,19.633c-31.104,0-58.376,16.364-73.721,40.937c-8.318,13.33-13.141,29.062-13.141,45.93
		c0,4.753,0.395,9.412,1.13,13.96c3.39,0.389,6.717,0.978,9.976,1.747c33.887,7.997,60.105,35.819,65.72,70.564
		c3.291,0.377,6.642,0.593,10.036,0.593c47.975,0,86.866-38.889,86.866-86.863C340.208,58.524,301.316,19.633,253.342,19.633z"/>
	<linearGradient id="SVGID_3_" gradientUnits="userSpaceOnUse" x1="150.8887" y1="136.7788" x2="150.8887" y2="387.7609">
		<stop  offset="0" style="stop-color:#F7CF20"/>
		<stop  offset="1" style="stop-color:#EB7424"/>
	</linearGradient>
	<path fill="url(#SVGID_3_)" d="M236.621,202.791c-5.613-34.744-31.833-62.566-65.718-70.564c-3.257-0.768-6.585-1.356-9.974-1.747
		c-3.297-0.379-6.644-0.595-10.041-0.595c-36.09,0-67.031,22.013-80.15,53.34c-4.323,10.316-6.712,21.641-6.712,33.527
		c0,47.973,38.888,86.863,86.863,86.863s86.863-38.891,86.863-86.863C237.752,211.997,237.358,207.339,236.621,202.791z"/>
	<path fill="#FFFFFF" d="M272.468,133.519c-3.531,4.267-7.961,6.813-12.771,6.813c-10.844,0-16.89-7.549-19.422-18.479h25.754
		v-8.975H239c-0.107-1.637-0.162-3.312-0.162-5.016c0-1.432,0.044-2.84,0.119-4.226h32.086v-8.972h-30.94
		c2.421-11.355,8.489-19.271,19.594-19.271c4.205,0,8.118,1.945,11.396,5.28l10.003-10.003
		c-6.539-6.622-14.855-10.589-23.911-10.589c-17.38,0-32.041,14.609-36.637,34.583h-9.69v8.972h8.347
		c-0.104,1.436-0.163,2.889-0.163,4.355c0,1.649,0.065,3.28,0.194,4.886h-8.378v8.975h9.811
		c4.732,19.705,19.287,34.056,36.517,34.056c9.78,0,18.693-4.626,25.445-12.225L272.468,133.519z"/>
	<g>
		<path fill="#FFFFFF" d="M83.935,80.067h18.585v14.656H86.083c-0.206,3.476-0.839,6.602-1.901,9.382
			c-0.861,2.13-2.293,4.336-4.295,6.625c2.289-0.53,4.251-0.796,5.887-0.796c2.086,0,4.805,0.408,8.157,1.224
			c4.581,1.067,8.241,1.598,10.979,1.598c2.249,0,4.2-0.195,5.858-0.585c1.655-0.389,3.833-1.194,6.531-2.419l8.341,18.276
			c-4.048,2.043-7.607,3.455-10.672,4.23c-3.065,0.779-6.357,1.168-9.873,1.168c-3.845,0-8.243-0.678-13.187-2.025
			c-6.502-1.8-10.53-2.842-12.085-3.129c-1.553-0.283-3.228-0.43-5.024-0.43c-5.278,0-11.104,1.863-17.481,5.584l-7.912-17.418
			c8.583-6.173,12.877-12.351,12.877-18.523c0-0.328-0.041-1.245-0.121-2.761H49.407V80.067h9.139
			c-1.557-5.399-2.435-8.526-2.641-9.386c-0.245-1.309-0.369-2.922-0.369-4.844c0-5.109,1.36-9.701,4.08-13.769
			c2.719-4.07,6.296-7.021,10.733-8.861c4.437-1.839,10.416-2.762,17.94-2.762c7.031,0,12.604,0.787,16.713,2.362
			c4.107,1.576,7.584,4.191,10.427,7.848c2.84,3.662,4.793,8.088,5.855,13.28l-23.427,3.683c-1.188-4.377-2.547-7.279-4.079-8.712
			c-1.534-1.433-3.283-2.146-5.246-2.146c-2.371,0-4.293,0.777-5.764,2.333c-1.473,1.55-2.207,3.761-2.207,6.621
			c0,1.515,0.143,2.976,0.427,4.386C81.277,71.511,82.258,74.829,83.935,80.067z"/>
	</g>
	<path fill="#FFFFFF" d="M181.801,224.019c-1.615-2.244-3.894-4.38-6.824-6.422c-2.936-2.039-6.728-3.802-11.38-5.3
		c-3.337-1.081-6.273-2.058-8.797-2.925c-2.528-0.879-4.68-1.768-6.448-2.682c-1.773-0.916-3.088-1.958-3.944-3.122
		c-0.783-1.051-1.19-2.29-1.261-3.7c-0.008-0.137-0.029-0.273-0.029-0.422c0-1.822,0.707-3.441,2.122-4.857
		c1.416-1.407,3.439-2.12,6.071-2.12c1.917,0,3.412,0.313,4.473,0.938c1.062,0.621,1.872,1.372,2.425,2.243
		c0.56,0.873,0.939,1.748,1.141,2.618c0.203,0.868,0.303,1.558,0.303,2.059h23.516c0.103-3.243-0.377-6.194-1.438-8.854
		c-1.062-2.662-2.556-4.987-4.476-6.987c-1.922-1.99-4.175-3.65-6.754-4.986c-2.577-1.331-5.385-2.284-8.419-2.864V164.04h-20.48
		v12.595c-2.935,0.669-5.843,1.615-8.726,2.864c-2.883,1.248-5.463,2.889-7.737,4.928c-2.276,2.039-4.151,4.486-5.614,7.354
		c-0.725,1.421-1.268,2.96-1.637,4.615c-0.371,1.689-0.559,3.499-0.559,5.431c0,4.32,0.906,7.914,2.73,10.788
		c1.817,2.859,4.117,5.257,6.9,7.16c2.781,1.919,5.867,3.475,9.253,4.674c3.39,1.216,6.65,2.274,9.786,3.187
		c5.562,1.742,9.277,3.513,11.154,5.301c1.87,1.786,2.806,3.731,2.806,5.796c0,2.415-0.963,4.245-2.884,5.497
		c-1.92,1.241-3.846,1.864-5.763,1.864c-2.024,0-3.617-0.404-4.783-1.184c-1.163-0.783-2.047-1.685-2.658-2.681
		c-0.602-1-1.009-1.979-1.208-2.932c-0.205-0.955-0.304-1.639-0.304-2.056h-25.946v1.371c0,2.574,0.633,5.217,1.901,7.919
		c1.259,2.706,2.854,5.045,4.773,7.042c1.521,1.583,3.112,2.868,4.783,3.87c1.668,0.994,3.336,1.804,5.005,2.426
		c1.669,0.623,3.234,1.081,4.702,1.375c1.465,0.292,2.809,0.557,4.023,0.813v12.593h20.48v-13.09
		c5.863-1.58,10.417-3.706,13.658-6.364c3.229-2.654,5.611-5.299,7.126-7.918c1.517-2.62,2.402-4.984,2.654-7.104
		c0.252-2.123,0.38-3.432,0.38-3.929c0-1.587-0.279-3.45-0.836-5.618C184.509,228.464,183.42,226.264,181.801,224.019z"/>
</g>
<defs>
	<filter id="Adobe_OpacityMaskFilter" filterUnits="userSpaceOnUse" x="0.546" y="324.618" width="339.662" height="189.997">
		<feFlood  style="flood-color:white;flood-opacity:1" result="back"/>
		<feBlend  in="SourceGraphic" in2="back" mode="normal"/>
	</filter>
</defs>
<mask maskUnits="userSpaceOnUse" x="0.546" y="324.618" width="339.662" height="189.997" id="SVGID_4_">
	<g filter="url(#Adobe_OpacityMaskFilter)">
		<linearGradient id="SVGID_5_" gradientUnits="userSpaceOnUse" x1="183" y1="360" x2="183" y2="131.5706">
			<stop  offset="0" style="stop-color:#000000"/>
			<stop  offset="0.2379" style="stop-color:#5D5E60"/>
			<stop  offset="0.7816" style="stop-color:#CBCDCF"/>
			<stop  offset="1" style="stop-color:#FFFFFF"/>
		</linearGradient>
		<rect x="-113" y="321.731" fill="url(#SVGID_5_)" width="592" height="231.249"/>
	</g>
</mask>
<g mask="url(#SVGID_4_)">
	
		<linearGradient id="SVGID_6_" gradientUnits="userSpaceOnUse" x1="85.0728" y1="-49.8398" x2="85.0727" y2="49.4404" gradientTransform="matrix(1 0 0 -1 0 481.2334)">
		<stop  offset="0" style="stop-color:#F7CF20"/>
		<stop  offset="1" style="stop-color:#EB7424"/>
	</linearGradient>
	<path fill="url(#SVGID_6_)" d="M169.601,477.893c-11.688,21.357-44.057,36.723-82.191,36.723
		c-47.973,0-86.864-24.308-86.864-54.291c0-25.676,28.53-47.173,66.851-52.823c13.12,19.577,44.061,33.335,80.15,33.335
		c3.399,0,6.744-0.135,10.043-0.372c-0.738,2.841-1.135,5.753-1.135,8.725C156.455,459.731,161.279,469.562,169.601,477.893z"/>
	
		<linearGradient id="SVGID_7_" gradientUnits="userSpaceOnUse" x1="255.4814" y1="-69.2207" x2="250.8349" y2="153.8007" gradientTransform="matrix(1 0 0 -1 0 481.2334)">
		<stop  offset="0" style="stop-color:#F7CF20"/>
		<stop  offset="1" style="stop-color:#EB7424"/>
	</linearGradient>
	<path fill="url(#SVGID_7_)" d="M253.342,502.106c-31.104,0-58.376-10.228-73.721-25.585c-8.318-8.332-13.141-18.164-13.141-28.706
		c0-2.971,0.395-5.883,1.13-8.726c3.39-0.242,6.717-0.61,9.976-1.092c33.887-4.997,60.105-22.387,65.72-44.102
		c3.291-0.235,6.642-0.371,10.036-0.371c47.975,0,86.866,24.306,86.866,54.29C340.208,477.799,301.316,502.106,253.342,502.106z"/>
	
		<linearGradient id="SVGID_8_" gradientUnits="userSpaceOnUse" x1="150.8892" y1="52.3433" x2="150.8892" y2="209.2059" gradientTransform="matrix(1 0 0 -1 0 481.2334)">
		<stop  offset="0" style="stop-color:#F7CF20"/>
		<stop  offset="1" style="stop-color:#EB7424"/>
	</linearGradient>
	<path fill="url(#SVGID_8_)" d="M236.621,387.633c-5.613,21.715-31.833,39.104-65.718,44.103c-3.257,0.479-6.585,0.848-9.974,1.092
		c-3.297,0.237-6.644,0.372-10.041,0.372c-36.09,0-67.031-13.758-80.15-33.338c-4.323-6.447-6.712-13.524-6.712-20.954
		c0-29.982,38.888-54.289,86.863-54.289s86.863,24.307,86.863,54.289C237.752,381.879,237.358,384.791,236.621,387.633z"/>
	<path fill="#FFFFFF" d="M272.468,430.928c-3.531-2.667-7.961-4.258-12.771-4.258c-10.844,0-16.89,4.719-19.422,11.549h25.754v5.609
		H239c-0.107,1.023-0.162,2.07-0.162,3.135c0,0.895,0.044,1.775,0.119,2.641h32.086v5.607h-30.94
		c2.421,7.098,8.489,12.045,19.594,12.045c4.205,0,8.118-1.216,11.396-3.3l10.003,6.251c-6.539,4.14-14.855,6.619-23.911,6.619
		c-17.38,0-32.041-9.131-36.637-21.615h-9.69v-5.607h8.347c-0.104-0.896-0.163-1.805-0.163-2.722c0-1.03,0.065-2.05,0.194-3.054
		h-8.378v-5.609h9.811c4.732-12.315,19.287-21.285,36.517-21.285c9.78,0,18.693,2.893,25.445,7.641L272.468,430.928z"/>
	<g>
		<path fill="#FFFFFF" d="M80.99,470.565c-0.284,0.881-0.427,1.794-0.427,2.74c0,1.788,0.734,3.17,2.207,4.138
			c1.471,0.974,3.394,1.459,5.764,1.459c1.963,0,3.711-0.446,5.246-1.342c1.531-0.896,2.891-2.709,4.079-5.445l23.427,2.303
			c-1.062,3.244-3.015,6.011-5.855,8.299c-2.843,2.286-6.32,3.92-10.427,4.905c-4.109,0.985-9.682,1.477-16.713,1.477
			c-7.525,0-13.503-0.577-17.94-1.727s-8.015-2.994-10.733-5.537c-2.72-2.543-4.08-5.413-4.08-8.606
			c0-1.201,0.125-2.209,0.369-3.027c0.206-0.537,1.084-2.492,2.641-5.866h-9.139v-9.16h12.756c0.081-0.947,0.121-1.521,0.121-1.727
			c0-3.857-4.295-7.718-12.877-11.576l7.912-10.887c6.377,2.327,12.203,3.49,17.481,3.49c1.797,0,3.471-0.091,5.024-0.269
			c1.555-0.179,5.583-0.83,12.085-1.956c4.944-0.842,9.341-1.266,13.187-1.266c3.515,0,6.808,0.243,9.873,0.729
			c3.065,0.485,6.624,1.367,10.672,2.645l-8.341,11.423c-2.698-0.767-4.876-1.269-6.531-1.512c-1.658-0.244-3.609-0.366-5.858-0.366
			c-2.739,0-6.399,0.332-10.979,0.998c-3.352,0.511-6.071,0.766-8.157,0.766c-1.635,0-3.598-0.166-5.887-0.498
			c2.002,1.432,3.434,2.81,4.295,4.141c1.062,1.738,1.695,3.691,1.901,5.864h16.438v9.16H83.935
			C82.258,467.608,81.277,469.683,80.99,470.565z"/>
	</g>
	<path fill="#FFFFFF" d="M181.801,374.365c-1.615,1.403-3.894,2.738-6.824,4.014c-2.936,1.275-6.728,2.377-11.38,3.313
		c-3.337,0.676-6.273,1.286-8.797,1.828c-2.528,0.55-4.68,1.105-6.448,1.676c-1.773,0.573-3.088,1.225-3.944,1.952
		c-0.783,0.656-1.19,1.431-1.261,2.313c-0.008,0.085-0.029,0.171-0.029,0.264c0,1.139,0.707,2.15,2.122,3.036
		c1.416,0.879,3.439,1.324,6.071,1.324c1.917,0,3.412-0.195,4.473-0.586c1.062-0.389,1.872-0.857,2.425-1.402
		c0.56-0.546,0.939-1.093,1.141-1.637c0.203-0.542,0.303-0.973,0.303-1.286h23.516c0.103,2.027-0.377,3.871-1.438,5.534
		c-1.062,1.664-2.556,3.117-4.476,4.367c-1.922,1.244-4.175,2.281-6.754,3.116c-2.577,0.832-5.385,1.428-8.419,1.79v7.872h-20.48
		v-7.872c-2.935-0.418-5.843-1.01-8.726-1.79c-2.883-0.78-5.463-1.806-7.737-3.08c-2.276-1.274-4.151-2.804-5.614-4.596
		c-0.725-0.888-1.268-1.85-1.637-2.885c-0.371-1.056-0.559-2.187-0.559-3.394c0-2.7,0.906-4.946,2.73-6.743
		c1.817-1.787,4.117-3.285,6.9-4.475c2.781-1.199,5.867-2.172,9.253-2.921c3.39-0.76,6.65-1.422,9.786-1.992
		c5.562-1.089,9.277-2.195,11.154-3.313c1.87-1.116,2.806-2.332,2.806-3.623c0-1.509-0.963-2.652-2.884-3.436
		c-1.92-0.775-3.846-1.165-5.763-1.165c-2.024,0-3.617,0.253-4.783,0.74c-1.163,0.489-2.047,1.053-2.658,1.675
		c-0.602,0.625-1.009,1.236-1.208,1.832c-0.205,0.598-0.304,1.024-0.304,1.285h-25.946v-0.856c0-1.609,0.633-3.261,1.901-4.95
		c1.259-1.69,2.854-3.152,4.773-4.4c1.521-0.99,3.112-1.793,4.783-2.419c1.668-0.622,3.336-1.128,5.005-1.517
		c1.669-0.389,3.234-0.676,4.702-0.859c1.465-0.182,2.809-0.348,4.023-0.508v-7.87h20.48v8.181
		c5.863,0.988,10.417,2.316,13.658,3.979c3.229,1.658,5.611,3.312,7.126,4.948c1.517,1.638,2.402,3.115,2.654,4.44
		c0.252,1.327,0.38,2.145,0.38,2.455c0,0.992-0.279,2.156-0.836,3.512C184.509,371.588,183.42,372.963,181.801,374.365z"/>
</g>
</svg>
