<?xml version="1.0" encoding="utf-8"?>
<!-- Generator: Adobe Illustrator 16.0.0, SVG Export Plug-In . SVG Version: 6.00 Build 0)  -->
<!DOCTYPE svg PUBLIC "-//W3C//DTD SVG 1.1//EN" "http://www.w3.org/Graphics/SVG/1.1/DTD/svg11.dtd">
<svg version="1.1" id="Layer_1" xmlns="http://www.w3.org/2000/svg" xmlns:xlink="http://www.w3.org/1999/xlink" x="0px" y="0px"
	 width="271.283px" height="433.427px" viewBox="0 0 271.283 433.427" enable-background="new 0 0 271.283 433.427"
	 xml:space="preserve">
<g>
	<g>
		<path fill="none" d="M133.973,149.912c-13.283-0.066-29.558-3.697-35.564-14.769c-6.923-12.753-3.1-27.878,6.459-38.797
			l14.176,26.119c0,0,1.227,1.457,3.166,1.536l23.873-12.955c0.799-1.348,0.599-2.78,0.486-3.287l-14.104-25.984
			c14.495-1.705,29.529,3.707,36.379,16.326c6.138,11.309,0.306,27.121-6.828,37.864c0.419,0.599,0.817,1.217,1.176,1.877
			l20.746,38.229c1.232-1.015,2.444-2.061,3.617-3.17c0.404-0.383,0.782-0.782,1.175-1.173c0.14-0.143,0.285-0.28,0.424-0.424
			c0.647-0.656,1.276-1.325,1.893-2.002c0.105-0.116,0.211-0.234,0.316-0.352c0.533-0.595,1.055-1.197,1.564-1.809
			c0.257-0.311,0.506-0.627,0.758-0.941c0.369-0.462,0.74-0.923,1.096-1.394c0.627-0.833,1.238-1.677,1.82-2.538
			c7.7-11.387,11.552-25.231,11.552-41.531c0-21.991-6.949-39.491-20.85-52.5c-13.898-13.002-31.623-19.507-53.169-19.507
			c-22.216,0-40.105,6.615-53.669,19.843c-3.878,3.782-7.183,7.916-9.95,12.379c-6.918,11.145-10.396,24.399-10.396,39.785
			c0,21.437,6.781,38.741,20.346,51.911c13.563,13.174,31.453,19.763,53.669,19.763c7.591,0,14.68-0.802,21.288-2.366
			l-20.116-37.067C134.763,151.977,134.326,150.948,133.973,149.912z"/>
		<path fill="#F2F2F2" d="M196.601,162.27c-0.582,0.861-1.193,1.705-1.82,2.538C195.409,163.976,196.019,163.131,196.601,162.27z"/>
		<path fill="#F2F2F2" d="M193.685,166.201c-0.252,0.314-0.501,0.631-0.758,0.941C193.185,166.833,193.433,166.516,193.685,166.201z
			"/>
		<path fill="#F2F2F2" d="M191.362,168.951c-0.105,0.117-0.211,0.235-0.316,0.352C191.151,169.187,191.257,169.068,191.362,168.951z
			"/>
		<path fill="#726658" d="M187.555,172.901c-1.173,1.109-2.385,2.155-3.617,3.17l-20.746-38.229
			c-0.358-0.66-0.757-1.278-1.176-1.877c7.134-10.743,12.966-26.556,6.828-37.864c-6.85-12.619-21.884-18.031-36.379-16.326
			l14.104,25.984c0.112,0.507,0.313,1.939-0.486,3.287l-23.873,12.955c-1.939-0.079-3.166-1.536-3.166-1.536l-14.176-26.119
			c-9.559,10.919-13.382,26.044-6.459,38.797c6.007,11.071,22.281,14.702,35.564,14.769c0.354,1.036,0.79,2.064,1.333,3.066
			l20.116,37.067c13.168-2.688,24.601-9.466,33.308-18.317C188.337,172.119,187.959,172.519,187.555,172.901z"/>
		<path fill="#F2F2F2" d="M194.78,164.808c-0.355,0.471-0.727,0.932-1.096,1.394C194.053,165.738,194.427,165.279,194.78,164.808z"
			/>
		<path fill="#F2F2F2" d="M192.927,167.143c-0.51,0.611-1.031,1.214-1.564,1.809C191.895,168.355,192.419,167.755,192.927,167.143z"
			/>
		<path fill="#F2F2F2" d="M188.729,171.729c0.797-0.793,1.568-1.602,2.316-2.426c-0.616,0.677-1.245,1.346-1.893,2.002
			C189.015,171.448,188.869,171.586,188.729,171.729z"/>
		<path fill="#969696" d="M267.6,247.171c-6.589,2.232-14.18,3.348-22.774,3.348c-15.67,0-30.89-2.947-45.661-8.811
			c-6.066-2.406-12.06-5.294-17.973-8.689c25.393-7.963,45.796-21.706,61.229-41.198c0.783-0.988,1.564-1.977,2.321-2.995
			c15.685-21.09,23.528-44.247,23.528-69.469c0-31.138-12.336-58.813-37.008-83.032C206.588,12.111,174.434,0,134.805,0
			C95.729,0,63.492,12.142,38.098,36.422c-5.021,4.8-9.526,9.765-13.555,14.883C8.193,72.07,0,95.433,0,121.407
			c0,13.398,2.345,26.404,7.032,39.021c4.242,11.499,10.327,22.216,18.255,32.149c7.368,9.378,15.908,17.529,25.621,24.451
			c9.377,6.696,19.146,11.89,29.306,15.574c12.279,4.46,22.884,9.653,31.816,15.57c12.058,7.926,24.225,14.848,36.506,20.767
			c6.407,3.037,12.772,5.772,19.101,8.209c6.457,2.489,12.873,4.666,19.248,6.528c13.396,3.906,26.346,6.307,38.85,7.2
			l45.549-38.853L267.6,247.171z M155.422,190.046c-6.608,1.564-13.697,2.366-21.288,2.366c-22.216,0-40.105-6.589-53.669-19.763
			c-13.564-13.17-20.346-30.475-20.346-51.911c0-15.386,3.478-28.641,10.396-39.785c2.768-4.463,6.072-8.597,9.95-12.379
			c13.563-13.228,31.453-19.843,53.669-19.843c21.546,0,39.271,6.505,53.169,19.507c13.9,13.009,20.85,30.509,20.85,52.5
			c0,16.3-3.852,30.145-11.552,41.531c-0.582,0.861-1.191,1.706-1.82,2.538c-0.354,0.472-0.728,0.931-1.096,1.394
			c-0.252,0.314-0.5,0.632-0.758,0.941c-0.508,0.612-1.032,1.213-1.564,1.809c-0.105,0.117-0.211,0.235-0.316,0.352
			c-0.748,0.824-1.52,1.633-2.316,2.426C180.022,180.58,168.59,187.358,155.422,190.046z"/>
	</g>
	<defs>
		<filter id="Adobe_OpacityMaskFilter" filterUnits="userSpaceOnUse" x="0" y="306.031" width="271.283" height="127.396">
			<feFlood  style="flood-color:white;flood-opacity:1" result="back"/>
			<feBlend  in="SourceGraphic" in2="back" mode="normal"/>
		</filter>
	</defs>
	<mask maskUnits="userSpaceOnUse" x="0" y="306.031" width="271.283" height="127.396" id="SVGID_1_">
		<g filter="url(#Adobe_OpacityMaskFilter)">
			<linearGradient id="SVGID_2_" gradientUnits="userSpaceOnUse" x1="136.9619" y1="225.3989" x2="136.9619" y2="342.5644">
				<stop  offset="0" style="stop-color:#FFFFFF"/>
				<stop  offset="1" style="stop-color:#000000"/>
			</linearGradient>
			<rect x="-59.557" y="297.406" fill="url(#SVGID_2_)" width="393.039" height="153.015"/>
		</g>
	</mask>
	<g mask="url(#SVGID_1_)">
		<path fill="none" d="M133.973,367.77c-13.283,0.029-29.558,1.619-35.564,6.469c-6.923,5.585-3.1,12.21,6.459,16.991l14.176-11.439
			c0,0,1.227-0.638,3.166-0.673l23.873,5.675c0.799,0.59,0.599,1.217,0.486,1.439l-14.104,11.38
			c14.495,0.747,29.529-1.624,36.379-7.149c6.138-4.954,0.306-11.879-6.828-16.584c0.419-0.263,0.817-0.533,1.176-0.822
			l20.746-16.743c1.232,0.444,2.444,0.903,3.617,1.389c0.404,0.167,0.782,0.342,1.175,0.514c0.14,0.063,0.285,0.122,0.424,0.186
			c0.647,0.288,1.276,0.58,1.893,0.877c0.105,0.05,0.211,0.103,0.316,0.153c0.533,0.262,1.055,0.524,1.564,0.793
			c0.257,0.136,0.506,0.273,0.758,0.412c0.369,0.202,0.74,0.404,1.096,0.61c0.627,0.364,1.238,0.734,1.82,1.111
			c7.7,4.987,11.552,11.051,11.552,18.19c0,9.631-6.949,17.295-20.85,22.992c-13.898,5.695-31.623,8.543-53.169,8.543
			c-22.216,0-40.105-2.896-53.669-8.689c-3.878-1.656-7.183-3.467-9.95-5.422c-6.918-4.881-10.396-10.687-10.396-17.424
			c0-9.389,6.781-16.969,20.346-22.736c13.563-5.77,31.453-8.655,53.669-8.655c7.591,0,14.68,0.351,21.288,1.036l-20.116,16.234
			C134.763,366.865,134.326,367.315,133.973,367.77z"/>
		<path fill="#F2F2F2" d="M196.601,362.357c-0.582-0.377-1.193-0.747-1.82-1.111C195.409,361.61,196.019,361.98,196.601,362.357z"/>
		<path fill="#F2F2F2" d="M193.685,360.636c-0.252-0.139-0.501-0.276-0.758-0.412C193.185,360.358,193.433,360.497,193.685,360.636z
			"/>
		<path fill="#F2F2F2" d="M191.362,359.431c-0.105-0.051-0.211-0.104-0.316-0.153C191.151,359.327,191.257,359.38,191.362,359.431z"
			/>
		<path fill="#726658" d="M187.555,357.701c-1.173-0.485-2.385-0.944-3.617-1.389l-20.746,16.743
			c-0.358,0.289-0.757,0.56-1.176,0.822c7.134,4.705,12.966,11.63,6.828,16.584c-6.85,5.525-21.884,7.896-36.379,7.149l14.104-11.38
			c0.112-0.223,0.313-0.85-0.486-1.439l-23.873-5.675c-1.939,0.035-3.166,0.673-3.166,0.673l-14.176,11.439
			c-9.559-4.781-13.382-11.406-6.459-16.991c6.007-4.85,22.281-6.439,35.564-6.469c0.354-0.454,0.79-0.904,1.333-1.343
			l20.116-16.234c13.168,1.177,24.601,4.146,33.308,8.022C188.337,358.043,187.959,357.868,187.555,357.701z"/>
		<path fill="#F2F2F2" d="M194.78,361.246c-0.355-0.206-0.727-0.408-1.096-0.61C194.053,360.838,194.427,361.04,194.78,361.246z"/>
		<path fill="#F2F2F2" d="M192.927,360.224c-0.51-0.269-1.031-0.531-1.564-0.793C191.895,359.692,192.419,359.955,192.927,360.224z"
			/>
		<path fill="#F2F2F2" d="M188.729,358.215c0.797,0.347,1.568,0.701,2.316,1.063c-0.616-0.297-1.245-0.589-1.893-0.877
			C189.015,358.337,188.869,358.277,188.729,358.215z"/>
		<path fill="#969696" d="M271.283,323.047l-45.549-17.016c-12.504,0.392-25.453,1.443-38.85,3.153
			c-6.375,0.815-12.791,1.77-19.248,2.859c-6.328,1.067-12.693,2.265-19.101,3.596c-12.281,2.592-24.448,5.624-36.506,9.095
			c-8.933,2.591-19.537,4.866-31.816,6.819c-10.16,1.614-19.929,3.889-29.306,6.82c-9.713,3.032-18.253,6.603-25.621,10.71
			c-7.928,4.351-14.013,9.044-18.255,14.08C2.345,368.689,0,374.386,0,380.254c0,11.376,8.193,21.608,24.543,30.703
			c4.028,2.242,8.533,4.416,13.555,6.519c25.395,10.634,57.631,15.951,96.707,15.951c39.629,0,71.783-5.305,96.457-15.908
			c24.672-10.608,37.008-22.729,37.008-36.366c0-11.047-7.844-21.188-23.528-30.426c-0.757-0.445-1.538-0.879-2.321-1.312
			c-15.433-8.537-35.836-14.556-61.229-18.043c5.913-1.488,11.906-2.753,17.973-3.807c14.771-2.567,29.991-3.858,45.661-3.858
			c8.595,0,16.186,0.488,22.774,1.466L271.283,323.047z M188.729,358.215c0.797,0.347,1.568,0.701,2.316,1.063
			c0.105,0.05,0.211,0.103,0.316,0.153c0.532,0.262,1.057,0.524,1.564,0.793c0.258,0.135,0.506,0.273,0.758,0.412
			c0.368,0.202,0.742,0.404,1.096,0.61c0.629,0.364,1.238,0.734,1.82,1.111c7.7,4.987,11.552,11.051,11.552,18.19
			c0,9.631-6.949,17.295-20.85,22.992c-13.898,5.695-31.623,8.543-53.169,8.543c-22.216,0-40.105-2.896-53.669-8.689
			c-3.878-1.656-7.183-3.467-9.95-5.422c-6.918-4.881-10.396-10.687-10.396-17.424c0-9.389,6.781-16.969,20.346-22.736
			c13.563-5.77,31.453-8.655,53.669-8.655c7.591,0,14.68,0.351,21.288,1.036C168.59,351.369,180.022,354.338,188.729,358.215z"/>
	</g>
</g>
</svg>
