<?xml version="1.0" encoding="utf-8"?>
<!-- Generator: Adobe Illustrator 22.1.0, SVG Export Plug-In . SVG Version: 6.00 Build 0)  -->
<svg version="1.1" id="圖層_1" xmlns="http://www.w3.org/2000/svg" xmlns:xlink="http://www.w3.org/1999/xlink" x="0px" y="0px"
	 viewBox="0 0 228.8 267.3" style="enable-background:new 0 0 228.8 267.3;" xml:space="preserve">
<style type="text/css">
	.st0{fill:#FFFFFF;}
</style>
<path class="st0" d="M228.4,44c-24.3,0-44-19.7-44-44H44.6c0,24.3-19.7,44-44,44c-0.2,0-0.4,0-0.5,0v103.7c0,0,3.1,54.6,67.1,94.1
	c13.8,8.5,47.3,25.5,47.3,25.5s33.5-17,47.3-25.5c64-39.5,67.1-94.1,67.1-94.1V44C228.7,44,228.5,44,228.4,44z M195.6,79.3
	l-82.4,82.4l-51.5-51.5l17.8-17.8l34.1,34.1l64.6-64.6L195.6,79.3z M203.1,122.4c0,1.3-0.1,2.6-0.2,4c-1.8,41-31.6,74.9-70.7,83
	c-5.8,1.2-11.7,1.8-17.9,1.8c-6.1,0-12.1-0.6-17.9-1.8c-40.4-8.3-70.9-44.1-70.9-86.9c0,0,0,0,0,0c0,0,0,0,0,0
	c0-2.9,0.2-5.8,0.4-8.6c0.1-0.8,0.2-1.6,0.3-2.4c0.3-2,0.5-4,0.9-6c0.2-0.9,0.4-1.8,0.6-2.7c0.4-1.8,0.9-3.7,1.4-5.5
	c0.3-0.9,0.6-1.8,0.9-2.7c0.4-1.1,0.6-2.1,1-3.2l0.1,0c12.7-33.6,45-57.6,83-57.6c0,0,0,0,0,0c2.9,0,5.8,0.2,8.6,0.4
	c0.8,0.1,1.6,0.2,2.4,0.3c2,0.3,4,0.5,6,0.9c0.9,0.2,1.8,0.4,2.8,0.6c1.8,0.4,3.7,0.9,5.5,1.4c0.9,0.3,1.9,0.6,2.8,0.9
	c1,0.3,2.1,0.6,3.1,1l0,0.1c2.8,1,5.4,2.3,8,3.6l-5,11.4c-3.3-1.7-6.7-3.1-10.2-4.3c-0.7-0.2-1.5-0.5-2.2-0.7
	c-1.6-0.5-3.2-0.9-4.8-1.3c-0.8-0.2-1.5-0.4-2.3-0.5c-1.7-0.3-3.5-0.6-5.3-0.8c-0.7-0.1-1.4-0.2-2-0.3c-2.4-0.2-4.9-0.4-7.4-0.4
	c-33.7,0-62.2,21.9-72.3,52.2c-0.2,0.7-0.5,1.5-0.7,2.2c-0.5,1.6-0.9,3.2-1.3,4.9c-0.2,0.7-0.4,1.5-0.5,2.2
	c-0.3,1.7-0.6,3.5-0.8,5.3c-0.1,0.7-0.2,1.3-0.3,2c-0.2,2.4-0.4,4.9-0.4,7.4c0,39.4,30.1,72,68.5,75.9c2.6,0.3,5.2,0.4,7.8,0.4
	s5.2-0.1,7.8-0.4c32.1-3.3,58.4-26.6,66.1-57.2c1.5-6,2.4-12.2,2.4-18.7c0-3.9-0.3-7.7-0.9-11.4l12.4-1.5
	C202.8,113.7,203.1,118,203.1,122.4L203.1,122.4z"/>
</svg>
