<?xml version="1.0" encoding="utf-8"?>
<!-- Generator: Adobe Illustrator 16.0.0, SVG Export Plug-In . SVG Version: 6.00 Build 0)  -->
<!DOCTYPE svg PUBLIC "-//W3C//DTD SVG 1.1//EN" "http://www.w3.org/Graphics/SVG/1.1/DTD/svg11.dtd">
<svg version="1.1" id="Layer_1" xmlns="http://www.w3.org/2000/svg" xmlns:xlink="http://www.w3.org/1999/xlink" x="0px" y="0px"
	 width="410.909px" height="354.442px" viewBox="0 0 410.909 354.442" enable-background="new 0 0 410.909 354.442"
	 xml:space="preserve">
<g>
	<g>
		<linearGradient id="SVGID_1_" gradientUnits="userSpaceOnUse" x1="178.4326" y1="23.6084" x2="72.4326" y2="295.6084">
			<stop  offset="0" style="stop-color:#2072B9"/>
			<stop  offset="1" style="stop-color:#008DCF"/>
		</linearGradient>
		<path fill="url(#SVGID_1_)" d="M171.119,84.754c23.402,0,42.375-18.972,42.375-42.378C213.495,18.966,194.521,0,171.119,0
			c-23.406,0-42.375,18.966-42.375,42.375C128.745,65.782,147.713,84.754,171.119,84.754z"/>
		<linearGradient id="SVGID_2_" gradientUnits="userSpaceOnUse" x1="364.1377" y1="95.979" x2="258.1383" y2="367.9774">
			<stop  offset="0" style="stop-color:#2072B9"/>
			<stop  offset="1" style="stop-color:#008DCF"/>
		</linearGradient>
		<path fill="url(#SVGID_2_)" d="M320.398,250.587c23.406,0,42.379-18.971,42.379-42.372c0-23.41-18.973-42.383-42.379-42.383
			c-23.402,0-42.375,18.973-42.375,42.383C278.023,231.616,296.996,250.587,320.398,250.587z"/>
		<linearGradient id="SVGID_3_" gradientUnits="userSpaceOnUse" x1="279.4287" y1="62.9668" x2="173.4284" y2="334.9676">
			<stop  offset="0" style="stop-color:#2072B9"/>
			<stop  offset="1" style="stop-color:#008DCF"/>
		</linearGradient>
		<path fill="url(#SVGID_3_)" d="M410.012,257.146c-3.896-8.524-17.344-8.527-28.086-3.896l-62.67,22.325
			c-1.18,0.022-1.66,0.003-2.982-0.084l-36.797-23.217c-5.49-3.897-16.072-16.882-17.697-19.075
			c-1.205-1.631-4.966-5.754-5.004-5.802c-4.494-4.669-23.749-26.229-62.234-25.679c-1.809,0.069-3.615,0.138-5.433,0.224
			c-68.15,3.213-142.359,18.197-178.18,29.229c-2.046,0.629-3.155,1.02-4.941,1.621c-3.531,1.339-4.79,4.701-4.79,7.836v35.472
			c0,4.463,3.19,8.177,7.469,9.174h71.761h174.401c1.096,0.273,2.225,0.593,3.411,0.997l45.266,28.493
			c4.063,2.86,9.018,3.397,12.207,3.397c2.488,0,6.352-0.848,8.648-1.836l74.449-39.211
			C409.039,273.707,412.816,262.545,410.012,257.146z"/>
		<linearGradient id="SVGID_4_" gradientUnits="userSpaceOnUse" x1="184.3887" y1="25.9292" x2="78.3884" y2="297.93">
			<stop  offset="0" style="stop-color:#2072B9"/>
			<stop  offset="1" style="stop-color:#008DCF"/>
		</linearGradient>
		<path fill="url(#SVGID_4_)" d="M238.412,153.278c0,0-75.522-33.973-124.698-83.513C98.6,54.548,79.261,59.278,67.282,72.626
			c0,0-49.895,46.746-65.479,129.954c-0.597,3.188-1.147,6.426-1.639,9.721c-0.063,0.716-0.124,1.432-0.164,2.154
			c19.804-7.117,60.499-16.897,106.809-23.926c0.046-0.004,0.092-0.014,0.137-0.02c0.71-0.16,5.07-1.261,9.424-4.409
			c3.911-2.827,7.813-7.304,9.062-14.305l0.276-2.08l4.535-34.208c0,0,63.864,26.842,89.599,36.667
			c6.523,2.484,22.391,6.245,25.735,0.662C249.016,167.1,249.076,159.055,238.412,153.278z"/>
		<rect x="1.741" y="307.535" fill="#FBB040" width="254.261" height="16.442"/>
	</g>
	<defs>
		<filter id="Adobe_OpacityMaskFilter" filterUnits="userSpaceOnUse" x="1.741" y="338" width="254.261" height="16.442">
			<feFlood  style="flood-color:white;flood-opacity:1" result="back"/>
			<feBlend  in="SourceGraphic" in2="back" mode="normal"/>
		</filter>
	</defs>
	<mask maskUnits="userSpaceOnUse" x="1.741" y="338" width="254.261" height="16.442" id="SVGID_5_">
		<g filter="url(#Adobe_OpacityMaskFilter)">
			<linearGradient id="SVGID_6_" gradientUnits="userSpaceOnUse" x1="181.9604" y1="354.3066" x2="181.9604" y2="280.0638">
				<stop  offset="0" style="stop-color:#000000"/>
				<stop  offset="0.0892" style="stop-color:#272627"/>
				<stop  offset="0.2507" style="stop-color:#525254"/>
				<stop  offset="0.4661" style="stop-color:#7A7C7F"/>
				<stop  offset="0.7274" style="stop-color:#B0B2B5"/>
				<stop  offset="1" style="stop-color:#F2F3F3"/>
			</linearGradient>
			<rect x="-66.04" y="324.307" fill="url(#SVGID_6_)" width="496.001" height="56"/>
		</g>
	</mask>
	<rect x="1.741" y="338" mask="url(#SVGID_5_)" fill="#FBB040" width="254.261" height="16.442"/>
</g>
</svg>
